<svg width="1653" height="1032" viewBox="0 0 1653 1032" fill="none" xmlns="http://www.w3.org/2000/svg">
<rect width="1653" height="1031" transform="translate(0 1)" fill="white"/>
<rect x="1652" y="1" width="1031" height="337" transform="rotate(90 1652 1)" fill="#ECF0FF"/>
<line y1="0.5" x2="1653" y2="0.5" stroke="#B8B8B8"/>
<rect x="1339.5" y="25.5" width="291" height="407" rx="18.5" fill="white"/>
<rect x="1339.5" y="25.5" width="291" height="407" rx="18.5" stroke="#C9C9C9"/>
<path fill-rule="evenodd" clip-rule="evenodd" d="M1485.5 113.5C1486.76 115.728 1490.5 120 1493 111C1495.5 119.5 1499.24 115.728 1500.5 113.5L1498.6 120H1487.4L1485.5 113.5Z" fill="#FAE69B" stroke="#FAE69B" stroke-width="1.5" stroke-linecap="round" stroke-linejoin="round"/>
<path d="M1389.14 57.0469V59.4375H1381.8V61.1016H1388.51V63.3984H1381.8V65.1562C1385.57 65.1445 1387.95 65.0859 1390.64 64.6406L1390.95 66.9609C1387.91 67.4883 1385.19 67.5352 1380.63 67.5234H1378.8V57.0469H1389.14ZM1381.2 76.9219V69.375H1395.49V76.9219H1381.2ZM1384.15 74.5312H1392.56V71.6953H1384.15V74.5312ZM1392.49 68.5078V55.8516H1395.49V68.5078H1392.49ZM1416.45 55.8516V71.9531H1413.45V70.2656H1409.37V68.2266H1413.45V55.8516H1416.45ZM1398.3 65.2969C1402.21 65.2734 1407.48 65.2148 1411.99 64.6641L1412.16 66.7969C1410.47 67.0781 1408.72 67.2773 1407 67.4062V71.4609H1404V74.3906H1416.91V76.7812H1401.02V70.4062H1404V67.582C1402.09 67.6523 1400.27 67.6641 1398.66 67.6641L1398.3 65.2969ZM1399.88 60.3984C1399.88 58.125 1402.07 56.5664 1405.24 56.5781C1408.34 56.5664 1410.55 58.125 1410.56 60.3984C1410.55 62.6836 1408.34 64.1602 1405.24 64.1484C1402.07 64.1602 1399.88 62.6836 1399.88 60.3984ZM1402.71 60.3984C1402.7 61.4297 1403.72 62.0039 1405.24 61.9922C1406.67 62.0039 1407.7 61.4297 1407.73 60.3984C1407.7 59.3438 1406.67 58.7578 1405.24 58.7578C1403.72 58.7578 1402.7 59.3438 1402.71 60.3984Z" fill="black"/>
<rect x="1371" y="96" width="42" height="42" rx="21" fill="#E6E6E6"/>
<path fill-rule="evenodd" clip-rule="evenodd" d="M1395.72 120H1388.28C1386.1 120.109 1384.16 121.444 1383.28 123.45C1382.22 125.532 1384.34 127.5 1386.8 127.5H1397.2C1399.66 127.5 1401.78 125.532 1400.72 123.45C1399.84 121.444 1397.9 120.109 1395.72 120Z" fill="#8D8D8D" stroke="#8D8D8D" stroke-width="1.5" stroke-linecap="round" stroke-linejoin="round"/>
<path fill-rule="evenodd" clip-rule="evenodd" d="M1396.5 111C1396.5 113.485 1394.49 115.5 1392 115.5C1389.51 115.5 1387.5 113.485 1387.5 111C1387.5 108.515 1389.51 106.5 1392 106.5C1393.19 106.5 1394.34 106.974 1395.18 107.818C1396.03 108.662 1396.5 109.807 1396.5 111Z" fill="#8D8D8D" stroke="#8D8D8D" stroke-width="1.5" stroke-linecap="round" stroke-linejoin="round"/>
<path d="M1437.96 109.059C1437.96 113.746 1434.89 116.949 1429.58 118.316L1428.62 116.383C1432.63 115.357 1434.89 113.385 1435.29 110.992H1429.66V109.059H1437.96ZM1431.55 125.582V118.688H1443.41V125.582H1431.55ZM1434.04 123.629H1440.97V120.641H1434.04V123.629ZM1440.91 117.965V108.043H1443.41V117.965H1440.91ZM1461.32 108.023V125.797H1458.94V116.891H1457.43V124.977H1455.07V119.889L1453.66 121.754C1452.01 120.885 1450.95 119.41 1450.31 117.604C1449.73 119.684 1448.68 121.383 1446.98 122.398L1445.44 120.484C1448.15 118.961 1449.04 115.816 1449.05 112.418V111.852H1446.05V109.859H1454.19V111.852H1451.48V112.418C1451.48 115.514 1452.39 118.463 1455.07 119.85V108.277H1457.43V114.859H1458.94V108.023H1461.32ZM1478.59 110.27V112.262H1463.8V110.27H1469.95V108.199H1472.41V110.27H1478.59ZM1463.1 123.98V121.988H1469.95V119.947C1466.93 119.674 1465.09 118.434 1465.11 116.48C1465.09 114.322 1467.42 113.033 1471.18 113.043C1474.88 113.033 1477.25 114.322 1477.24 116.48C1477.25 118.434 1475.39 119.674 1472.41 119.938V121.988H1479.37V123.98H1463.1ZM1467.67 116.48C1467.66 117.535 1468.88 118.014 1471.18 118.004C1473.44 118.014 1474.68 117.535 1474.68 116.48C1474.68 115.465 1473.44 114.986 1471.18 114.977C1468.88 114.986 1467.66 115.465 1467.67 116.48Z" fill="black"/>
<rect x="1371" y="154" width="42" height="42" rx="21" fill="#E6E6E6"/>
<path fill-rule="evenodd" clip-rule="evenodd" d="M1395.72 178H1388.28C1386.1 178.109 1384.16 179.444 1383.28 181.45C1382.22 183.532 1384.34 185.5 1386.8 185.5H1397.2C1399.66 185.5 1401.78 183.532 1400.72 181.45C1399.84 179.444 1397.9 178.109 1395.72 178Z" fill="#8D8D8D" stroke="#8D8D8D" stroke-width="1.5" stroke-linecap="round" stroke-linejoin="round"/>
<path fill-rule="evenodd" clip-rule="evenodd" d="M1396.5 169C1396.5 171.485 1394.49 173.5 1392 173.5C1389.51 173.5 1387.5 171.485 1387.5 169C1387.5 166.515 1389.51 164.5 1392 164.5C1393.19 164.5 1394.34 164.974 1395.18 165.818C1396.03 166.662 1396.5 167.807 1396.5 169Z" fill="#8D8D8D" stroke="#8D8D8D" stroke-width="1.5" stroke-linecap="round" stroke-linejoin="round"/>
<path d="M1437.96 167.059C1437.96 171.746 1434.89 174.949 1429.58 176.316L1428.62 174.383C1432.63 173.357 1434.89 171.385 1435.29 168.992H1429.66V167.059H1437.96ZM1431.55 183.582V176.688H1443.41V183.582H1431.55ZM1434.04 181.629H1440.97V178.641H1434.04V181.629ZM1440.91 175.965V166.043H1443.41V175.965H1440.91ZM1462.06 174.422V176.375H1445.81V174.422H1452.73V172.898H1447.79V166.805H1460.11V168.738H1450.27V170.945H1460.21V172.898H1455.17V174.422H1462.06ZM1447.67 180.555C1447.67 178.445 1450.01 177.273 1453.9 177.273C1457.76 177.273 1460.07 178.445 1460.09 180.555C1460.07 182.635 1457.76 183.816 1453.9 183.816C1450.01 183.816 1447.67 182.635 1447.67 180.555ZM1450.21 180.555C1450.2 181.482 1451.44 181.922 1453.9 181.922C1456.31 181.922 1457.58 181.482 1457.59 180.555C1457.58 179.637 1456.31 179.168 1453.9 179.168C1451.44 179.168 1450.2 179.637 1450.21 180.555ZM1478.08 166.043V179.109H1475.6V173.289H1471.18V171.336H1475.6V169.969H1471.18V168.016H1475.6V166.043H1478.08ZM1464.09 176.805V167.156H1466.55V174.754C1468.72 174.725 1470.77 174.588 1472.98 174.188L1473.23 176.199C1470.57 176.707 1468.18 176.795 1465.52 176.805H1464.09ZM1466.26 183.484V177.938H1468.76V181.492H1478.51V183.484H1466.26Z" fill="black"/>
<rect x="1371" y="212" width="42" height="42" rx="21" fill="#E6E6E6"/>
<path fill-rule="evenodd" clip-rule="evenodd" d="M1395.72 236H1388.28C1386.1 236.109 1384.16 237.444 1383.28 239.45C1382.22 241.532 1384.34 243.5 1386.8 243.5H1397.2C1399.66 243.5 1401.78 241.532 1400.72 239.45C1399.84 237.444 1397.9 236.109 1395.72 236Z" fill="#8D8D8D" stroke="#8D8D8D" stroke-width="1.5" stroke-linecap="round" stroke-linejoin="round"/>
<path fill-rule="evenodd" clip-rule="evenodd" d="M1396.5 227C1396.5 229.485 1394.49 231.5 1392 231.5C1389.51 231.5 1387.5 229.485 1387.5 227C1387.5 224.515 1389.51 222.5 1392 222.5C1393.19 222.5 1394.34 222.974 1395.18 223.818C1396.03 224.662 1396.5 225.807 1396.5 227Z" fill="#8D8D8D" stroke="#8D8D8D" stroke-width="1.5" stroke-linecap="round" stroke-linejoin="round"/>
<path d="M1442.63 224.023V228.379H1445.03V230.391H1442.63V234.707H1440.13V224.023H1442.63ZM1429.05 233.77V225.137H1431.54V227.5H1435.17V225.137H1437.67V233.77H1429.05ZM1430.66 237.461V235.488H1442.63V241.797H1440.13V237.461H1430.66ZM1431.54 231.797H1435.17V229.434H1431.54V231.797ZM1455.95 226.152V228.125H1452.36C1452.38 230.107 1453.64 232.129 1456.54 232.949L1455.3 234.941C1453.32 234.365 1451.95 233.145 1451.15 231.611C1450.36 233.271 1448.97 234.59 1446.93 235.234L1445.68 233.262C1448.55 232.393 1449.87 230.264 1449.88 228.125H1446.3V226.152H1449.88V224.141H1452.39V226.152H1455.95ZM1448.39 241.484V236.016H1450.87V239.492H1460.56V241.484H1448.39ZM1457.41 237.168V224.023H1459.91V229.297H1462.32V231.309H1459.91V237.168H1457.41ZM1470.03 227.539C1470.02 229.658 1471.35 231.826 1474.27 232.715L1473 234.668C1471.01 234.033 1469.61 232.754 1468.81 231.152C1468 232.91 1466.55 234.307 1464.46 235L1463.18 233.047C1466.13 232.1 1467.49 229.785 1467.49 227.539V227.285H1463.84V225.293H1473.61V227.285H1470.03V227.539ZM1466.07 241.484V235.723H1468.59V239.492H1478.45V241.484H1466.07ZM1475.48 236.895V224.043H1477.98V236.895H1475.48Z" fill="black"/>
<rect x="1371" y="270" width="42" height="42" rx="21" fill="#E6E6E6"/>
<path fill-rule="evenodd" clip-rule="evenodd" d="M1395.72 294H1388.28C1386.1 294.109 1384.16 295.444 1383.28 297.45C1382.22 299.532 1384.34 301.5 1386.8 301.5H1397.2C1399.66 301.5 1401.78 299.532 1400.72 297.45C1399.84 295.444 1397.9 294.109 1395.72 294Z" fill="#8D8D8D" stroke="#8D8D8D" stroke-width="1.5" stroke-linecap="round" stroke-linejoin="round"/>
<path fill-rule="evenodd" clip-rule="evenodd" d="M1396.5 285C1396.5 287.485 1394.49 289.5 1392 289.5C1389.51 289.5 1387.5 287.485 1387.5 285C1387.5 282.515 1389.51 280.5 1392 280.5C1393.19 280.5 1394.34 280.974 1395.18 281.818C1396.03 282.662 1396.5 283.807 1396.5 285Z" fill="#8D8D8D" stroke="#8D8D8D" stroke-width="1.5" stroke-linecap="round" stroke-linejoin="round"/>
<path d="M1442.9 297.492V299.484H1430.48V294.328H1432.98V297.492H1442.9ZM1428.53 293.234V291.242H1435.38V288.723H1437.84V291.242H1444.74V293.234H1428.53ZM1429.39 287.863C1433.3 287.316 1435.33 285.168 1435.34 283.078V282.531H1437.88V283.078C1437.87 285.275 1439.84 287.355 1443.84 287.863L1442.88 289.816C1439.88 289.338 1437.7 288.039 1436.58 286.203C1435.47 288.029 1433.31 289.367 1430.36 289.816L1429.39 287.863ZM1460.79 282.023V292.57H1458.31V288.371H1455.54V286.359H1458.31V282.023H1460.79ZM1445.7 290.617C1448.61 289.641 1449.93 287.316 1449.99 285.09H1446.42V283.098H1456.07V285.09H1452.53C1452.58 287.16 1453.85 289.25 1456.61 290.168L1455.38 292.121C1453.43 291.486 1452.07 290.197 1451.3 288.605C1450.52 290.412 1449.09 291.867 1446.98 292.59L1445.7 290.617ZM1448.61 296.398C1448.61 294.24 1450.93 292.971 1454.72 292.961C1458.52 292.971 1460.84 294.24 1460.85 296.398C1460.84 298.557 1458.52 299.816 1454.72 299.816C1450.93 299.816 1448.61 298.557 1448.61 296.398ZM1451.09 296.398C1451.09 297.414 1452.37 297.922 1454.72 297.922C1457.08 297.922 1458.36 297.414 1458.37 296.398C1458.36 295.373 1457.08 294.865 1454.72 294.875C1452.37 294.865 1451.09 295.373 1451.09 296.398ZM1472.69 283.449V292.023H1464V283.449H1472.69ZM1466.07 299.406V293.508H1468.59V297.395H1478.45V299.406H1466.07ZM1466.46 290.051H1470.21V285.422H1466.46V290.051ZM1475.48 294.68V282.043H1477.98V294.68H1475.48Z" fill="black"/>
<rect x="1371" y="328" width="42" height="42" rx="21" fill="#E6E6E6"/>
<path fill-rule="evenodd" clip-rule="evenodd" d="M1395.72 352H1388.28C1386.1 352.109 1384.16 353.444 1383.28 355.45C1382.22 357.532 1384.34 359.5 1386.8 359.5H1397.2C1399.66 359.5 1401.78 357.532 1400.72 355.45C1399.84 353.444 1397.9 352.109 1395.72 352Z" fill="#8D8D8D" stroke="#8D8D8D" stroke-width="1.5" stroke-linecap="round" stroke-linejoin="round"/>
<path fill-rule="evenodd" clip-rule="evenodd" d="M1396.5 343C1396.5 345.485 1394.49 347.5 1392 347.5C1389.51 347.5 1387.5 345.485 1387.5 343C1387.5 340.515 1389.51 338.5 1392 338.5C1393.19 338.5 1394.34 338.974 1395.18 339.818C1396.03 340.662 1396.5 341.807 1396.5 343Z" fill="#8D8D8D" stroke="#8D8D8D" stroke-width="1.5" stroke-linecap="round" stroke-linejoin="round"/>
<path d="M1444.74 348.441V350.434H1428.53V348.441H1432.18V346.312C1430.88 345.736 1430.15 344.857 1430.15 343.715C1430.15 341.566 1432.68 340.287 1436.63 340.277C1440.56 340.287 1443.09 341.566 1443.1 343.715C1443.09 344.877 1442.34 345.766 1441.01 346.332V348.441H1444.74ZM1430.38 354.555C1430.38 352.504 1432.72 351.361 1436.61 351.371C1440.45 351.361 1442.79 352.504 1442.8 354.555C1442.79 356.654 1440.45 357.777 1436.61 357.777C1432.72 357.777 1430.38 356.654 1430.38 354.555ZM1432.75 343.715C1432.73 344.691 1434.12 345.189 1436.63 345.18C1439.11 345.189 1440.52 344.691 1440.52 343.715C1440.52 342.719 1439.11 342.191 1436.63 342.191C1434.12 342.191 1432.73 342.719 1432.75 343.715ZM1432.92 354.555C1432.91 355.463 1434.15 355.922 1436.61 355.922C1439.03 355.922 1440.29 355.463 1440.3 354.555C1440.29 353.676 1439.03 353.256 1436.61 353.246C1434.15 353.256 1432.91 353.676 1432.92 354.555ZM1434.7 348.441H1438.53V346.947C1437.94 347.025 1437.31 347.055 1436.63 347.055C1435.94 347.055 1435.29 347.016 1434.7 346.947V348.441ZM1451.36 345.395C1451.36 348.07 1452.31 350.795 1454.88 352.133L1453.49 353.969C1451.89 353.148 1450.82 351.713 1450.2 349.984C1449.58 351.859 1448.52 353.461 1446.91 354.379L1445.5 352.504C1448.03 351.059 1449 348.158 1449.02 345.395V345.062H1446.07V343.031H1449.02V340.629H1451.34V343.031H1454.27V345.062H1451.36V345.395ZM1455.07 356.977V340.277H1457.43V346.859H1458.94V340.023H1461.32V357.797H1458.94V348.891H1457.43V356.977H1455.07ZM1468.06 340.98C1469.47 340.971 1470.71 341.498 1471.56 342.367H1475.6V340.023H1478.08V350.434H1475.6V348.305H1471.54C1470.7 349.164 1469.46 349.682 1468.06 349.672C1465.36 349.682 1463.31 347.846 1463.33 345.336C1463.31 342.797 1465.36 340.971 1468.06 340.98ZM1465.7 345.336C1465.69 346.703 1466.67 347.572 1468.06 347.562C1469.4 347.572 1470.37 346.703 1470.38 345.336C1470.37 343.92 1469.4 343.1 1468.06 343.109C1466.67 343.1 1465.69 343.92 1465.7 345.336ZM1465.89 354.301C1465.89 352.094 1468.24 350.795 1472 350.805C1475.76 350.795 1478.13 352.094 1478.14 354.301C1478.13 356.508 1475.76 357.807 1472 357.797C1468.24 357.807 1465.89 356.508 1465.89 354.301ZM1468.33 354.301C1468.33 355.336 1469.65 355.863 1472 355.863C1474.41 355.863 1475.69 355.336 1475.7 354.301C1475.69 353.236 1474.41 352.709 1472 352.699C1469.65 352.709 1468.33 353.236 1468.33 354.301ZM1472.63 344.34C1472.71 344.652 1472.75 344.994 1472.75 345.336C1472.75 345.678 1472.71 346 1472.64 346.312H1475.6V344.34H1472.63Z" fill="black"/>
<path d="M1600.79 58.9588C1601.05 58.6356 1601 58.1636 1600.68 57.9045C1600.35 57.6455 1599.88 57.6975 1599.62 58.0207L1600.79 58.9588ZM1594.31 65.8488L1594.88 66.3385C1594.88 66.3317 1594.89 66.3248 1594.9 66.3178L1594.31 65.8488ZM1594.14 66.2668L1593.39 66.2179L1593.39 66.2321L1594.14 66.2668ZM1594 69.2898L1593.25 69.2551C1593.25 69.2923 1593.25 69.3296 1593.25 69.3667L1594 69.2898ZM1594.79 69.9768L1594.81 70.7264C1594.86 70.7247 1594.91 70.7181 1594.96 70.7065L1594.79 69.9768ZM1597.79 69.2658L1597.96 69.9956L1597.97 69.9927L1597.79 69.2658ZM1598.17 69.0218L1598.75 69.4991L1598.76 69.491L1598.17 69.0218ZM1604.8 61.959C1605.06 61.6358 1605 61.1638 1604.68 60.9047C1604.36 60.6455 1603.89 60.6974 1603.63 61.0206L1604.8 61.959ZM1599.63 58.0205C1599.37 58.3437 1599.42 58.8157 1599.74 59.0748C1600.07 59.334 1600.54 59.2821 1600.8 58.959L1599.63 58.0205ZM1601.8 56.5098L1602.39 56.979C1602.39 56.9667 1602.4 56.9541 1602.41 56.9412L1601.8 56.5098ZM1603.43 56.1898L1603.91 55.6133C1603.88 55.5934 1603.86 55.5751 1603.83 55.5583L1603.43 56.1898ZM1605.67 58.0518L1606.2 57.5219C1606.18 57.5056 1606.16 57.4901 1606.15 57.4753L1605.67 58.0518ZM1606 58.8726L1606.75 58.8768L1606.75 58.8768L1606 58.8726ZM1605.66 59.6898L1605.13 59.1541C1605.11 59.175 1605.09 59.197 1605.07 59.2203L1605.66 59.6898ZM1603.63 61.0203C1603.37 61.3433 1603.42 61.8153 1603.74 62.0746C1604.07 62.3339 1604.54 62.2823 1604.8 61.9593L1603.63 61.0203ZM1600.95 58.3786C1600.89 57.969 1600.51 57.6867 1600.1 57.748C1599.69 57.8094 1599.41 58.1913 1599.47 58.6009L1600.95 58.3786ZM1604.31 62.2329C1604.72 62.1772 1605.01 61.7992 1604.96 61.3888C1604.9 60.9783 1604.52 60.6908 1604.11 60.7466L1604.31 62.2329ZM1599.62 58.0207L1593.73 65.3797L1594.9 66.3178L1600.79 58.9588L1599.62 58.0207ZM1593.74 65.359C1593.54 65.5995 1593.41 65.9011 1593.39 66.218L1594.89 66.3156C1594.89 66.324 1594.88 66.3321 1594.88 66.3385L1593.74 65.359ZM1593.39 66.2321L1593.25 69.2551L1594.75 69.3245L1594.89 66.3015L1593.39 66.2321ZM1593.25 69.3667C1593.34 70.1586 1594.02 70.7524 1594.81 70.7264L1594.76 69.2272C1594.76 69.2273 1594.76 69.2268 1594.76 69.2264C1594.76 69.2259 1594.75 69.2249 1594.75 69.2232C1594.75 69.2215 1594.75 69.2198 1594.75 69.2185C1594.75 69.2175 1594.75 69.216 1594.75 69.2128L1593.25 69.3667ZM1594.96 70.7065L1597.96 69.9955L1597.61 68.536L1594.61 69.247L1594.96 70.7065ZM1597.97 69.9927C1598.28 69.9151 1598.55 69.7422 1598.75 69.499L1597.59 68.5445C1597.6 68.5417 1597.6 68.5397 1597.6 68.5388L1597.97 69.9927ZM1598.76 69.491L1604.8 61.959L1603.63 61.0206L1597.59 68.5526L1598.76 69.491ZM1600.8 58.959L1602.39 56.979L1601.21 56.0405L1599.63 58.0205L1600.8 58.959ZM1602.41 56.9412C1602.55 56.7441 1602.82 56.6912 1603.02 56.8212L1603.83 55.5583C1602.95 54.9948 1601.79 55.2241 1601.19 56.0783L1602.41 56.9412ZM1602.95 56.7662L1605.19 58.6282L1606.15 57.4753L1603.91 55.6133L1602.95 56.7662ZM1605.14 58.5816C1605.21 58.6577 1605.25 58.761 1605.25 58.8685L1606.75 58.8768C1606.76 58.369 1606.56 57.8813 1606.2 57.5219L1605.14 58.5816ZM1605.25 58.8685C1605.25 58.976 1605.21 59.0789 1605.13 59.1541L1606.18 60.2254C1606.54 59.87 1606.75 59.3845 1606.75 58.8768L1605.25 58.8685ZM1605.07 59.2203L1603.63 61.0203L1604.8 61.9593L1606.24 60.1593L1605.07 59.2203ZM1599.47 58.6009C1599.82 60.9322 1601.98 62.5503 1604.31 62.2329L1604.11 60.7466C1602.59 60.9535 1601.18 59.8986 1600.95 58.3786L1599.47 58.6009Z" fill="#7C7C7C"/>
<rect x="22" y="25" width="1260" height="161" rx="19" fill="#F9F9F9"/>
<path d="M70.7734 71.4375V68.5312H84.6719V71.4375H79.4688V85.5H75.9766V71.4375H70.7734ZM90.6953 85.7578C86.8047 85.7578 84.4141 83.2266 84.4141 79.1953C84.4141 75.2578 86.8281 72.6094 90.5547 72.6094C93.9062 72.6094 96.5312 74.7188 96.5312 79.0547V80.0391H87.8359C87.8359 81.9609 88.9844 83.1562 90.7656 83.1562C91.9375 83.1562 92.7812 82.6406 93.1328 81.8672H96.4375C95.9453 84.2109 93.8359 85.7578 90.6953 85.7578ZM87.8359 77.8594H93.25C93.25 76.3125 92.1719 75.2109 90.625 75.2109C89.0312 75.2109 87.8945 76.3945 87.8359 77.8594ZM98.1016 81.9375C98.1016 79.1016 100.398 78.1641 102.836 78.0234C103.75 77.9648 105.461 77.8828 106 77.8594V76.8281C105.977 75.7734 105.25 75.1406 103.961 75.1406C102.789 75.1406 102.039 75.6797 101.852 76.5469H98.5469C98.7578 74.3438 100.68 72.6094 104.055 72.6094C106.82 72.6094 109.445 73.8516 109.445 76.9219V85.5H106.164V83.7422H106.07C105.438 84.9141 104.242 85.7344 102.344 85.7344C99.9062 85.7344 98.1016 84.4688 98.1016 81.9375ZM101.43 81.8438C101.43 82.8281 102.227 83.3438 103.328 83.3438C104.898 83.3438 106.023 82.2891 106 80.9531V80.0156C105.473 80.0391 103.996 80.1211 103.398 80.1797C102.203 80.2969 101.43 80.8594 101.43 81.8438ZM112.094 85.5V72.7734H115.398V75H115.539C116.078 73.5234 117.367 72.6094 119.078 72.6094C120.836 72.6094 122.125 73.5234 122.547 75H122.664C123.203 73.5469 124.633 72.6094 126.508 72.6094C128.875 72.6094 130.516 74.1797 130.516 76.9453V85.5H127.047V77.625C127.047 76.1719 126.203 75.4688 125.055 75.4688C123.742 75.4688 122.992 76.3828 122.992 77.7188V85.5H119.617V77.5312C119.617 76.2656 118.82 75.4688 117.648 75.4688C116.477 75.4688 115.562 76.4062 115.562 77.8594V85.5H112.094ZM135.227 85.7109C134.125 85.7109 133.234 84.8203 133.258 83.7422C133.234 82.6641 134.125 81.7969 135.227 81.7969C136.258 81.7969 137.172 82.6641 137.172 83.7422C137.172 84.8203 136.258 85.7109 135.227 85.7109Z" fill="black"/>
<path d="M72.5781 137.5V103.562H80.5469V117.25H94.1875V103.562H102.156V137.5H94.1875V123.766H80.5469V137.5H72.5781ZM115.281 103.562V137.5H107.312V103.562H115.281ZM120.438 137.5V103.562H134.312C141.953 103.562 146.641 108.344 146.641 115.234C146.641 122.266 141.859 126.859 134.078 126.859H128.406V137.5H120.438ZM128.406 120.531H132.625C136.375 120.531 138.391 118.422 138.391 115.234C138.391 112.047 136.375 110.031 132.625 110.031H128.406V120.531Z" fill="#5C61B4"/>
<path d="M1092.03 80.9844V89.5H1091.3V80.9844H1092.03ZM1089.66 81.2344V89.4375H1088.94V88.4375H1086.23V87.8281H1088.94V81.2344H1089.66ZM1080.58 86.4688C1082.55 86.4688 1085.7 86.4375 1088.06 86.0625L1088.11 86.6094C1087.06 86.8203 1085.9 86.9453 1084.77 87.0156V89.4688H1084.03V87.0469C1082.8 87.1172 1081.62 87.1172 1080.69 87.1094L1080.58 86.4688ZM1083.88 90.0156V91.5625H1091.3V90.0156H1092.03V94.4531H1083.14V90.0156H1083.88ZM1083.88 93.8281H1091.3V92.2031H1083.88V93.8281ZM1084.39 81.4844C1086.17 81.4844 1087.36 82.2344 1087.38 83.5C1087.36 84.75 1086.17 85.5156 1084.39 85.5C1082.59 85.5156 1081.39 84.75 1081.41 83.5C1081.39 82.2344 1082.59 81.4844 1084.39 81.4844ZM1084.39 82.0469C1083 82.0469 1082.09 82.625 1082.09 83.5C1082.09 84.3438 1083 84.9219 1084.39 84.9219C1085.75 84.9219 1086.66 84.3438 1086.67 83.5C1086.66 82.625 1085.75 82.0469 1084.39 82.0469ZM1106.09 80.9844V94.6719H1105.34V87.375H1103.02V93.9375H1102.3V81.3594H1103.02V86.7188H1105.34V80.9844H1106.09ZM1100.33 82.8125C1100.33 86.0781 1099.05 89.4688 1095.05 91.6406L1094.61 91.0781C1098.08 89.2266 1099.45 86.3516 1099.59 83.4688H1095.02V82.8125H1100.33ZM1109.73 81.5312V83.7344H1114.48V81.5312H1115.22V87.4688H1109V81.5312H1109.73ZM1109.73 86.8438H1114.48V84.3594H1109.73V86.8438ZM1118.91 80.9844V84.1562H1121.09V84.7969H1118.91V88.125H1118.17V80.9844H1118.91ZM1118.91 88.8594V91.9062H1111.17V93.8281H1119.48V94.4688H1110.45V91.2969H1118.17V89.5H1110.41V88.8594H1118.91ZM1132.73 81V85.3281H1134.92V85.9688H1132.73V91.0156H1132V81H1132.73ZM1133.45 93.6719V94.3125H1124.38V90.0781H1125.09V93.6719H1133.45ZM1123.56 81.9844V84.5H1128.31V81.9844H1129.05V88.625H1122.83V81.9844H1123.56ZM1123.56 87.9844H1128.31V85.125H1123.56V87.9844ZM1141.55 80.5938V95.0938H1140.84V80.5938H1141.55ZM1160.27 92.125V92.7812H1147.73V92.125H1160.27ZM1158.97 82.4844V83.1406H1156.62V88.3438H1158.95V88.9688H1148.92V88.3438H1151.27V83.1406H1148.92V82.4844H1158.97ZM1152 88.3438H1155.89V83.1406H1152V88.3438ZM1174.09 92.1875V92.8438H1161.56V92.1875H1167.41V89.2812H1163.2V85.3125H1171.69V82.7344H1163.17V82.0781H1172.42V85.9531H1163.94V88.6406H1172.75V89.2812H1168.16V92.1875H1174.09ZM1184.3 81.2969V89.2031H1183.56V85.2344H1181.08V84.6094H1183.56V81.2969H1184.3ZM1179.27 83.8906C1179.27 85.4219 1180.44 87.1875 1182.17 87.9219L1181.73 88.5C1180.39 87.8906 1179.39 86.7109 1178.94 85.4062C1178.49 86.8828 1177.43 88.2109 1176.03 88.875L1175.61 88.2812C1177.33 87.5156 1178.56 85.625 1178.56 83.9062V82.8438H1175.75V82.1875H1181.92V82.8438H1179.27V83.8906ZM1186.91 80.9844V89.3594H1186.2V80.9844H1186.91ZM1186.91 90.0312V94.6719H1186.19V90.6875H1177.84V90.0312H1186.91ZM1200.23 88.5781V89.2344H1190.92V82.2812H1200.08V82.9375H1191.67V85.3438H1199.78V86H1191.67V88.5781H1200.23ZM1201.75 92.0938V92.7656H1189.22V92.0938H1201.75ZM1213.38 82.9219C1213.38 85.0156 1216.41 86.5938 1218.39 86.9219L1218.08 87.5312C1216.2 87.1406 1213.77 85.9453 1213 84.125C1212.2 85.9453 1209.75 87.1406 1207.91 87.5312L1207.59 86.9219C1209.56 86.5938 1212.59 85.0156 1212.59 82.9219V82.5781H1207.98V81.9375H1217.98V82.5781H1213.38V82.9219ZM1219.22 88.9375V89.5781H1213.34V94.6406H1212.62V89.5781H1206.77V88.9375H1219.22ZM1232.2 80.9844V94.6719H1231.47V80.9844H1232.2ZM1229.44 81.375V93.8906H1228.73V86.7031H1226.09V86.0625H1228.73V81.375H1229.44ZM1224.41 85.0156C1224.41 87.4688 1225.7 89.875 1227.52 90.9219L1227.03 91.4844C1225.63 90.625 1224.53 89 1224.06 87.0938C1223.59 89.1562 1222.43 90.9141 1221 91.8125L1220.5 91.2344C1222.33 90.1719 1223.69 87.6406 1223.69 85.0156V83.3906H1220.78V82.7344H1227.19V83.3906H1224.41V85.0156Z" fill="black"/>
<path d="M742.537 108.117V114.135H744.848V106.061H747.895V127.77H744.848V116.725H742.537V123.021H733.346V108.117H742.537ZM736.367 110.682V120.482H739.516V110.682H736.367ZM752.719 105.73V128.836H749.621V105.73H752.719ZM767.014 107.635V110.275H759.346V114.084H766.684V116.623H759.346V120.99C762.659 120.965 765.351 120.825 768.436 120.33L768.74 122.945C765.211 123.479 762.062 123.58 758.025 123.58H756.07V107.635H767.014ZM773.387 105.73V114.49H776.789V117.207H773.387V128.836H770.137V105.73H773.387ZM797.127 105.73V128.887H793.928V116.496H789.637V123.402H778.49V107.508H781.715V113.119H786.463V107.508H789.637V113.881H793.928V105.73H797.127ZM781.715 120.812H786.463V115.658H781.715V120.812ZM812.26 108.777C812.26 112.154 815.256 115.785 820.486 116.674L819.064 119.365C815.04 118.565 812.044 116.306 810.559 113.322C809.022 116.28 806.026 118.553 802.027 119.365L800.631 116.674C805.76 115.76 808.781 112.129 808.807 108.777V107.102H812.26V108.777ZM821.248 123.326V125.992H800.098V123.326H821.248ZM834.781 107.355C838.311 107.355 840.85 110.555 840.875 115.582C840.85 120.66 838.311 123.834 834.781 123.834C831.252 123.834 828.662 120.66 828.688 115.582C828.662 110.555 831.252 107.355 834.781 107.355ZM834.781 110.275C833.004 110.275 831.811 112.154 831.811 115.582C831.811 119.035 833.004 120.889 834.781 120.889C836.584 120.889 837.752 119.035 837.777 115.582C837.752 112.154 836.584 110.275 834.781 110.275ZM846.791 105.73V114.439H850.193V117.131H846.791V128.836H843.541V105.73H846.791ZM863.092 107.939C863.066 115.074 861.34 121.016 852.707 125.332L850.93 122.895C854.789 120.978 857.087 118.832 858.395 116.268L851.564 116.902L851.158 114.135L859.385 113.627C859.613 112.662 859.778 111.621 859.867 110.529H852.377V107.939H863.092ZM869.262 105.73V114.592H872.537V117.258H869.262V128.785H866.012V105.73H869.262ZM893.535 105.73V128.836H890.412V105.73H893.535ZM888.635 106.137V127.795H885.613V116.801H881.475V114.16H885.613V106.137H888.635ZM883.049 108.346V110.936H877.387V120.99C879.862 120.978 881.729 120.851 883.887 120.406L884.141 123.047C881.525 123.58 879.189 123.682 875.812 123.682H874.213V108.346H883.049ZM908.287 107.812V123.326H897.115V107.812H908.287ZM900.365 110.352V120.762H905.139V110.352H900.365ZM915.32 105.73V128.887H912.045V105.73H915.32ZM938.146 107.787V110.352H924.436V107.787H929.691V105.604H932.916V107.787H938.146ZM931.291 111.088C934.643 111.088 936.979 112.814 936.979 115.354C936.979 117.893 934.643 119.619 931.291 119.619C927.939 119.619 925.553 117.893 925.553 115.354C925.553 112.814 927.939 111.088 931.291 111.088ZM931.291 113.525C929.742 113.525 928.701 114.16 928.727 115.354C928.701 116.521 929.742 117.131 931.291 117.131C932.84 117.131 933.906 116.521 933.906 115.354C933.906 114.16 932.84 113.525 931.291 113.525ZM942.768 105.73V111.723H945.891V114.363H942.768V120.229H939.518V105.73H942.768ZM942.768 121.193V128.836H939.518V123.783H927.203V121.193H942.768ZM954.295 109.844C954.295 112.332 955.59 114.82 958.662 115.988L956.936 118.451C954.968 117.702 953.609 116.331 952.771 114.617C951.934 116.623 950.486 118.299 948.328 119.188L946.576 116.699C949.826 115.277 951.146 112.434 951.146 109.844V107.127H954.295V109.844ZM966.762 105.756V119.873H963.689V114.008H961.76V119.162H958.738V106.162H961.76V111.393H963.689V105.756H966.762ZM958.865 120.203C963.74 120.203 966.863 121.828 966.889 124.52C966.863 127.211 963.74 128.836 958.865 128.836C953.965 128.836 950.867 127.211 950.867 124.52C950.867 121.828 953.965 120.203 958.865 120.203ZM958.865 122.615C955.844 122.615 954.092 123.275 954.117 124.52C954.092 125.764 955.844 126.398 958.865 126.398C961.861 126.398 963.613 125.764 963.613 124.52C963.613 123.275 961.861 122.615 958.865 122.615ZM990.502 114.744V117.283H969.377V114.744H990.502ZM987.988 110.936V113.475H972.018V106.188H987.811V108.777H975.242V110.936H987.988ZM987.887 118.654V124.697H975.014V126.119H988.496V128.633H971.84V122.387H984.688V121.092H971.814V118.654H987.887ZM1002.38 106.061C1007.69 106.061 1010.76 107.457 1010.79 109.996C1010.76 112.561 1007.69 113.957 1002.38 113.957C997.053 113.957 993.955 112.561 993.955 109.996C993.955 107.457 997.053 106.061 1002.38 106.061ZM1002.38 108.422C998.982 108.422 997.332 108.98 997.357 109.996C997.332 111.139 998.982 111.57 1002.38 111.57C1005.81 111.57 1007.44 111.139 1007.44 109.996C1007.44 108.98 1005.81 108.422 1002.38 108.422ZM1012.92 115.049V117.613H991.848V115.049H1012.92ZM1010.36 118.959V124.85H997.484V126.246H1010.97V128.684H994.311V122.59H1007.16V121.32H994.285V118.959H1010.36ZM1027.85 106.695C1031.38 106.67 1033.95 108.676 1033.95 111.596C1033.95 114.49 1031.38 116.521 1027.85 116.496C1024.32 116.521 1021.76 114.49 1021.78 111.596C1021.76 108.676 1024.32 106.67 1027.85 106.695ZM1027.85 109.285C1026.12 109.285 1024.91 110.123 1024.91 111.596C1024.91 113.043 1026.12 113.881 1027.85 113.855C1029.63 113.881 1030.87 113.043 1030.87 111.596C1030.87 110.123 1029.63 109.285 1027.85 109.285ZM1039.79 105.756V128.836H1036.59V105.756H1039.79ZM1020.36 117.918C1024.45 117.918 1030.26 117.816 1035.19 117.08L1035.39 119.467C1033.49 119.848 1031.53 120.089 1029.6 120.229V128.15H1026.38V120.432C1024.35 120.521 1022.43 120.533 1020.77 120.559L1020.36 117.918ZM1061.11 105.756V112.84H1064.24V115.48H1061.11V122.996H1057.86V105.756H1061.11ZM1056.49 108.168V110.732H1042.78V108.168H1048.04V105.705H1051.26V108.168H1056.49ZM1049.64 111.545C1052.99 111.545 1055.32 113.348 1055.32 116.014C1055.32 118.68 1052.99 120.432 1049.64 120.432C1046.26 120.432 1043.9 118.68 1043.9 116.014C1043.9 113.348 1046.26 111.545 1049.64 111.545ZM1049.64 114.008C1048.09 114.033 1047.05 114.744 1047.07 116.014C1047.05 117.283 1048.09 117.969 1049.64 117.969C1051.19 117.969 1052.25 117.283 1052.25 116.014C1052.25 114.744 1051.19 114.033 1049.64 114.008ZM1061.95 125.84V128.43H1046.13V121.676H1049.36V125.84H1061.95ZM1081.1 108.117V114.135H1083.41V106.061H1086.45V127.77H1083.41V116.725H1081.1V123.021H1071.9V108.117H1081.1ZM1074.93 110.682V120.482H1078.07V110.682H1074.93ZM1091.28 105.73V128.836H1088.18V105.73H1091.28ZM1105.57 107.635V110.275H1097.9V114.084H1105.24V116.623H1097.9V120.99C1101.22 120.965 1103.91 120.825 1106.99 120.33L1107.3 122.945C1103.77 123.479 1100.62 123.58 1096.58 123.58H1094.63V107.635H1105.57ZM1111.95 105.73V114.49H1115.35V117.207H1111.95V128.836H1108.7V105.73H1111.95ZM1135.69 105.73V128.887H1132.49V116.496H1128.2V123.402H1117.05V107.508H1120.27V113.119H1125.02V107.508H1128.2V113.881H1132.49V105.73H1135.69ZM1120.27 120.812H1125.02V115.658H1120.27V120.812ZM1150.82 108.777C1150.82 112.154 1153.81 115.785 1159.04 116.674L1157.62 119.365C1153.6 118.565 1150.6 116.306 1149.12 113.322C1147.58 116.28 1144.58 118.553 1140.59 119.365L1139.19 116.674C1144.32 115.76 1147.34 112.129 1147.37 108.777V107.102H1150.82V108.777ZM1159.81 123.326V125.992H1138.66V123.326H1159.81ZM1186.31 106.365V108.777H1183.29V111.824H1186.16V114.236H1169.12V111.824H1171.97V108.777H1168.97V106.365H1186.31ZM1188.19 115.455V117.994H1167.12V115.455H1188.19ZM1185.63 119.314V125.027H1172.76V126.297H1186.24V128.684H1169.58V122.818H1182.43V121.65H1169.56V119.314H1185.63ZM1175.22 111.824H1180.04V108.777H1175.22V111.824ZM1209.45 105.756V121.27H1206.37V113.957H1204.37V119.365H1201.35V106.162H1204.37V111.342H1206.37V105.756H1209.45ZM1199.31 107.33V114.363H1193.65V116.623C1196.18 116.61 1198.06 116.471 1200.25 116.039L1200.53 118.578C1197.87 119.111 1195.61 119.188 1192.13 119.188H1190.53V112.027H1196.19V109.92H1190.5V107.33H1199.31ZM1203.05 120.66C1203.02 123.098 1205.54 125.611 1210.51 126.221L1209.22 128.734C1205.54 128.214 1202.84 126.652 1201.45 124.494C1200 126.652 1197.31 128.214 1193.65 128.734L1192.36 126.221C1197.31 125.611 1199.8 123.098 1199.8 120.66V120.254H1203.05V120.66ZM1233.13 116.928V119.492H1212.06V116.928H1220.95V115.074H1214.07V112.484H1216.91V108.955H1213.91V106.365H1231.26V108.955H1228.23V112.484H1231.1V115.074H1224.2V116.928H1233.13ZM1230.62 121.066V128.582H1214.5V121.066H1230.62ZM1217.7 123.605V125.992H1227.45V123.605H1217.7ZM1220.16 112.484H1224.98V108.955H1220.16V112.484Z" fill="#323232"/>
<path d="M54.6406 311.102V312.645H47.4922V318.66H45.6758V312.645H38.625V311.102H54.6406ZM40.3633 305.711C40.373 303.328 42.8926 301.824 46.5938 301.824C50.2949 301.824 52.834 303.328 52.8242 305.711C52.834 308.064 50.2949 309.559 46.5938 309.559C42.8926 309.559 40.373 308.064 40.3633 305.711ZM42.2773 305.711C42.2676 307.166 43.9961 308.074 46.5938 308.074C49.2012 308.074 50.9199 307.166 50.9297 305.711C50.9199 304.236 49.2012 303.318 46.5938 303.309C43.9961 303.318 42.2676 304.236 42.2773 305.711ZM70.4609 301.16V318.699H68.6055V301.16H70.4609ZM56.9062 304.246V302.742H65.1094V309.129H58.8203V312.957C61.6621 312.947 64.1328 312.811 67.0625 312.332L67.2383 313.855C64.1426 314.373 61.5059 314.49 58.4102 314.5H56.9258V307.645H63.2148V304.246H56.9062ZM87.5117 302.195V303.719H80.9688V305.633H87.0234V307.078H80.9688V309.109C84.4648 309.109 86.5059 309.041 88.8789 308.641L89.0742 310.125C86.5449 310.555 84.3672 310.604 80.5391 310.594H79.0938V302.195H87.5117ZM81.1055 318.445V312.41H92.6094V318.445H81.1055ZM82.9414 316.941H90.793V313.855H82.9414V316.941ZM90.7539 311.59V301.18H92.6094V311.59H90.7539ZM101.086 302.41C103.85 302.4 105.842 304.109 105.852 306.57C105.842 309.031 103.85 310.74 101.086 310.75C98.332 310.74 96.3105 309.031 96.3203 306.57C96.3105 304.109 98.332 302.4 101.086 302.41ZM95.4805 313.387C98.6641 313.387 103.078 313.357 106.906 312.801L107.043 314.148C103.088 314.91 98.8398 314.93 95.7148 314.93L95.4805 313.387ZM98.1562 306.57C98.1367 308.123 99.3867 309.129 101.086 309.129C102.785 309.129 104.035 308.123 104.035 306.57C104.035 305.037 102.785 304.012 101.086 304.012C99.3867 304.012 98.1367 305.037 98.1562 306.57ZM108 318.699V301.16H109.855V318.699H108ZM133.508 309.266V310.77H126.438V312.449C129.641 312.625 131.545 313.699 131.555 315.535C131.545 317.518 129.279 318.631 125.52 318.621C121.711 318.631 119.445 317.518 119.445 315.535C119.445 313.699 121.35 312.615 124.602 312.449V310.77H117.551V309.266H133.508ZM118.391 306.883C121.535 306.561 124.016 305.135 124.27 303.445H119.016V301.961H132.082V303.445H126.77C127.023 305.145 129.484 306.561 132.688 306.883L132.023 308.348C128.986 307.996 126.477 306.717 125.529 304.861C124.562 306.717 122.072 307.996 119.035 308.348L118.391 306.883ZM121.32 315.535C121.311 316.6 122.844 317.215 125.52 317.195C128.156 317.215 129.699 316.6 129.699 315.535C129.699 314.451 128.156 313.865 125.52 313.855C122.844 313.865 121.311 314.451 121.32 315.535ZM150.852 314.93V316.473H134.836V314.93H138.664V310.359C137.229 309.568 136.35 308.318 136.359 306.746C136.35 303.992 139.055 302.186 142.805 302.176C146.564 302.186 149.27 303.992 149.27 306.746C149.27 308.289 148.43 309.529 147.023 310.32V314.93H150.852ZM138.156 306.746C138.156 308.621 140.061 309.842 142.805 309.852C145.529 309.842 147.463 308.621 147.473 306.746C147.463 304.861 145.529 303.66 142.805 303.66C140.061 303.66 138.156 304.861 138.156 306.746ZM140.5 314.93H145.148V311.043C144.436 311.209 143.645 311.297 142.805 311.297C141.984 311.297 141.203 311.209 140.5 311.043V314.93ZM165.871 301.18V306.805H168.41V308.348H165.871V314.266H164.016V301.18H165.871ZM152.141 304.715V303.211H156.438V301.16H158.293V303.211H162.57V304.715H152.141ZM153.098 308.855C153.088 306.854 154.816 305.545 157.355 305.555C159.865 305.545 161.594 306.854 161.594 308.855C161.594 310.838 159.865 312.127 157.355 312.137C154.816 312.127 153.088 310.838 153.098 308.855ZM154.777 318.289V313.23H156.633V316.785H166.613V318.289H154.777ZM154.895 308.855C154.875 309.998 155.871 310.701 157.355 310.691C158.84 310.701 159.836 309.998 159.855 308.855C159.836 307.703 158.84 306.99 157.355 306.98C155.871 306.99 154.875 307.703 154.895 308.855ZM180.383 306.316C180.373 309.08 182.199 312.166 184.855 313.426L183.801 314.871C181.838 313.934 180.275 311.961 179.484 309.676C178.684 312.166 177.043 314.324 175.051 315.32L173.957 313.855C176.613 312.576 178.537 309.275 178.547 306.316V304.461H174.602V302.918H184.191V304.461H180.383V306.316ZM186.066 318.66V301.16H187.922V308.094H190.734V309.656H187.922V318.66H186.066ZM207.59 315.008V316.57H191.574V315.008H195.949V311.922H193.527V306.355H203.801V303.914H193.488V302.391H205.637V307.859H195.363V310.398H206.047V311.922H203.391V315.008H207.59ZM197.746 315.008H201.574V311.922H197.746V315.008ZM224.836 308.328V309.812H208.859V308.328H224.836ZM210.773 312.625V311.199H222.805V315.438H212.609V317H223.293V318.465H210.793V314.07H220.969V312.625H210.773ZM210.949 307.059V301.668H222.766V303.172H212.805V305.574H222.941V307.059H210.949ZM234.113 301.453C238.059 301.443 240.354 302.508 240.363 304.461C240.354 306.424 238.059 307.488 234.113 307.488C230.168 307.488 227.854 306.424 227.863 304.461C227.854 302.508 230.168 301.443 234.113 301.453ZM226.145 310.047V308.562H242.102V310.047H226.145ZM228.059 312.781V311.395H240.09V315.496H229.895V317.059H240.578V318.484H228.078V314.148H238.254V312.781H228.059ZM229.797 304.461C229.787 305.545 231.33 306.102 234.113 306.102C236.916 306.102 238.459 305.545 238.449 304.461C238.459 303.426 236.916 302.82 234.113 302.82C231.33 302.82 229.787 303.426 229.797 304.461ZM264.309 310.32V311.805H257.355V315.027H255.52V311.805H248.293V310.32H264.309ZM250.285 318.289V313.504H252.121V316.785H262.531V318.289H250.285ZM250.402 308.777V301.707H252.238V303.836H260.344V301.707H262.199V308.777H250.402ZM252.238 307.293H260.344V305.223H252.238V307.293ZM281.594 311.551V313.016H277.57V318.66H275.695V313.016H271.477V318.66H269.621V313.016H265.578V311.551H281.594ZM267.473 303.309V301.785H279.699V306.473H269.387V308.406H280.07V309.91H267.531V305.086H277.805V303.309H267.473ZM296.516 301.16V308.25H299.328V309.793H296.516V318.66H294.68V301.16H296.516ZM282.785 305.418V303.895H287.102V301.395H288.957V303.895H293.156V305.418H282.785ZM283.684 310.77C283.684 308.387 285.52 306.707 288.039 306.707C290.549 306.707 292.385 308.387 292.395 310.77C292.385 313.172 290.549 314.842 288.039 314.852C285.52 314.842 283.684 313.172 283.684 310.77ZM285.461 310.77C285.451 312.293 286.545 313.309 288.039 313.289C289.523 313.309 290.607 312.293 290.617 310.77C290.607 309.275 289.523 308.24 288.039 308.23C286.545 308.24 285.451 309.275 285.461 310.77ZM304.914 302.469C306.516 302.479 307.824 303.387 308.596 304.969H312.922V301.16H314.758V318.699H312.922V311.98H308.723C307.971 313.738 306.604 314.764 304.914 314.754C302.307 314.764 300.461 312.381 300.48 308.602C300.461 304.861 302.307 302.479 304.914 302.469ZM302.238 308.602C302.248 311.385 303.332 313.094 304.914 313.094C306.496 313.094 307.58 311.385 307.59 308.602C307.58 305.857 306.496 304.139 304.914 304.129C303.332 304.139 302.248 305.857 302.238 308.602ZM309.123 306.492C309.26 307.137 309.348 307.84 309.348 308.602C309.348 309.266 309.289 309.881 309.172 310.457H312.922V306.492H309.123ZM336.945 301.16V318.699H335.09V308.973H331.477V307.449H335.09V301.16H336.945ZM322.141 313.816C324.816 312.537 326.701 309.227 326.711 306.082V304.441H322.844V302.918H332.473V304.441H328.586V306.082C328.586 309.041 330.451 312.234 333.137 313.426L332.023 314.91C330.002 313.934 328.449 311.893 327.668 309.51C326.887 312.049 325.295 314.227 323.273 315.262L322.141 313.816ZM345.734 304.383C345.725 306.609 347.277 308.641 349.934 309.48L349.055 310.926C347.062 310.291 345.607 308.973 344.836 307.312C344.074 309.227 342.541 310.74 340.441 311.473L339.484 309.988C342.219 309.09 343.869 306.834 343.879 304.402V303.914H340.031V302.41H349.504V303.914H345.734V304.383ZM341.848 315.34C341.848 313.289 344.084 312.088 347.727 312.098C351.33 312.088 353.527 313.289 353.527 315.34C353.527 317.42 351.33 318.631 347.727 318.621C344.084 318.631 341.848 317.42 341.848 315.34ZM343.703 315.34C343.693 316.512 345.197 317.166 347.727 317.156C350.236 317.166 351.721 316.512 351.711 315.34C351.721 314.197 350.236 313.553 347.727 313.562C345.197 313.553 343.693 314.197 343.703 315.34ZM351.516 311.668V301.16H353.371V305.496H355.91V307.02H353.371V311.668H351.516ZM370.539 301.16V308.25H373.352V309.793H370.539V318.66H368.703V301.16H370.539ZM356.809 305.418V303.895H361.125V301.395H362.98V303.895H367.18V305.418H356.809ZM357.707 310.77C357.707 308.387 359.543 306.707 362.062 306.707C364.572 306.707 366.408 308.387 366.418 310.77C366.408 313.172 364.572 314.842 362.062 314.852C359.543 314.842 357.707 313.172 357.707 310.77ZM359.484 310.77C359.475 312.293 360.568 313.309 362.062 313.289C363.547 313.309 364.631 312.293 364.641 310.77C364.631 309.275 363.547 308.24 362.062 308.23C360.568 308.24 359.475 309.275 359.484 310.77ZM378.938 302.469C380.539 302.479 381.848 303.387 382.619 304.969H386.945V301.16H388.781V318.699H386.945V311.98H382.746C381.994 313.738 380.627 314.764 378.938 314.754C376.33 314.764 374.484 312.381 374.504 308.602C374.484 304.861 376.33 302.479 378.938 302.469ZM376.262 308.602C376.271 311.385 377.355 313.094 378.938 313.094C380.52 313.094 381.604 311.385 381.613 308.602C381.604 305.857 380.52 304.139 378.938 304.129C377.355 304.139 376.271 305.857 376.262 308.602ZM383.146 306.492C383.283 307.137 383.371 307.84 383.371 308.602C383.371 309.266 383.312 309.881 383.195 310.457H386.945V306.492H383.146ZM412.375 314.949V316.492H396.359V314.949H403.41V311.355H398.195V302.352H400.051V305.359H408.645V302.352H410.48V311.355H405.246V314.949H412.375ZM400.051 309.852H408.645V306.863H400.051V309.852ZM418.977 305.945C418.977 308.738 420.148 311.717 422.492 313.152L421.457 314.578C419.816 313.592 418.713 311.844 418.107 309.822C417.473 312.039 416.262 313.934 414.562 314.969L413.41 313.582C415.881 312.098 417.189 309.002 417.18 306.023V302.762H418.977V305.945ZM420.598 308.855V307.312H423.312V301.492H425.07V317.801H423.312V308.855H420.598ZM426.926 318.66V301.16H428.703V318.66H426.926ZM446.945 314.93V316.473H430.93V314.93H434.758V310.359C433.322 309.568 432.443 308.318 432.453 306.746C432.443 303.992 435.148 302.186 438.898 302.176C442.658 302.186 445.363 303.992 445.363 306.746C445.363 308.289 444.523 309.529 443.117 310.32V314.93H446.945ZM434.25 306.746C434.25 308.621 436.154 309.842 438.898 309.852C441.623 309.842 443.557 308.621 443.566 306.746C443.557 304.861 441.623 303.66 438.898 303.66C436.154 303.66 434.25 304.861 434.25 306.746ZM436.594 314.93H441.242V311.043C440.529 311.209 439.738 311.297 438.898 311.297C438.078 311.297 437.297 311.209 436.594 311.043V314.93ZM451.438 302.859L451.262 312.918H449.328L449.152 302.859H451.438ZM448.918 315.75C448.908 314.988 449.543 314.363 450.305 314.363C451.057 314.363 451.682 314.988 451.691 315.75C451.682 316.512 451.057 317.127 450.305 317.137C449.543 317.127 448.908 316.512 448.918 315.75Z" fill="black"/>
<rect x="21.5" y="202.5" width="1259" height="60" rx="19.5" fill="#F9F9F9" fill-opacity="0.45"/>
<rect x="21.5" y="202.5" width="1259" height="60" rx="19.5" stroke="#E6E6E6"/>
<path d="M68.1562 238.188V240.672H48.6328V238.188H68.1562ZM50.1562 226.094V223.703H66.5156V226.094H63.5156V232.562H66.4219V234.906H50.25V232.562H53.1094V226.094H50.1562ZM56.1094 232.562H60.5625V226.094H56.1094V232.562ZM88.8984 238.328V240.789H69.375V238.328H77.6016V235.117H71.625V227.945H83.6953V225.602H71.6016V223.211H86.6484V230.289H74.625V232.68H87.1406V235.117H80.5781V238.328H88.8984ZM104.203 222.25V234.719H101.367V229.516H99V227.102H101.367V222.25H104.203ZM89.8125 232.305C92.7305 231.215 93.9375 228.766 93.9375 226.398V225.766H90.5391V223.375H100.031V225.766H96.8438V226.422C96.832 228.66 97.9688 230.887 100.711 231.953L99.2109 234.25C97.3945 233.547 96.1641 232.293 95.4258 230.746C94.6523 232.469 93.3516 233.887 91.3828 234.672L89.8125 232.305ZM93.7031 237.977V235.609H108.445V243.156H105.469V237.977H93.7031ZM105.609 234.836V221.828H108.445V234.836H105.609ZM128.25 232.844V235.211H113.156V223.398H128.086V225.812H116.203V228.062H127.594V230.406H116.203V232.844H128.25ZM110.859 240.672V238.234H130.383V240.672H110.859ZM155.531 221.828V243.156H152.648V232.305H150.703V242.219H147.914V222.391H150.703V229.914H152.648V221.828H155.531ZM136.875 236.711C141.223 234.156 143.098 231.027 143.496 226.844H137.953V224.453H146.414C146.402 230.406 144.621 235.281 138.609 238.773L136.875 236.711ZM177.398 238.211V240.672H157.875V238.211H162.234V232.984C160.582 231.988 159.586 230.477 159.586 228.602C159.586 225.145 162.961 222.871 167.602 222.859C172.219 222.871 175.629 225.145 175.641 228.602C175.629 230.441 174.668 231.93 173.062 232.926V238.211H177.398ZM162.539 228.602C162.539 230.688 164.543 231.977 167.602 231.977C170.613 231.977 172.676 230.688 172.688 228.602C172.676 226.457 170.613 225.215 167.602 225.227C164.543 225.215 162.539 226.457 162.539 228.602ZM165.188 238.211H170.039V234.062C169.277 234.215 168.457 234.297 167.602 234.297C166.746 234.297 165.938 234.215 165.188 234.074V238.211ZM186.68 226.656C186.691 230.664 188.309 234.566 191.859 236.102L190.031 238.492C187.664 237.344 186.07 235.211 185.18 232.574C184.266 235.375 182.625 237.672 180.188 238.867L178.312 236.43C181.969 234.777 183.633 230.664 183.656 226.656V223.469H186.68V226.656ZM189.469 230.945V228.531H193.664V221.828H196.617V243.203H193.664V230.945H189.469Z" fill="#6C6C6C"/>
<path d="M506.156 238.211V240.672H486.633V238.211H490.992V232.984C489.34 231.988 488.344 230.477 488.344 228.602C488.344 225.145 491.719 222.871 496.359 222.859C500.977 222.871 504.387 225.145 504.398 228.602C504.387 230.441 503.426 231.93 501.82 232.926V238.211H506.156ZM491.297 228.602C491.297 230.688 493.301 231.977 496.359 231.977C499.371 231.977 501.434 230.688 501.445 228.602C501.434 226.457 499.371 225.215 496.359 225.227C493.301 225.215 491.297 226.457 491.297 228.602ZM493.945 238.211H498.797V234.062C498.035 234.215 497.215 234.297 496.359 234.297C495.504 234.297 494.695 234.215 493.945 234.074V238.211ZM524.555 223.07V224.992C524.543 226.984 524.543 229.152 524.004 232.141H526.828V234.555H518.508V243.18H515.508V234.555H507.375V232.141H520.969C521.52 229.398 521.566 227.301 521.578 225.461H509.602V223.07H524.555ZM535.969 226.656C535.957 230.477 537.586 234.332 541.008 235.984L539.203 238.375C536.918 237.238 535.371 235.129 534.492 232.562C533.555 235.316 531.914 237.578 529.5 238.773L527.648 236.359C531.27 234.695 532.969 230.617 532.969 226.656V223.469H535.969V226.656ZM541.945 243.156V221.828H544.945V230.055H548.086V232.586H544.945V243.156H541.945ZM565.781 221.828V227.289H568.664V229.773H565.781V235.375H562.781V221.828H565.781ZM548.859 226.188V223.867H553.711V221.711H556.688V223.867H561.516V226.188H548.859ZM549.891 230.758C549.891 228.484 552.047 226.926 555.188 226.914C558.293 226.926 560.438 228.484 560.438 230.758C560.438 233.055 558.293 234.578 555.188 234.578C552.059 234.578 549.891 233.055 549.891 230.758ZM551.602 239.383C551.578 236.98 554.332 235.574 558.82 235.562C563.203 235.574 566.004 236.98 566.016 239.383C566.004 241.727 563.203 243.168 558.82 243.156C554.332 243.168 551.578 241.727 551.602 239.383ZM552.82 230.758C552.809 231.812 553.758 232.363 555.188 232.352C556.629 232.363 557.602 231.812 557.602 230.758C557.602 229.691 556.629 229.105 555.188 229.094C553.758 229.105 552.809 229.691 552.82 230.758ZM554.555 239.383C554.543 240.379 556.02 240.93 558.82 240.93C561.539 240.93 563.016 240.379 563.016 239.383C563.016 238.316 561.539 237.848 558.82 237.836C556.02 237.848 554.543 238.316 554.555 239.383ZM593.109 221.828V234.484H590.133V229.445H586.805V227.031H590.133V221.828H593.109ZM574.992 232.141C578.484 230.969 580.078 228.18 580.148 225.508H575.859V223.117H587.438V225.508H583.195C583.254 227.992 584.777 230.5 588.094 231.602L586.617 233.945C584.273 233.184 582.645 231.637 581.719 229.727C580.781 231.895 579.07 233.641 576.539 234.508L574.992 232.141ZM578.484 239.078C578.484 236.488 581.273 234.965 585.82 234.953C590.379 234.965 593.168 236.488 593.18 239.078C593.168 241.668 590.379 243.18 585.82 243.18C581.273 243.18 578.484 241.668 578.484 239.078ZM581.461 239.078C581.461 240.297 582.996 240.906 585.82 240.906C588.656 240.906 590.191 240.297 590.203 239.078C590.191 237.848 588.656 237.238 585.82 237.25C582.996 237.238 581.461 237.848 581.461 239.078ZM602.789 223.258C606.176 223.246 608.684 225.426 608.695 228.484C608.684 231.555 606.176 233.723 602.789 233.734C599.426 233.723 596.848 231.555 596.859 228.484C596.848 225.426 599.426 223.246 602.789 223.258ZM595.969 236.406C599.777 236.418 605.051 236.371 609.609 235.727L609.844 237.883C605.109 238.809 600.047 238.844 596.32 238.844L595.969 236.406ZM599.836 228.484C599.824 230.172 601.102 231.145 602.789 231.133C604.488 231.145 605.777 230.172 605.789 228.484C605.777 226.82 604.488 225.836 602.789 225.836C601.102 225.836 599.824 226.82 599.836 228.484ZM610.828 243.203V221.828H613.805V243.203H610.828ZM624.68 226.656C624.691 230.664 626.309 234.566 629.859 236.102L628.031 238.492C625.664 237.344 624.07 235.211 623.18 232.574C622.266 235.375 620.625 237.672 618.188 238.867L616.312 236.43C619.969 234.777 621.633 230.664 621.656 226.656V223.469H624.68V226.656ZM627.469 230.945V228.531H631.664V221.828H634.617V243.203H631.664V230.945H627.469Z" fill="#6C6C6C"/>
<line x1="683" y1="249.5" x2="795" y2="249.5" stroke="#4B71EF"/>
<path d="M693.664 225.508V227.754H692.18V235.293C692.834 235.244 693.479 235.176 694.094 235.098L694.23 237.109C690.607 237.764 686.574 237.842 683.527 237.852L683.234 235.586C683.83 235.586 684.475 235.586 685.148 235.576V227.754H683.684V225.508H693.664ZM687.863 235.527L689.484 235.469V227.754H687.863V235.527ZM694.875 241.875V223.945H697.688V230.664H700.227V232.93H697.688V241.875H694.875ZM705.852 224.434C708.596 224.434 710.686 226.172 710.695 228.574C710.686 230.957 708.596 232.686 705.852 232.695C703.068 232.686 700.979 230.957 700.988 228.574C700.979 226.172 703.068 224.434 705.852 224.434ZM703.664 235.703V233.555H715.812V238.594H706.457V239.492H716.242V241.68H703.723V236.562H713V235.703H703.664ZM703.703 228.574C703.693 229.775 704.611 230.42 705.852 230.43C707.072 230.42 707.971 229.775 707.961 228.574C707.971 227.373 707.072 226.729 705.852 226.719C704.611 226.729 703.693 227.373 703.703 228.574ZM713 232.871V223.945H715.812V232.871H713ZM729.406 226.934C729.406 229.189 730.461 231.475 733.391 232.441L731.867 234.609C730.021 233.945 728.771 232.715 728.029 231.152C727.268 232.93 725.92 234.316 723.879 235.039L722.355 232.832C725.441 231.865 726.545 229.424 726.555 226.914V225.059H729.406V226.934ZM725.656 241.582V235.801H728.508V239.336H738.059V241.582H725.656ZM731.73 229.902V227.656H734.895V223.965H737.688V237.148H734.895V229.902H731.73ZM747.492 225.117V227.344H743.059V228.594H747.316V230.703H743.059V232.012C744.865 231.982 746.271 231.895 747.844 231.641L748.117 233.887C746.027 234.248 744.26 234.307 741.613 234.297H740.363V225.117H747.492ZM742.766 237.832V235.605H755.246V241.875H752.434V237.832H742.766ZM748.723 234.785V224.277H751.34V228.242H752.57V223.965H755.246V234.902H752.57V230.488H751.34V234.785H748.723ZM771.301 223.945V230.84H773.84V233.164H771.301V241.875H768.527V223.945H771.301ZM756.984 228.789V226.562H760.871V224.238H763.684V226.562H767.473V228.789H756.984ZM757.629 233.965C757.609 231.436 759.592 229.639 762.277 229.648C764.895 229.639 766.896 231.436 766.906 233.965C766.896 236.494 764.895 238.281 762.277 238.281C759.592 238.281 757.609 236.494 757.629 233.965ZM760.324 233.965C760.305 235.283 761.125 236.006 762.277 235.996C763.391 236.006 764.201 235.283 764.211 233.965C764.201 232.676 763.391 231.924 762.277 231.914C761.125 231.924 760.305 232.676 760.324 233.965ZM789.504 223.945V241.875H786.652V223.945H789.504ZM774.367 236.66C778.928 234.512 780.842 231.855 781.242 227.988H775.383V225.801H784.113C784.104 231.328 782.355 235.83 775.832 238.887L774.367 236.66Z" fill="#4B71EF"/>
<path d="M972.492 221.828V243.203H969.469V221.828H972.492ZM958.688 223.516V228.719H963.281V223.516H966.234V238.211H955.688V223.516H958.688ZM958.688 235.797H963.281V231.039H958.688V235.797ZM992.953 223.68V225.695C992.953 228.367 992.953 231.367 992.086 235.891L989.086 235.586C989.895 231.555 989.93 228.555 989.953 226.047H977.391V223.68H992.953ZM994.828 238.117V240.555H975.375V238.117H982.336V230.781H985.312V238.117H994.828Z" fill="#6C6C6C"/>
<line x1="1081" y1="246.5" x2="1193" y2="246.5" stroke="#4B71EF"/>
<path d="M1091.66 222.508V224.754H1090.18V232.293C1090.83 232.244 1091.48 232.176 1092.09 232.098L1092.23 234.109C1088.61 234.764 1084.57 234.842 1081.53 234.852L1081.23 232.586C1081.83 232.586 1082.47 232.586 1083.15 232.576V224.754H1081.68V222.508H1091.66ZM1085.86 232.527L1087.48 232.469V224.754H1085.86V232.527ZM1092.88 238.875V220.945H1095.69V227.664H1098.23V229.93H1095.69V238.875H1092.88ZM1103.85 221.434C1106.6 221.434 1108.69 223.172 1108.7 225.574C1108.69 227.957 1106.6 229.686 1103.85 229.695C1101.07 229.686 1098.98 227.957 1098.99 225.574C1098.98 223.172 1101.07 221.434 1103.85 221.434ZM1101.66 232.703V230.555H1113.81V235.594H1104.46V236.492H1114.24V238.68H1101.72V233.562H1111V232.703H1101.66ZM1101.7 225.574C1101.69 226.775 1102.61 227.42 1103.85 227.43C1105.07 227.42 1105.97 226.775 1105.96 225.574C1105.97 224.373 1105.07 223.729 1103.85 223.719C1102.61 223.729 1101.69 224.373 1101.7 225.574ZM1111 229.871V220.945H1113.81V229.871H1111ZM1127.41 223.934C1127.41 226.189 1128.46 228.475 1131.39 229.441L1129.87 231.609C1128.02 230.945 1126.77 229.715 1126.03 228.152C1125.27 229.93 1123.92 231.316 1121.88 232.039L1120.36 229.832C1123.44 228.865 1124.54 226.424 1124.55 223.914V222.059H1127.41V223.934ZM1123.66 238.582V232.801H1126.51V236.336H1136.06V238.582H1123.66ZM1129.73 226.902V224.656H1132.89V220.965H1135.69V234.148H1132.89V226.902H1129.73ZM1145.49 222.117V224.344H1141.06V225.594H1145.32V227.703H1141.06V229.012C1142.87 228.982 1144.27 228.895 1145.84 228.641L1146.12 230.887C1144.03 231.248 1142.26 231.307 1139.61 231.297H1138.36V222.117H1145.49ZM1140.77 234.832V232.605H1153.25V238.875H1150.43V234.832H1140.77ZM1146.72 231.785V221.277H1149.34V225.242H1150.57V220.965H1153.25V231.902H1150.57V227.488H1149.34V231.785H1146.72ZM1169.3 220.945V227.84H1171.84V230.164H1169.3V238.875H1166.53V220.945H1169.3ZM1154.98 225.789V223.562H1158.87V221.238H1161.68V223.562H1165.47V225.789H1154.98ZM1155.63 230.965C1155.61 228.436 1157.59 226.639 1160.28 226.648C1162.89 226.639 1164.9 228.436 1164.91 230.965C1164.9 233.494 1162.89 235.281 1160.28 235.281C1157.59 235.281 1155.61 233.494 1155.63 230.965ZM1158.32 230.965C1158.3 232.283 1159.12 233.006 1160.28 232.996C1161.39 233.006 1162.2 232.283 1162.21 230.965C1162.2 229.676 1161.39 228.924 1160.28 228.914C1159.12 228.924 1158.3 229.676 1158.32 230.965ZM1187.5 220.945V238.875H1184.65V220.945H1187.5ZM1172.37 233.66C1176.93 231.512 1178.84 228.855 1179.24 224.988H1173.38V222.801H1182.11C1182.1 228.328 1180.36 232.83 1173.83 235.887L1172.37 233.66Z" fill="#4B71EF"/>
<path d="M244.055 244.984V230.395H247.316V232.211H247.434C247.824 231.254 248.732 230.258 250.422 230.258C252.668 230.258 254.66 231.986 254.66 235.707C254.66 239.301 252.775 241.156 250.422 241.156C248.791 241.156 247.844 240.248 247.434 239.281H247.355V244.984H244.055ZM247.277 235.688C247.277 237.445 248.02 238.578 249.289 238.578C250.578 238.578 251.291 237.436 251.281 235.688C251.291 233.959 250.588 232.836 249.289 232.836C248.01 232.836 247.277 233.93 247.277 235.688ZM256.398 241V230.395H259.602V232.309H259.699C260.09 230.922 261.027 230.248 262.199 230.238C262.502 230.248 262.863 230.297 263.137 230.355V233.227C262.824 233.129 262.229 233.061 261.828 233.07C260.598 233.061 259.689 233.92 259.699 235.199V241H256.398ZM269.055 241.195C265.744 241.195 263.723 238.998 263.723 235.727C263.723 232.455 265.744 230.258 269.055 230.258C272.375 230.258 274.387 232.455 274.387 235.727C274.387 238.998 272.375 241.195 269.055 241.195ZM267.082 235.707C267.072 237.484 267.775 238.705 269.074 238.715C270.334 238.705 271.037 237.484 271.027 235.707C271.037 233.939 270.334 232.709 269.074 232.699C267.775 232.709 267.072 233.939 267.082 235.707ZM276.086 230.395H279.387V241.449C279.377 244.047 277.717 244.975 275.109 244.984L274.426 244.965V242.445C274.592 242.465 274.709 242.475 274.836 242.465C275.773 242.475 276.086 242.123 276.086 241.391V230.395ZM276.027 227.543C276.027 226.664 276.789 225.951 277.727 225.961C278.674 225.951 279.436 226.664 279.445 227.543C279.436 228.422 278.674 229.125 277.727 229.125C276.789 229.125 276.027 228.422 276.027 227.543ZM286.438 241.195C283.117 241.195 281.086 239.125 281.086 235.746C281.086 232.455 283.137 230.258 286.32 230.258C289.299 230.258 291.438 232.152 291.438 235.668V236.508H284.328V236.566C284.338 237.924 285.158 238.812 286.496 238.812C287.395 238.812 288.068 238.422 288.332 237.797H291.398C290.998 239.867 289.182 241.195 286.438 241.195ZM284.328 234.574H288.371C288.352 233.441 287.531 232.641 286.398 232.641C285.236 232.641 284.377 233.48 284.328 234.574ZM298.059 241.195C294.719 241.195 292.727 238.969 292.727 235.727C292.727 232.475 294.738 230.258 298.059 230.258C300.959 230.258 302.863 231.938 302.941 234.516H299.875C299.729 233.441 299.084 232.768 298.098 232.758C296.887 232.768 296.076 233.793 296.086 235.688C296.076 237.611 296.877 238.646 298.098 238.637C299.045 238.646 299.729 238.021 299.875 236.898H302.941C302.854 239.486 301.008 241.195 298.059 241.195ZM310.559 230.395V232.816H308.625V237.68C308.635 238.344 308.967 238.549 309.523 238.559C309.797 238.578 310.324 238.549 310.695 238.52V241.039C310.373 241.088 309.826 241.146 309.055 241.156C306.721 241.146 305.324 240.189 305.344 238.051V232.816H303.918V230.395H305.344V227.855H308.625V230.395H310.559ZM314.113 241.195C313.146 241.195 312.336 240.404 312.355 239.418C312.336 238.461 313.146 237.68 314.113 237.68C315.051 237.68 315.881 238.461 315.891 239.418C315.881 240.404 315.051 241.195 314.113 241.195ZM318.098 244.984V230.395H321.359V232.211H321.477C321.867 231.254 322.775 230.258 324.465 230.258C326.711 230.258 328.703 231.986 328.703 235.707C328.703 239.301 326.818 241.156 324.465 241.156C322.834 241.156 321.887 240.248 321.477 239.281H321.398V244.984H318.098ZM321.32 235.688C321.32 237.445 322.062 238.578 323.332 238.578C324.621 238.578 325.334 237.436 325.324 235.688C325.334 233.959 324.631 232.836 323.332 232.836C322.053 232.836 321.32 233.93 321.32 235.688ZM334.328 241.156C331.965 241.156 330.07 239.301 330.07 235.707C330.07 231.986 332.072 230.258 334.309 230.258C336.008 230.258 336.916 231.254 337.316 232.211H337.395V226.859H340.676V241H337.414V239.281H337.316C336.887 240.248 335.949 241.156 334.328 241.156ZM333.449 235.688C333.449 237.436 334.162 238.578 335.441 238.578C336.721 238.578 337.463 237.445 337.453 235.688C337.463 233.93 336.721 232.836 335.441 232.836C334.152 232.836 333.449 233.959 333.449 235.688ZM348.762 230.395V232.816H346.75V241H343.449V232.816H342.004V230.395H343.449V229.809C343.449 227.406 344.855 226.195 347.062 226.195C347.814 226.195 348.391 226.264 348.957 226.371V228.812C348.508 228.773 348.205 228.764 348.059 228.754C347.229 228.764 346.74 229.076 346.75 229.887V230.395H348.762Z" fill="black"/>
<rect x="1335.5" y="463.5" width="285" height="512" rx="18.5" fill="white"/>
<rect x="1335.5" y="463.5" width="285" height="512" rx="18.5" stroke="#BFBFBF"/>
<path d="M1384.8 709.734V711.824H1368.53V709.734H1375.36V706.531H1369.88V704.578H1372.26V699.5H1369.8V697.508H1383.43V699.5H1380.93V704.578H1383.35V706.531H1377.84V709.734H1384.8ZM1374.76 704.578H1378.47V699.5H1374.76V704.578ZM1392.71 700.867C1392.7 703.738 1394.18 706.814 1397.16 708.055L1395.81 710.008C1393.72 709.119 1392.28 707.352 1391.48 705.203C1390.68 707.537 1389.2 709.49 1387.1 710.457L1385.68 708.484C1388.62 707.166 1390.15 703.875 1390.15 700.867V699.773H1386.38V697.742H1396.42V699.773H1392.71V700.867ZM1398.18 713.797V696.023H1400.7V713.797H1398.18ZM1409.76 699.09C1409.76 701.551 1410.98 703.982 1413.78 705.027L1412.39 706.961C1410.53 706.229 1409.25 704.822 1408.52 703.074C1407.75 704.939 1406.37 706.414 1404.35 707.176L1403.02 705.223C1405.94 704.188 1407.23 701.697 1407.24 699.09V697.039H1409.76V699.09ZM1406.24 713.484V707.957H1408.76V711.492H1418.45V713.484H1406.24ZM1412.55 703.797V701.785H1415.6V700.359H1412.55V698.348H1415.6V696.043H1418.08V709.227H1415.6V703.797H1412.55Z" fill="black"/>
<path d="M1361.5 724.5H1584.5V775C1584.5 779.142 1581.14 782.5 1577 782.5H1369C1364.86 782.5 1361.5 779.142 1361.5 775V724.5Z" fill="#FBFBFB" stroke="#ECECEC"/>
<path d="M1386.45 761V746.859H1395.21V748.715H1388.59V752.992H1394.59V754.828H1388.59V761H1386.45ZM1397.3 761V750.395H1399.32V752.074H1399.43C1399.82 750.941 1400.89 750.229 1402.13 750.238C1402.38 750.229 1402.79 750.258 1403.01 750.277V752.27C1402.83 752.23 1402.34 752.143 1401.91 752.152C1400.47 752.143 1399.39 753.148 1399.39 754.535V761H1397.3ZM1408.71 761.215C1405.7 761.215 1403.74 759.027 1403.75 755.746C1403.74 752.445 1405.7 750.258 1408.71 750.258C1411.7 750.258 1413.65 752.445 1413.65 755.746C1413.65 759.027 1411.7 761.215 1408.71 761.215ZM1405.84 755.746C1405.84 757.768 1406.77 759.477 1408.71 759.477C1410.62 759.477 1411.54 757.768 1411.54 755.746C1411.54 753.715 1410.62 751.986 1408.71 751.977C1406.77 751.986 1405.84 753.715 1405.84 755.746ZM1417.79 754.711V761H1415.7V750.395H1417.71V752.133H1417.83C1418.33 750.99 1419.38 750.258 1420.96 750.258C1423.13 750.258 1424.58 751.635 1424.57 754.262V761H1422.5V754.516C1422.49 752.973 1421.66 752.055 1420.25 752.055C1418.82 752.055 1417.79 753.021 1417.79 754.711ZM1432.07 750.395V752.055H1429.9V757.875C1429.91 759.076 1430.5 759.291 1431.17 759.301C1431.47 759.301 1431.93 759.271 1432.23 759.242V761.059C1431.94 761.098 1431.49 761.137 1430.92 761.137C1429.29 761.137 1427.81 760.238 1427.83 758.305V752.055H1426.27V750.395H1427.83V747.855H1429.9V750.395H1432.07ZM1438.55 761.215C1435.43 761.215 1433.51 759.057 1433.52 755.766C1433.51 752.504 1435.46 750.258 1438.42 750.258C1440.83 750.258 1443.12 751.752 1443.12 755.59V756.332H1435.59C1435.64 758.354 1436.84 759.496 1438.57 759.496C1439.76 759.496 1440.53 758.988 1440.88 758.344H1442.99C1442.52 760.062 1440.89 761.215 1438.55 761.215ZM1435.6 754.77H1441.07C1441.07 753.158 1440.03 751.967 1438.44 751.977C1436.77 751.967 1435.68 753.275 1435.6 754.77ZM1447.29 754.711V761H1445.2V750.395H1447.21V752.133H1447.32C1447.82 750.99 1448.87 750.258 1450.45 750.258C1452.63 750.258 1454.07 751.635 1454.06 754.262V761H1451.99V754.516C1451.98 752.973 1451.15 752.055 1449.75 752.055C1448.31 752.055 1447.29 753.021 1447.29 754.711ZM1460.57 761.215C1458.01 761.205 1456.13 759.145 1456.13 755.727C1456.13 752.27 1458.04 750.258 1460.59 750.258C1462.56 750.258 1463.27 751.449 1463.65 752.113H1463.75V746.859H1465.84V761H1463.81V759.34H1463.65C1463.26 760.033 1462.5 761.205 1460.57 761.215ZM1458.26 755.688C1458.25 757.816 1459.21 759.428 1461.04 759.438C1462.81 759.428 1463.81 757.914 1463.81 755.688C1463.81 753.48 1462.83 752.025 1461.04 752.035C1459.19 752.025 1458.25 753.598 1458.26 755.688Z" fill="#535353"/>
<path d="M1369 611.5H1577C1581.14 611.5 1584.5 614.858 1584.5 619V669.5H1361.5V619C1361.5 614.858 1364.86 611.5 1369 611.5Z" fill="#FBFBFB" stroke="#ECECEC"/>
<path d="M1395.06 633.195V634.719H1388.52V636.633H1394.57V638.078H1388.52V640.109C1392.01 640.109 1394.05 640.041 1396.43 639.641L1396.62 641.125C1394.09 641.555 1391.91 641.604 1388.09 641.594H1386.64V633.195H1395.06ZM1388.65 649.445V643.41H1400.16V649.445H1388.65ZM1390.49 647.941H1398.34V644.855H1390.49V647.941ZM1398.3 642.59V632.18H1400.16V642.59H1398.3ZM1409.04 635.383C1409.03 637.609 1410.59 639.641 1413.24 640.48L1412.36 641.926C1410.37 641.291 1408.92 639.973 1408.14 638.312C1407.38 640.227 1405.85 641.74 1403.75 642.473L1402.79 640.988C1405.53 640.09 1407.18 637.834 1407.19 635.402V634.914H1403.34V633.41H1412.81V634.914H1409.04V635.383ZM1405.16 646.34C1405.16 644.289 1407.39 643.088 1411.04 643.098C1414.64 643.088 1416.84 644.289 1416.84 646.34C1416.84 648.42 1414.64 649.631 1411.04 649.621C1407.39 649.631 1405.16 648.42 1405.16 646.34ZM1407.01 646.34C1407 647.512 1408.51 648.166 1411.04 648.156C1413.54 648.166 1415.03 647.512 1415.02 646.34C1415.03 645.197 1413.54 644.553 1411.04 644.562C1408.51 644.553 1407 645.197 1407.01 646.34ZM1414.82 642.668V632.16H1416.68V636.496H1419.22V638.02H1416.68V642.668H1414.82Z" fill="#535353"/>
<path d="M1407.45 506.504L1409.19 500.859H1411.47L1410.54 506.504H1407.45ZM1412 506.504L1413.74 500.859H1416.02L1415.09 506.504H1412ZM1438.35 512.539V514.863H1421.96V512.539H1438.35ZM1423.19 502.695V500.449H1437.04V502.695H1434.62V507.832H1436.94V510.059H1423.27V507.832H1425.55V502.695H1423.19ZM1428.37 507.832H1431.84V502.695H1428.37V507.832ZM1455.63 512.656V514.941H1439.25V512.656H1446.02V510.156H1441.08V503.984H1451.02V502.305H1441.06V500.059H1453.8V506.172H1443.89V507.891H1454.21V510.156H1448.8V512.656H1455.63ZM1468.39 499.297V509.785H1465.73V505.586H1463.99V503.32H1465.73V499.297H1468.39ZM1456.18 507.617C1458.66 506.709 1459.55 504.736 1459.56 502.793V502.422H1456.86V500.195H1464.81V502.422H1462.29V502.812C1462.28 504.688 1463.12 506.475 1465.44 507.344L1464.03 509.492C1462.56 508.945 1461.57 507.969 1460.95 506.758C1460.31 508.115 1459.25 509.209 1457.64 509.824L1456.18 507.617ZM1459.5 512.695V510.469H1471.98V516.875H1469.17V512.695H1459.5ZM1469.3 509.863V498.945H1471.98V509.863H1469.3ZM1488.46 508.066V510.273H1475.69V500.195H1488.33V502.461H1478.56V504.102H1487.9V506.289H1478.56V508.066H1488.46ZM1473.82 514.863V512.598H1490.2V514.863H1473.82ZM1496.88 500.117C1499.73 500.107 1501.88 501.973 1501.9 504.57C1501.88 507.178 1499.73 509.033 1496.88 509.023C1494.06 509.033 1491.86 507.178 1491.86 504.57C1491.86 501.973 1494.06 500.107 1496.88 500.117ZM1491.18 511.074C1494.33 511.084 1498.72 511.035 1502.51 510.508L1502.72 512.539C1498.8 513.301 1494.6 513.34 1491.49 513.34L1491.18 511.074ZM1494.66 504.57C1494.66 505.908 1495.63 506.611 1496.88 506.602C1498.16 506.611 1499.15 505.908 1499.17 504.57C1499.15 503.262 1498.17 502.539 1496.88 502.539C1495.62 502.539 1494.66 503.262 1494.66 504.57ZM1503.46 516.914V498.945H1506.26V516.914H1503.46ZM1529.48 505.625V507.91H1527.08V516.816H1524.27V498.945H1527.08V505.625H1529.48ZM1513.37 512.5V500.645H1516.18V510.186C1518.37 510.137 1520.74 509.922 1523.21 509.434L1523.5 511.758C1520.53 512.363 1517.59 512.51 1514.97 512.5H1513.37ZM1544.71 503.672V505.859H1532.12V499.59H1534.91V503.672H1544.71ZM1530.12 509.805V507.598H1546.51V509.805H1530.12ZM1531.94 516.484V511.152H1534.75V514.238H1544.83V516.484H1531.94ZM1551.88 506.504L1553.62 500.859H1555.91L1554.97 506.504H1551.88ZM1556.43 506.504L1558.17 500.859H1560.46L1559.52 506.504H1556.43Z" fill="black"/>
<path fill-rule="evenodd" clip-rule="evenodd" d="M1368 508.685C1368.02 510.223 1368.65 511.691 1369.75 512.766C1370.85 513.841 1372.33 514.435 1373.87 514.417H1374.66L1377.01 516.871C1377.25 517.113 1377.58 517.25 1377.92 517.25C1378.26 517.25 1378.59 517.113 1378.82 516.871L1381.18 514.417H1381.97C1383.51 514.435 1384.99 513.841 1386.09 512.766C1387.19 511.691 1387.82 510.223 1387.83 508.685V501.729C1387.8 498.528 1385.17 495.963 1381.97 496H1373.87C1370.66 495.963 1368.04 498.528 1368 501.729V508.685Z" stroke="black" stroke-width="2" stroke-linecap="round" stroke-linejoin="round"/>
<path d="M1373.67 502.084C1373.12 502.084 1372.67 502.532 1372.67 503.084C1372.67 503.636 1373.12 504.084 1373.67 504.084V502.084ZM1382.17 504.084C1382.72 504.084 1383.17 503.636 1383.17 503.084C1383.17 502.532 1382.72 502.084 1382.17 502.084V504.084ZM1373.67 506.334C1373.12 506.334 1372.67 506.782 1372.67 507.334C1372.67 507.886 1373.12 508.334 1373.67 508.334V506.334ZM1382.17 508.334C1382.72 508.334 1383.17 507.886 1383.17 507.334C1383.17 506.782 1382.72 506.334 1382.17 506.334V508.334ZM1373.67 504.084H1382.17V502.084H1373.67V504.084ZM1373.67 508.334H1382.17V506.334H1373.67V508.334Z" fill="black"/>
<path d="M1372.26 529.164V542.216H1371.11V529.164H1372.26ZM1362.01 534.716C1362.02 531.947 1363.4 530.182 1365.34 530.175C1367.27 530.182 1368.67 531.947 1368.66 534.716C1368.67 537.492 1367.27 539.25 1365.34 539.242C1363.4 539.25 1362.02 537.492 1362.01 534.716ZM1363.12 534.716C1363.12 536.833 1364.03 538.224 1365.34 538.217C1366.65 538.224 1367.55 536.833 1367.55 534.716C1367.55 532.599 1366.65 531.208 1365.34 531.2C1364.03 531.208 1363.12 532.599 1363.12 534.716ZM1390.18 539.535V540.517H1378.26V539.535H1390.18ZM1379.31 531.435V530.482H1389.04V531.435H1386.97V535.99H1389.01V536.928H1379.34V535.99H1381.38V531.435H1379.31ZM1382.52 535.99H1385.84V531.435H1382.52V535.99ZM1403.14 539.608V540.575H1391.22V539.608H1396.58V537.147H1392.71V533.134H1400.51V531.083H1392.68V530.131H1401.63V534.071H1393.86V536.195H1401.94V537.147H1397.71V539.608H1403.14ZM1412.71 529.457V537.016H1411.6V533.485H1409.6V532.533H1411.6V529.457H1412.71ZM1404.24 535.902C1405.93 535.192 1406.93 533.507 1406.92 531.962V531.186H1404.49V530.233H1410.34V531.186H1408.04V531.962C1408.04 533.375 1408.99 534.921 1410.64 535.609L1410.04 536.488C1408.82 535.976 1407.96 535.001 1407.51 533.881C1407.05 535.148 1406.15 536.239 1404.86 536.811L1404.24 535.902ZM1406.47 538.642V537.704H1415.24V542.187H1414.12V538.642H1406.47ZM1414.14 537.133V529.164H1415.24V537.133H1414.14ZM1427.69 536.21V537.147H1418.69V530.292H1427.55V531.259H1419.86V533.192H1427.27V534.115H1419.86V536.21H1427.69ZM1417.15 540.487V539.535H1429.07V540.487H1417.15ZM1441.27 529.164V542.187H1440.16V529.164H1441.27ZM1430.27 534.789C1430.28 532.021 1431.38 530.27 1433.07 530.263C1434.65 530.27 1435.72 531.793 1435.87 534.247H1437.55V529.442H1438.65V541.527H1437.55V535.199H1435.88C1435.77 537.733 1434.67 539.323 1433.07 539.315C1431.38 539.323 1430.28 537.558 1430.27 534.789ZM1431.36 534.789C1431.34 536.898 1432.02 538.231 1433.07 538.217C1434.13 538.231 1434.81 536.898 1434.8 534.789C1434.81 532.672 1434.13 531.347 1433.07 531.347C1432.02 531.347 1431.34 532.672 1431.36 534.789ZM1447.66 532.665C1447.65 535.023 1449.17 537.396 1451.06 538.261L1450.37 539.198C1448.89 538.437 1447.67 536.884 1447.09 535.031C1446.51 536.979 1445.29 538.649 1443.81 539.433L1443.06 538.51C1444.97 537.572 1446.48 535.067 1446.49 532.665V530.292H1447.66V532.665ZM1449.64 534.555V533.617H1452.73V529.164H1453.87V542.216H1452.73V534.555H1449.64ZM1460.3 530.116C1462.35 530.124 1463.8 531.369 1463.8 533.178C1463.8 534.994 1462.35 536.232 1460.3 536.239C1458.24 536.232 1456.78 534.994 1456.79 533.178C1456.78 531.369 1458.24 530.124 1460.3 530.116ZM1456.11 538.363C1458.51 538.371 1461.83 538.349 1464.71 537.924L1464.8 538.773C1461.82 539.33 1458.62 539.345 1456.27 539.345L1456.11 538.363ZM1457.91 533.178C1457.91 534.394 1458.91 535.229 1460.3 535.229C1461.68 535.229 1462.68 534.394 1462.67 533.178C1462.68 531.969 1461.68 531.127 1460.3 531.127C1458.91 531.127 1457.91 531.969 1457.91 533.178ZM1465.58 542.216V529.164H1466.72V542.216H1465.58ZM1484.96 534.364V535.331H1482.85V542.187H1481.7V529.164H1482.85V534.364H1484.96ZM1473.31 538.876V530.453H1474.45V537.909C1476.36 537.909 1478.3 537.763 1480.44 537.309L1480.59 538.29C1478.34 538.744 1476.32 538.876 1474.35 538.876H1473.31ZM1489.99 530.116C1492.04 530.124 1493.49 531.369 1493.5 533.178C1493.49 534.994 1492.04 536.232 1489.99 536.239C1487.94 536.232 1486.47 534.994 1486.48 533.178C1486.47 531.369 1487.94 530.124 1489.99 530.116ZM1485.8 538.363C1488.21 538.371 1491.52 538.349 1494.4 537.924L1494.49 538.773C1491.51 539.33 1488.31 539.345 1485.97 539.345L1485.8 538.363ZM1487.61 533.178C1487.6 534.394 1488.6 535.229 1489.99 535.229C1491.37 535.229 1492.37 534.394 1492.37 533.178C1492.37 531.969 1491.37 531.127 1489.99 531.127C1488.6 531.127 1487.6 531.969 1487.61 533.178ZM1495.27 542.216V529.164H1496.41V542.216H1495.27ZM1513.26 537.558V542.187H1512.1V538.48H1504.5V537.558H1513.26ZM1502.67 533.017C1502.66 531.2 1504.1 529.904 1506.05 529.911C1507.18 529.904 1508.14 530.351 1508.74 531.083H1512.1V529.164H1513.26V536.84H1512.1V534.965H1508.74C1508.14 535.705 1507.18 536.144 1506.05 536.137C1504.1 536.151 1502.66 534.87 1502.67 533.017ZM1503.76 533.017C1503.76 534.284 1504.72 535.17 1506.05 535.17C1507.33 535.17 1508.3 534.284 1508.3 533.017C1508.3 531.793 1507.33 530.893 1506.05 530.893C1504.72 530.893 1503.76 531.793 1503.76 533.017ZM1509.26 534.013H1512.1V532.035H1509.26C1509.36 532.343 1509.42 532.665 1509.42 533.017C1509.42 533.368 1509.36 533.705 1509.26 534.013ZM1525.6 529.12V532.284H1527.58V533.236H1525.6V536.327H1524.46V529.12H1525.6ZM1515.45 531.273V530.351H1518.76V529.032H1519.91V530.351H1523.22V531.273H1515.45ZM1516.2 533.998C1516.19 532.68 1517.44 531.867 1519.33 531.859C1521.22 531.867 1522.46 532.68 1522.47 533.998C1522.46 535.324 1521.22 536.129 1519.33 536.137C1517.44 536.129 1516.19 535.324 1516.2 533.998ZM1517.3 537.865V537.001H1525.6V539.887H1518.46V541.161H1526.09V542.04H1517.33V539.037H1524.46V537.865H1517.3ZM1517.3 533.998C1517.29 534.782 1518.1 535.272 1519.33 535.272C1520.57 535.272 1521.37 534.782 1521.39 533.998C1521.37 533.222 1520.57 532.716 1519.33 532.709C1518.1 532.716 1517.29 533.222 1517.3 533.998ZM1539.14 529.164V536.151H1538V529.164H1539.14ZM1528.7 532.797C1528.69 531.017 1530.13 529.794 1532.11 529.809C1534.09 529.794 1535.51 531.017 1535.52 532.797C1535.51 534.569 1534.09 535.792 1532.11 535.785C1530.13 535.792 1528.69 534.569 1528.7 532.797ZM1529.82 532.797C1529.81 533.983 1530.77 534.826 1532.11 534.833C1533.43 534.826 1534.39 533.983 1534.39 532.797C1534.39 531.603 1533.43 530.768 1532.11 530.775C1530.77 530.768 1529.81 531.603 1529.82 532.797ZM1530.7 542.011V536.811H1531.84V538.393H1538V536.811H1539.14V542.011H1530.7ZM1531.84 541.073H1538V539.315H1531.84V541.073ZM1552.09 529.164V542.187H1550.95V529.164H1552.09ZM1542.2 538.832V530.453H1543.33V537.836C1545.32 537.821 1547.37 537.667 1549.55 537.206L1549.72 538.188C1547.4 538.671 1545.34 538.832 1543.26 538.832H1542.2ZM1564.39 529.164V534.32H1566.58V535.287H1564.39V542.216H1563.25V529.164H1564.39ZM1554.89 538.949V530.438H1560.97V531.391H1556.03V537.982C1558.39 537.975 1560.05 537.873 1561.99 537.514L1562.14 538.51C1560.09 538.876 1558.39 538.949 1555.91 538.949H1554.89ZM1568.66 541.088C1568.14 541.081 1567.7 540.656 1567.72 540.136C1567.7 539.623 1568.14 539.198 1568.66 539.198C1569.18 539.198 1569.6 539.623 1569.59 540.136C1569.6 540.656 1569.18 541.081 1568.66 541.088Z" fill="#626262"/>
<path d="M1597.79 942.959C1598.05 942.636 1598 942.164 1597.68 941.905C1597.35 941.645 1596.88 941.698 1596.62 942.021L1597.79 942.959ZM1591.31 949.849L1591.88 950.338C1591.88 950.332 1591.89 950.325 1591.9 950.318L1591.31 949.849ZM1591.14 950.267L1590.39 950.218L1590.39 950.232L1591.14 950.267ZM1591 953.29L1590.25 953.255C1590.25 953.292 1590.25 953.33 1590.25 953.367L1591 953.29ZM1591.79 953.977L1591.81 954.726C1591.86 954.725 1591.91 954.718 1591.96 954.707L1591.79 953.977ZM1594.79 953.266L1594.96 953.996L1594.97 953.993L1594.79 953.266ZM1595.17 953.022L1595.75 953.499L1595.76 953.491L1595.17 953.022ZM1601.8 945.959C1602.06 945.636 1602 945.164 1601.68 944.905C1601.36 944.646 1600.89 944.697 1600.63 945.021L1601.8 945.959ZM1596.63 942.021C1596.37 942.344 1596.42 942.816 1596.74 943.075C1597.07 943.334 1597.54 943.282 1597.8 942.959L1596.63 942.021ZM1598.8 940.51L1599.39 940.979C1599.39 940.967 1599.4 940.954 1599.41 940.941L1598.8 940.51ZM1600.43 940.19L1600.91 939.613C1600.88 939.593 1600.86 939.575 1600.83 939.558L1600.43 940.19ZM1602.67 942.052L1603.2 941.522C1603.18 941.506 1603.16 941.49 1603.15 941.475L1602.67 942.052ZM1603 942.873L1603.75 942.877L1603.75 942.877L1603 942.873ZM1602.66 943.69L1602.13 943.154C1602.11 943.175 1602.09 943.197 1602.07 943.22L1602.66 943.69ZM1600.63 945.02C1600.37 945.343 1600.42 945.815 1600.74 946.075C1601.07 946.334 1601.54 946.282 1601.8 945.959L1600.63 945.02ZM1597.95 942.379C1597.89 941.969 1597.51 941.687 1597.1 941.748C1596.69 941.809 1596.41 942.191 1596.47 942.601L1597.95 942.379ZM1601.31 946.233C1601.72 946.177 1602.01 945.799 1601.96 945.389C1601.9 944.978 1601.52 944.691 1601.11 944.747L1601.31 946.233ZM1596.62 942.021L1590.73 949.38L1591.9 950.318L1597.79 942.959L1596.62 942.021ZM1590.74 949.359C1590.54 949.6 1590.41 949.901 1590.39 950.218L1591.89 950.316C1591.89 950.324 1591.88 950.332 1591.88 950.338L1590.74 949.359ZM1590.39 950.232L1590.25 953.255L1591.75 953.324L1591.89 950.301L1590.39 950.232ZM1590.25 953.367C1590.34 954.159 1591.02 954.752 1591.81 954.726L1591.76 953.227C1591.76 953.227 1591.76 953.227 1591.76 953.226C1591.76 953.226 1591.75 953.225 1591.75 953.223C1591.75 953.222 1591.75 953.22 1591.75 953.218C1591.75 953.217 1591.75 953.216 1591.75 953.213L1590.25 953.367ZM1591.96 954.707L1594.96 953.996L1594.61 952.536L1591.61 953.247L1591.96 954.707ZM1594.97 953.993C1595.28 953.915 1595.55 953.742 1595.75 953.499L1594.59 952.545C1594.6 952.542 1594.6 952.54 1594.6 952.539L1594.97 953.993ZM1595.76 953.491L1601.8 945.959L1600.63 945.021L1594.59 952.553L1595.76 953.491ZM1597.8 942.959L1599.39 940.979L1598.21 940.041L1596.63 942.021L1597.8 942.959ZM1599.41 940.941C1599.55 940.744 1599.82 940.691 1600.02 940.821L1600.83 939.558C1599.95 938.995 1598.79 939.224 1598.19 940.078L1599.41 940.941ZM1599.95 940.766L1602.19 942.628L1603.15 941.475L1600.91 939.613L1599.95 940.766ZM1602.14 942.582C1602.21 942.658 1602.25 942.761 1602.25 942.869L1603.75 942.877C1603.76 942.369 1603.56 941.881 1603.2 941.522L1602.14 942.582ZM1602.25 942.869C1602.25 942.976 1602.21 943.079 1602.13 943.154L1603.18 944.225C1603.54 943.87 1603.75 943.384 1603.75 942.877L1602.25 942.869ZM1602.07 943.22L1600.63 945.02L1601.8 945.959L1603.24 944.159L1602.07 943.22ZM1596.47 942.601C1596.82 944.932 1598.98 946.55 1601.31 946.233L1601.11 944.747C1599.59 944.954 1598.18 943.899 1597.95 942.379L1596.47 942.601Z" fill="#7C7C7C"/>
<path d="M1375.12 584.039V586.031H1369V587.418H1374.59V589.332H1369V590.797C1372.14 590.787 1374.12 590.738 1376.37 590.367L1376.62 592.301C1374.09 592.74 1371.83 592.779 1368.03 592.77H1366.5V584.039H1375.12ZM1368.5 600.602V594.312H1380.41V600.602H1368.5ZM1370.96 598.609H1377.97V596.246H1370.96V598.609ZM1377.91 593.59V583.043H1380.41V593.59H1377.91ZM1388.57 584.215C1391.4 584.205 1393.49 586.021 1393.5 588.57C1393.49 591.129 1391.4 592.936 1388.57 592.945C1385.77 592.936 1383.62 591.129 1383.63 588.57C1383.62 586.021 1385.77 584.205 1388.57 584.215ZM1382.89 595.172C1386.06 595.182 1390.46 595.143 1394.26 594.605L1394.45 596.402C1390.51 597.174 1386.29 597.203 1383.18 597.203L1382.89 595.172ZM1386.11 588.57C1386.1 589.977 1387.17 590.787 1388.57 590.777C1389.99 590.787 1391.06 589.977 1391.07 588.57C1391.06 587.184 1389.99 586.363 1388.57 586.363C1387.17 586.363 1386.1 587.184 1386.11 588.57ZM1395.27 600.836V583.023H1397.75V600.836H1395.27ZM1419.69 594.332V600.797H1417.21V596.285H1407.48V594.332H1419.69ZM1404.94 588.316C1404.92 585.797 1406.97 583.961 1409.67 583.98C1411.1 583.971 1412.36 584.508 1413.21 585.406H1417.21V583.023H1419.69V593.531H1417.21V591.285H1413.21C1412.36 592.203 1411.1 592.74 1409.67 592.75C1406.97 592.74 1404.92 590.904 1404.94 588.316ZM1407.3 588.316C1407.29 589.771 1408.28 590.621 1409.67 590.621C1410.98 590.621 1411.98 589.771 1411.99 588.316C1411.98 586.93 1410.98 586.07 1409.67 586.07C1408.28 586.07 1407.29 586.93 1407.3 588.316ZM1414.25 589.293H1417.21V587.418H1414.26C1414.33 587.701 1414.36 588.004 1414.36 588.316C1414.36 588.658 1414.32 588.98 1414.25 589.293ZM1436.09 582.984V586.852H1438.5V588.844H1436.09V592.613H1433.59V582.984H1436.09ZM1421.99 586.246V584.352H1426.04V582.906H1428.52V584.352H1432.54V586.246H1421.99ZM1422.85 589.586C1422.85 587.809 1424.62 586.686 1427.27 586.676C1429.93 586.686 1431.64 587.809 1431.64 589.586C1431.64 591.402 1429.93 592.486 1427.27 592.496C1424.62 592.486 1422.85 591.402 1422.85 589.586ZM1424.3 595.133V593.336H1436.09V597.828H1426.78V598.844H1436.6V600.68H1424.34V596.129H1433.61V595.133H1424.3ZM1425.29 589.586C1425.28 590.348 1426.04 590.709 1427.27 590.719C1428.51 590.709 1429.28 590.348 1429.28 589.586C1429.28 588.834 1428.51 588.424 1427.27 588.434C1426.04 588.424 1425.28 588.834 1425.29 589.586Z" fill="black"/>
</svg>
