<svg width="19" height="19" viewBox="0 0 19 19" fill="none" xmlns="http://www.w3.org/2000/svg">
<path d="M0.667893 16.9179C0.277369 17.3084 0.277369 17.9416 0.667893 18.3321C1.05842 18.7226 1.69158 18.7226 2.08211 18.3321L0.667893 16.9179ZM10.2071 10.2071C10.5976 9.81658 10.5976 9.18342 10.2071 8.79289C9.81658 8.40237 9.18342 8.40237 8.79289 8.79289L10.2071 10.2071ZM8.79289 8.79289C8.40237 9.18342 8.40237 9.81658 8.79289 10.2071C9.18342 10.5976 9.81658 10.5976 10.2071 10.2071L8.79289 8.79289ZM18.3321 2.08211C18.7226 1.69158 18.7226 1.05842 18.3321 0.667893C17.9416 0.277369 17.3084 0.277369 16.9179 0.667893L18.3321 2.08211ZM10.2071 8.79289C9.81658 8.40237 9.18342 8.40237 8.79289 8.79289C8.40237 9.18342 8.40237 9.81658 8.79289 10.2071L10.2071 8.79289ZM16.9179 18.3321C17.3084 18.7226 17.9416 18.7226 18.3321 18.3321C18.7226 17.9416 18.7226 17.3084 18.3321 16.9179L16.9179 18.3321ZM8.79289 10.2071C9.18342 10.5976 9.81658 10.5976 10.2071 10.2071C10.5976 9.81658 10.5976 9.18342 10.2071 8.79289L8.79289 10.2071ZM2.08211 0.667893C1.69158 0.277369 1.05842 0.277369 0.667893 0.667893C0.277369 1.05842 0.277369 1.69158 0.667893 2.08211L2.08211 0.667893ZM2.08211 18.3321L10.2071 10.2071L8.79289 8.79289L0.667893 16.9179L2.08211 18.3321ZM10.2071 10.2071L18.3321 2.08211L16.9179 0.667893L8.79289 8.79289L10.2071 10.2071ZM8.79289 10.2071L16.9179 18.3321L18.3321 16.9179L10.2071 8.79289L8.79289 10.2071ZM10.2071 8.79289L2.08211 0.667893L0.667893 2.08211L8.79289 10.2071L10.2071 8.79289Z" fill="#696969"/>
</svg>
