<svg width="150" height="150" viewBox="0 0 150 150" fill="none" xmlns="http://www.w3.org/2000/svg">
<circle cx="75" cy="75" r="56.25" fill="#46B58D" fill-opacity="0.65"/>
<path d="M56.4062 61.5938C60.5625 61.6094 63.5469 63.9375 63.5625 67.375C63.5469 70.1562 61.5156 72.2812 58.4688 72.9375V75.0156C60.7031 74.875 62.9219 74.6719 65 74.375L65.3125 77.2812C59.4531 78.3125 52.9375 78.4531 48.1875 78.4375L47.7812 75.2812C49.75 75.2812 52.0469 75.2656 54.4688 75.2031V72.9688C51.3281 72.3438 49.2344 70.2031 49.25 67.375C49.2344 63.9375 52.2188 61.6094 56.4062 61.5938ZM51.5312 88.3438V80.25H55.5312V85.1562H71.5625V88.3438H51.5312ZM52.9688 67.375C52.9375 69.1094 54.3906 70.1094 56.4062 70.125C58.4531 70.1094 59.8125 69.1094 59.8125 67.375C59.8125 65.5938 58.4375 64.625 56.4062 64.5938C54.3906 64.625 52.9375 65.5938 52.9688 67.375ZM66.5938 82.1562V60.4688H70.5938V69.4062H74.2188V72.7188H70.5938V82.1562H66.5938ZM101.531 82.4375V85.7188H75.5V82.4375H82.1562V78.0938H78.5V68.5312H94.5938V65.4688H78.4688V62.2812H98.5312V71.7188H82.5V74.875H99.1875V78.0938H95.1562V82.4375H101.531ZM86.0312 82.4375H91.25V78.0938H86.0312V82.4375Z" fill="white"/>
</svg>
