<svg width="150" height="150" viewBox="0 0 150 150" fill="none" xmlns="http://www.w3.org/2000/svg">
<circle cx="75" cy="75" r="56.25" fill="#5DB3F1" fill-opacity="0.81"/>
<path d="M58.9375 66.0625C58.9219 69.4531 61.0469 72.9219 65.7188 74.3438L63.6875 77.4688C60.5 76.4531 58.2656 74.4062 56.9844 71.8438C55.6875 74.6562 53.375 76.8906 50.0312 78L47.9688 74.875C52.7031 73.3594 54.875 69.6562 54.875 66.0625V65.6562H49.0312V62.4688H64.6562V65.6562H58.9375V66.0625ZM52.5938 88.375V79.1562H56.625V85.1875H72.4062V88.375H52.5938ZM67.6562 81.0312V60.4688H71.6562V81.0312H67.6562ZM99.9375 60.4375V78.2812H96.1562V70.7188H93.875V77.3438H90.1562V60.9688H93.875V67.4688H96.1562V60.4375H99.9375ZM75.3438 66.4688V63.375H80.375V60.6875H84.3438V63.375H89.3125V66.4688H75.3438ZM76.2188 72.375C76.2031 69.3906 78.8125 67.4062 82.375 67.4062C85.9844 67.4062 88.5781 69.3906 88.5938 72.375C88.5781 75.3281 85.9844 77.2969 82.375 77.3125C78.8125 77.2969 76.2031 75.3281 76.2188 72.375ZM79.7812 72.375C79.7656 73.6875 80.8125 74.4844 82.375 74.4688C83.9219 74.4844 84.9844 73.6875 85 72.375C84.9844 71.0469 83.9219 70.2656 82.375 70.2812C80.8281 70.2656 79.7656 71.0469 79.7812 72.375ZM80.375 83.7188C80.3594 80.4219 84.0938 78.5469 90.2188 78.5312C96.3594 78.5469 100.062 80.4219 100.094 83.7188C100.062 87 96.3594 88.8906 90.2188 88.875C84.0938 88.8906 80.3594 87 80.375 83.7188ZM84.375 83.7188C84.3438 85.1562 86.3594 85.875 90.2188 85.875C94.0938 85.875 96.0625 85.1562 96.0625 83.7188C96.0625 82.2188 94.0938 81.5156 90.2188 81.5312C86.3594 81.5156 84.3438 82.2188 84.375 83.7188Z" fill="white"/>
</svg>
