<svg width="77" height="77" viewBox="0 0 77 77" fill="none" xmlns="http://www.w3.org/2000/svg">
<rect width="77" height="77" fill="#EDF1F7"/>
<g id="DashboardMain">
<rect width="1920" height="1518" transform="translate(-892 -1195)" fill="white"/>
<g id="Group 888">
</g>
<g id="Group 890">
<g id="Group 877">
<g id="Frame 77">
<rect x="-96.5" y="-68.5" width="271" height="213" rx="29.5" fill="#FEFEFF"/>
<rect x="-96.5" y="-68.5" width="271" height="213" rx="29.5" stroke="#C6C6C6" stroke-dasharray="2 2"/>
<g id="Folder_add">
<path id="Rectangle 4017" d="M60.9583 44.9167V35.6667C60.9583 30.9527 60.9583 28.5957 59.4939 27.1312C58.0294 25.6667 55.6724 25.6667 50.9583 25.6667H42.6421C40.5984 25.6667 39.5765 25.6667 38.6576 25.2861C37.7388 24.9055 37.0162 24.183 35.5711 22.7378L31.8039 18.9707C30.3588 17.5255 29.6362 16.803 28.7173 16.4224C27.7985 16.0417 26.7766 16.0417 24.7329 16.0417H19.625C14.911 16.0417 12.5539 16.0417 11.0895 17.5062C9.625 18.9707 9.625 21.3277 9.625 26.0418V50.9584C9.625 55.6725 9.625 58.0295 11.0895 59.494C12.5539 60.9584 14.911 60.9584 19.625 60.9584H44.9167" stroke="#C9C9C9" stroke-width="4"/>
<path id="Vector" d="M51.334 60.9583H60.959M60.959 60.9583H70.584M60.959 60.9583V70.5833M60.959 60.9583V51.3333" stroke="#C9C9C9" stroke-width="4"/>
</g>
</g>
</g>
</g>
</g>
</svg>
