<svg width="81" height="81" viewBox="0 0 81 81" fill="none" xmlns="http://www.w3.org/2000/svg">
<path d="M10.125 23.625H66.075C67.7552 23.625 68.5952 23.625 69.237 23.952C69.8015 24.2396 70.2604 24.6985 70.548 25.263C70.875 25.9048 70.875 26.7448 70.875 28.425V30.375H10.125V23.625Z" fill="#E3B6B6"/>
<path d="M10.125 37.125H70.875V62.7C70.875 64.3802 70.875 65.2202 70.548 65.862C70.2604 66.4265 69.8015 66.8854 69.237 67.173C68.5952 67.5 67.7552 67.5 66.075 67.5H14.925C13.2448 67.5 12.4048 67.5 11.763 67.173C11.1985 66.8854 10.7396 66.4265 10.452 65.862C10.125 65.2202 10.125 64.3802 10.125 62.7V37.125Z" fill="#E3B6B6"/>
<path d="M10.125 17.5C10.125 15.6144 10.125 14.6716 10.7108 14.0858C11.2966 13.5 12.2394 13.5 14.125 13.5H32.0931C32.9106 13.5 33.3194 13.5 33.6869 13.6522C34.0545 13.8045 34.3435 14.0935 34.9216 14.6716L43.875 23.625H10.125V17.5Z" fill="#E3B6B6"/>
</svg>
