<svg width="127" height="95" viewBox="0 0 127 95" fill="none" xmlns="http://www.w3.org/2000/svg">
<path d="M4.1282 76.5V21.9545H17.3118V43.8473H38.805V21.9545H51.962V76.5H38.805V54.5806H17.3118V76.5H4.1282ZM73.4153 21.9545V76.5H60.2317V21.9545H73.4153ZM81.6917 76.5V21.9545H104.224C108.307 21.9545 111.832 22.7536 114.797 24.3516C117.78 25.9318 120.079 28.1424 121.695 30.9833C123.311 33.8065 124.119 37.0913 124.119 40.8377C124.119 44.6019 123.293 47.8956 121.642 50.7188C120.008 53.5241 117.674 55.6992 114.637 57.244C111.601 58.7887 107.997 59.5611 103.824 59.5611H89.9214V49.174H101.374C103.362 49.174 105.023 48.8278 106.354 48.1353C107.704 47.4428 108.725 46.4751 109.417 45.2322C110.11 43.9716 110.456 42.5067 110.456 40.8377C110.456 39.1509 110.11 37.695 109.417 36.4698C108.725 35.2269 107.704 34.2681 106.354 33.5934C105.005 32.9187 103.345 32.5813 101.374 32.5813H94.8753V76.5H81.6917Z" fill="url(#paint0_linear_134_3316)"/>
<path d="M70.2864 4.76942C68.5153 2.01168 64.4847 2.01169 62.7136 4.76942L61.1803 7.15699L58.4077 6.55296C55.2054 5.85528 52.3553 8.7054 53.053 11.9077L53.657 14.6803L51.2694 16.2136C48.5117 17.9847 48.5117 22.0153 51.2694 23.7864L53.657 25.3197L53.053 28.0923C52.3553 31.2946 55.2054 34.1447 58.4077 33.447L61.1803 32.843L62.7136 35.2306C64.4847 37.9883 68.5153 37.9883 70.2864 35.2306L71.8197 32.843L74.5923 33.447C77.7946 34.1447 80.6447 31.2946 79.947 28.0923L79.343 25.3197L81.7306 23.7864C84.4883 22.0153 84.4883 17.9847 81.7306 16.2136L79.343 14.6803L79.947 11.9077C80.6447 8.7054 77.7946 5.85528 74.5923 6.55296L71.8197 7.15699L70.2864 4.76942ZM72.0075 32.5507C72.0073 32.5509 72.0072 32.5511 72.0071 32.5513L72.0075 32.5507ZM79.0507 25.5075L79.0513 25.5071L79.0507 25.5075Z" fill="#EDDFFF" stroke="white" stroke-width="5"/>
<defs>
<linearGradient id="paint0_linear_134_3316" x1="113.344" y1="3.5" x2="0.485353" y2="95.098" gradientUnits="userSpaceOnUse">
<stop offset="0.065" stop-color="#85CBF6"/>
<stop offset="1" stop-color="#976BEE"/>
</linearGradient>
</defs>
</svg>
