<svg xmlns="http://www.w3.org/2000/svg" viewBox="0 0 146.3 146.3"><defs><style>.cls-1{fill:#231815;}</style></defs><g id="레이어_2" data-name="레이어 2"><g id="레이어_1-2" data-name="레이어 1"><path class="cls-1" d="M43.36,91a.68.68,0,0,0,0,.14,1.38,1.38,0,0,1,0,.28.44.44,0,0,1-.07.21.72.72,0,0,1-.32.3,1.3,1.3,0,0,1-.47.14,1.25,1.25,0,0,1-.62,0,.72.72,0,0,1-.44-.43.9.9,0,0,1-.07-.22,2.42,2.42,0,0,1,0-.24l.52-.07.6-.08.86-.11ZM43,89.78l-.18,0-.82.14-1.09.17-1.09.15-.34,0a3.58,3.58,0,0,0-.45,0l-.38,0a2,2,0,0,0,0,.24l.07.34s0,.13,0,.27a2.19,2.19,0,0,0,0,.33c.12,0,.31,0,.55-.11l.57-.1.49-.09.5-.08a.69.69,0,0,0,0,.13,1.37,1.37,0,0,0,0,.19,1.21,1.21,0,0,1,0,.21,1.53,1.53,0,0,0,.08.31,2.36,2.36,0,0,0,.21.52,1.53,1.53,0,0,0,.39.42,1.17,1.17,0,0,0,.51.23,1.74,1.74,0,0,0,.6,0,1.2,1.2,0,0,0,.73-.37,1.24,1.24,0,0,0,.31-.77,1.77,1.77,0,0,0,0-.4c0-.13,0-.26,0-.38s0-.15-.07-.39-.07-.41-.09-.51l-.07-.67Z"/><path class="cls-1" d="M44.17,95a1.41,1.41,0,0,1,0,.56.59.59,0,0,1-.39.41,1.57,1.57,0,0,1-.35.11c-.68.14-1.08-.1-1.21-.72,0-.07,0-.13,0-.17l.51-.1.56-.11.84-.17Zm-4.05,2.67s0,.13,0,.28,0,.28.06.37l.35-.34.64-.63c.44-.44.81-.79,1.09-1a1.42,1.42,0,0,0,.61.72,1.24,1.24,0,0,0,.9.13,1.13,1.13,0,0,0,.57-.28,1.46,1.46,0,0,0,.33-.56,1,1,0,0,0,0-.46c0-.15-.06-.39-.13-.71l-.12-.52c0-.16-.08-.33-.11-.5l-.09-.49c-.13,0-.46.11-1,.24l-.57.13-1.29.27-.58.1-.82.16-.47.07-.14,0,.07.24.09.32a2.14,2.14,0,0,0,0,.25c0,.15,0,.25,0,.34l.33-.1.4-.11.19,0,1.26-.27s0,0,.05,0a.09.09,0,0,1,0,0l-.32.28-.34.3L40,97C40,97.25,40.08,97.46,40.12,97.65Z"/><path class="cls-1" d="M41.81,100.4a2.39,2.39,0,0,1,1.12-.79,4.55,4.55,0,0,1,.8-.23,2.54,2.54,0,0,1,.77,0,1.8,1.8,0,0,1,.71.26,1.32,1.32,0,0,1,.32.29,1.48,1.48,0,0,1,.2.4,1.28,1.28,0,0,1-.21,1.32,2.46,2.46,0,0,1-1.14.81,4.77,4.77,0,0,1-.78.21,2.56,2.56,0,0,1-.73,0,1.75,1.75,0,0,1-.77-.3,1.3,1.3,0,0,1-.46-.63A1.31,1.31,0,0,1,41.81,100.4Zm3.39,2.93a2.37,2.37,0,0,0,.48-.37,1.74,1.74,0,0,0,.38-.47,2.55,2.55,0,0,0,.21-.58,2.44,2.44,0,0,0,.08-.85,3.59,3.59,0,0,0-.21-.89,3.49,3.49,0,0,0-.53-1,2.67,2.67,0,0,0-.81-.68,2.32,2.32,0,0,0-1-.3,2.64,2.64,0,0,0-1.07.17,3.33,3.33,0,0,0-.91.52,2.17,2.17,0,0,0-.59.8,2.21,2.21,0,0,0-.19,1,3.39,3.39,0,0,0,.21,1.08,3.45,3.45,0,0,0,.53,1,2.79,2.79,0,0,0,.81.67,2.23,2.23,0,0,0,1,.29,2.47,2.47,0,0,0,1.07-.16A3.26,3.26,0,0,0,45.2,103.33Z"/><path class="cls-1" d="M48.17,104.74a1.89,1.89,0,0,1,.2.27l.14.21.23.26a1.66,1.66,0,0,1,.17.19l-.45.32-.37.26-.24.19-.52.42.38.5.29.39.4.49.3.35.8-.64a2.41,2.41,0,0,0,.27-.23l.46-.4.2.28a2.32,2.32,0,0,0,.14.21l.22.24.19.21-.3.22-.52.34-1.33,1-.66.55c-.67.58-1,.89-1.08.92a2.55,2.55,0,0,1-.19-.26l-.14-.21c-.06-.07-.14-.17-.25-.28s-.17-.19-.19-.2l.83-.57.83-.63.27-.22-.67-.87-.71-.86-.68.54-.63.54-.52.45c0-.06-.11-.15-.19-.27l-.14-.2-.24-.28-.19-.2c.22-.17.48-.37.8-.59l1.34-1c.25-.2.47-.38.66-.55Z"/><path class="cls-1" d="M50.1,112.79a2.38,2.38,0,0,1,.52-1.27,5.57,5.57,0,0,1,.54-.63,2.62,2.62,0,0,1,.63-.45,1.5,1.5,0,0,1,.74-.17,1.25,1.25,0,0,1,.42.06,1.66,1.66,0,0,1,.38.23,1.31,1.31,0,0,1,.55,1.23,2.46,2.46,0,0,1-.53,1.29,4.5,4.5,0,0,1-.54.6,2.29,2.29,0,0,1-.6.41,1.87,1.87,0,0,1-.81.17,1.26,1.26,0,0,1-.73-.28A1.3,1.3,0,0,1,50.1,112.79Zm4.44.62a2.49,2.49,0,0,0,.21-.56,2.07,2.07,0,0,0,.06-.61,2.81,2.81,0,0,0-.14-.6,2.32,2.32,0,0,0-.4-.76,3.54,3.54,0,0,0-.65-.63,3.47,3.47,0,0,0-1-.52,2.62,2.62,0,0,0-1-.13,2.14,2.14,0,0,0-1,.31,2.54,2.54,0,0,0-.81.72,2.85,2.85,0,0,0-.48.93,2.27,2.27,0,0,0,.32,2,3.31,3.31,0,0,0,.76.78,3.4,3.4,0,0,0,1,.52,2.57,2.57,0,0,0,1,.13,2.48,2.48,0,0,0,1.84-1A2.42,2.42,0,0,0,54.54,113.41Z"/><path class="cls-1" d="M55.38,114.16l1.11-1.89a.7.7,0,0,1,.14.08l.11.06.17.06.12,0c0,.55,0,1,0,1.27q0,.15.09,1.26c0,.43.06.85.09,1.27l.71-.61c.76-.63,1.47-1.27,2.16-1.9l.07,0,.11.06.11,0a.9.9,0,0,0,.28.09c-.25.85-.45,1.54-.6,2.08s-.26.93-.34,1.2l-.32,1.23s0,.07,0,.14a.76.76,0,0,1-.05.16l-.3-.14-.23-.12-.32-.11-.24-.08a12.71,12.71,0,0,0,.52-1.52c.17-.58.33-1.14.48-1.67l-.93.81-.92.81c-.21.18-.51.46-.91.84l-.16-.09-.1,0-.06-1.29c0-.42-.05-.8-.07-1.16s-.05-.77-.08-1.17l-.63,1.13-.38.73-.32.63-.2.41c-.09-.07-.16-.1-.2-.13l-.1,0a2,2,0,0,0-.32-.1.75.75,0,0,1,.07-.12.58.58,0,0,1,.08-.1c.06-.11.17-.26.3-.47l.32-.51.39-.63Z"/><path class="cls-1" d="M63.06,114.59l-.1.34c-.11.31-.17.5-.19.58s-.11.38-.2.68-.16.53-.2.68-.09.4-.16.73-.13.57-.17.73-.07.31-.13.66q0,.21-.09.39l-.31-.1-.24-.08-.62-.12c.07-.26.16-.58.28-1,.26-.85.42-1.38.48-1.6l.09-.38.23-.91.09-.38c0-.13.06-.32.1-.57l.32.1.24.08a1.68,1.68,0,0,0,.33.07Z"/><path class="cls-1" d="M64,119.88l0,0-.27-.07h-.34c.11-.46.23-1,.34-1.61s.22-1.2.3-1.78l.17-1.15,0-.34a1.07,1.07,0,0,0,.32.08,1.62,1.62,0,0,0,.33,0c.14.21.43.64.87,1.27l.87,1.27.86,1.29.24-1.57.11-.8c0-.09,0-.24,0-.43a3.52,3.52,0,0,1,0-.44v-.13l.19.05.13,0h.33l-.08.39c0,.11,0,.22-.07.33q-.11.47-.12.57c0,.22-.07.45-.12.71s-.09.46-.12.63l-.12.73-.22,1.51-.07,0-.21-.05a1.53,1.53,0,0,0-.31,0c-.28-.47-.49-.8-.62-1-.23-.35-.44-.69-.65-1l-.68-1-.65-.94-.17,1-.1.65c0,.15-.06.54-.13,1.15Q64.07,119.57,64,119.88Z"/><path class="cls-1" d="M74,115.76c0,.18,0,.35-.06.52a4.39,4.39,0,0,0,0,.54l-.05.7,0,.8a5.21,5.21,0,0,1-.13,1.16,1.64,1.64,0,0,1-.7.92,1.93,1.93,0,0,1-.64.27,3.36,3.36,0,0,1-2-.23,1.49,1.49,0,0,1-.78-1,1.39,1.39,0,0,1,0-.17,1.83,1.83,0,0,1,0-.21.86.86,0,0,1,0-.15v-.17c0-.08,0-.15,0-.19v-.9l0-.9,0-.84v-.3l.32,0,.28,0,.59,0,0,.35c0,.19,0,.47-.06.85s0,.66-.06.84V118c0,.19,0,.36,0,.54a3.19,3.19,0,0,0,0,.54,2.81,2.81,0,0,0,.1.45,1.24,1.24,0,0,0,.25.36,1.16,1.16,0,0,0,.81.34,1.46,1.46,0,0,0,.81-.17,1.49,1.49,0,0,0,.51-.66,1.93,1.93,0,0,0,.13-.6c0-.25,0-.56,0-.9s0-.6,0-1.09,0-.85,0-1.09l.19,0h.35Z"/><path class="cls-1" d="M75.23,117.93l.09-2.18a.42.42,0,0,1,.16,0h.13l.18,0,.11,0c.28.48.5.85.65,1.09s.27.46.66,1.08l.68,1.08.35-.87c.36-.91.7-1.81,1-2.7h.08a.24.24,0,0,0,.12,0h.12a1.16,1.16,0,0,0,.29-.05c.18.87.33,1.56.45,2.11l.27,1.22.29,1.24a.51.51,0,0,0,0,.14.56.56,0,0,1,0,.15l-.33,0h-.26l-.33.05-.25,0a14.11,14.11,0,0,0-.25-1.58c-.13-.59-.25-1.16-.37-1.72-.14.39-.29.78-.44,1.16s-.29.77-.43,1.15-.23.65-.41,1.17h-.18l-.1,0-.66-1.1-.6-1-.62-1,0,1.29v.82l0,.71v.45h-.34a1.45,1.45,0,0,0-.33.06v-.13a.87.87,0,0,1,0-.14c0-.11,0-.3.05-.55s0-.39,0-.61,0-.46,0-.73S75.22,118.09,75.23,117.93Z"/><path class="cls-1" d="M84.21,115.27l-.15-.54.18-.09.14,0a.89.89,0,0,1,.58,0,.54.54,0,0,1,.24.22,1.15,1.15,0,0,1,.16.31,1.07,1.07,0,0,1,.06.42.69.69,0,0,1-.13.38.64.64,0,0,1-.24.25,2.5,2.5,0,0,1-.38.15l-.11,0-.23-.72A4.06,4.06,0,0,1,84.21,115.27Zm2.05.34a1,1,0,0,0,.1-.88,1,1,0,0,0-.69-.7,1.83,1.83,0,0,0-1,.07l-1,.33-.79.23c.07.22.18.53.33.94l.33.92.24.81c.15.51.26.88.33,1.1s.1.32.15.5.08.33.1.47l.59-.22,1-.3.25-.09.2-.09a2.61,2.61,0,0,0,.41-.28,1.2,1.2,0,0,0,.3-.38,1.39,1.39,0,0,0,.07-1,1.08,1.08,0,0,0-.64-.71,1.28,1.28,0,0,0-.48-.09,1.51,1.51,0,0,0-.48,0l0,0A1.66,1.66,0,0,0,86.26,115.61Zm-1.57,1.18.1,0,.12,0a.94.94,0,0,1,.76,0,1.14,1.14,0,0,1,.47.67,1.18,1.18,0,0,1,0,.67.56.56,0,0,1-.19.31.85.85,0,0,1-.32.19l-.35.09-.29-.86Z"/><path class="cls-1" d="M86.86,113.41l0-.09.52-.23.53-.24c.21-.1.49-.23.83-.42l.63-.33a1.6,1.6,0,0,0,.11.3.59.59,0,0,0,0,.08l.07.11,0,.07c-.16.08-.42.19-.76.33s-.6.24-.76.32l.32.68.34.73,1.45-.78.07.2a.5.5,0,0,0,0,.13.74.74,0,0,0,.08.13.86.86,0,0,1,.07.1l-.58.25-.6.26-.32.15.39.83.42.82c.45-.23.94-.5,1.46-.82a1.06,1.06,0,0,0,.11.29.63.63,0,0,0,0,.09l.07.1,0,.08-.6.27c-.26.1-.46.19-.6.26l-.76.4-.56.3-.17-.38-.56-1.23-.47-1-.38-.76c-.08-.17-.14-.29-.19-.38Z"/><path class="cls-1" d="M93.38,115.41l0,0-.24.14a2.61,2.61,0,0,0-.25.23c-.25-.4-.55-.85-.91-1.37s-.71-1-1-1.46l-.71-.93-.21-.26a1.48,1.48,0,0,0,.28-.17,1.6,1.6,0,0,0,.24-.22l1.52.27,1.51.27,1.53.3-1-1.28-.49-.64a4.19,4.19,0,0,0-.28-.33l-.28-.34-.09-.11.17-.09a.52.52,0,0,0,.11-.07.66.66,0,0,0,.12-.12l.13-.1.22.33c.06.08.13.18.19.28.17.26.27.42.32.48l.42.59c.14.22.26.39.36.53l.44.59.92,1.23-.07,0a.78.78,0,0,0-.18.11,1.08,1.08,0,0,0-.22.21l-1.16-.26L93.57,113l-1.17-.2-1.13-.19.57.79.39.52c.09.13.34.43.72.91C93.11,115.05,93.25,115.23,93.38,115.41Z"/><path class="cls-1" d="M94.09,108.59l-.07-.06c.08-.1.21-.23.39-.41l.41-.42c.15-.17.36-.4.61-.7l.46-.53a1.07,1.07,0,0,0,.21.22l.08.07.1.07.07,0c-.12.14-.32.33-.58.59a6.57,6.57,0,0,0-.59.58l.55.51.59.55,1.06-1.26.13.15a.93.93,0,0,0,.1.1l.12.1.11.06c-.1.1-.25.26-.45.45s-.36.36-.46.47l-.24.26.67.62.68.61c.35-.39.7-.82,1.06-1.31a.9.9,0,0,0,.21.23l.07.07.1.07.08,0c-.1.1-.25.26-.46.46l-.45.48-.56.65-.41.49-.3-.29-1-.94-.81-.74-.63-.57-.31-.27Z"/><path class="cls-1" d="M96.34,106l-.08,0,.33-.47a5.62,5.62,0,0,0,.34-.46l.51-.79c.21-.33.33-.53.38-.59a1.26,1.26,0,0,0,.24.19l.08.06.12.06.07,0a7.93,7.93,0,0,1-.49.67c-.23.29-.4.5-.5.66l.62.43.66.46.87-1.4.15.13.11.09a.61.61,0,0,0,.14.07l.11,0c-.08.12-.2.29-.38.51l-.39.53-.2.29.69.46,1.3.81-.2.26-.17.22-.17.28-.13.23-.33-.25-1.1-.78-.91-.63-.7-.47-.35-.22Z"/><path class="cls-1" d="M98.66,102l.31.18c.28.17.45.28.52.31l.62.35.62.35c.14.08.37.19.67.33l.68.33.6.28.37.17a2.62,2.62,0,0,1-.17.28l-.13.21a5.28,5.28,0,0,0-.26.58q-.36-.18-.87-.48c-.76-.45-1.24-.73-1.44-.83l-.35-.19-.83-.42-.36-.18-.53-.23.17-.28a1.89,1.89,0,0,0,.14-.22,2.44,2.44,0,0,0,.14-.31C98.61,102.08,98.65,102,98.66,102Z"/><path class="cls-1" d="M104.35,98.92l.06-.08.52.37a2.5,2.5,0,0,1,0,.72,4,4,0,0,1-.2.73,3.89,3.89,0,0,1-.24.53l-.2.31a1.78,1.78,0,0,1-.27.33l-.33.28a2.17,2.17,0,0,1-.34.19l-.34.13a2.34,2.34,0,0,1-.74.08,2.37,2.37,0,0,1-.76-.17,3.29,3.29,0,0,1-1-.58,2.47,2.47,0,0,1-.61-.92,2.84,2.84,0,0,1-.14-1.06,3.83,3.83,0,0,1,.25-1.09,3.09,3.09,0,0,1,.36-.7,3.05,3.05,0,0,1,.49-.57l.3.21.33.22,0,.09a1.47,1.47,0,0,0-.62.32,1.44,1.44,0,0,0-.41.57,1.47,1.47,0,0,0,.18,1.46,2.65,2.65,0,0,0,1.25.9,3.17,3.17,0,0,0,.78.19,2.08,2.08,0,0,0,.75-.06,1.49,1.49,0,0,0,.62-.38,1.57,1.57,0,0,0,.41-.63,1.67,1.67,0,0,0,.11-.69A2.18,2.18,0,0,0,104.35,98.92Z"/><path class="cls-1" d="M101,95.49l.34.11.58.19c.16,0,.38.1.68.2l.68.21.73.16.73.17.66.14.39.09c0,.07,0,.17-.1.3s-.07.21-.08.24c-.05.19-.09.39-.13.62l-.95-.28c-.84-.26-1.37-.43-1.59-.48l-.38-.1-.91-.23-.39-.09a5,5,0,0,0-.56-.1,3.1,3.1,0,0,1,.11-.32,2,2,0,0,1,.08-.24l.07-.34C101,95.6,101,95.52,101,95.49Z"/><path class="cls-1" d="M105.53,93.89a2.32,2.32,0,0,1-1.36.14,5.31,5.31,0,0,1-.81-.19,2.76,2.76,0,0,1-.69-.33,1.59,1.59,0,0,1-.49-.59,1,1,0,0,1-.14-.39,1.42,1.42,0,0,1,0-.45,1.32,1.32,0,0,1,.83-1.06,2.53,2.53,0,0,1,1.39-.14,5,5,0,0,1,.78.2,2.43,2.43,0,0,1,.64.34,1.82,1.82,0,0,1,.53.63,1.37,1.37,0,0,1,.1.78A1.29,1.29,0,0,1,105.53,93.89ZM104,89.68a2.46,2.46,0,0,0-.59.08,2,2,0,0,0-.57.24,1.91,1.91,0,0,0-.46.39,2.31,2.31,0,0,0-.49.71,3.5,3.5,0,0,0-.25.87,3.63,3.63,0,0,0,0,1.09,2.63,2.63,0,0,0,1.12,1.75,2.79,2.79,0,0,0,1,.38,2.83,2.83,0,0,0,1,0,2.24,2.24,0,0,0,1.58-1.2,3.39,3.39,0,0,0,.33-1,3.08,3.08,0,0,0,0-1.09,2.61,2.61,0,0,0-.37-1,2.54,2.54,0,0,0-1.78-1.14A2.44,2.44,0,0,0,104,89.68Z"/><path class="cls-1" d="M61.77,100.64V99.27l-.06,0-.92.47a.86.86,0,0,0-.15-.22,1.71,1.71,0,0,0-.19-.21v-.06c.39-.13.79-.28,1.22-.47s.72-.33,1.18-.58l.16.07c0,.34,0,.75,0,1.21,0,1.09-.06,1.77-.06,2v.5c0,.21,0,.52,0,.94s0,.73,0,.94h-.08l-.36,0h-.21a2.7,2.7,0,0,0-.37,0l-.29,0,0-.65c0-.4,0-.9,0-1.52S61.77,100.74,61.77,100.64Z"/><path class="cls-1" d="M69.82,100.8a.58.58,0,0,1-.56.43.56.56,0,0,1-.54-.33,1.93,1.93,0,0,1-.15-.63l0-.38a2.11,2.11,0,0,1,.13-.79.61.61,0,0,1,.57-.47.64.64,0,0,1,.61.53,2.82,2.82,0,0,1,.1.88A1.94,1.94,0,0,1,69.82,100.8Zm-2,2.78.06.19a.16.16,0,0,0,.1.11.19.19,0,0,1,.09,0l.22,0h.25a2.4,2.4,0,0,0,1.14-.28,2.31,2.31,0,0,0,.87-.77,3.14,3.14,0,0,0,.47-1.09,5.3,5.3,0,0,0,.15-1.26,3.27,3.27,0,0,0-.11-.88,2.36,2.36,0,0,0-.35-.75,1.78,1.78,0,0,0-.69-.53,2.45,2.45,0,0,0-.91-.16,2,2,0,0,0-.71.11,1.53,1.53,0,0,0-.58.36,1.87,1.87,0,0,0-.45.65,2.57,2.57,0,0,0-.11.8,1.43,1.43,0,0,0,.47,1.11,1.71,1.71,0,0,0,1.17.41,1.26,1.26,0,0,0,1-.41l.06,0v.08a3.07,3.07,0,0,1-.33,1.43,1.24,1.24,0,0,1-1.13.79.79.79,0,0,1-.39-.12,2.9,2.9,0,0,1-.34-.23l-.06.06A1.72,1.72,0,0,1,67.84,103.58Z"/><path class="cls-1" d="M75.7,100.13l.58-.86h.06v2.35H74.79l0-.05Zm-1.52,1.77a1.77,1.77,0,0,1,0,.22,1.21,1.21,0,0,1,0,.2s0,.08,0,.19h2.19c0,.27,0,.53,0,.76s0,.43,0,.6l.27,0a2.62,2.62,0,0,1,.37,0h.29l.27,0h.07l0-.14,0-.35,0-.87.71.06a2.84,2.84,0,0,0,0-.31v-.18a2,2,0,0,1,0-.25c0-.07,0-.15,0-.23l-.71.05,0-1.58,0-.82s0-.24,0-.62c0-.09,0-.21,0-.35a2.92,2.92,0,0,1-.54,0l-.28,0-.2,0h-.08c-.11.19-.27.44-.46.73l-.5.73-.6.91-.73,1.07S74.17,101.82,74.18,101.9Z"/><path class="cls-1" d="M82.51,101.46a.63.63,0,0,1,.57-.43.61.61,0,0,1,.6.48,2.78,2.78,0,0,1,.1.85,2.36,2.36,0,0,1-.12.8.61.61,0,0,1-.57.47c-.3,0-.5-.18-.61-.53a2.91,2.91,0,0,1-.1-.88A1.92,1.92,0,0,1,82.51,101.46Zm1.68-3.14a1.66,1.66,0,0,0-.42,0h-.15l-.35.06a2.62,2.62,0,0,0-.5.13,2.29,2.29,0,0,0-1.37,1.59,5,5,0,0,0-.26,1.62,3.2,3.2,0,0,0,.11.83,2.31,2.31,0,0,0,.34.75,1.55,1.55,0,0,0,.62.54,1.36,1.36,0,0,0,.43.14,2.19,2.19,0,0,0,1.87-.46,1.68,1.68,0,0,0,.57-1.33,1.46,1.46,0,0,0-.49-1.17,1.75,1.75,0,0,0-1.22-.43,1.22,1.22,0,0,0-1,.42l-.06,0a3.49,3.49,0,0,1,.1-.79l.13-.48a1.8,1.8,0,0,1,.27-.51,2,2,0,0,1,.4-.37,1,1,0,0,1,.53-.16h.26a.84.84,0,0,1,.24.06l0,0C84.29,98.54,84.24,98.44,84.19,98.32Z"/><path class="cls-1" d="M10.13,65.61A3.41,3.41,0,1,0,6.72,62.2,3.41,3.41,0,0,0,10.13,65.61Z"/><path class="cls-1" d="M135.8,64.5a3.42,3.42,0,1,0-3.42-3.41A3.41,3.41,0,0,0,135.8,64.5Z"/><polygon class="cls-1" points="12.53 36.73 15.99 32.07 14.99 31.4 16.42 29.49 17.42 30.15 20.94 25.43 22.42 26.43 13.99 37.75 12.53 36.73"/><polygon class="cls-1" points="24.24 34.63 21.89 33.06 20.23 35.28 22.58 36.85 24.24 34.63"/><polygon class="cls-1" points="27.76 30.04 26.31 29.07 17.74 40.57 19.19 41.54 27.76 30.04"/><path class="cls-1" d="M20.82,35.76c-1.8,1.86-3.93,2.71-5.11,1.91-1.41-.94-1-3.82,1-6.42s4.66-4,6.06-3c1.18.79,1.07,2.92-.13,5.12m-2.26.36c1-1.33,1.28-2.74.66-3.15s-1.92.32-2.91,1.65-1.28,2.73-.66,3.15S19.37,35,20.35,33.7Z"/><path class="cls-1" d="M21.67,42c-1.68-1.12-1.34-4.29.74-7.08s5.13-4.16,6.8-3,1.35,4.3-.74,7.09S23.34,43.16,21.67,42ZM27,38c1.3-1.74,1.61-3.65.69-4.27s-2.71.3-4,2S22,39.42,23,40,25.67,39.75,27,38Z"/><polygon class="cls-1" points="49.51 14.63 45.4 8.74 43.45 9.98 47.56 15.87 49.51 14.63"/><polygon class="cls-1" points="40.17 21.29 49.92 15.16 53.16 19.8 51.12 21.09 48.89 17.89 41.17 22.74 40.17 21.29"/><path class="cls-1" d="M37.37,17.87a3.64,3.64,0,0,1,1.1-5.21A4.09,4.09,0,0,1,44,13.73,3.66,3.66,0,0,1,42.85,19,4.09,4.09,0,0,1,37.37,17.87Zm4.38-.5a1.69,1.69,0,0,0,.31-2.45,1.9,1.9,0,0,0-2.5-.69,1.71,1.71,0,0,0-.3,2.46A1.9,1.9,0,0,0,41.75,17.37Z"/><polygon class="cls-1" points="72.3 3.27 66.6 3.27 66.6 16.56 75.74 16.56 75.74 9.83 76.54 9.83 76.54 16.56 79.01 16.56 79.01 3.27 76.58 3.27 76.58 7.93 75.78 7.93 75.78 3.31 73.34 3.31 73.34 14.82 68.72 14.82 68.72 4.75 72.3 4.75 72.3 3.27"/><polygon class="cls-1" points="125.86 26.08 132.88 35.65 122.93 42.21 123.69 43.24 122.16 44.25 114.09 33.27 115.62 32.26 117.06 34.22 123.33 30.09 124.78 32.07 118.49 36.22 119.08 37.03 125.41 32.86 126.81 34.77 120.48 38.95 121.42 40.29 129.84 34.74 124.28 27.09 125.86 26.08"/><polygon class="cls-1" points="101.34 8.4 107.43 12.23 106.61 13.41 100.55 9.6 101.34 8.4"/><polygon class="cls-1" points="99.02 9.46 107.25 14.64 106.25 16.09 98.04 10.92 99.02 9.46"/><polygon class="cls-1" points="109.12 13.34 111.41 14.78 108.99 18.25 110.24 19.05 109.11 20.66 107.87 19.87 106.72 21.51 104.49 20.11 109.12 13.34"/><polygon class="cls-1" points="95.86 15.38 106.42 22.02 103.76 25.84 101.44 24.39 102.97 22.18 94.73 17 95.86 15.38"/><path class="cls-1" d="M98.09,12.83c1-1.4,3.18-1.63,4.92-.54s2.37,3.12,1.4,4.52-3.17,1.64-4.92.54S97.12,14.23,98.09,12.83Zm2.11,3.5a1.77,1.77,0,0,0,2.28-.74,1.59,1.59,0,0,0-.18-2.28A1.79,1.79,0,0,0,100,14,1.6,1.6,0,0,0,100.2,16.33Z"/><path class="cls-1" d="M4.78,87.35,16.27,84l.47,1.57L12,86.93l1.77,6,4.75-1.4L19,93.07,7.48,96.47,7,94.89l5.37-1.58-1.77-6-5.37,1.6Z"/><path class="cls-1" d="M12.06,100.94a5.51,5.51,0,0,1,2.53-2.42,5.37,5.37,0,0,1,3.89-.67A4,4,0,0,1,21,100a3.78,3.78,0,0,1,.22,3.28,5.05,5.05,0,0,1-2.53,2.53,6.56,6.56,0,0,1-3.59.75,3.39,3.39,0,0,1-2.78-2.07A3.79,3.79,0,0,1,12.06,100.94Zm6.12-4.78a7.06,7.06,0,0,0-4.25.81,6.93,6.93,0,0,0-3.33,3.28,5.45,5.45,0,0,0,.34,4.7,5.46,5.46,0,0,0,3.93,3.13,7.07,7.07,0,0,0,4.59-.82,6.54,6.54,0,0,0,3.09-2.9,5.5,5.5,0,0,0-.31-5.12A5.24,5.24,0,0,0,18.18,96.16Z"/><path class="cls-1" d="M16.85,114.2l7.65-6L20.63,119l1.11,1.44,9.45-7.37-1-1.22-7.65,6,3.93-10.74-1.18-1.51L15.89,113Z"/><path class="cls-1" d="M32.37,116.25A6.86,6.86,0,0,0,28,118.84a6.56,6.56,0,0,0-1.8,4.7A5.32,5.32,0,0,0,28.11,127a5.54,5.54,0,0,0,2.46,1.29,5.86,5.86,0,0,0,1.93,0l-.71,1.43.8.67,4.16-4.88-4-3.41-.87,1,2.86,2.44a3.94,3.94,0,0,1-2.81,1.61,3.88,3.88,0,0,1-2.66-1,3.44,3.44,0,0,1-1.45-3,5.92,5.92,0,0,1,1.54-3.26,5.36,5.36,0,0,1,3.28-2.09,3.6,3.6,0,0,1,2.94.87,4.11,4.11,0,0,1,1.38,2,3,3,0,0,1-.31,2.25l1.22,1a4.27,4.27,0,0,0,.47-3.92,6.15,6.15,0,0,0-1.8-2.39A5.19,5.19,0,0,0,32.37,116.25Z"/><path class="cls-1" d="M37.39,133.09l6.53-10-1.37-.89-6.54,10Z"/><path class="cls-1" d="M39.87,134.45l5.73-10.51,1.39.75-2.8,5.13,7.93-2.33,2,1.07-6.69,1.86,1.07,8.73-1.85-1-.81-7.28-2.56.69-2,3.66Z"/><path class="cls-1" d="M58.53,136a7.9,7.9,0,0,0,0,3.45q.7,2.33,3.69,2.84t4.44-1.43a7.76,7.76,0,0,0,1.17-3.25L69,131l-1.62-.28L66.09,138a4.56,4.56,0,0,1-.75,2,2.87,2.87,0,0,1-3,.91,2.54,2.54,0,0,1-2.18-1.71A4.37,4.37,0,0,1,60,137l1.26-7.29-1.62-.28Z"/><path class="cls-1" d="M72.56,143.16l-.2-9.71L78.7,143l1.82,0-.25-12-1.54,0,.21,9.71-6.26-9.58-1.92.05.26,12Z"/><path class="cls-1" d="M86.21,142l-2-11.81-1.61.28,2,11.81Z"/><path class="cls-1" d="M85.47,130.16l1.71-.55,6.4,8.67.12-10.76,1.73-.55-.5,12.75-1.64.52Z"/><path class="cls-1" d="M109.78,132.79l-.67-1.26-6.4,3.47-1.94-3.57,5.82-3.15-.66-1.22-5.82,3.14L98.38,127l6.29-3.4-.7-1.29-7.68,4.16L102,137Z"/><path class="cls-1" d="M107.57,121.39l3.09-2.49a3.11,3.11,0,0,1,1.19-.64,1.76,1.76,0,0,1,1.82.78,1.86,1.86,0,0,1,.52,1.7,3.17,3.17,0,0,1-1.12,1.48l-2.93,2.36Zm6.65,8.24-3.23-4,2.88-2.31a3.57,3.57,0,0,1,1.28-.75,1.67,1.67,0,0,1,1.66.68l1.33,1.49a8,8,0,0,0,.66.69,2.29,2.29,0,0,0,.35.23l1.55-1.25-.17-.21a1,1,0,0,1-.86-.24,4.45,4.45,0,0,1-.73-.73l-1-1.21a2.66,2.66,0,0,0-1.26-.93,2.42,2.42,0,0,0-1.29.08,3.16,3.16,0,0,0,.27-1.64,3.13,3.13,0,0,0-.75-1.65,2.83,2.83,0,0,0-3.09-1.14,5.5,5.5,0,0,0-2,1.1l-4.32,3.48,7.52,9.33Z"/><path class="cls-1" d="M123,120.91a5,5,0,0,0,3.16-1.88,6.59,6.59,0,0,0,1.57-3.1,3,3,0,0,0-1.2-3,2.79,2.79,0,0,0-2.58-.74,4.87,4.87,0,0,0-1.81.91l-1.39,1a10.86,10.86,0,0,1-1.93,1.22,1.38,1.38,0,0,1-1.45-.3,1.92,1.92,0,0,1-.65-1.4,3,3,0,0,1,4.73-2.65l1-1.15a3.31,3.31,0,0,0-3.06-.93,5.63,5.63,0,0,0-2.79,1.82,4.56,4.56,0,0,0-1.3,3.07,3.49,3.49,0,0,0,1.27,2.59A2.49,2.49,0,0,0,119,117a7.61,7.61,0,0,0,2.07-1.18l1.35-1a6.37,6.37,0,0,1,1.81-1,1.57,1.57,0,0,1,1.45.46,1.84,1.84,0,0,1,.41,2.28,5.12,5.12,0,0,1-.89,1.43,3.21,3.21,0,0,1-2.77,1.37,3.42,3.42,0,0,1-1.57-.73l-1,1.15A3.85,3.85,0,0,0,123,120.91Z"/><path class="cls-1" d="M131.83,111l-9.91-6.75-.92,1.36,9.9,6.74Z"/><path class="cls-1" d="M122.74,103.32l4.51-8.62,1.26.66-1.87,3.58,9.35,4.9-.77,1.46-9.35-4.9L124,104Z"/><path class="cls-1" d="M140,94.13l.5-1.54-4.6-1.47-5.44-6.49-.58,1.81,4.44,5L127.82,93l-.57,1.8,8.19-2.13Z"/><polygon class="cls-1" points="56.4 53.59 56.4 42.3 81.33 42.3 81.33 46.01 82.04 46.01 82.04 41.6 55.7 41.6 55.7 54.3 64.95 54.3 64.95 53.59 56.4 53.59"/><path class="cls-1" d="M80.48,64.93l-.34.27A7.45,7.45,0,0,1,80,67.33a1.06,1.06,0,0,1-1,.21c-.16-.13-.13-.27-.14-.46H77.71l-.12,1.34c.71-.06,1.36.3,1.83-.42.39.33,1.07.57,1.09,1.13-.09.2-.29.23-.45.3a13.88,13.88,0,0,1-.29,1.86,2,2,0,0,0,.84,0A43.77,43.77,0,0,0,81.68,64a9,9,0,0,1,2.07.38c.09.17-.16.26-.29.29l-.13,0a46.75,46.75,0,0,1-2.16,6.57l0,0,2.42-.19a7.34,7.34,0,0,0-.77-2.87c.33,0,.6.3.85.53a3.75,3.75,0,0,1,1.41,3.49.88.88,0,0,1-.56.68.8.8,0,0,1-.67-.1c-.32-.29-.25-.76-.26-1.19-1,.27-2,.73-3.06,1.06-.09.12-.09.42-.34.29-.22-.42-.31-.9-.53-1.33-.2.56-.6,1.31-1.28,1.39-.22,0-.55.09-.66-.17s0-.83-.49-.85c-.19-.09-.44-.11-.58-.29.6-.14,1.52.38,1.84-.45a9.87,9.87,0,0,0,.34-2.41,4.92,4.92,0,0,0-1.33,0c0,.29-.08.5-.4.6a1.79,1.79,0,0,1-.8.05c-.23-.29,0-.66,0-1a20.48,20.48,0,0,0,.27-2.4l1.12.54,1.13,0c.11-.64,0-1.2,0-1.79H76.05a3.89,3.89,0,0,0-.12-.49h3l.56-.56C79.82,64.12,80.62,64.32,80.48,64.93Z"/><path class="cls-1" d="M83.69,74.4c-.22.2-.58,0-.85.13a3.35,3.35,0,0,0,1.6,1.06l1.09.27c0,.31-.46.34-.48.66s0,.46-.13.67a4.53,4.53,0,0,1-1.6-1.11l-.16.13H78.74c0-.09-.15-.32-.1-.41h3.17c.29-.17.51-.9.92-.26,0,0,0,.06.09,0a7.83,7.83,0,0,1-.59-1H80l-.26-.39H82l.66-.69C83,73.75,83.51,74,83.69,74.4Z"/><path class="cls-1" d="M79.76,74.66c0,.27-.35.23-.54.35a8,8,0,0,1-3,2.23l-.06,0a10.08,10.08,0,0,0,2.13-3.3A9.82,9.82,0,0,1,79.76,74.66Z"/><path class="cls-1" d="M83.74,77.61c.05.25-.27.21-.44.21a1.71,1.71,0,0,0-.4,0,4,4,0,0,0,2.68,1.35c0,.26-.34.35-.42.56s-.1.54-.22.77c-.35.07-.65-.77-.92-.12v2.15c.22-.16.37-.5.6-.74.37.34.87.65,1.07,1.11l-.33.23h-9c-.15,0-.15-.36-.23-.43l1.53,0v-3a5.41,5.41,0,0,1-1.55.83v-.11a8.58,8.58,0,0,0,2.1-3.24,8,8,0,0,1,1.47.8c-.06.22-.33.23-.51.29a8,8,0,0,1-1,1.06l.69.25h3.74l.54-.4a5.44,5.44,0,0,1-.84-1.35l-.11-.06H80c-.08-.06-.1-.28-.12-.37h2.26l.58-.58A2.77,2.77,0,0,1,83.74,77.61ZM79.33,80h-.42v2.75h.42Zm1.76,0h-.37c.11.12,0,.29-.11.38v2.37h.48Zm1.65,0h-.3l0,.19a1.19,1.19,0,0,1-.2.19v2.37h.45Z"/><path class="cls-1" d="M65.27,63.78c.11.23-.23.28-.31.4a7.92,7.92,0,0,0,4.39,7.31c0,.34-.2,0-.73.3-.32.2-.35.82-.58.83-.7-.23-1.2-1-1.67-1.55a11.23,11.23,0,0,1-1.71-5.48c-.26,2.75-1,5.83-3.91,6.94a2.52,2.52,0,0,1-1.25.24l0-.1c3.45-1.7,3.84-5.62,3.7-9.18A9.65,9.65,0,0,1,65.27,63.78Z"/><path class="cls-1" d="M61.56,74.67c.53,0,1.64.18,1.86-.59a2.73,2.73,0,0,1,1.15.94c.08.27-.24.3-.38.42v2.42c-.15.34-.6.31-.9.31A.33.33,0,0,1,63,78c0-.1.08-.32-.11-.32H61.5l0,.11,0,5.43c-.14.33-.56.29-.87.32a.3.3,0,0,1-.34-.27v-9.2Zm1.38,1.19v-.78H61.52v.78Zm0,1.31v-.78H61.52v.78Z"/><path class="cls-1" d="M67.73,74.69l.38-.56c.39.31.94.47,1.16,1,0,.25-.29.28-.42.42V82.9a1.09,1.09,0,0,1-1.06.63c-.18.06-.26-.1-.26-.24v-.48a3.12,3.12,0,0,0-1.07-.48,1.86,1.86,0,0,1-1.06.24c-.19-.2-.12-.49-.13-.75l-1.44,0c-.15.36.14,1-.48,1.07-.21,0-.49.15-.69,0l-.08-.16V78.15a7.91,7.91,0,0,1,1.22.51h1.49l.3-.41a.91.91,0,0,1-.64-.22v-3.9l1.28.56ZM67.63,76v-.78H66.22V76Zm0,1.3v-.78H66.21v.78ZM65.24,80v-.78H63.83V80Zm0,1.3v-.78H63.83v.78Zm.68-3.08a1.9,1.9,0,0,1,.53.33c.69.58,0,.82,0,.82V82s.38,0,.73.09a.39.39,0,0,0,.45-.19V77.75H66.19C66.27,77.91,65.92,78.17,65.92,78.17Z"/><polygon class="cls-1" points="90.52 46.01 90.52 58.06 64.95 58.06 64.95 54.3 82.04 54.3 82.04 46.01 90.52 46.01"/><path class="cls-1" d="M65,46H81.34v7.58H65Zm13.66,2.52H73.34V47h-.68v1.51H67.73v.69h4.79c-.87,2-4.77,2.27-4.77,2.27l.06.68c4.32-.3,5.19-2.43,5.19-2.43,1.21,2.26,5.42,2.48,5.42,2.48l0-.71c-3.54-.34-4.63-1.58-5-2.29h5.11Z"/><path class="cls-1" d="M34.62,83.5A8.87,8.87,0,0,1,36.4,87l.69-.18a9.25,9.25,0,0,0-2-3.79Z"/><path class="cls-1" d="M37.59,80.15a12.58,12.58,0,0,0,2.73,4.46l.51-.51a12.29,12.29,0,0,1-2.56-4.17Z"/><path class="cls-1" d="M33.79,60a6,6,0,0,0-4.28,2,5.32,5.32,0,0,0,.09,7.46,4.55,4.55,0,0,0,6,.08,3.21,3.21,0,0,0,1.16-2.36,3.14,3.14,0,0,0-.87-2.34,2.48,2.48,0,0,0-2-.64,1.89,1.89,0,0,0-1.42,1l.63.35a1.16,1.16,0,0,1,.88-.6,1.74,1.74,0,0,1,1.4.44,2.42,2.42,0,0,1,.66,1.8A2.55,2.55,0,0,1,35.12,69a3.9,3.9,0,0,1-5,0,4.61,4.61,0,0,1-.06-6.47,5.21,5.21,0,0,1,3.77-1.76,9.32,9.32,0,0,1,6.64,3c3.1,3,3.1,7.87,3.09,10.79s-1.69,11.18-6.87,12a4.12,4.12,0,0,1-3.23-.64,4.21,4.21,0,0,1-1.64-2.67,3.79,3.79,0,0,1,1.35-3.68,3.19,3.19,0,0,1,3-.6,2.66,2.66,0,0,1,1.68,2.19A1.84,1.84,0,0,1,37,82.87a1.79,1.79,0,0,1-1.45.26,1.29,1.29,0,0,1-.82-.73l-.66.29a2.13,2.13,0,0,0,1.27,1.14,2.47,2.47,0,0,0,2-.35,2.53,2.53,0,0,0,1.24-2.43,3.37,3.37,0,0,0-2.13-2.8,3.85,3.85,0,0,0-3.75.69A4.52,4.52,0,0,0,31.1,83.3,4.9,4.9,0,0,0,33,86.45a5,5,0,0,0,3.78.77c5.69-1,7.46-9.53,7.46-12.54,0-3.26,0-8.34-3.31-11.53A10,10,0,0,0,33.79,60Z"/><path class="cls-1" d="M0,73.15A73.15,73.15,0,1,0,73.15,0,73.23,73.23,0,0,0,0,73.15Zm.72,0a72.43,72.43,0,1,1,72.43,72.43A72.51,72.51,0,0,1,.72,73.15Z"/><path class="cls-1" d="M18.05,73.15a55.1,55.1,0,1,0,55.1-55.1A55.17,55.17,0,0,0,18.05,73.15Zm.72,0a54.38,54.38,0,1,1,54.38,54.38A54.45,54.45,0,0,1,18.77,73.15Z"/><path class="cls-1" d="M42.29,36.7c-2.15,1-3.63,3.18-4.3,6.16l-.37,2a33.68,33.68,0,0,1-2.39,8.41,31.72,31.72,0,0,1-4,6.4L29.51,62l.61.4,1.65-2.28a32.87,32.87,0,0,0,4.12-6.54A34.67,34.67,0,0,0,38.33,45L38.7,43c.62-2.81,1.94-4.72,3.91-5.67a6.28,6.28,0,0,1,5.32.1,4.9,4.9,0,0,1,2.73,3.4,6.33,6.33,0,0,1-1.34,5.43,4.61,4.61,0,0,1-4.11,1.38,3.19,3.19,0,0,1-3.12-3.35c0-1.43.95-3,2.54-3.1a2,2,0,0,1,1.93.91,2.13,2.13,0,0,1,0,2.09l.61.38a2.83,2.83,0,0,0,0-2.84,2.65,2.65,0,0,0-2.58-1.26c-2,.11-3.16,2-3.22,3.8a3.91,3.91,0,0,0,3.75,4.09,5.27,5.27,0,0,0,4.73-1.61,7.07,7.07,0,0,0,1.52-6.06,5.63,5.63,0,0,0-3.12-3.91A7.07,7.07,0,0,0,42.29,36.7Z"/><path class="cls-1" d="M60.53,23.13,59.32,24.3a39.31,39.31,0,0,1-5.74,5.4A77.14,77.14,0,0,1,43.48,36l-1.71,1,.39.61,1.67-.94A78.45,78.45,0,0,0,54,30.28a40.18,40.18,0,0,0,5.84-5.5l1-1a4,4,0,0,1,4,.66,3.19,3.19,0,0,1,1.34,2.5,2.49,2.49,0,0,1-1.19,2,63.86,63.86,0,0,0-7.42,6.44A53.47,53.47,0,0,0,51,43.91l-1,1.51.59.4,1-1.51a52.81,52.81,0,0,1,6.52-8.42,65.15,65.15,0,0,1,7.34-6.37A3.19,3.19,0,0,0,66.92,27a3.87,3.87,0,0,0-1.63-3.1A4.66,4.66,0,0,0,60.53,23.13Z"/><path class="cls-1" d="M43.12,40.93l.34.64c.16-.09,3.9-2.13,5.39-3.9l-.55-.46C46.9,38.88,43.15,40.91,43.12,40.93Z"/><path class="cls-1" d="M46.57,44.26l.67.28s.72-1.63,3.78-4L50.59,40C47.35,42.47,46.6,44.19,46.57,44.26Z"/><path class="cls-1" d="M32.7,64.82l.57.43a16.41,16.41,0,0,0,2.43-4.54l-.7-.19A16.63,16.63,0,0,1,32.7,64.82Z"/><path class="cls-1" d="M36,67.46l.72.1a10.11,10.11,0,0,1,2.75-5L39,62A10.76,10.76,0,0,0,36,67.46Z"/><path class="cls-1" d="M97.36,36.91a5.56,5.56,0,0,0-3.12,3.9,7.06,7.06,0,0,0,1.51,6.06,5.25,5.25,0,0,0,4.73,1.61,3.91,3.91,0,0,0,3.75-4.09c0-1.75-1.2-3.68-3.22-3.79a2.66,2.66,0,0,0-2.58,1.25,2.85,2.85,0,0,0,0,2.84l.61-.37a2.15,2.15,0,0,1,0-2.1,1.92,1.92,0,0,1,1.92-.9,3,3,0,0,1,2.54,3.1,3.19,3.19,0,0,1-3.12,3.35,4.61,4.61,0,0,1-4.11-1.39A6.31,6.31,0,0,1,94.94,41a4.9,4.9,0,0,1,2.74-3.41,6.29,6.29,0,0,1,5.31-.1c2,1,3.3,2.87,3.92,5.67l.37,1.94a33.54,33.54,0,0,0,2.44,8.57,38.21,38.21,0,0,0,4.5,7.13l1.71,2.39.61-.4-1.74-2.42a37.56,37.56,0,0,1-4.43-7A33.92,33.92,0,0,1,108,44.93l-.38-2c-.66-3-2.15-5.12-4.3-6.17A7,7,0,0,0,97.36,36.91Z"/><path class="cls-1" d="M80.31,24a3.83,3.83,0,0,0-1.62,3.09,3.2,3.2,0,0,0,1.5,2.57A64.61,64.61,0,0,1,87.52,36a49.27,49.27,0,0,1,5.92,7.52L95,45.76l.58-.43L94,43.1a50.47,50.47,0,0,0-6-7.63A65.49,65.49,0,0,0,80.59,29a2.46,2.46,0,0,1-1.18-2,3.15,3.15,0,0,1,1.34-2.51,4,4,0,0,1,4-.66l1,1a40.31,40.31,0,0,0,5.85,5.51,77.47,77.47,0,0,0,10.23,6.41l1.64.92.38-.61-1.68-1A77.67,77.67,0,0,1,92,29.81a39.37,39.37,0,0,1-5.75-5.42l-1.2-1.16A4.67,4.67,0,0,0,80.31,24Z"/><path class="cls-1" d="M96.75,37.77a20.78,20.78,0,0,0,5,3.68l.34-.63a21.15,21.15,0,0,1-4.77-3.51Z"/><path class="cls-1" d="M94.58,40.68c3.06,2.34,3.78,4,3.79,4l.66-.29c0-.07-.77-1.78-4-4.25Z"/><path class="cls-1" d="M104.64,63.25c-3.32,3.2-3.31,8.27-3.31,11.3,0,3.24,1.77,11.8,7.47,12.77a4.88,4.88,0,0,0,3.78-.77,4.93,4.93,0,0,0,1.93-3.15,4.48,4.48,0,0,0-1.62-4.34,3.86,3.86,0,0,0-3.75-.71A3.39,3.39,0,0,0,107,81.16a2.52,2.52,0,0,0,1.24,2.42,2.42,2.42,0,0,0,2,.34,2.06,2.06,0,0,0,1.27-1.11l-.65-.31a1.35,1.35,0,0,1-.83.74,1.77,1.77,0,0,1-1.44-.27,1.8,1.8,0,0,1-.9-1.76,2.68,2.68,0,0,1,1.68-2.2,3.21,3.21,0,0,1,3,.61,3.79,3.79,0,0,1,1.34,3.67A4.19,4.19,0,0,1,112.16,86a4.11,4.11,0,0,1-3.24.65c-5.18-.88-6.87-9.1-6.87-11.82,0-3.16,0-8,3.09-11a9.24,9.24,0,0,1,6.64-3,5.16,5.16,0,0,1,3.77,1.75,4.61,4.61,0,0,1,0,6.47,3.89,3.89,0,0,1-5,0,2.55,2.55,0,0,1-.91-1.85,2.44,2.44,0,0,1,.66-1.8,1.72,1.72,0,0,1,1.48-.45,1.67,1.67,0,0,1,1.13,1.23l.68-.25a2.35,2.35,0,0,0-1.65-1.69,2.44,2.44,0,0,0-2.15.66,3.12,3.12,0,0,0-.87,2.33A3.26,3.26,0,0,0,110,69.63a4.6,4.6,0,0,0,6-.09,5.3,5.3,0,0,0,.09-7.45,5.91,5.91,0,0,0-4.28-2A10,10,0,0,0,104.64,63.25Z"/><path class="cls-1" d="M109.81,60.68a17,17,0,0,0,2.38,4.52l.58-.43a16.23,16.23,0,0,1-2.26-4.28Z"/><path class="cls-1" d="M106.09,62.65a10.2,10.2,0,0,1,2.76,5l.71-.11a10.75,10.75,0,0,0-3-5.42Z"/><path class="cls-1" d="M108.51,86.88l.7.17A8.77,8.77,0,0,1,111,83.61l-.49-.52A9.32,9.32,0,0,0,108.51,86.88Z"/><path class="cls-1" d="M104.78,84.21l.51.5A12.84,12.84,0,0,0,108,80.26l-.69-.23A12.08,12.08,0,0,1,104.78,84.21Z"/><path class="cls-1" d="M64.44,30a17.89,17.89,0,0,0,8,2.13c6,0,8.49-2.08,8.59-2.17l-.46-.55s-2.47,2-8.13,2a17.39,17.39,0,0,1-7.65-2Z"/><path class="cls-1" d="M108.25,96.08l-.18.8c-1.44,6.44-5.83,26-34.92,26-29.34,0-34.11-20-35.68-26.6l-.24-1A42.91,42.91,0,0,0,32.66,85.1l-.61.39a42.2,42.2,0,0,1,4.49,10l.23,1c1.6,6.71,6.48,27.15,36.38,27.15,19.69,0,31.67-8.95,35.62-26.59l.18-.79a34.71,34.71,0,0,1,5-11.26l-.61-.38C110.74,88.82,109.32,91.6,108.25,96.08Z"/><path class="cls-1" d="M89.65,61h-14c-.2.07-2.18,1.63-2.72,2l-2.56-2L55.17,61l-7.34,8-.1,24.45H67.34L69.89,96H75.8l2.26-2.25H96.9V68.42c-.1-.26-7-7.32-7-7.32L89.8,61ZM73.19,63.78l2.71-2.14,13.59.07,6.79,7s-.1,23.67-.1,24.37H77.76L75.51,95.3H70.19l-2.55-2.56H48.45V69.26c.07,0,6.47-6.92,7-7.54H70.17c0,.08,2.57,2.06,2.57,2.06L73,64Z"/><path class="cls-1" d="M55,61.36V85.67H70.63c0,.1,2.19,2,2.19,2l.24.21,2.67-2.37c0,.09,14,.12,14,.12H90l.07-24.29h-.72S89.32,84.25,89.32,85l-13.83,0c-.2.08-1.89,1.56-2.43,2L70.88,85,55.69,85V61.36Z"/><path class="cls-1" d="M92.84,65.08s0,22.7,0,23.41H76.6c-.24.09-2.68,2.4-2.68,2.4l-2.38-.09-2.23-2.23H52.16c0-.7,0-23.39,0-23.39h-.72l0,24.11H69l2.23,2.22h2.93c.25-.09,2.68-2.41,2.68-2.41l16.73.1,0-24.12Z"/><path class="cls-1" d="M53.26,63.27l0,24.35H69.75L72,89.94h1.9L76,87.57l16,0V63.45h-.72V86.8l-15.63,0-2.09,2.37H72.28c-.19-.21-2.23-2.33-2.23-2.33H54c0-.69,0-23.62,0-23.62Z"/><path class="cls-1" d="M94.6,66.93V90.75H76.85l-2,2h-4c-.2-.23-1.95-2.41-1.95-2.41l-18.66,0c0-.69,0-23,0-23h-.72l0,23.75,19,0,2,2.41h4.68l2-2H95.32V66.93Z"/><rect class="cls-1" x="46.39" y="88.85" width="10.64" height="0.72" transform="translate(-48.84 66.39) rotate(-47.12)"/><polygon class="cls-1" points="89.41 85.55 96.17 93.43 96.72 92.96 89.96 85.08 89.41 85.55"/></g></g></svg>