<svg width="147" height="147" viewBox="0 0 147 147" fill="none" xmlns="http://www.w3.org/2000/svg">
<g clip-path="url(#clip0_1428_2627)">
<path d="M43.3601 91C43.3553 91.0465 43.3553 91.0935 43.3601 91.14C43.3696 91.2331 43.3696 91.3269 43.3601 91.42C43.355 91.4948 43.3309 91.5671 43.2901 91.63C43.2172 91.7608 43.1054 91.8657 42.9701 91.93C42.8237 92.0061 42.6642 92.0536 42.5001 92.07C42.2967 92.1221 42.0835 92.1221 41.8801 92.07C41.7795 92.0353 41.6879 91.9787 41.6118 91.9044C41.5358 91.83 41.4771 91.7397 41.4401 91.64C41.4074 91.57 41.3839 91.496 41.3701 91.42C41.3661 91.34 41.3661 91.26 41.3701 91.18L41.8901 91.11L42.4901 91.03L43.3501 90.92L43.3601 91ZM43.0001 89.78H42.8201L42.0001 89.92L40.9101 90.09L39.8201 90.24H39.4801C39.3302 90.2306 39.1799 90.2306 39.0301 90.24H38.6501C38.6453 90.3199 38.6453 90.4001 38.6501 90.48L38.7201 90.82C38.7201 90.82 38.7201 90.95 38.7201 91.09C38.7118 91.1998 38.7118 91.3102 38.7201 91.42C38.8401 91.42 39.0301 91.42 39.2701 91.31L39.8401 91.21L40.3301 91.12L40.8301 91.04C40.826 91.0832 40.826 91.1268 40.8301 91.17C40.8257 91.2333 40.8257 91.2967 40.8301 91.36C40.8362 91.4299 40.8362 91.5001 40.8301 91.57C40.8458 91.6758 40.8727 91.7797 40.9101 91.88C40.9592 92.0611 41.0297 92.2356 41.1201 92.4C41.2225 92.5633 41.3548 92.7058 41.5101 92.82C41.659 92.9368 41.834 93.0157 42.0201 93.05C42.2186 93.0847 42.4216 93.0847 42.6201 93.05C42.8993 93.016 43.1576 92.8851 43.3501 92.68C43.5388 92.4666 43.6483 92.1947 43.6601 91.91C43.6752 91.7771 43.6752 91.6429 43.6601 91.51C43.6601 91.38 43.6601 91.25 43.6601 91.13C43.6601 91.01 43.6601 90.98 43.5901 90.74C43.5201 90.5 43.5201 90.33 43.5001 90.23L43.4301 89.56L43.0001 89.78Z" fill="white"/>
<path d="M44.1696 95C44.2071 95.1848 44.2071 95.3752 44.1696 95.56C44.1442 95.6555 44.0951 95.7432 44.027 95.8148C43.9588 95.8864 43.8738 95.9398 43.7796 95.97C43.6676 96.0202 43.5502 96.0571 43.4296 96.08C42.7496 96.22 42.3496 95.98 42.2196 95.36C42.2196 95.29 42.2196 95.23 42.2196 95.19L42.7296 95.09L43.2896 94.98L44.1296 94.81L44.1696 95ZM40.1196 97.67C40.1196 97.67 40.1196 97.8 40.1196 97.95C40.1196 98.1 40.1196 98.23 40.1796 98.32L40.5296 97.98L41.1696 97.35C41.6096 96.91 41.9796 96.56 42.2596 96.35C42.3749 96.6525 42.5901 96.9065 42.8696 97.07C43.1423 97.2257 43.464 97.2722 43.7696 97.2C43.9825 97.1631 44.1803 97.0659 44.3396 96.92C44.4903 96.7605 44.6031 96.5691 44.6696 96.36C44.7054 96.2087 44.7054 96.0512 44.6696 95.9C44.6696 95.75 44.6096 95.51 44.5396 95.19L44.4196 94.67C44.4196 94.51 44.3396 94.34 44.3096 94.17L44.2196 93.68C44.0896 93.68 43.7596 93.79 43.2196 93.92L42.6496 94.05L41.3596 94.32L40.7796 94.42L39.9596 94.58L39.4896 94.65H39.3496L39.4196 94.89L39.5096 95.21C39.5047 95.2933 39.5047 95.3767 39.5096 95.46C39.5096 95.61 39.5096 95.71 39.5096 95.8L39.8396 95.7L40.2396 95.59H40.4296L41.6896 95.32C41.6896 95.32 41.6896 95.32 41.7396 95.32L41.4196 95.6L41.0796 95.9L39.9996 97C39.9996 97.25 40.0796 97.46 40.1196 97.65V97.67Z" fill="white"/>
<path d="M41.8093 100.4C42.0975 100.033 42.4869 99.7584 42.9293 99.61C43.1884 99.5091 43.4562 99.4321 43.7293 99.38C43.9845 99.3409 44.2441 99.3409 44.4993 99.38C44.7517 99.4154 44.9937 99.5041 45.2093 99.64C45.3312 99.7185 45.4393 99.8164 45.5293 99.93C45.6158 100.052 45.6833 100.187 45.7293 100.33C45.8193 100.548 45.8473 100.787 45.8103 101.02C45.7732 101.253 45.6725 101.471 45.5193 101.65C45.2257 102.025 44.8297 102.306 44.3793 102.46C44.1257 102.552 43.8648 102.622 43.5993 102.67C43.3572 102.705 43.1114 102.705 42.8693 102.67C42.5924 102.633 42.3283 102.53 42.0993 102.37C41.8851 102.212 41.7245 101.992 41.6393 101.74C41.5433 101.522 41.5083 101.282 41.5383 101.046C41.5682 100.81 41.6619 100.587 41.8093 100.4ZM45.1993 103.33C45.3745 103.228 45.5358 103.103 45.6793 102.96C45.8324 102.827 45.961 102.668 46.0593 102.49C46.1525 102.306 46.223 102.111 46.2693 101.91C46.3457 101.634 46.3728 101.346 46.3493 101.06C46.3175 100.756 46.247 100.457 46.1393 100.17C46.0182 99.8101 45.8392 99.4723 45.6093 99.17C45.3874 98.8916 45.1119 98.6604 44.7993 98.49C44.4931 98.3153 44.1511 98.2127 43.7993 98.19C43.4347 98.1721 43.0704 98.23 42.7293 98.36C42.4004 98.4842 42.0933 98.6597 41.8193 98.88C41.5634 99.0974 41.3614 99.3713 41.2293 99.68C41.089 99.994 41.024 100.336 41.0393 100.68C41.05 101.049 41.121 101.414 41.2493 101.76C41.3697 102.12 41.5488 102.458 41.7793 102.76C42.0044 103.033 42.2793 103.26 42.5893 103.43C42.8951 103.604 43.2378 103.704 43.5893 103.72C43.9534 103.746 44.3188 103.692 44.6593 103.56C44.8459 103.5 45.0266 103.423 45.1993 103.33Z" fill="white"/>
<path d="M48.1693 104.74C48.2438 104.824 48.3108 104.914 48.3693 105.01L48.5093 105.22L48.7393 105.48C48.8008 105.539 48.8576 105.602 48.9093 105.67L48.4593 105.99L48.0893 106.25L47.8493 106.44L47.3293 106.86L47.7093 107.36L47.9993 107.75L48.3993 108.24L48.6993 108.59L49.4993 107.95C49.5948 107.88 49.6851 107.803 49.7693 107.72L50.2293 107.32L50.4293 107.6C50.4721 107.672 50.5189 107.743 50.5693 107.81L50.7893 108.05L50.9793 108.26L50.6793 108.48L50.1593 108.82L48.8293 109.82L48.1693 110.37C47.4993 110.95 47.1693 111.26 47.0893 111.29C47.0206 111.207 46.9571 111.121 46.8993 111.03L46.7593 110.82C46.6993 110.75 46.6193 110.65 46.5093 110.54C46.3993 110.43 46.3393 110.35 46.3193 110.34L47.1493 109.77L47.9793 109.14L48.2493 108.92L47.5793 108.05L46.8693 107.19L46.1893 107.73L45.5593 108.27L45.0393 108.72C45.0393 108.66 44.9293 108.57 44.8493 108.45L44.7093 108.25L44.4693 107.97L44.2793 107.77C44.4993 107.6 44.7593 107.4 45.0793 107.18L46.4193 106.18C46.6693 105.98 46.8893 105.8 47.0793 105.63L48.1693 104.74Z" fill="white"/>
<path d="M50.1005 112.79C50.1454 112.325 50.3262 111.883 50.6205 111.52C50.7846 111.297 50.9651 111.086 51.1605 110.89C51.3471 110.71 51.5594 110.558 51.7905 110.44C52.0185 110.321 52.2733 110.262 52.5305 110.27C52.6729 110.266 52.8149 110.286 52.9505 110.33C53.0869 110.389 53.2147 110.467 53.3305 110.56C53.525 110.696 53.6789 110.882 53.7758 111.099C53.8726 111.316 53.9088 111.554 53.8805 111.79C53.832 112.262 53.6479 112.71 53.3505 113.08C53.1888 113.296 53.0081 113.497 52.8105 113.68C52.6336 113.848 52.431 113.986 52.2105 114.09C51.9566 114.206 51.6798 114.265 51.4005 114.26C51.1336 114.246 50.878 114.148 50.6705 113.98C50.4779 113.851 50.3235 113.672 50.2233 113.463C50.1231 113.253 50.0807 113.021 50.1005 112.79ZM54.5405 113.41C54.6327 113.232 54.7033 113.044 54.7505 112.85C54.8007 112.651 54.8209 112.445 54.8105 112.24C54.786 112.036 54.739 111.834 54.6705 111.64C54.5856 111.364 54.45 111.106 54.2705 110.88C54.0817 110.643 53.8632 110.431 53.6205 110.25C53.3177 110.023 52.9799 109.848 52.6205 109.73C52.2987 109.622 51.9591 109.578 51.6205 109.6C51.2666 109.619 50.923 109.726 50.6205 109.91C50.3018 110.089 50.0256 110.335 49.8105 110.63C49.5945 110.908 49.4317 111.223 49.3305 111.56C49.2254 111.895 49.1995 112.251 49.2551 112.598C49.3106 112.945 49.446 113.274 49.6505 113.56C49.859 113.86 50.1158 114.124 50.4105 114.34C50.7126 114.568 51.0506 114.744 51.4105 114.86C51.732 114.969 52.0719 115.013 52.4105 114.99C52.7716 114.968 53.1234 114.867 53.4412 114.694C53.7591 114.521 54.0353 114.281 54.2505 113.99C54.3728 113.811 54.4703 113.616 54.5405 113.41Z" fill="white"/>
<path d="M55.3791 114.16L56.4891 112.27C56.5387 112.291 56.5857 112.318 56.6291 112.35L56.7391 112.41L56.9091 112.47H57.0291C57.0291 113.02 57.0291 113.47 57.0291 113.74C57.0291 113.84 57.0591 114.26 57.1191 115C57.1191 115.43 57.1791 115.85 57.2091 116.27L57.9191 115.66C58.6791 115.03 59.3891 114.39 60.0791 113.76H60.1491L60.2591 113.82H60.3691C60.4569 113.865 60.5515 113.896 60.6491 113.91C60.3991 114.76 60.1991 115.45 60.0491 115.99C59.8991 116.53 59.7891 116.92 59.7091 117.19L59.3891 118.42C59.3891 118.42 59.3891 118.49 59.3891 118.56C59.3784 118.615 59.3617 118.669 59.3391 118.72L59.0391 118.58L58.8091 118.46L58.4891 118.35L58.2491 118.27C58.4544 117.775 58.628 117.267 58.7691 116.75C58.9391 116.17 59.0991 115.61 59.2491 115.08L58.3191 115.89L57.3991 116.7C57.1891 116.88 56.8891 117.16 56.4891 117.54L56.3291 117.45H56.2291L56.1691 116.16C56.1691 115.74 56.1191 115.36 56.0991 115C56.0791 114.64 56.0491 114.23 56.0191 113.83L55.3891 114.96L55.0091 115.69L54.6891 116.32L54.4891 116.73C54.3991 116.66 54.3291 116.63 54.2891 116.6H54.1891C54.0855 116.558 53.9784 116.524 53.8691 116.5C53.8887 116.458 53.9121 116.418 53.9391 116.38C53.962 116.344 53.9889 116.31 54.0191 116.28C54.0791 116.17 54.1891 116.02 54.3191 115.81L54.6391 115.3L55.0291 114.67L55.3791 114.16Z" fill="white"/>
<path d="M63.0604 114.59L62.9604 114.93C62.8504 115.24 62.7904 115.43 62.7704 115.51C62.7504 115.59 62.6604 115.89 62.5704 116.19C62.4804 116.49 62.4104 116.72 62.3704 116.87C62.3304 117.02 62.2804 117.27 62.2104 117.6C62.1404 117.93 62.0804 118.17 62.0404 118.33C62.0004 118.49 61.9704 118.64 61.9104 118.99C61.9104 119.13 61.8804 119.26 61.8204 119.38L61.5104 119.28L61.2704 119.2L60.6504 119.08C60.7204 118.82 60.8104 118.5 60.9304 118.08C61.1904 117.23 61.3504 116.7 61.4104 116.48L61.5004 116.1L61.7304 115.19L61.8204 114.81C61.8204 114.68 61.8804 114.49 61.9204 114.24L62.2404 114.34L62.4804 114.42C62.5878 114.454 62.6983 114.478 62.8104 114.49L63.0604 114.59Z" fill="white"/>
<path d="M64.0006 119.88L63.7306 119.81H63.3906C63.5006 119.35 63.6206 118.81 63.7306 118.2C63.8406 117.59 63.9506 117 64.0306 116.42L64.2006 115.27V114.93C64.3025 114.973 64.4105 115 64.5206 115.01C64.6303 115.021 64.7409 115.021 64.8506 115.01C64.9906 115.22 65.2806 115.65 65.7206 116.28L66.5906 117.55L67.4506 118.84L67.6906 117.27L67.8006 116.47C67.8006 116.38 67.8006 116.23 67.8006 116.04C67.7915 115.893 67.7915 115.747 67.8006 115.6V115.47L67.9906 115.52H68.1206H68.4506L68.3706 115.91C68.3706 116.02 68.3706 116.13 68.3006 116.24C68.2273 116.553 68.1873 116.743 68.1806 116.81C68.1806 117.03 68.1106 117.26 68.0606 117.52C68.0106 117.78 67.9706 117.98 67.9406 118.15L67.8206 118.88L67.6006 120.39H67.5306L67.3206 120.34C67.2176 120.329 67.1137 120.329 67.0106 120.34C66.7306 119.87 66.5206 119.54 66.3906 119.34C66.1606 118.99 65.9506 118.65 65.7406 118.34L65.0606 117.34L64.4106 116.4L64.2406 117.4L64.1406 118.05C64.1406 118.2 64.0806 118.59 64.0106 119.2C64.0506 119.447 64.0473 119.673 64.0006 119.88Z" fill="white"/>
<path d="M74 115.76C74 115.94 74 116.11 73.94 116.28C73.9289 116.46 73.9289 116.64 73.94 116.82L73.89 117.52V118.32C73.8903 118.71 73.8466 119.099 73.76 119.48C73.6461 119.861 73.3973 120.188 73.06 120.4C72.8647 120.528 72.6479 120.619 72.42 120.67C71.7455 120.8 71.0475 120.719 70.42 120.44C70.2244 120.341 70.0531 120.2 69.9183 120.027C69.7835 119.854 69.6884 119.654 69.64 119.44C69.6365 119.383 69.6365 119.327 69.64 119.27C69.636 119.2 69.636 119.13 69.64 119.06C69.6356 119.01 69.6356 118.96 69.64 118.91V118.74C69.64 118.66 69.64 118.59 69.64 118.55V117.65V116.75V115.91V115.61H69.96H70.24H70.83V115.96C70.83 116.15 70.83 116.43 70.77 116.81C70.71 117.19 70.77 117.47 70.71 117.65V118C70.71 118.19 70.71 118.36 70.71 118.54C70.6947 118.72 70.6947 118.9 70.71 119.08C70.7309 119.232 70.7644 119.383 70.81 119.53C70.8713 119.664 70.9559 119.786 71.06 119.89C71.275 120.105 71.5659 120.227 71.87 120.23C72.1507 120.253 72.432 120.194 72.68 120.06C72.9094 119.893 73.0863 119.664 73.19 119.4C73.2651 119.208 73.309 119.006 73.32 118.8C73.32 118.55 73.32 118.24 73.32 117.9C73.32 117.56 73.32 117.3 73.32 116.81C73.32 116.32 73.32 115.96 73.32 115.72H73.51H73.86L74 115.76Z" fill="white"/>
<path d="M75.2299 117.93L75.3199 115.75C75.3727 115.74 75.427 115.74 75.4799 115.75H75.6099H75.7899H75.8999C76.1799 116.23 76.3999 116.6 76.5499 116.84C76.6999 117.08 76.8199 117.3 77.2099 117.92L77.8899 119L78.2399 118.13C78.5999 117.22 78.9399 116.32 79.2399 115.43H79.3199C79.3592 115.44 79.4005 115.44 79.4399 115.43H79.5599C79.6582 115.426 79.7557 115.409 79.8499 115.38C80.0299 116.25 80.1799 116.94 80.2999 117.49L80.5699 118.71L80.8599 119.95C80.8534 119.996 80.8534 120.044 80.8599 120.09C80.8666 120.14 80.8666 120.19 80.8599 120.24H80.5299H80.2698L79.9399 120.29H79.6899C79.6365 119.759 79.553 119.232 79.4399 118.71C79.3099 118.12 79.1899 117.55 79.0699 116.99C78.9299 117.38 78.7799 117.77 78.6299 118.15C78.4799 118.53 78.3398 118.92 78.1998 119.3C78.0598 119.68 77.9699 119.95 77.7899 120.47H77.6099H77.5099L76.8499 119.37L76.2499 118.37L75.6299 117.37V118.66V119.48V120.19V120.64H75.2899C75.1779 120.647 75.0672 120.667 74.9599 120.7V120.57C74.9561 120.523 74.9561 120.477 74.9599 120.43C74.9599 120.32 74.9599 120.13 75.0099 119.88C75.0599 119.63 75.0099 119.49 75.0099 119.27C75.0099 119.05 75.0099 118.81 75.0099 118.54C75.0099 118.27 75.2199 118.09 75.2299 117.93Z" fill="white"/>
<path d="M84.2109 115.27L84.0609 114.73L84.2409 114.64H84.3809C84.5688 114.575 84.773 114.575 84.9609 114.64C85.0616 114.687 85.1454 114.764 85.2009 114.86C85.2696 114.955 85.3236 115.059 85.3609 115.17C85.4087 115.305 85.4291 115.447 85.4209 115.59C85.4162 115.727 85.3709 115.859 85.2909 115.97C85.2354 116.074 85.1523 116.16 85.0509 116.22C84.9285 116.28 84.8014 116.33 84.6709 116.37H84.5609L84.3309 115.65C84.2847 115.525 84.2446 115.399 84.2109 115.27ZM86.2609 115.61C86.344 115.481 86.3963 115.334 86.4136 115.182C86.4309 115.029 86.4129 114.875 86.3609 114.73C86.3159 114.564 86.2287 114.412 86.1078 114.289C85.9869 114.167 85.8364 114.077 85.6709 114.03C85.3375 113.96 84.9912 113.984 84.6709 114.1L83.6709 114.43L82.8809 114.66C82.9509 114.88 83.0609 115.19 83.2109 115.6L83.5409 116.52L83.7809 117.33C83.9309 117.84 84.0409 118.21 84.1109 118.43C84.1809 118.65 84.2109 118.75 84.2609 118.93C84.3109 119.11 84.3409 119.26 84.3609 119.4L84.9509 119.18L85.9509 118.88L86.2009 118.79L86.4009 118.7C86.5461 118.62 86.6834 118.526 86.8109 118.42C86.9356 118.315 87.0377 118.186 87.1109 118.04C87.2578 117.727 87.2827 117.37 87.1809 117.04C87.1358 116.88 87.0547 116.733 86.9437 116.61C86.8327 116.487 86.6949 116.391 86.5409 116.33C86.3881 116.269 86.2252 116.239 86.0609 116.24C85.9019 116.214 85.7398 116.214 85.5809 116.24C85.8628 116.099 86.0986 115.88 86.2609 115.61ZM84.6909 116.79H84.7909H84.9109C85.0306 116.737 85.16 116.71 85.2909 116.71C85.4217 116.71 85.5512 116.737 85.6709 116.79C85.9051 116.947 86.0725 117.186 86.1409 117.46C86.2056 117.679 86.2056 117.911 86.1409 118.13C86.1138 118.252 86.0469 118.361 85.9509 118.44C85.8595 118.526 85.7503 118.591 85.6309 118.63L85.2809 118.72L84.9909 117.86L84.6909 116.79Z" fill="white"/>
<path d="M86.8594 113.41V113.32L87.3794 113.09L87.9094 112.85C88.1194 112.75 88.3994 112.62 88.7394 112.43L89.3694 112.1C89.3959 112.203 89.4328 112.304 89.4794 112.4C89.4776 112.427 89.4776 112.453 89.4794 112.48L89.5494 112.59V112.66C89.3894 112.74 89.1294 112.85 88.7894 112.99C88.4494 113.13 88.1894 113.23 88.0294 113.31L88.3494 113.99L88.6894 114.72L90.1394 113.94L90.2094 114.14C90.2037 114.183 90.2037 114.227 90.2094 114.27C90.2315 114.316 90.2583 114.36 90.2894 114.4C90.315 114.432 90.3384 114.465 90.3594 114.5L89.7794 114.75L89.1794 115.01L88.8594 115.16L89.2494 115.99L89.6694 116.81C90.1194 116.58 90.6094 116.31 91.1294 115.99C91.1516 116.092 91.1887 116.189 91.2394 116.28C91.2372 116.31 91.2372 116.34 91.2394 116.37L91.3094 116.47V116.55L90.7094 116.82C90.4494 116.92 90.2494 117.01 90.1094 117.08L89.3494 117.48L88.7894 117.78L88.6194 117.4L88.0594 116.17L87.5894 115.17L87.2094 114.41C87.1294 114.24 87.0694 114.12 87.0194 114.03L86.8594 113.41Z" fill="white"/>
<path d="M93.3805 115.41L93.1405 115.55C93.0523 115.621 92.9688 115.698 92.8905 115.78C92.6405 115.38 92.3406 114.93 91.9806 114.41C91.6206 113.89 91.2706 113.41 90.9806 112.95L90.2705 112.02L90.0605 111.76C90.1599 111.714 90.2538 111.657 90.3405 111.59C90.4278 111.525 90.5082 111.451 90.5806 111.37L92.1005 111.64L93.6105 111.91L95.1405 112.21L94.1405 110.93L93.6506 110.29C93.563 110.175 93.4695 110.065 93.3706 109.96L93.0905 109.62L93.0005 109.51L93.1705 109.42C93.21 109.401 93.247 109.378 93.2805 109.35C93.3255 109.315 93.3659 109.275 93.4006 109.23L93.5305 109.13L93.7505 109.46C93.8105 109.54 93.8806 109.64 93.9406 109.74C94.1106 110 94.2106 110.16 94.2606 110.22L94.6805 110.81C94.8205 111.03 94.9406 111.2 95.0406 111.34L95.4806 111.93L96.4006 113.16H96.3306C96.2658 113.188 96.2053 113.225 96.1506 113.27C96.0677 113.329 95.9936 113.4 95.9305 113.48L94.7705 113.22L93.5705 113L92.4006 112.8L91.2705 112.61L91.8405 113.4L92.2306 113.92C92.3206 114.05 92.5705 114.35 92.9505 114.83C93.1105 115.05 93.2505 115.23 93.3805 115.41Z" fill="white"/>
<path d="M94.0895 108.59L94.0195 108.53C94.0995 108.43 94.2295 108.3 94.4095 108.12L94.8195 107.7C94.9695 107.53 95.1795 107.3 95.4295 107L95.8895 106.47C95.9487 106.553 96.0194 106.627 96.0995 106.69L96.1795 106.76L96.2795 106.83H96.3495C96.2295 106.97 96.0295 107.16 95.7695 107.42C95.5609 107.601 95.3638 107.794 95.1795 108L95.7295 108.51L96.3195 109.06L97.3795 107.8L97.5095 107.95C97.5403 107.986 97.5737 108.019 97.6095 108.05L97.7295 108.15L97.8395 108.21C97.7395 108.31 97.5895 108.47 97.3895 108.66C97.1895 108.85 97.0295 109.02 96.9295 109.13L96.6895 109.39L97.3595 110.01L98.0395 110.62C98.3895 110.23 98.7395 109.8 99.0995 109.31C99.1556 109.398 99.2267 109.476 99.3095 109.54L99.3795 109.61L99.4795 109.68H99.5595C99.4595 109.78 99.3095 109.94 99.0995 110.14L98.6495 110.62L98.0895 111.27L97.6795 111.76L97.3795 111.47L96.3795 110.53L95.5695 109.79L94.9395 109.22L94.6295 108.95L94.0895 108.59Z" fill="white"/>
<path d="M96.3398 106H96.2598L96.5898 105.53C96.7108 105.383 96.8243 105.229 96.9298 105.07L97.4398 104.28C97.6498 103.95 97.7698 103.75 97.8198 103.69C97.8917 103.763 97.9723 103.827 98.0598 103.88L98.1398 103.94L98.2598 104H98.3298C98.1782 104.232 98.0147 104.455 97.8398 104.67C97.6098 104.96 97.4398 105.17 97.3398 105.33L97.9598 105.76L98.6198 106.22L99.4898 104.82L99.6398 104.95L99.7498 105.04C99.7932 105.069 99.8403 105.093 99.8898 105.11H99.9998C99.9198 105.23 99.7998 105.4 99.6198 105.62L99.2298 106.15L99.0298 106.44L99.7198 106.9L101.02 107.71L100.82 107.97L100.65 108.19L100.48 108.47L100.35 108.7L100.02 108.45L98.9198 107.67L98.0098 107.04L97.3098 106.57L96.9598 106.35L96.3398 106Z" fill="white"/>
<path d="M98.6594 102L98.9694 102.18C99.2494 102.35 99.4194 102.46 99.4894 102.49L100.109 102.84L100.729 103.19C100.869 103.27 101.099 103.38 101.399 103.52L102.079 103.85L102.679 104.13L103.049 104.3C102.999 104.397 102.942 104.49 102.879 104.58L102.749 104.79C102.651 104.978 102.564 105.172 102.489 105.37C102.249 105.25 101.959 105.09 101.619 104.89C100.859 104.44 100.379 104.16 100.179 104.06L99.8294 103.87L98.9994 103.45L98.6394 103.27L98.1094 103.04L98.2794 102.76C98.331 102.69 98.3778 102.616 98.4194 102.54C98.4732 102.44 98.52 102.336 98.5594 102.23C98.6094 102.08 98.6494 102 98.6594 102Z" fill="white"/>
<path d="M104.351 98.92L104.411 98.84L104.931 99.21C104.965 99.4487 104.965 99.6912 104.931 99.93C104.887 100.179 104.82 100.424 104.731 100.66C104.664 100.842 104.584 101.02 104.491 101.19L104.291 101.5C104.214 101.62 104.124 101.731 104.021 101.83L103.691 102.11C103.583 102.183 103.469 102.247 103.351 102.3L103.011 102.43C102.77 102.496 102.52 102.523 102.271 102.51C102.01 102.496 101.753 102.438 101.511 102.34C101.146 102.207 100.807 102.011 100.511 101.76C100.241 101.503 100.032 101.189 99.9006 100.84C99.7873 100.499 99.7398 100.139 99.7606 99.78C99.7902 99.4064 99.8744 99.0391 100.011 98.69C100.1 98.4423 100.221 98.207 100.371 97.99C100.51 97.7805 100.674 97.5891 100.861 97.42L101.161 97.63L101.491 97.85V97.94C101.261 97.9954 101.049 98.1051 100.871 98.26C100.689 98.4132 100.548 98.6091 100.461 98.83C100.36 99.0677 100.323 99.3278 100.355 99.5841C100.386 99.8404 100.485 100.084 100.641 100.29C100.959 100.707 101.394 101.02 101.891 101.19C102.142 101.286 102.404 101.35 102.671 101.38C102.922 101.406 103.176 101.385 103.421 101.32C103.656 101.246 103.869 101.116 104.041 100.94C104.226 100.766 104.367 100.55 104.451 100.31C104.536 100.09 104.573 99.8552 104.561 99.62C104.531 99.3765 104.46 99.1398 104.351 98.92Z" fill="white"/>
<path d="M100.999 95.49L101.339 95.6L101.919 95.79C102.079 95.79 102.299 95.89 102.599 95.99L103.279 96.2L104.009 96.36L104.739 96.53L105.399 96.67L105.789 96.76C105.789 96.83 105.789 96.93 105.689 97.06C105.589 97.19 105.619 97.27 105.609 97.3C105.559 97.49 105.519 97.69 105.479 97.92L104.529 97.64C103.689 97.38 103.159 97.21 102.939 97.16L102.559 97.06L101.649 96.83L101.259 96.74C101.075 96.6961 100.888 96.6627 100.699 96.64C100.73 96.5314 100.767 96.4246 100.809 96.32C100.831 96.2384 100.858 96.1582 100.889 96.08L100.959 95.74C100.999 95.6 100.999 95.52 100.999 95.49Z" fill="white"/>
<path d="M105.531 93.89C105.102 94.0722 104.628 94.121 104.171 94.03C103.896 93.9879 103.625 93.9244 103.361 93.84C103.117 93.7625 102.884 93.6515 102.671 93.51C102.462 93.3563 102.294 93.1537 102.181 92.92C102.107 92.8012 102.06 92.6683 102.041 92.53C102.017 92.3809 102.017 92.229 102.041 92.08C102.071 91.8451 102.164 91.6227 102.31 91.4362C102.456 91.2497 102.65 91.1059 102.871 91.02C103.312 90.8438 103.793 90.7953 104.261 90.88C104.526 90.9256 104.787 90.9925 105.041 91.08C105.27 91.1607 105.486 91.2753 105.681 91.42C105.903 91.5868 106.085 91.8023 106.211 92.05C106.32 92.2946 106.354 92.5658 106.311 92.83C106.288 93.0604 106.203 93.2804 106.066 93.4669C105.929 93.6535 105.744 93.7996 105.531 93.89ZM104.001 89.68C103.802 89.6827 103.603 89.7095 103.411 89.76C103.209 89.81 103.017 89.8909 102.841 90C102.668 90.1048 102.512 90.2365 102.381 90.39C102.174 90.5938 102.008 90.8347 101.891 91.1C101.77 91.3779 101.686 91.6704 101.641 91.97C101.586 92.3313 101.586 92.6987 101.641 93.06C101.699 93.4125 101.828 93.7494 102.021 94.0503C102.213 94.3512 102.465 94.6096 102.761 94.81C103.066 95 103.406 95.129 103.761 95.19C104.091 95.2494 104.43 95.2494 104.761 95.19C105.099 95.1248 105.417 94.9826 105.691 94.7745C105.965 94.5664 106.187 94.2979 106.341 93.99C106.502 93.6759 106.614 93.3385 106.671 92.99C106.736 92.6295 106.736 92.2604 106.671 91.9C106.618 91.5448 106.492 91.2043 106.301 90.9C106.103 90.5933 105.842 90.3328 105.535 90.136C105.228 89.9393 104.882 89.8111 104.521 89.76C104.351 89.7147 104.176 89.6878 104.001 89.68Z" fill="white"/>
<path d="M61.7692 100.64V99.27H61.7092L60.7892 99.74C60.7509 99.6593 60.7003 99.5851 60.6392 99.52C60.5818 99.4449 60.5182 99.3746 60.4492 99.31V99.25C60.8392 99.12 61.2392 98.97 61.6692 98.78C62.0992 98.59 62.3892 98.45 62.8492 98.2L63.0092 98.27C63.0092 98.61 63.0092 99.02 63.0092 99.48C63.0092 100.57 62.9492 101.25 62.9492 101.48V101.98C62.9492 102.19 62.9492 102.5 62.9492 102.92C62.9492 103.34 62.9492 103.65 62.9492 103.86H62.8692H62.5092H62.2992C62.176 103.852 62.0524 103.852 61.9292 103.86H61.6392V103.21C61.6392 102.81 61.6392 102.31 61.6392 101.69C61.6392 101.07 61.7692 100.74 61.7692 100.64Z" fill="white"/>
<path d="M69.8206 100.8C69.7876 100.923 69.7148 101.032 69.6136 101.11C69.5123 101.188 69.3883 101.23 69.2606 101.23C69.1478 101.236 69.0359 101.208 68.9395 101.149C68.8432 101.09 68.7669 101.003 68.7206 100.9C68.6355 100.7 68.5848 100.487 68.5706 100.27V99.89C68.5631 99.6208 68.6073 99.3526 68.7006 99.1C68.7311 98.9701 68.8034 98.8538 68.9064 98.7689C69.0093 98.684 69.1373 98.6352 69.2706 98.63C69.4177 98.6347 69.5587 98.69 69.6698 98.7866C69.781 98.8831 69.8554 99.015 69.8806 99.16C69.9601 99.4463 69.9938 99.7433 69.9806 100.04C69.9791 100.302 69.9246 100.56 69.8206 100.8ZM67.8206 103.58L67.8806 103.77C67.8871 103.795 67.8996 103.818 67.9171 103.837C67.9345 103.856 67.9563 103.871 67.9806 103.88C68.0102 103.873 68.041 103.873 68.0706 103.88H68.2906H68.5406C68.9379 103.882 69.3297 103.786 69.6806 103.6C70.0315 103.422 70.331 103.157 70.5506 102.83C70.7752 102.5 70.9347 102.13 71.0206 101.74C71.1209 101.328 71.1713 100.905 71.1706 100.48C71.1741 100.183 71.1371 99.887 71.0606 99.6C70.989 99.3314 70.8706 99.0775 70.7106 98.85C70.528 98.619 70.2909 98.4369 70.0206 98.32C69.7302 98.2095 69.4214 98.1552 69.1106 98.16C68.8693 98.1535 68.6287 98.1908 68.4006 98.27C68.1826 98.3448 67.9844 98.4679 67.8206 98.63C67.626 98.8121 67.4726 99.0338 67.3706 99.28C67.292 99.5392 67.2549 99.8092 67.2606 100.08C67.2534 100.288 67.2918 100.495 67.3729 100.687C67.4541 100.879 67.5762 101.05 67.7306 101.19C68.0556 101.468 68.4731 101.615 68.9006 101.6C69.0873 101.61 69.2738 101.579 69.4468 101.508C69.6198 101.437 69.7748 101.328 69.9006 101.19H69.9606V101.27C69.9678 101.766 69.8546 102.257 69.6306 102.7C69.5416 102.929 69.3867 103.126 69.1855 103.267C68.9844 103.407 68.746 103.485 68.5006 103.49C68.3624 103.485 68.2279 103.443 68.1106 103.37C67.992 103.301 67.8784 103.225 67.7706 103.14L67.7106 103.2C67.7686 103.321 67.8123 103.449 67.8406 103.58H67.8206Z" fill="white"/>
<path d="M75.7005 100.13L76.2806 99.27H76.3405V101.62H74.7906V101.57L75.7005 100.13ZM74.1806 101.9C74.1851 101.973 74.1851 102.047 74.1806 102.12C74.1861 102.187 74.1861 102.253 74.1806 102.32C74.1806 102.32 74.1806 102.4 74.1806 102.51H76.3706C76.3706 102.78 76.3706 103.04 76.3706 103.27C76.3706 103.5 76.3706 103.7 76.3706 103.87H76.6406C76.7637 103.861 76.8874 103.861 77.0106 103.87H77.3006H77.5706H77.6406V103.73V103.38V102.51L78.3506 102.57C78.3562 102.467 78.3562 102.363 78.3506 102.26V102.08C78.3453 101.997 78.3453 101.913 78.3506 101.83C78.3506 101.76 78.3506 101.68 78.3506 101.6L77.6406 101.65V100.07V99.25C77.6406 99.25 77.6406 99.01 77.6406 98.63C77.6406 98.54 77.6406 98.42 77.6406 98.28C77.4609 98.2967 77.2802 98.2967 77.1006 98.28H76.8206H76.6206H76.5406C76.4306 98.47 76.2706 98.72 76.0806 99.01L75.5806 99.74L74.9806 100.65L74.2506 101.72C74.2506 101.72 74.1706 101.82 74.1806 101.9Z" fill="white"/>
<path d="M82.5107 101.46C82.5511 101.339 82.6271 101.233 82.7289 101.156C82.8307 101.08 82.9533 101.036 83.0807 101.03C83.2206 101.029 83.3565 101.076 83.4658 101.164C83.575 101.251 83.6509 101.373 83.6807 101.51C83.7577 101.786 83.7914 102.073 83.7807 102.36C83.787 102.632 83.7465 102.902 83.6607 103.16C83.6302 103.29 83.5579 103.406 83.455 103.491C83.352 103.576 83.224 103.625 83.0907 103.63C82.7907 103.63 82.5907 103.45 82.4807 103.1C82.4027 102.813 82.3689 102.517 82.3807 102.22C82.3722 101.96 82.4164 101.702 82.5107 101.46ZM84.1907 98.32C84.0513 98.3022 83.9101 98.3022 83.7707 98.32H83.6207L83.2707 98.38C83.1002 98.4067 82.9327 98.4503 82.7707 98.51C82.4321 98.6466 82.1311 98.8622 81.8928 99.1388C81.6545 99.4154 81.4858 99.7449 81.4007 100.1C81.2254 100.622 81.1376 101.169 81.1407 101.72C81.1409 102 81.1778 102.279 81.2507 102.55C81.3182 102.818 81.4334 103.072 81.5907 103.3C81.745 103.533 81.9592 103.719 82.2107 103.84C82.3452 103.91 82.4906 103.958 82.6407 103.98C82.9668 104.051 83.3049 104.046 83.629 103.967C83.9531 103.887 84.2547 103.734 84.5107 103.52C84.6988 103.355 84.8476 103.15 84.9462 102.919C85.0449 102.689 85.0908 102.44 85.0807 102.19C85.0923 101.971 85.0542 101.752 84.9694 101.549C84.8846 101.346 84.7551 101.166 84.5907 101.02C84.2539 100.726 83.8174 100.572 83.3707 100.59C83.1829 100.578 82.9949 100.61 82.8215 100.683C82.648 100.756 82.4937 100.868 82.3707 101.01H82.3107C82.3138 100.744 82.3473 100.479 82.4107 100.22L82.5407 99.74C82.6027 99.5566 82.6939 99.3844 82.8107 99.23C82.9265 99.089 83.0611 98.9645 83.2107 98.86C83.3688 98.7578 83.5525 98.7024 83.7407 98.7H84.0007C84.0832 98.708 84.1641 98.7282 84.2407 98.76C84.2907 98.54 84.2407 98.44 84.1907 98.32Z" fill="white"/>
<path d="M10.1307 65.61C10.8051 65.61 11.4644 65.41 12.0252 65.0353C12.586 64.6606 13.023 64.128 13.2811 63.5049C13.5392 62.8818 13.6068 62.1962 13.4752 61.5347C13.3436 60.8732 13.0188 60.2656 12.5419 59.7887C12.065 59.3118 11.4574 58.9871 10.796 58.8555C10.1345 58.7239 9.44885 58.7915 8.82575 59.0496C8.20266 59.3076 7.67009 59.7447 7.29539 60.3055C6.9207 60.8663 6.7207 61.5255 6.7207 62.2C6.7207 63.1044 7.07997 63.9717 7.71947 64.6112C8.35897 65.2507 9.22632 65.61 10.1307 65.61Z" fill="white"/>
<path d="M135.801 64.5C136.478 64.5 137.139 64.2991 137.702 63.9229C138.265 63.5467 138.703 63.0119 138.961 62.3864C139.22 61.7609 139.287 61.0728 139.154 60.4091C139.022 59.7454 138.695 59.136 138.216 58.6581C137.736 58.1802 137.126 57.8553 136.462 57.7245C135.798 57.5936 135.11 57.6628 134.485 57.9232C133.86 58.1836 133.327 58.6235 132.952 59.1872C132.578 59.7509 132.379 60.4131 132.381 61.09C132.381 61.5386 132.469 61.9829 132.641 62.3972C132.813 62.8116 133.065 63.188 133.383 63.5048C133.701 63.8215 134.078 64.0725 134.493 64.2433C134.908 64.4141 135.352 64.5013 135.801 64.5Z" fill="white"/>
<path d="M12.5293 36.73L15.9893 32.07L14.9893 31.4L16.4193 29.49L17.4193 30.15L20.9393 25.43L22.4193 26.43L13.9893 37.75L12.5293 36.73Z" fill="white"/>
<path d="M24.2405 34.63L21.8905 33.06L20.2305 35.28L22.5805 36.85L24.2405 34.63Z" fill="white"/>
<path d="M27.7602 30.04L26.3102 29.07L17.7402 40.57L19.1902 41.54L27.7602 30.04Z" fill="white"/>
<path d="M20.8201 35.76C19.0201 37.62 16.8901 38.47 15.7101 37.67C14.3001 36.73 14.7101 33.85 16.7101 31.25C18.7101 28.65 21.3701 27.25 22.7701 28.25C23.9501 29.04 23.8401 31.17 22.6401 33.37M20.3801 33.73C21.3801 32.4 21.6601 30.99 21.0401 30.58C20.4201 30.17 19.1201 30.9 18.1301 32.23C17.1401 33.56 16.8501 34.96 17.4701 35.38C18.0901 35.8 19.3701 35 20.3501 33.7L20.3801 33.73Z" fill="white"/>
<path d="M21.6705 42C19.9905 40.88 20.3305 37.71 22.4105 34.92C24.4905 32.13 27.5405 30.76 29.2105 31.92C30.8805 33.08 30.5605 36.22 28.4705 39.01C26.3805 41.8 23.3405 43.16 21.6705 42ZM27.0005 38C28.3005 36.26 28.6105 34.35 27.6905 33.73C26.7705 33.11 24.9805 34.03 23.6905 35.73C22.4005 37.43 22.0005 39.42 23.0005 40C24.0005 40.58 25.6705 39.75 27.0005 38Z" fill="white"/>
<path d="M49.5092 14.63L45.3992 8.73999L43.4492 9.97999L47.5592 15.87L49.5092 14.63Z" fill="white"/>
<path d="M40.1699 21.29L49.9199 15.16L53.1599 19.8L51.1199 21.09L48.8899 17.89L41.1699 22.74L40.1699 21.29Z" fill="white"/>
<path d="M37.3704 17.87C37.0833 17.4613 36.8834 16.9979 36.7831 16.5085C36.6828 16.0192 36.6843 15.5145 36.7875 15.0258C36.8907 14.5371 37.0933 14.0749 37.3829 13.6679C37.6724 13.2609 38.0426 12.9178 38.4704 12.66C39.3537 12.0958 40.4199 11.8923 41.4489 12.0914C42.4779 12.2905 43.3913 12.8771 44.0004 13.73C44.2924 14.1447 44.4951 14.6155 44.5955 15.1126C44.696 15.6097 44.692 16.1223 44.5839 16.6178C44.4758 17.1133 44.2658 17.581 43.9674 17.991C43.669 18.4011 43.2886 18.7447 42.8504 19C41.9643 19.5431 40.9048 19.7286 39.8869 19.5187C38.8691 19.3088 37.9693 18.7193 37.3704 17.87ZM41.7504 17.37C41.9381 17.2344 42.0959 17.0617 42.2141 16.8625C42.3322 16.6634 42.4082 16.442 42.4372 16.2123C42.4663 15.9826 42.4479 15.7493 42.383 15.527C42.3182 15.3047 42.2084 15.0981 42.0604 14.92C41.8086 14.5097 41.4105 14.2102 40.9464 14.0821C40.4823 13.9541 39.987 14.0069 39.5604 14.23C39.3743 14.3682 39.2183 14.5428 39.1018 14.7432C38.9853 14.9436 38.9108 15.1656 38.8827 15.3957C38.8547 15.6257 38.8737 15.8591 38.9386 16.0816C39.0035 16.3041 39.113 16.5111 39.2604 16.69C39.5135 17.0961 39.9106 17.3917 40.3722 17.5177C40.8338 17.6438 41.326 17.591 41.7504 17.37Z" fill="white"/>
<path d="M72.2996 3.27002H66.5996V16.56H75.7396V9.83002H76.5396V16.56H79.0096V3.27002H76.5796V7.93002H75.7796V3.31002H73.3396V14.82H68.7196V4.75002H72.2996V3.27002Z" fill="white"/>
<path d="M125.86 26.08L132.88 35.65L122.93 42.21L123.69 43.24L122.16 44.25L114.09 33.27L115.62 32.26L117.06 34.22L123.33 30.09L124.78 32.07L118.49 36.22L119.08 37.03L125.41 32.86L126.81 34.77L120.48 38.95L121.42 40.29L129.84 34.74L124.28 27.09L125.86 26.08Z" fill="white"/>
<path d="M101.341 8.40002L107.431 12.23L106.611 13.41L100.551 9.60003L101.341 8.40002Z" fill="white"/>
<path d="M99.0191 9.46002L107.249 14.64L106.249 16.09L98.0391 10.92L99.0191 9.46002Z" fill="white"/>
<path d="M109.12 13.34L111.41 14.78L108.99 18.25L110.24 19.05L109.11 20.66L107.87 19.87L106.72 21.51L104.49 20.11L109.12 13.34Z" fill="white"/>
<path d="M95.8605 15.38L106.42 22.02L103.76 25.84L101.44 24.39L102.97 22.18L94.7305 17L95.8605 15.38Z" fill="white"/>
<path d="M98.0906 12.83C99.0906 11.43 101.271 11.2 103.011 12.29C104.751 13.38 105.381 15.41 104.411 16.81C103.441 18.21 101.241 18.45 99.4906 17.35C97.7406 16.25 97.1206 14.23 98.0906 12.83ZM100.201 16.33C100.604 16.5151 101.063 16.5418 101.485 16.4047C101.907 16.2676 102.263 15.9768 102.481 15.59C102.622 15.4301 102.73 15.2434 102.797 15.041C102.865 14.8385 102.891 14.6246 102.874 14.4118C102.858 14.1991 102.798 13.9919 102.7 13.8026C102.601 13.6133 102.465 13.4458 102.301 13.31C101.9 13.1195 101.443 13.0846 101.018 13.2121C100.593 13.3396 100.23 13.6204 100.001 14C99.8538 14.1629 99.7419 14.3542 99.6721 14.562C99.6023 14.7699 99.5759 14.9899 99.5946 15.2084C99.6134 15.4269 99.6769 15.6392 99.7811 15.8322C99.8854 16.0251 100.028 16.1946 100.201 16.33Z" fill="white"/>
<path d="M4.7793 87.35L16.2693 84L16.7393 85.57L11.9993 86.93L13.7693 92.93L18.5193 91.53L18.9993 93.07L7.4793 96.47L6.9993 94.89L12.3693 93.31L10.5993 87.31L5.2293 88.91L4.7793 87.35Z" fill="white"/>
<path d="M12.0591 100.94C12.6169 99.8797 13.5051 99.0301 14.5891 98.52C15.7537 97.8109 17.1444 97.5714 18.4791 97.85C19.0284 98.0076 19.5375 98.281 19.9722 98.6519C20.4068 99.0227 20.757 99.4824 20.9991 100C21.2804 100.495 21.4463 101.047 21.4844 101.615C21.5225 102.183 21.4318 102.752 21.2191 103.28C20.7128 104.404 19.813 105.304 18.6891 105.81C17.5881 106.396 16.3428 106.656 15.0991 106.56C14.4924 106.497 13.9139 106.271 13.4246 105.907C12.9353 105.543 12.5534 105.053 12.3191 104.49C11.9884 103.965 11.7918 103.366 11.7464 102.747C11.7011 102.128 11.8085 101.508 12.0591 100.94ZM18.1791 96.16C16.7126 95.9786 15.2261 96.2619 13.9291 96.97C12.4728 97.6447 11.2958 98.804 10.5991 100.25C10.3005 101.009 10.1761 101.825 10.2349 102.639C10.2938 103.452 10.5344 104.242 10.9391 104.95C11.2957 105.748 11.8388 106.449 12.5227 106.994C13.2066 107.539 14.0113 107.911 14.8691 108.08C16.4478 108.334 18.0659 108.044 19.4591 107.26C20.7825 106.663 21.8695 105.643 22.5491 104.36C22.9174 103.546 23.0816 102.654 23.0275 101.762C22.9735 100.87 22.7029 100.004 22.2391 99.24C21.8804 98.4235 21.3192 97.7122 20.6088 97.1732C19.8983 96.6342 19.062 96.2855 18.1791 96.16Z" fill="white"/>
<path d="M16.8506 114.2L24.5006 108.2L20.6306 119L21.7406 120.44L31.1906 113.07L30.1906 111.85L22.5406 117.85L26.4706 107.11L25.2906 105.6L15.8906 113L16.8506 114.2Z" fill="white"/>
<path d="M32.3698 116.25C30.6354 116.522 29.0714 117.449 27.9998 118.84C27.4052 119.466 26.9401 120.204 26.6312 121.011C26.3223 121.817 26.1757 122.677 26.1998 123.54C26.3686 124.896 27.0525 126.135 28.1098 127C28.807 127.632 29.6536 128.076 30.5698 128.29C31.2087 128.397 31.8609 128.397 32.4998 128.29L31.7898 129.72L32.5898 130.39L36.7498 125.51L32.7498 122.1L31.8798 123.1L34.7398 125.54C34.4123 125.992 33.9923 126.369 33.5079 126.647C33.0234 126.925 32.4855 127.096 31.9298 127.15C30.9486 127.165 29.9981 126.808 29.2698 126.15C28.7938 125.814 28.411 125.362 28.1574 124.837C27.9037 124.313 27.7876 123.732 27.8198 123.15C27.9817 121.93 28.52 120.79 29.3598 119.89C30.1529 118.807 31.3234 118.061 32.6398 117.8C33.1637 117.72 33.6989 117.756 34.2071 117.906C34.7153 118.057 35.184 118.317 35.5798 118.67C36.2309 119.182 36.7119 119.879 36.9598 120.67C37.1554 121.432 37.044 122.24 36.6498 122.92L37.8698 123.92C38.2579 123.353 38.5033 122.7 38.5851 122.018C38.6669 121.335 38.5828 120.643 38.3398 120C37.9457 119.067 37.3274 118.246 36.5398 117.61C35.9862 117.093 35.326 116.703 34.6056 116.468C33.8852 116.233 33.122 116.159 32.3698 116.25Z" fill="white"/>
<path d="M37.3898 133.09L43.9198 123.09L42.5498 122.2L36.0098 132.2L37.3898 133.09Z" fill="white"/>
<path d="M39.8691 134.45L45.5991 123.94L46.9891 124.69L44.1891 129.82L52.1191 127.49L54.1191 128.56L47.4291 130.42L48.4991 139.15L46.6491 138.15L45.8391 130.87L43.2791 131.56L41.2791 135.22L39.8691 134.45Z" fill="white"/>
<path d="M58.5305 136C58.2763 137.136 58.2763 138.314 58.5305 139.45C58.9971 141.003 60.2271 141.95 62.2205 142.29C64.2138 142.63 65.6938 142.153 66.6605 140.86C67.2897 139.878 67.6896 138.767 67.8305 137.61L69.0005 131L67.3805 130.72L66.0905 138C66.0023 138.717 65.7453 139.402 65.3405 140C64.9825 140.426 64.5084 140.739 63.9757 140.901C63.4431 141.062 62.8749 141.066 62.3405 140.91C61.8506 140.867 61.3838 140.682 60.9968 140.378C60.6098 140.075 60.3193 139.665 60.1605 139.2C59.9199 138.492 59.8648 137.735 60.0005 137L61.2605 129.71L59.6405 129.43L58.5305 136Z" fill="white"/>
<path d="M72.5598 143.16L72.3598 133.45L78.6998 143H80.5198L80.2698 131H78.7298L78.9398 140.71L72.6798 131.13L70.7598 131.18L71.0198 143.18L72.5598 143.16Z" fill="white"/>
<path d="M86.2096 142L84.2096 130.19L82.5996 130.47L84.5996 142.28L86.2096 142Z" fill="white"/>
<path d="M85.4707 130.16L87.1807 129.61L93.5807 138.28L93.7007 127.52L95.4307 126.97L94.9307 139.72L93.2907 140.24L85.4707 130.16Z" fill="white"/>
<path d="M109.779 132.79L109.109 131.53L102.709 135L100.769 131.43L106.589 128.28L105.929 127.06L100.109 130.2L98.3791 127L104.669 123.6L103.969 122.31L96.2891 126.47L101.999 137L109.779 132.79Z" fill="white"/>
<path d="M107.57 121.39L110.66 118.9C111.005 118.602 111.411 118.384 111.85 118.26C112.197 118.192 112.556 118.231 112.88 118.37C113.205 118.509 113.48 118.742 113.67 119.04C113.892 119.257 114.055 119.527 114.146 119.824C114.237 120.121 114.252 120.436 114.19 120.74C113.973 121.334 113.583 121.849 113.07 122.22L110.14 124.58L107.57 121.39ZM114.22 129.63L110.99 125.63L113.87 123.32C114.239 122.983 114.676 122.728 115.15 122.57C115.463 122.514 115.785 122.548 116.079 122.668C116.373 122.789 116.627 122.991 116.81 123.25L118.14 124.74C118.346 124.983 118.566 125.213 118.8 125.43C118.909 125.517 119.027 125.594 119.15 125.66L120.7 124.41L120.53 124.2C120.378 124.229 120.221 124.223 120.072 124.181C119.922 124.14 119.785 124.064 119.67 123.96C119.399 123.746 119.154 123.501 118.94 123.23L117.94 122.02C117.623 121.591 117.184 121.267 116.68 121.09C116.251 120.999 115.805 121.027 115.39 121.17C115.625 120.657 115.718 120.091 115.66 119.53C115.578 118.918 115.317 118.344 114.91 117.88C114.578 117.391 114.102 117.019 113.548 116.814C112.994 116.61 112.39 116.584 111.82 116.74C111.084 116.963 110.402 117.338 109.82 117.84L105.5 121.32L113.02 130.65L114.22 129.63Z" fill="white"/>
<path d="M123.001 120.91C124.255 120.707 125.384 120.035 126.161 119.03C126.952 118.156 127.494 117.085 127.731 115.93C127.838 115.368 127.782 114.786 127.569 114.255C127.357 113.723 126.996 113.263 126.531 112.93C126.198 112.6 125.787 112.359 125.336 112.229C124.885 112.1 124.408 112.086 123.951 112.19C123.29 112.363 122.674 112.673 122.141 113.1L120.751 114.1C120.152 114.573 119.505 114.982 118.821 115.32C118.576 115.413 118.309 115.434 118.052 115.381C117.795 115.328 117.559 115.203 117.371 115.02C117.171 114.844 117.011 114.629 116.899 114.388C116.787 114.147 116.726 113.886 116.721 113.62C116.682 113.053 116.805 112.488 117.075 111.988C117.346 111.489 117.752 111.076 118.248 110.799C118.743 110.521 119.307 110.39 119.874 110.42C120.441 110.451 120.988 110.641 121.451 110.97L122.451 109.82C122.061 109.419 121.576 109.124 121.041 108.961C120.505 108.798 119.938 108.774 119.391 108.89C118.298 109.201 117.326 109.836 116.601 110.71C115.795 111.533 115.331 112.629 115.301 113.78C115.316 114.277 115.437 114.766 115.656 115.212C115.875 115.659 116.187 116.054 116.571 116.37C116.884 116.681 117.274 116.903 117.701 117.014C118.128 117.124 118.576 117.12 119.001 117C119.748 116.718 120.447 116.32 121.071 115.82L122.421 114.82C122.966 114.39 123.577 114.053 124.231 113.82C124.492 113.768 124.762 113.782 125.015 113.863C125.269 113.943 125.498 114.087 125.681 114.28C126 114.556 126.215 114.932 126.29 115.347C126.364 115.762 126.294 116.191 126.091 116.56C125.875 117.083 125.574 117.566 125.201 117.99C124.892 118.433 124.476 118.791 123.991 119.03C123.507 119.27 122.97 119.383 122.431 119.36C121.853 119.255 121.313 119.004 120.861 118.63L119.861 119.78C120.266 120.192 120.758 120.507 121.302 120.703C121.846 120.899 122.426 120.969 123.001 120.91Z" fill="white"/>
<path d="M131.83 111L121.92 104.25L121 105.61L130.9 112.35L131.83 111Z" fill="white"/>
<path d="M122.74 103.32L127.25 94.7L128.51 95.36L126.64 98.94L135.99 103.84L135.22 105.3L125.87 100.4L124 104L122.74 103.32Z" fill="white"/>
<path d="M140 94.13L140.5 92.59L135.9 91.12L130.46 84.63L129.88 86.44L134.32 91.44L127.82 93L127.25 94.8L135.44 92.67L140 94.13Z" fill="white"/>
<path d="M56.3992 53.59V42.3H81.3292V46.01H82.0392V41.6H55.6992V54.3H64.9492V53.59H56.3992Z" fill="white"/>
<path d="M80.4797 64.93L80.1397 65.2C80.1955 65.9131 80.1484 66.6304 79.9997 67.33C79.8642 67.4465 79.7015 67.5268 79.5267 67.5635C79.3518 67.6002 79.1706 67.5921 78.9997 67.54C78.8397 67.41 78.8697 67.27 78.8597 67.08H77.7097L77.5897 68.42C78.2997 68.36 78.9497 68.72 79.4197 68C79.8097 68.33 80.4897 68.57 80.5097 69.13C80.4197 69.33 80.2197 69.36 80.0597 69.43C80.0052 70.0559 79.9083 70.6773 79.7697 71.29C80.0465 71.3495 80.3328 71.3495 80.6097 71.29C81.1706 68.8944 81.5285 66.4558 81.6797 64C82.3822 64.0453 83.0769 64.1728 83.7497 64.38C83.8397 64.55 83.5897 64.64 83.4597 64.67H83.3297C82.7729 66.9104 82.0509 69.1064 81.1697 71.24L83.5897 71.05C83.5314 70.0509 83.2693 69.0742 82.8197 68.18C83.1497 68.18 83.4197 68.48 83.6697 68.71C84.1915 69.1159 84.5967 69.6524 84.8443 70.2653C85.0919 70.8782 85.1731 71.5456 85.0797 72.2C85.0543 72.3526 84.9892 72.4958 84.8909 72.6151C84.7926 72.7345 84.6645 72.8259 84.5197 72.88C84.4075 72.9134 84.2893 72.9217 84.1736 72.9044C84.0578 72.8872 83.9472 72.8447 83.8497 72.78C83.5297 72.49 83.5997 72.02 83.5897 71.59C82.5897 71.86 81.5897 72.32 80.5297 72.65C80.4397 72.77 80.4397 73.07 80.1897 72.94C79.9697 72.52 79.8797 72.04 79.6597 71.61C79.4597 72.17 79.0597 72.92 78.3797 73C78.1597 73 77.8297 73.09 77.7197 72.83C77.6097 72.57 77.7197 72 77.2297 71.98C77.0397 71.89 76.7897 71.87 76.6497 71.69C77.2497 71.55 78.1697 72.07 78.4897 71.24C78.702 70.4538 78.8162 69.6443 78.8297 68.83C78.3884 68.7698 77.941 68.7698 77.4997 68.83C77.4997 69.12 77.4197 69.33 77.0997 69.43C76.8402 69.507 76.5667 69.5241 76.2997 69.48C76.0697 69.19 76.2997 68.82 76.2997 68.48C76.4368 67.686 76.527 66.8846 76.5697 66.08L77.6897 66.62H78.8197C78.9297 65.98 78.8197 65.42 78.8197 64.83H76.0497C76.0203 64.6643 75.9802 64.5006 75.9297 64.34H78.9297L79.4897 63.78C79.8197 64.12 80.6197 64.32 80.4797 64.93Z" fill="white"/>
<path d="M83.6891 74.4C83.4691 74.6 83.1091 74.4 82.8391 74.53C83.2576 75.0318 83.8138 75.4003 84.4391 75.59L85.5291 75.86C85.5291 76.17 85.0691 76.2 85.0491 76.52C85.0291 76.84 85.0491 76.98 84.9191 77.19C84.3116 76.9404 83.7657 76.5616 83.3191 76.08L83.1591 76.21H78.7391C78.7391 76.12 78.5891 75.89 78.6391 75.8H81.8091C82.0991 75.63 82.3191 74.9 82.7291 75.54C82.7291 75.54 82.7291 75.6 82.8191 75.54C82.598 75.2218 82.4008 74.8875 82.2291 74.54H79.9991L79.7391 74.15H81.9991L82.6591 73.46C82.9991 73.75 83.5091 74 83.6891 74.4Z" fill="white"/>
<path d="M79.7602 74.66C79.7602 74.93 79.4102 74.89 79.2202 75.01C78.4103 75.9798 77.3822 76.744 76.2202 77.24H76.1602C77.0797 76.2903 77.8034 75.169 78.2902 73.94C78.7993 74.1387 79.291 74.3795 79.7602 74.66Z" fill="white"/>
<path d="M83.7394 77.61C83.7894 77.86 83.4694 77.82 83.2994 77.82C83.1665 77.8044 83.0323 77.8044 82.8994 77.82C83.5837 78.6007 84.5447 79.0848 85.5794 79.17C85.5794 79.43 85.2394 79.52 85.1594 79.73C85.0794 79.94 85.0594 80.27 84.9394 80.5C84.5894 80.57 84.2894 79.73 84.0194 80.38V82.53C84.2394 82.37 84.3894 82.03 84.6194 81.79C84.9894 82.13 85.4894 82.44 85.6894 82.9L85.3594 83.13H76.3594C76.2094 83.13 76.2094 82.77 76.1294 82.7H77.6594V79.7C77.1914 80.0593 76.6678 80.3397 76.1094 80.53V80.42C77.0464 79.5136 77.7646 78.4055 78.2094 77.18C78.726 77.3945 79.2187 77.6627 79.6794 77.98C79.6194 78.2 79.3494 78.21 79.1694 78.27C78.869 78.653 78.5343 79.0078 78.1694 79.33L78.8594 79.58H82.5994L83.1394 79.18C82.7948 78.7736 82.5117 78.3187 82.2994 77.83L82.1894 77.77H79.9994C79.9194 77.71 79.8994 77.49 79.8794 77.4H82.1394L82.7194 76.82C83.1168 76.9994 83.4663 77.2701 83.7394 77.61ZM79.3294 80H78.9094V82.75H79.3294V80ZM81.0894 80H80.7194C80.8294 80.12 80.7194 80.29 80.6094 80.38V82.75H81.0894V80ZM82.7394 80H82.4394V80.19C82.3803 80.2609 82.3132 80.3246 82.2394 80.38V82.75H82.6894L82.7394 80Z" fill="white"/>
<path d="M65.27 63.78C65.38 64.01 65.04 64.06 64.96 64.18C64.9183 65.6903 65.3094 67.181 66.0873 68.4762C66.8651 69.7714 67.9972 70.8172 69.35 71.49C69.35 71.83 69.15 71.49 68.62 71.79C68.3 71.99 68.27 72.61 68.04 72.62C67.34 72.39 66.84 71.62 66.37 71.07C65.3349 69.4223 64.7456 67.534 64.66 65.59C64.4 68.34 63.66 71.42 60.75 72.53C60.3607 72.7156 59.9303 72.7983 59.5 72.77V72.67C62.95 70.97 63.34 67.05 63.2 63.49C63.8985 63.5114 64.5925 63.6087 65.27 63.78Z" fill="white"/>
<path d="M61.5591 74.67C62.0891 74.67 63.1991 74.85 63.4191 74.08C63.8819 74.281 64.28 74.6064 64.5691 75.02C64.6491 75.29 64.3291 75.32 64.1891 75.44V77.86C64.0391 78.2 63.5891 78.17 63.2891 78.17C63.2299 78.1703 63.1718 78.1546 63.1208 78.1247C63.0698 78.0948 63.0277 78.0517 62.9991 78C62.9991 77.9 63.0791 77.68 62.8891 77.68H61.4991V77.79V83.22C61.3591 83.55 60.9391 83.51 60.6291 83.54C60.5889 83.5456 60.5479 83.543 60.5088 83.5323C60.4696 83.5216 60.4331 83.503 60.4013 83.4778C60.3695 83.4525 60.3431 83.4211 60.3239 83.3854C60.3046 83.3497 60.2927 83.3104 60.2891 83.27V74.07L61.5591 74.67ZM62.9391 75.86V75.08H61.5191V75.86H62.9391ZM62.9391 77.17V76.39H61.5191V77.17H62.9391Z" fill="white"/>
<path d="M67.7301 74.69L68.1101 74.13C68.5001 74.44 69.0501 74.6 69.2701 75.13C69.2701 75.38 68.9801 75.41 68.8501 75.55V82.9C68.7577 83.0998 68.6069 83.2669 68.4177 83.3793C68.2285 83.4918 68.0097 83.5443 67.7901 83.53C67.6101 83.59 67.5301 83.43 67.5301 83.29V82.81C67.207 82.5838 66.8439 82.4209 66.4601 82.33C66.1385 82.5138 65.7694 82.5973 65.4001 82.57C65.2101 82.37 65.2801 82.08 65.2701 81.82H63.8301C63.6801 82.18 63.9701 82.82 63.3501 82.89C63.1401 82.89 62.8601 83.04 62.6601 82.89L62.5801 82.73V78.15C63.0003 78.2857 63.4084 78.4563 63.8001 78.66H65.2901L65.5901 78.25C65.3564 78.2617 65.1272 78.1829 64.9501 78.03V74.13L66.2301 74.69H67.7301ZM67.6301 76V75.22H66.2201V76H67.6301ZM67.6301 77.3V76.52H66.2101V77.3H67.6301ZM65.2401 80V79.22H63.8301V80H65.2401ZM65.2401 81.3V80.52H63.8301V81.3H65.2401ZM65.9201 78.22C66.1137 78.3 66.2928 78.4115 66.4501 78.55C67.1401 79.13 66.4501 79.37 66.4501 79.37V82C66.4501 82 66.8301 82 67.1801 82.09C67.2655 82.1143 67.3567 82.1087 67.4385 82.0742C67.5203 82.0396 67.5879 81.9782 67.6301 81.9V77.75H66.1901C66.2701 77.91 65.9201 78.17 65.9201 78.17V78.22Z" fill="white"/>
<path d="M90.5192 46.01V58.06H64.9492V54.3H82.0392V46.01H90.5192Z" fill="white"/>
<path d="M65 46H81.34V53.58H65V46ZM78.66 48.52H73.34V47H72.66V48.51H67.73V49.2H72.52C71.65 51.2 67.75 51.47 67.75 51.47L67.81 52.15C72.13 51.85 73 49.72 73 49.72C74.21 51.98 78.42 52.2 78.42 52.2V51.49C74.88 51.15 73.79 49.91 73.42 49.2H78.53L78.66 48.52Z" fill="white"/>
<path d="M34.6191 83.5C35.4665 84.5191 36.0747 85.715 36.3991 87L37.0891 86.82C36.7283 85.4176 36.0433 84.1194 35.0891 83.03L34.6191 83.5Z" fill="white"/>
<path d="M37.5898 80.15C38.1774 81.8115 39.1075 83.331 40.3198 84.61L40.8298 84.1C39.7056 82.8956 38.835 81.4775 38.2698 79.93L37.5898 80.15Z" fill="white"/>
<path d="M33.7895 60C32.9779 60.0264 32.1801 60.2173 31.4444 60.561C30.7087 60.9048 30.0505 61.3944 29.5095 62C28.5431 63.0068 28.0109 64.353 28.0277 65.7484C28.0446 67.1439 28.6091 68.4769 29.5995 69.46C30.4197 70.199 31.4806 70.6145 32.5845 70.6292C33.6884 70.644 34.7599 70.2568 35.5995 69.54C35.9485 69.2508 36.2324 68.891 36.4323 68.4842C36.6322 68.0775 36.7438 67.633 36.7595 67.18C36.7822 66.7512 36.7167 66.3223 36.5671 65.9198C36.4174 65.5173 36.1868 65.1498 35.8895 64.84C35.6233 64.5935 35.3062 64.4085 34.9606 64.2979C34.6151 64.1873 34.2494 64.1539 33.8895 64.2C33.5901 64.241 33.3049 64.3532 33.0579 64.5272C32.8108 64.7012 32.609 64.9319 32.4695 65.2L33.0995 65.55C33.1876 65.387 33.3135 65.2474 33.4666 65.143C33.6197 65.0386 33.7956 64.9724 33.9795 64.95C34.2309 64.9169 34.4864 64.9392 34.7282 65.0152C34.97 65.0912 35.1923 65.2191 35.3795 65.39C35.6064 65.6293 35.7819 65.9123 35.8954 66.2219C36.0089 66.5314 36.0579 66.8608 36.0395 67.19C36.0183 67.5386 35.9257 67.8792 35.7675 68.1905C35.6092 68.5019 35.3887 68.7774 35.1195 69C34.4182 69.5858 33.5334 69.9067 32.6195 69.9067C31.7057 69.9067 30.8209 69.5858 30.1195 69C29.262 68.1455 28.775 66.9879 28.7638 65.7773C28.7526 64.5667 29.218 63.4003 30.0595 62.53C30.5333 61.9934 31.1126 61.5602 31.7612 61.2573C32.4099 60.9545 33.1139 60.7886 33.8295 60.77C35.0811 60.7985 36.314 61.0788 37.4549 61.5942C38.5957 62.1097 39.621 62.8496 40.4695 63.77C43.5695 66.77 43.5695 71.64 43.5595 74.56C43.5495 77.48 41.8695 85.74 36.6895 86.56C36.1361 86.6811 35.5636 86.6868 35.0078 86.5767C34.4521 86.4666 33.925 86.243 33.4595 85.92C32.5897 85.2742 32.0023 84.3179 31.8195 83.25C31.6878 82.5718 31.7439 81.8705 31.9818 81.2219C32.2198 80.5733 32.6305 80.0021 33.1695 79.57C33.5793 79.2266 34.0687 78.9917 34.5929 78.8869C35.1171 78.7821 35.6593 78.8106 36.1695 78.97C36.6231 79.1464 37.0196 79.4439 37.3158 79.83C37.612 80.2162 37.7966 80.6762 37.8495 81.16C37.8779 81.4955 37.8136 81.8324 37.6637 82.1339C37.5139 82.4354 37.2841 82.69 36.9995 82.87C36.7901 83.0137 36.5525 83.1112 36.3025 83.1561C36.0525 83.2009 35.7958 83.192 35.5495 83.13C35.3676 83.0761 35.1997 82.9828 35.058 82.8566C34.9163 82.7304 34.8041 82.5745 34.7295 82.4L34.0695 82.69C34.1912 82.9573 34.3668 83.1966 34.5854 83.3928C34.8039 83.5889 35.0607 83.7378 35.3395 83.83C35.6787 83.9167 36.0324 83.9303 36.3772 83.87C36.722 83.8097 37.05 83.6767 37.3395 83.48C37.7568 83.2358 38.0954 82.8771 38.3151 82.4464C38.5349 82.0158 38.6266 81.5312 38.5795 81.05C38.5168 80.4324 38.2848 79.8441 37.9089 79.35C37.5331 78.8559 37.028 78.4752 36.4495 78.25C35.8184 78.0295 35.1407 77.9772 34.4831 78.0982C33.8256 78.2192 33.2109 78.5093 32.6995 78.94C32.0633 79.454 31.5785 80.131 31.2967 80.8988C31.015 81.6666 30.9468 82.4965 31.0995 83.3C31.2997 84.5569 31.9811 85.6866 32.9995 86.45C33.5472 86.8223 34.1634 87.082 34.8123 87.2142C35.4612 87.3464 36.1299 87.3484 36.7795 87.22C42.4695 86.22 44.2395 77.69 44.2395 74.68C44.2395 71.42 44.2395 66.34 40.9295 63.15C40.0113 62.1731 38.9061 61.3909 37.6795 60.8498C36.4529 60.3086 35.13 60.0196 33.7895 60Z" fill="white"/>
<path d="M0 73.15C0 87.6177 4.29017 101.761 12.328 113.79C20.3658 125.819 31.7903 135.195 45.1567 140.732C58.5231 146.268 73.2311 147.717 87.4209 144.894C101.611 142.072 114.645 135.105 124.875 124.875C135.105 114.645 142.072 101.611 144.894 87.4209C147.717 73.2311 146.268 58.5231 140.732 45.1567C135.195 31.7903 125.819 20.3658 113.79 12.328C101.761 4.29017 87.6177 0 73.15 0C53.7559 0.0211755 35.1622 7.73483 21.4485 21.4485C7.73483 35.1622 0.0211755 53.7559 0 73.15ZM0.72 73.15C0.72 58.8247 4.96795 44.8211 12.9267 32.91C20.8854 20.999 32.1974 11.7155 45.4322 6.23341C58.6671 0.75135 73.2304 -0.683005 87.2804 2.11172C101.33 4.90645 114.236 11.8047 124.366 21.9343C134.495 32.0638 141.394 44.9696 144.188 59.0196C146.983 73.0697 145.549 87.6329 140.067 100.868C134.585 114.103 125.301 125.415 113.39 133.373C101.479 141.332 87.4753 145.58 73.15 145.58C53.9469 145.559 35.5363 137.921 21.9576 124.342C8.37897 110.764 0.741175 92.3531 0.72 73.15Z" fill="white"/>
<path d="M18.0508 73.15C18.0508 84.0477 21.2823 94.7008 27.3368 103.762C33.3913 112.823 41.9967 119.885 52.0649 124.056C62.1331 128.226 73.2119 129.317 83.9003 127.191C94.5886 125.065 104.406 119.817 112.112 112.112C119.818 104.406 125.066 94.5878 127.192 83.8995C129.318 73.2111 128.227 62.1323 124.057 52.0641C119.886 41.9959 112.824 33.3905 103.763 27.336C94.7015 21.2815 84.0485 18.05 73.1508 18.05C58.543 18.0685 44.5389 23.8796 34.2097 34.2089C23.8804 44.5381 18.0693 58.5422 18.0508 73.15ZM18.7708 73.15C18.7708 62.3946 21.9601 51.8808 27.9355 42.9381C33.9108 33.9953 42.4038 27.0253 52.3405 22.9094C62.2771 18.7935 73.2111 17.7166 83.7598 19.8149C94.3085 21.9131 103.998 27.0923 111.603 34.6975C119.208 42.3027 124.388 51.9923 126.486 62.541C128.584 73.0897 127.507 84.0237 123.391 93.9603C119.275 103.897 112.305 112.39 103.363 118.365C94.4199 124.341 83.9061 127.53 73.1508 127.53C58.734 127.511 44.913 121.776 34.7188 111.582C24.5246 101.388 18.7893 87.5668 18.7708 73.15Z" fill="white"/>
<path d="M42.2898 36.7C40.1398 37.7 38.6598 39.88 37.9898 42.86L37.6198 44.86C37.1919 47.7553 36.3885 50.5824 35.2298 53.27C34.1559 55.5549 32.813 57.7034 31.2298 59.67L29.5098 62L30.1198 62.4L31.7698 60.12C33.3955 58.1096 34.7784 55.9144 35.8898 53.58C37.0692 50.837 37.8893 47.9531 38.3298 45L38.6998 43C39.3198 40.19 40.6398 38.28 42.6098 37.33C43.4498 36.9562 44.3616 36.7714 45.2809 36.7887C46.2001 36.806 47.1044 37.0249 47.9298 37.43C48.6164 37.7475 49.2202 38.2197 49.6938 38.8096C50.1674 39.3995 50.4981 40.091 50.6598 40.83C50.8673 41.7773 50.8543 42.7595 50.622 43.701C50.3897 44.6425 49.9441 45.518 49.3198 46.26C48.8004 46.8094 48.1538 47.2226 47.4371 47.4633C46.7204 47.7039 45.9555 47.7646 45.2098 47.64C44.783 47.6312 44.3623 47.5368 43.9726 47.3624C43.583 47.188 43.2323 46.9372 42.9413 46.6248C42.6504 46.3124 42.4251 45.9448 42.2788 45.5437C42.1326 45.1427 42.0683 44.7163 42.0898 44.29C42.0898 42.86 43.0398 41.29 44.6298 41.19C45.0046 41.144 45.3847 41.2051 45.7263 41.3661C46.0678 41.5271 46.3568 41.7816 46.5598 42.1C46.7394 42.419 46.8337 42.7789 46.8337 43.145C46.8337 43.5111 46.7394 43.871 46.5598 44.19L47.1698 44.57C47.42 44.1386 47.5518 43.6487 47.5518 43.15C47.5518 42.6513 47.42 42.1614 47.1698 41.73C46.9062 41.2943 46.5227 40.9437 46.0652 40.7203C45.6076 40.4968 45.0954 40.4099 44.5898 40.47C42.5898 40.58 41.4298 42.47 41.3698 44.27C41.3456 44.7852 41.4236 45.3001 41.5993 45.785C41.775 46.27 42.0449 46.7153 42.3935 47.0955C42.7421 47.4757 43.1624 47.7831 43.6303 48.0001C44.0982 48.2171 44.6044 48.3394 45.1198 48.36C45.9798 48.5039 46.8622 48.4322 47.6877 48.1512C48.5132 47.8702 49.2561 47.3887 49.8498 46.75C50.5505 45.9238 51.0519 44.9477 51.3155 43.897C51.579 42.8463 51.5976 41.749 51.3698 40.69C51.1862 39.8419 50.8091 39.0477 50.2679 38.3694C49.7266 37.6912 49.036 37.1472 48.2498 36.78C47.3221 36.3335 46.3081 36.095 45.2786 36.0812C44.2492 36.0674 43.2291 36.2786 42.2898 36.7Z" fill="white"/>
<path d="M60.5295 23.13L59.3195 24.3C57.5919 26.2877 55.6689 28.0968 53.5795 29.7C50.3802 32.057 47.0034 34.1633 43.4795 36L41.7695 37L42.1595 37.61L43.8295 36.67C47.3778 34.803 50.7778 32.6668 53.9995 30.28C56.1248 28.6461 58.0812 26.8036 59.8395 24.78L60.8395 23.78C61.5046 23.5237 62.2261 23.4497 62.9293 23.5657C63.6326 23.6818 64.2921 23.9836 64.8395 24.44C65.2406 24.7251 65.5702 25.0992 65.8027 25.5329C66.0351 25.9666 66.1641 26.4482 66.1795 26.94C66.1591 27.3451 66.04 27.739 65.8326 28.0876C65.6252 28.4362 65.3358 28.7288 64.9895 28.94C62.3545 30.8929 59.8738 33.046 57.5695 35.38C55.0981 37.995 52.897 40.8529 50.9995 43.91L49.9995 45.42L50.5895 45.82L51.5895 44.31C53.4736 41.2908 55.658 38.4698 58.1095 35.89C60.3942 33.5869 62.8477 31.4576 65.4495 29.52C65.8773 29.2471 66.2338 28.8762 66.4895 28.4379C66.7452 27.9996 66.8926 27.5067 66.9195 27C66.9107 26.3915 66.7585 25.7937 66.4753 25.2551C66.1921 24.7164 65.7858 24.2522 65.2895 23.9C64.6418 23.3498 63.8559 22.9872 63.0169 22.8515C62.1779 22.7158 61.3177 22.8121 60.5295 23.13Z" fill="white"/>
<path d="M43.1191 40.93L43.4591 41.57C43.6191 41.48 47.3591 39.44 48.8491 37.67L48.2991 37.21C46.8991 38.88 43.1491 40.91 43.1191 40.93Z" fill="white"/>
<path d="M46.5703 44.26L47.2403 44.54C47.2403 44.54 47.9603 42.91 51.0203 40.54L50.5903 40C47.3503 42.47 46.6003 44.19 46.5703 44.26Z" fill="white"/>
<path d="M32.6992 64.82L33.2692 65.25C34.3131 63.874 35.1332 62.3418 35.6992 60.71L34.9992 60.52C34.448 62.0586 33.673 63.5075 32.6992 64.82Z" fill="white"/>
<path d="M36 67.46L36.72 67.56C37.1375 65.6638 38.0922 63.928 39.47 62.56L39 62C37.4835 63.4844 36.4397 65.384 36 67.46Z" fill="white"/>
<path d="M97.3591 36.91C96.5709 37.2717 95.8783 37.8128 95.3366 38.49C94.7948 39.1671 94.419 39.9617 94.2391 40.81C94.0092 41.8683 94.0258 42.9652 94.2876 44.0161C94.5494 45.0669 95.0495 46.0434 95.7491 46.87C96.3417 47.5102 97.0845 47.9927 97.9103 48.2738C98.7361 48.5549 99.619 48.6258 100.479 48.48C100.994 48.4595 101.501 48.3372 101.969 48.1202C102.436 47.9031 102.857 47.5957 103.205 47.2155C103.554 46.8353 103.824 46.39 104 45.905C104.175 45.4201 104.253 44.9052 104.229 44.39C104.229 42.64 103.029 40.71 101.009 40.6C100.505 40.5402 99.9935 40.6262 99.5363 40.8477C99.0791 41.0692 98.6949 41.417 98.4291 41.85C98.1808 42.2821 98.0502 42.7717 98.0502 43.27C98.0502 43.7683 98.1808 44.2579 98.4291 44.69L99.0391 44.32C98.8596 43.9992 98.7653 43.6377 98.7653 43.27C98.7653 42.9024 98.8596 42.5408 99.0391 42.22C99.2354 41.898 99.5222 41.641 99.8636 41.4809C100.205 41.3209 100.586 41.2649 100.959 41.32C101.69 41.4327 102.354 41.8115 102.823 42.3837C103.292 42.9558 103.532 43.681 103.499 44.42C103.521 44.8464 103.456 45.2727 103.31 45.6737C103.164 46.0748 102.938 46.4424 102.648 46.7548C102.357 47.0672 102.006 47.318 101.616 47.4924C101.227 47.6668 100.806 47.7612 100.379 47.77C99.6326 47.8934 98.8671 47.8312 98.1504 47.5887C97.4336 47.3463 96.7875 46.9312 96.2691 46.38C95.6526 45.6436 95.2123 44.7762 94.9819 43.8438C94.7514 42.9115 94.7368 41.9389 94.9391 41C95.1005 40.2582 95.432 39.5641 95.9075 38.9723C96.383 38.3805 96.9895 37.9073 97.6791 37.59C98.5034 37.1871 99.4058 36.9694 100.323 36.9521C101.24 36.9348 102.15 37.1184 102.989 37.49C104.989 38.49 106.289 40.36 106.909 43.16L107.279 45.1C107.708 48.0525 108.528 50.9346 109.719 53.67C110.952 56.2054 112.461 58.5966 114.219 60.8L115.929 63.19L116.539 62.79L114.799 60.37C113.069 58.2072 111.583 55.8595 110.369 53.37C109.217 50.671 108.421 47.834 107.999 44.93L107.619 42.93C106.959 39.93 105.469 37.81 103.319 36.76C102.376 36.3447 101.353 36.1429 100.322 36.1688C99.2921 36.1947 98.2802 36.4478 97.3591 36.91Z" fill="white"/>
<path d="M80.3094 24C79.814 24.35 79.4088 24.8126 79.1272 25.3498C78.8455 25.887 78.6955 26.4834 78.6895 27.09C78.7126 27.6078 78.8613 28.1123 79.1226 28.5599C79.3838 29.0076 79.75 29.3851 80.1895 29.66C82.7881 31.5868 85.2383 33.7061 87.5194 36C89.7321 38.3086 91.7148 40.8271 93.4395 43.52L94.9995 45.76L95.5795 45.33L93.9995 43.1C92.2492 40.3698 90.2399 37.8146 87.9995 35.47C85.6951 33.1306 83.2182 30.9678 80.5894 29C80.2433 28.7895 79.9545 28.4969 79.7486 28.148C79.5428 27.7991 79.4263 27.4047 79.4095 27C79.4202 26.5058 79.5471 26.0211 79.7799 25.5851C80.0127 25.149 80.3448 24.7739 80.7495 24.49C81.2969 24.0336 81.9564 23.7317 82.6596 23.6157C83.3629 23.4997 84.0844 23.5736 84.7495 23.83L85.7495 24.83C87.511 26.8569 89.4708 28.7028 91.5994 30.34C94.8375 32.7395 98.2579 34.8827 101.829 36.75L103.469 37.67L103.849 37.06L102.169 36.06C98.6241 34.2406 95.2241 32.1511 91.9995 29.81C89.9059 28.2007 87.9795 26.3849 86.2495 24.39L85.0495 23.23C84.2637 22.9171 83.4077 22.8234 82.5729 22.959C81.7381 23.0947 80.9558 23.4544 80.3094 24Z" fill="white"/>
<path d="M96.75 37.77C98.223 39.2401 99.9085 40.4806 101.75 41.45L102.09 40.82C100.343 39.8795 98.7375 38.6979 97.32 37.31L96.75 37.77Z" fill="white"/>
<path d="M94.5801 40.68C97.6401 43.02 98.3601 44.68 98.3701 44.68L99.0301 44.39C99.0301 44.32 98.2601 42.61 95.0301 40.14L94.5801 40.68Z" fill="white"/>
<path d="M104.64 63.25C101.32 66.45 101.33 71.52 101.33 74.55C101.33 77.79 103.1 86.35 108.8 87.32C109.449 87.4553 110.119 87.4568 110.769 87.3244C111.419 87.192 112.035 86.9285 112.58 86.55C113.607 85.7899 114.299 84.6605 114.51 83.4C114.661 82.5977 114.59 81.7693 114.305 81.0044C114.019 80.2395 113.53 79.5671 112.89 79.06C112.38 78.6268 111.766 78.3336 111.109 78.2091C110.452 78.0847 109.773 78.1332 109.14 78.35C108.56 78.5765 108.053 78.9586 107.675 79.4543C107.298 79.95 107.064 80.5402 107 81.16C106.954 81.6398 107.046 82.1227 107.266 82.5516C107.485 82.9806 107.824 83.3375 108.24 83.58C108.529 83.7781 108.857 83.911 109.203 83.9697C109.548 84.0284 109.902 84.0115 110.24 83.92C110.518 83.8351 110.775 83.6923 110.994 83.501C111.213 83.3097 111.389 83.0742 111.51 82.81L110.86 82.5C110.782 82.6752 110.668 82.8319 110.525 82.9595C110.382 83.087 110.213 83.1827 110.03 83.24C109.785 83.3004 109.529 83.3076 109.281 83.261C109.032 83.2144 108.797 83.1152 108.59 82.97C108.285 82.7965 108.037 82.5374 107.877 82.2246C107.717 81.9119 107.652 81.5592 107.69 81.21C107.743 80.7252 107.928 80.264 108.224 79.8763C108.52 79.4887 108.916 79.1891 109.37 79.01C109.881 78.8538 110.424 78.8278 110.947 78.9344C111.471 79.0409 111.96 79.2766 112.37 79.62C112.906 80.0524 113.313 80.6225 113.549 81.2691C113.786 81.9156 113.841 82.6143 113.71 83.29C113.562 84.3593 113.007 85.3301 112.16 86C111.694 86.3267 111.166 86.5531 110.608 86.665C110.051 86.7769 109.476 86.7718 108.92 86.65C103.74 85.77 102.05 77.55 102.05 74.83C102.05 71.67 102.05 66.83 105.14 63.83C105.986 62.906 107.01 62.1636 108.152 61.6479C109.293 61.1322 110.528 60.8539 111.78 60.83C112.495 60.8444 113.2 61.0074 113.849 61.3087C114.498 61.6099 115.077 62.0429 115.55 62.58C116.4 63.4425 116.876 64.6045 116.876 65.815C116.876 67.0256 116.4 68.1876 115.55 69.05C114.85 69.6377 113.964 69.9597 113.05 69.9597C112.136 69.9597 111.251 69.6377 110.55 69.05C110.278 68.822 110.056 68.5397 109.9 68.2211C109.743 67.9025 109.655 67.5547 109.64 67.2C109.623 66.871 109.672 66.5418 109.786 66.2325C109.899 65.9231 110.074 65.64 110.3 65.4C110.494 65.2147 110.73 65.0774 110.987 64.9993C111.244 64.9211 111.515 64.9042 111.78 64.95C112.06 65.0378 112.312 65.1977 112.51 65.4136C112.708 65.6295 112.846 65.8939 112.91 66.18L113.59 65.93C113.489 65.5278 113.283 65.1595 112.993 64.8627C112.703 64.5658 112.34 64.351 111.94 64.24C111.555 64.1695 111.159 64.1927 110.785 64.3075C110.41 64.4224 110.069 64.6256 109.79 64.9C109.493 65.208 109.263 65.5738 109.113 65.9746C108.963 66.3754 108.898 66.8028 108.92 67.23C108.923 67.6832 109.021 68.1306 109.207 68.5439C109.393 68.9571 109.663 69.327 110 69.63C110.845 70.3356 111.916 70.7146 113.017 70.6981C114.118 70.6816 115.176 70.2707 116 69.54C116.992 68.5599 117.558 67.2281 117.575 65.8335C117.592 64.4389 117.058 63.0939 116.09 62.09C115.553 61.4802 114.895 60.9879 114.159 60.6438C113.422 60.2996 112.623 60.1111 111.81 60.09C110.464 60.1069 109.135 60.3955 107.903 60.9385C106.671 61.4815 105.561 62.2677 104.64 63.25Z" fill="white"/>
<path d="M109.811 60.68C110.372 62.2979 111.174 63.8218 112.191 65.2L112.771 64.77C111.808 63.4643 111.046 62.0216 110.511 60.49L109.811 60.68Z" fill="white"/>
<path d="M106.09 62.65C107.467 64.0198 108.425 65.7545 108.85 67.65L109.56 67.54C109.113 65.4781 108.07 63.5931 106.56 62.12L106.09 62.65Z" fill="white"/>
<path d="M108.51 86.88L109.21 87.05C109.542 85.7841 110.154 84.6087 111 83.61L110.51 83.09C109.558 84.1808 108.873 85.4784 108.51 86.88Z" fill="white"/>
<path d="M104.779 84.21L105.289 84.71C106.487 83.4275 107.41 81.913 107.999 80.26L107.309 80.03C106.759 81.5812 105.899 83.0036 104.779 84.21Z" fill="white"/>
<path d="M64.4395 30C66.9029 31.3257 69.6429 32.0552 72.4395 32.13C78.4395 32.13 80.9294 30.05 81.0294 29.96L80.5695 29.41C80.5695 29.41 78.0995 31.41 72.4395 31.41C69.7697 31.3396 67.152 30.6552 64.7895 29.41L64.4395 30Z" fill="white"/>
<path d="M108.251 96.08L108.071 96.88C106.631 103.32 102.241 122.88 73.1508 122.88C43.8108 122.88 39.0408 102.88 37.4708 96.28L37.2308 95.28C36.157 91.7022 34.6207 88.2799 32.6608 85.1L32.0508 85.49C33.9759 88.6139 35.4853 91.9756 36.5408 95.49L36.7708 96.49C38.3708 103.2 43.2508 123.64 73.1508 123.64C92.8408 123.64 104.821 114.69 108.771 97.05L108.951 96.26C109.933 92.2385 111.626 88.4251 113.951 85L113.341 84.62C110.741 88.82 109.321 91.6 108.251 96.08Z" fill="white"/>
<path d="M89.6505 61H75.6505C75.4505 61.07 73.4705 62.63 72.9305 63L70.3705 61H55.1705L47.8305 69L47.7305 93.45H67.3405L69.8905 96H75.8005L78.0605 93.75H96.9005V68.42C96.8005 68.16 89.9005 61.1 89.9005 61.1L89.8005 61H89.6505ZM73.1905 63.78L75.9005 61.64L89.4905 61.71L96.2805 68.71C96.2805 68.71 96.1805 92.38 96.1805 93.08H77.7605L75.5105 95.3H70.1905L67.6405 92.74H48.4505V69.26C48.5205 69.26 54.9205 62.34 55.4505 61.72H70.1705C70.1705 61.8 72.7405 63.78 72.7405 63.78L73.0005 64L73.1905 63.78Z" fill="white"/>
<path d="M55 61.36V85.67H70.63C70.63 85.77 72.82 87.67 72.82 87.67L73.06 87.88L75.73 85.51C75.73 85.6 89.73 85.63 89.73 85.63H90L90.07 61.34H89.35C89.35 61.34 89.32 84.25 89.32 85H75.49C75.29 85.08 73.6 86.56 73.06 87L70.88 85H55.69V61.36H55Z" fill="white"/>
<path d="M92.8395 65.08C92.8395 65.08 92.8395 87.78 92.8395 88.49H76.5995C76.3595 88.58 73.9195 90.89 73.9195 90.89L71.5395 90.8L69.3095 88.57H52.1595C52.1595 87.87 52.1595 65.18 52.1595 65.18H51.4395V89.29H68.9995L71.2295 91.51H74.1595C74.4095 91.42 76.8395 89.1 76.8395 89.1L93.5695 89.2V65.08H92.8395Z" fill="white"/>
<path d="M53.2598 63.27V87.62H69.7498L71.9998 89.94H73.8998L75.9998 87.57H91.9998V63.45H91.2798V86.8H75.6498L73.5598 89.17H72.2798C72.0898 88.96 70.0498 86.84 70.0498 86.84H53.9998C53.9998 86.15 53.9998 63.22 53.9998 63.22L53.2598 63.27Z" fill="white"/>
<path d="M94.5995 66.93V90.75H76.8495L74.8495 92.75H70.8495C70.6495 92.52 68.8995 90.34 68.8995 90.34H50.2395C50.2395 89.65 50.2395 67.34 50.2395 67.34H49.5195V91.09H68.5195L70.5195 93.5H75.1995L77.1995 91.5H95.3195V66.93H94.5995Z" fill="white"/>
<path d="M55.0741 85.0589L47.834 92.8557L48.3616 93.3456L55.6017 85.5488L55.0741 85.0589Z" fill="white"/>
<path d="M89.4102 85.55L96.1702 93.43L96.7202 92.96L89.9602 85.08L89.4102 85.55Z" fill="white"/>
</g>
<defs>
<clipPath id="clip0_1428_2627">
<rect width="146.3" height="146.3" fill="white"/>
</clipPath>
</defs>
</svg>
