<svg width="105" height="105" viewBox="0 0 105 105" fill="none" xmlns="http://www.w3.org/2000/svg">
<path d="M80.9375 41.5625V27.2625C80.9375 26.1424 80.9375 25.5823 80.7195 25.1545C80.5278 24.7782 80.2218 24.4722 79.8455 24.2805C79.4177 24.0625 78.8576 24.0625 77.7375 24.0625H22.8875C21.7674 24.0625 21.2073 24.0625 20.7795 24.2805C20.4032 24.4722 20.0972 24.7782 19.9055 25.1545C19.6875 25.5823 19.6875 26.1424 19.6875 27.2625V64.6125C19.6875 65.7326 19.6875 66.2927 19.9055 66.7205C20.0972 67.0968 20.4032 67.4028 20.7795 67.5945C21.2073 67.8125 21.7674 67.8125 22.8875 67.8125H59.0625" stroke="#4E4E4E" stroke-width="4" stroke-linecap="round"/>
<path d="M32.8125 54.6875H50.3125" stroke="#4E4E4E" stroke-width="4" stroke-linecap="round"/>
<path d="M32.8125 37.1875H63.4375" stroke="#4E4E4E" stroke-width="4" stroke-linecap="round"/>
<circle cx="76.5625" cy="59.0625" r="8.9375" stroke="#4E4E4E" stroke-width="4"/>
<path d="M85.3125 80.9375C85.3125 80.9375 83.125 76.5625 76.5625 76.5625C70 76.5625 67.8125 80.9375 67.8125 80.9375" stroke="#4E4E4E" stroke-width="4" stroke-linecap="round"/>
</svg>
