<svg width="14" height="15" viewBox="0 0 14 15" fill="none" xmlns="http://www.w3.org/2000/svg">
<g id="Vector">
<path id="Vector-48" d="M0.75 6.75C0.335786 6.75 0 7.08579 0 7.5C0 7.91421 0.335786 8.25 0.75 8.25V6.75ZM7 8.25C7.41421 8.25 7.75 7.91421 7.75 7.5C7.75 7.08579 7.41421 6.75 7 6.75V8.25ZM7 6.75C6.58579 6.75 6.25 7.08579 6.25 7.5C6.25 7.91421 6.58579 8.25 7 8.25V6.75ZM13.25 8.25C13.6642 8.25 14 7.91421 14 7.5C14 7.08579 13.6642 6.75 13.25 6.75V8.25ZM7.75 7.5C7.75 7.08579 7.41421 6.75 7 6.75C6.58579 6.75 6.25 7.08579 6.25 7.5H7.75ZM6.25 13.75C6.25 14.1642 6.58579 14.5 7 14.5C7.41421 14.5 7.75 14.1642 7.75 13.75H6.25ZM6.25 7.5C6.25 7.91421 6.58579 8.25 7 8.25C7.41421 8.25 7.75 7.91421 7.75 7.5H6.25ZM7.75 1.25C7.75 0.835786 7.41421 0.5 7 0.5C6.58579 0.5 6.25 0.835786 6.25 1.25H7.75ZM0.75 8.25H7V6.75H0.75V8.25ZM7 8.25H13.25V6.75H7V8.25ZM7 7.5H6.25C6.25 7.5 6.25 7.5 6.25 7.5C6.25 7.5 6.25 7.5 6.25 7.5C6.25 7.5 6.25 7.5 6.25 7.5C6.25 7.5 6.25 7.5 6.25 7.50001C6.25 7.50001 6.25 7.50001 6.25 7.50001C6.25 7.50001 6.25 7.50001 6.25 7.50002C6.25 7.50002 6.25 7.50002 6.25 7.50002C6.25 7.50003 6.25 7.50003 6.25 7.50003C6.25 7.50004 6.25 7.50004 6.25 7.50005C6.25 7.50005 6.25 7.50006 6.25 7.50006C6.25 7.50007 6.25 7.50007 6.25 7.50008C6.25 7.50009 6.25 7.50009 6.25 7.5001C6.25 7.50011 6.25 7.50012 6.25 7.50013C6.25 7.50014 6.25 7.50015 6.25 7.50016C6.25 7.50017 6.25 7.50018 6.25 7.50019C6.25 7.5002 6.25 7.50022 6.25 7.50023C6.25 7.50024 6.25 7.50026 6.25 7.50027C6.25 7.50029 6.25 7.5003 6.25 7.50032C6.25 7.50034 6.25 7.50035 6.25 7.50037C6.25 7.50039 6.25 7.50041 6.25 7.50043C6.25 7.50045 6.25 7.50047 6.25 7.5005C6.25 7.50052 6.25 7.50054 6.25 7.50057C6.25 7.50059 6.25 7.50062 6.25 7.50064C6.25 7.50067 6.25 7.5007 6.25 7.50073C6.25 7.50076 6.25 7.50079 6.25 7.50082C6.25 7.50085 6.25 7.50088 6.25 7.50092C6.25 7.50095 6.25 7.50099 6.25 7.50102C6.25 7.50106 6.25 7.5011 6.25 7.50114C6.25 7.50117 6.25 7.50122 6.25 7.50126C6.25 7.5013 6.25 7.50134 6.25 7.50139C6.25 7.50143 6.25 7.50148 6.25 7.50153C6.25 7.50157 6.25 7.50162 6.25 7.50167C6.25 7.50172 6.25 7.50178 6.25 7.50183C6.25 7.50188 6.25 7.50194 6.25 7.502C6.25 7.50205 6.25 7.50211 6.25 7.50217C6.25 7.50223 6.25 7.5023 6.25 7.50236C6.25 7.50242 6.25 7.50249 6.25 7.50256C6.25 7.50262 6.25 7.50269 6.25 7.50276C6.25 7.50283 6.25 7.50291 6.25 7.50298C6.25 7.50305 6.25 7.50313 6.25 7.50321C6.25 7.50329 6.25 7.50337 6.25 7.50345C6.25 7.50353 6.25 7.50362 6.25 7.5037C6.25 7.50379 6.25 7.50388 6.25 7.50397C6.25 7.50406 6.25 7.50415 6.25 7.50424C6.25 7.50434 6.25 7.50443 6.25 7.50453C6.25 7.50463 6.25 7.50473 6.25 7.50483C6.25 7.50494 6.25 7.50504 6.25 7.50515C6.25 7.50526 6.25 7.50537 6.25 7.50548C6.25 7.50559 6.25 7.5057 6.25 7.50582C6.25 7.50594 6.25 7.50606 6.25 7.50618C6.25 7.5063 6.25 7.50642 6.25 7.50655C6.25 7.50667 6.25 7.5068 6.25 7.50693C6.25 7.50706 6.25 7.5072 6.25 7.50733C6.25 7.50747 6.25 7.50761 6.25 7.50775C6.25 7.50789 6.25 7.50803 6.25 7.50818C6.25 7.50832 6.25 7.50847 6.25 7.50862C6.25 7.50878 6.25 7.50893 6.25 7.50909C6.25 7.50924 6.25 7.5094 6.25 7.50956C6.25 7.50973 6.25 7.50989 6.25 7.51006C6.25 7.51023 6.25 7.5104 6.25 7.51057C6.25 7.51074 6.25 7.51092 6.25 7.5111C6.25 7.51128 6.25 7.51146 6.25 7.51164C6.25 7.51183 6.25 7.51202 6.25 7.51221C6.25 7.5124 6.25 7.51259 6.25 7.51279C6.25 7.51298 6.25 7.51318 6.25 7.51339C6.25 7.51359 6.25 7.5138 6.25 7.51401C6.25 7.51421 6.25 7.51443 6.25 7.51464C6.25 7.51486 6.25 7.51508 6.25 7.5153C6.25 7.51552 6.25 7.51574 6.25 7.51597C6.25 7.5162 6.25 7.51643 6.25 7.51667C6.25 7.5169 6.25 7.51714 6.25 7.51738C6.25 7.51762 6.25 7.51787 6.25 7.51812C6.25 7.51836 6.25 7.51861 6.25 7.51887C6.25 7.51912 6.25 7.51938 6.25 7.51965C6.25 7.51991 6.25 7.52017 6.25 7.52044C6.25 7.52071 6.25 7.52098 6.25 7.52126C6.25 7.52153 6.25 7.52181 6.25 7.5221C6.25 7.52238 6.25 7.52267 6.25 7.52296C6.25 7.52325 6.25 7.52354 6.25 7.52384C6.25 7.52414 6.25 7.52444 6.25 7.52475C6.25 7.52505 6.25 7.52536 6.25 7.52568C6.25 7.52599 6.25 7.52631 6.25 7.52663C6.25 7.52695 6.25 7.52727 6.25 7.5276C6.25 7.52793 6.25 7.52826 6.25 7.5286C6.25 7.52893 6.25 7.52927 6.25 7.52962C6.25 7.52996 6.25 7.53031 6.25 7.53066C6.25 7.53102 6.25 7.53137 6.25 7.53173C6.25 7.53209 6.25 7.53246 6.25 7.53283C6.25 7.5332 6.25 7.53357 6.25 7.53395C6.25 7.53432 6.25 7.53471 6.25 7.53509C6.25 7.53548 6.25 7.53587 6.25 7.53626C6.25 7.53665 6.25 7.53705 6.25 7.53746C6.25 7.53786 6.25 7.53827 6.25 7.53868C6.25 7.53909 6.25 7.5395 6.25 7.53992C6.25 7.54034 6.25 7.54077 6.25 7.5412C6.25 7.54163 6.25 7.54206 6.25 7.5425C6.25 7.54294 6.25 7.54338 6.25 7.54383C6.25 7.54427 6.25 7.54473 6.25 7.54518C6.25 7.54564 6.25 7.5461 6.25 7.54657C6.25 7.54703 6.25 7.5475 6.25 7.54798C6.25 7.54845 6.25 7.54893 6.25 7.54942C6.25 7.5499 6.25 7.55039 6.25 7.55088C6.25 7.55138 6.25 7.55188 6.25 7.55238C6.25 7.55288 6.25 7.55339 6.25 7.55391C6.25 7.55442 6.25 7.55494 6.25 7.55546C6.25 7.55598 6.25 7.55651 6.25 7.55705C6.25 7.55758 6.25 7.55812 6.25 7.55866C6.25 7.5592 6.25 7.55975 6.25 7.5603C6.25 7.56086 6.25 7.56142 6.25 7.56198C6.25 7.56254 6.25 7.56311 6.25 7.56369C6.25 7.56426 6.25 7.56484 6.25 7.56542C6.25 7.56601 6.25 7.5666 6.25 7.56719C6.25 7.56778 6.25 7.56838 6.25 7.56899C6.25 7.56959 6.25 7.57021 6.25 7.57082C6.25 7.57144 6.25 7.57206 6.25 7.57268C6.25 7.57331 6.25 7.57394 6.25 7.57458C6.25 7.57522 6.25 7.57586 6.25 7.57651C6.25 7.57716 6.25 7.57781 6.25 7.57847C6.25 7.57913 6.25 7.5798 6.25 7.58047C6.25 7.58114 6.25 7.58181 6.25 7.58249C6.25 7.58318 6.25 7.58386 6.25 7.58456C6.25 7.58525 6.25 7.58595 6.25 7.58665C6.25 7.58736 6.25 7.58807 6.25 7.58878C6.25 7.5895 6.25 7.59022 6.25 7.59095C6.25 7.59168 6.25 7.59241 6.25 7.59315C6.25 7.59389 6.25 7.59463 6.25 7.59539C6.25 7.59614 6.25 7.59689 6.25 7.59766C6.25 7.59842 6.25 7.59919 6.25 7.59996C6.25 7.60074 6.25 7.60152 6.25 7.60231C6.25 7.60309 6.25 7.60389 6.25 7.60468C6.25 7.60548 6.25 7.60629 6.25 7.6071C6.25 7.60791 6.25 7.60873 6.25 7.60955C6.25 7.61038 6.25 7.61121 6.25 7.61204C6.25 7.61288 6.25 7.61372 6.25 7.61457C6.25 7.61542 6.25 7.61627 6.25 7.61714C6.25 7.618 6.25 7.61886 6.25 7.61974C6.25 7.62061 6.25 7.62149 6.25 7.62238C6.25 7.62327 6.25 7.62416 6.25 7.62506C6.25 7.62596 6.25 7.62686 6.25 7.62778C6.25 7.62869 6.25 7.62961 6.25 7.63054C6.25 7.63146 6.25 7.63239 6.25 7.63333C6.25 7.63427 6.25 7.63522 6.25 7.63617C6.25 7.63712 6.25 7.63808 6.25 7.63905C6.25 7.64001 6.25 7.64098 6.25 7.64196C6.25 7.64294 6.25 7.64393 6.25 7.64492C6.25 7.64591 6.25 7.64691 6.25 7.64792C6.25 7.64892 6.25 7.64994 6.25 7.65096C6.25 7.65198 6.25 7.653 6.25 7.65404C6.25 7.65507 6.25 7.65611 6.25 7.65716C6.25 7.65821 6.25 7.65926 6.25 7.66033C6.25 7.66139 6.25 7.66246 6.25 7.66353C6.25 7.66461 6.25 7.66569 6.25 7.66678C6.25 7.66787 6.25 7.66897 6.25 7.67007C6.25 7.67118 6.25 7.67229 6.25 7.67341C6.25 7.67453 6.25 7.67565 6.25 7.67678C6.25 7.67792 6.25 7.67906 6.25 7.68021C6.25 7.68135 6.25 7.68251 6.25 7.68367C6.25 7.68483 6.25 7.686 6.25 7.68718C6.25 7.68836 6.25 7.68954 6.25 7.69073C6.25 7.69193 6.25 7.69313 6.25 7.69433C6.25 7.69554 6.25 7.69675 6.25 7.69798C6.25 7.6992 6.25 7.70043 6.25 7.70167C6.25 7.7029 6.25 7.70415 6.25 7.7054C6.25 7.70665 6.25 7.70791 6.25 7.70918C6.25 7.71045 6.25 7.71172 6.25 7.71301C6.25 7.71429 6.25 7.71558 6.25 7.71688C6.25 7.71818 6.25 7.71949 6.25 7.7208C6.25 7.72211 6.25 7.72344 6.25 7.72477C6.25 7.7261 6.25 7.72743 6.25 7.72878C6.25 7.73012 6.25 7.73148 6.25 7.73284C6.25 7.7342 6.25 7.73557 6.25 7.73695C6.25 7.73833 6.25 7.73971 6.25 7.74111C6.25 7.7425 6.25 7.7439 6.25 7.74531C6.25 7.74672 6.25 7.74814 6.25 7.74957C6.25 7.75099 6.25 7.75243 6.25 7.75387C6.25 7.75531 6.25 7.75676 6.25 7.75822C6.25 7.75968 6.25 7.76115 6.25 7.76262C6.25 7.7641 6.25 7.76558 6.25 7.76707C6.25 7.76856 6.25 7.77006 6.25 7.77157C6.25 7.77308 6.25 7.7746 6.25 7.77612C6.25 7.77765 6.25 7.77918 6.25 7.78073C6.25 7.78227 6.25 7.78382 6.25 7.78538C6.25 7.78694 6.25 7.78851 6.25 7.79008C6.25 7.79166 6.25 7.79325 6.25 7.79484C6.25 7.79643 6.25 7.79804 6.25 7.79965C6.25 7.80126 6.25 7.80288 6.25 7.80451C6.25 7.80613 6.25 7.80777 6.25 7.80942C6.25 7.81106 6.25 7.81272 6.25 7.81438C6.25 7.81604 6.25 7.81772 6.25 7.8194C6.25 7.82108 6.25 7.82277 6.25 7.82447C6.25 7.82617 6.25 7.82787 6.25 7.82959C6.25 7.83131 6.25 7.83303 6.25 7.83477C6.25 7.8365 6.25 7.83824 6.25 7.84C6.25 7.84175 6.25 7.84351 6.25 7.84528C6.25 7.84705 6.25 7.84883 6.25 7.85062C6.25 7.85241 6.25 7.85421 6.25 7.85602C6.25 7.85782 6.25 7.85964 6.25 7.86146C6.25 7.86329 6.25 7.86512 6.25 7.86697C6.25 7.86881 6.25 7.87067 6.25 7.87253C6.25 7.87439 6.25 7.87626 6.25 7.87814C6.25 7.88003 6.25 7.88192 6.25 7.88382C6.25 7.88572 6.25 7.88763 6.25 7.88955C6.25 7.89146 6.25 7.89339 6.25 7.89533C6.25 7.89727 6.25 7.89922 6.25 7.90117C6.25 7.90313 6.25 7.9051 6.25 7.90707C6.25 7.90905 6.25 7.91103 6.25 7.91303C6.25 7.91502 6.25 7.91703 6.25 7.91904C6.25 7.92106 6.25 7.92308 6.25 7.92512C6.25 7.92715 6.25 7.9292 6.25 7.93125C6.25 7.9333 6.25 7.93537 6.25 7.93744C6.25 7.93951 6.25 7.9416 6.25 7.94369C6.25 7.94578 6.25 7.94788 6.25 7.95C6.25 7.95211 6.25 7.95423 6.25 7.95636C6.25 7.9585 6.25 7.96064 6.25 7.96279C6.25 7.96494 6.25 7.96711 6.25 7.96928C6.25 7.97145 6.25 7.97363 6.25 7.97583C6.25 7.97802 6.25 7.98022 6.25 7.98244C6.25 7.98465 6.25 7.98687 6.25 7.98911C6.25 7.99134 6.25 7.99358 6.25 7.99584C6.25 7.99809 6.25 8.00035 6.25 8.00263C6.25 8.0049 6.25 8.00719 6.25 8.00948C6.25 8.01178 6.25 8.01408 6.25 8.0164C6.25 8.01871 6.25 8.02104 6.25 8.02338C6.25 8.02571 6.25 8.02806 6.25 8.03042C6.25 8.03277 6.25 8.03514 6.25 8.03752C6.25 8.0399 6.25 8.04229 6.25 8.04469C6.25 8.04709 6.25 8.0495 6.25 8.05192C6.25 8.05434 6.25 8.05677 6.25 8.05921C6.25 8.06165 6.25 8.06411 6.25 8.06657C6.25 8.06903 6.25 8.07151 6.25 8.07399C6.25 8.07648 6.25 8.07897 6.25 8.08148C6.25 8.08399 6.25 8.0865 6.25 8.08903C6.25 8.09156 6.25 8.0941 6.25 8.09665C6.25 8.0992 6.25 8.10176 6.25 8.10433C6.25 8.1069 6.25 8.10948 6.25 8.11208C6.25 8.11467 6.25 8.11728 6.25 8.11989C6.25 8.12251 6.25 8.12513 6.25 8.12777C6.25 8.13041 6.25 8.13306 6.25 8.13572C6.25 8.13838 6.25 8.14105 6.25 8.14373C6.25 8.14641 6.25 8.14911 6.25 8.15181C6.25 8.15451 6.25 8.15723 6.25 8.15996C6.25 8.16268 6.25 8.16542 6.25 8.16817C6.25 8.17092 6.25 8.17368 6.25 8.17646C6.25 8.17923 6.25 8.18201 6.25 8.18481C6.25 8.1876 6.25 8.19041 6.25 8.19323C6.25 8.19604 6.25 8.19887 6.25 8.20172C6.25 8.20456 6.25 8.20741 6.25 8.21027C6.25 8.21314 6.25 8.21601 6.25 8.2189C6.25 8.22179 6.25 8.22469 6.25 8.2276C6.25 8.23051 6.25 8.23343 6.25 8.23636C6.25 8.2393 6.25 8.24224 6.25 8.2452C6.25 8.24816 6.25 8.25112 6.25 8.2541C6.25 8.25709 6.25 8.26008 6.25 8.26308C6.25 8.26609 6.25 8.2691 6.25 8.27213C6.25 8.27516 6.25 8.2782 6.25 8.28125C6.25 8.2843 6.25 8.28737 6.25 8.29044C6.25 8.29352 6.25 8.2966 6.25 8.2997C6.25 8.3028 6.25 8.30592 6.25 8.30904C6.25 8.31216 6.25 8.3153 6.25 8.31845C6.25 8.32159 6.25 8.32475 6.25 8.32793C6.25 8.3311 6.25 8.33428 6.25 8.33748C6.25 8.34068 6.25 8.34388 6.25 8.34711C6.25 8.35033 6.25 8.35356 6.25 8.3568C6.25 8.36005 6.25 8.36331 6.25 8.36658C6.25 8.36985 6.25 8.37313 6.25 8.37643C6.25 8.37972 6.25 8.38303 6.25 8.38635C6.25 8.38967 6.25 8.393 6.25 8.39634C6.25 8.39969 6.25 8.40305 6.25 8.40641C6.25 8.40978 6.25 8.41317 6.25 8.41656C6.25 8.41996 6.25 8.42336 6.25 8.42678C6.25 8.4302 6.25 8.43364 6.25 8.43708C6.25 8.44053 6.25 8.44398 6.25 8.44745C6.25 8.45092 6.25 8.45441 6.25 8.4579C6.25 8.4614 6.25 8.46491 6.25 8.46843C6.25 8.47195 6.25 8.47549 6.25 8.47903C6.25 8.48258 6.25 8.48614 6.25 8.48971C6.25 8.49329 6.25 8.49687 6.25 8.50047C6.25 8.50407 6.25 8.50768 6.25 8.51131C6.25 8.51493 6.25 8.51857 6.25 8.52222C6.25 8.52587 6.25 8.52953 6.25 8.53321C6.25 8.53689 6.25 8.54058 6.25 8.54428C6.25 8.54798 6.25 8.5517 6.25 8.55543C6.25 8.55916 6.25 8.5629 6.25 8.56666C6.25 8.57041 6.25 8.57418 6.25 8.57797C6.25 8.58175 6.25 8.58554 6.25 8.58935C6.25 8.59316 6.25 8.59698 6.25 8.60082C6.25 8.60465 6.25 8.6085 6.25 8.61237C6.25 8.61623 6.25 8.6201 6.25 8.62399C6.25 8.62788 6.25 8.63178 6.25 8.6357C6.25 8.63962 6.25 8.64355 6.25 8.64749C6.25 8.65143 6.25 8.65539 6.25 8.65936C6.25 8.66333 6.25 8.66732 6.25 8.67131C6.25 8.67531 6.25 8.67932 6.25 8.68335C6.25 8.68737 6.25 8.69141 6.25 8.69546C6.25 8.69952 6.25 8.70358 6.25 8.70766C6.25 8.71174 6.25 8.71584 6.25 8.71994C6.25 8.72405 6.25 8.72817 6.25 8.73231C6.25 8.73644 6.25 8.74059 6.25 8.74475C6.25 8.74892 6.25 8.75309 6.25 8.75729C6.25 8.76148 6.25 8.76568 6.25 8.7699C6.25 8.77412 6.25 8.77835 6.25 8.7826C6.25 8.78685 6.25 8.79111 6.25 8.79538C6.25 8.79966 6.25 8.80395 6.25 8.80825C6.25 8.81255 6.25 8.81687 6.25 8.8212C6.25 8.82554 6.25 8.82988 6.25 8.83424C6.25 8.8386 6.25 8.84298 6.25 8.84736C6.25 8.85175 6.25 8.85616 6.25 8.86057C6.25 8.86499 6.25 8.86942 6.25 8.87387C6.25 8.87832 6.25 8.88278 6.25 8.88725C6.25 8.89173 6.25 8.89622 6.25 8.90072C6.25 8.90522 6.25 8.90974 6.25 8.91428C6.25 8.91881 6.25 8.92336 6.25 8.92792C6.25 8.93248 6.25 8.93706 6.25 8.94165C6.25 8.94624 6.25 8.95084 6.25 8.95547C6.25 8.96009 6.25 8.96472 6.25 8.96937C6.25 8.97402 6.25 8.97869 6.25 8.98336C6.25 8.98804 6.25 8.99274 6.25 8.99745C6.25 9.00216 6.25 9.00688 6.25 9.01162C6.25 9.01636 6.25 9.02111 6.25 9.02588C6.25 9.03065 6.25 9.03543 6.25 9.04023C6.25 9.04503 6.25 9.04984 6.25 9.05467C6.25 9.0595 6.25 9.06434 6.25 9.0692C6.25 9.07406 6.25 9.07893 6.25 9.08382C6.25 9.08871 6.25 9.09361 6.25 9.09853C6.25 9.10345 6.25 9.10838 6.25 9.11333C6.25 9.11828 6.25 9.12324 6.25 9.12822C6.25 9.1332 6.25 9.1382 6.25 9.1432C6.25 9.14821 6.25 9.15324 6.25 9.15828C6.25 9.16332 6.25 9.16838 6.25 9.17345C6.25 9.17852 6.25 9.1836 6.25 9.18871C6.25 9.19381 6.25 9.19893 6.25 9.20406C6.25 9.20919 6.25 9.21434 6.25 9.2195C6.25 9.22467 6.25 9.22985 6.25 9.23504C6.25 9.24023 6.25 9.24545 6.25 9.25067C6.25 9.2559 6.25 9.26114 6.25 9.2664C6.25 9.27165 6.25 9.27693 6.25 9.28221C6.25 9.2875 6.25 9.29281 6.25 9.29813C6.25 9.30345 6.25 9.30878 6.25 9.31413C6.25 9.31948 6.25 9.32485 6.25 9.33024C6.25 9.33562 6.25 9.34102 6.25 9.34643C6.25 9.35185 6.25 9.35728 6.25 9.36272C6.25 9.36817 6.25 9.37363 6.25 9.37911C6.25 9.38459 6.25 9.39008 6.25 9.39559C6.25 9.4011 6.25 9.40663 6.25 9.41217C6.25 9.41772 6.25 9.42327 6.25 9.42885C6.25 9.43442 6.25 9.44002 6.25 9.44562C6.25 9.45123 6.25 9.45685 6.25 9.46249C6.25 9.46813 6.25 9.47379 6.25 9.47946C6.25 9.48513 6.25 9.49082 6.25 9.49652C6.25 9.50223 6.25 9.50795 6.25 9.51369C6.25 9.51942 6.25 9.52518 6.25 9.53094C6.25 9.53671 6.25 9.5425 6.25 9.5483C6.25 9.55411 6.25 9.55993 6.25 9.56576C6.25 9.5716 6.25 9.57745 6.25 9.58332C6.25 9.58918 6.25 9.59507 6.25 9.60097C6.25 9.60687 6.25 9.61279 6.25 9.61873C6.25 9.62466 6.25 9.63061 6.25 9.63658C6.25 9.64255 6.25 9.64853 6.25 9.65453C6.25 9.66054 6.25 9.66655 6.25 9.67259C6.25 9.67862 6.25 9.68468 6.25 9.69074C6.25 9.69681 6.25 9.7029 6.25 9.709C6.25 9.7151 6.25 9.72122 6.25 9.72736C6.25 9.73349 6.25 9.73965 6.25 9.74582C6.25 9.75199 6.25 9.75817 6.25 9.76438C6.25 9.77058 6.25 9.7768 6.25 9.78304C6.25 9.78928 6.25 9.79553 6.25 9.8018C6.25 9.80808 6.25 9.81437 6.25 9.82067C6.25 9.82698 6.25 9.8333 6.25 9.83964C6.25 9.84598 6.25 9.85234 6.25 9.85871C6.25 9.86509 6.25 9.87148 6.25 9.87789C6.25 9.8843 6.25 9.89073 6.25 9.89717C6.25 9.90361 6.25 9.91008 6.25 9.91655C6.25 9.92303 6.25 9.92953 6.25 9.93604C6.25 9.94256 6.25 9.94909 6.25 9.95564C6.25 9.96218 6.25 9.96875 6.25 9.97533C6.25 9.98192 6.25 9.98852 6.25 9.99514C6.25 10.0018 6.25 10.0084 6.25 10.015C6.25 10.0217 6.25 10.0284 6.25 10.0351C6.25 10.0417 6.25 10.0485 6.25 10.0552C6.25 10.0619 6.25 10.0686 6.25 10.0754C6.25 10.0822 6.25 10.0889 6.25 10.0957C6.25 10.1025 6.25 10.1093 6.25 10.1162C6.25 10.123 6.25 10.1299 6.25 10.1367C6.25 10.1436 6.25 10.1505 6.25 10.1574C6.25 10.1643 6.25 10.1712 6.25 10.1781C6.25 10.1851 6.25 10.192 6.25 10.199C6.25 10.206 6.25 10.213 6.25 10.22C6.25 10.227 6.25 10.234 6.25 10.2411C6.25 10.2481 6.25 10.2552 6.25 10.2623C6.25 10.2693 6.25 10.2764 6.25 10.2836C6.25 10.2907 6.25 10.2978 6.25 10.305C6.25 10.3121 6.25 10.3193 6.25 10.3265C6.25 10.3337 6.25 10.3409 6.25 10.3481C6.25 10.3554 6.25 10.3626 6.25 10.3699C6.25 10.3771 6.25 10.3844 6.25 10.3917C6.25 10.399 6.25 10.4063 6.25 10.4137C6.25 10.421 6.25 10.4284 6.25 10.4358C6.25 10.4431 6.25 10.4505 6.25 10.4579C6.25 10.4654 6.25 10.4728 6.25 10.4802C6.25 10.4877 6.25 10.4952 6.25 10.5026C6.25 10.5101 6.25 10.5176 6.25 10.5252C6.25 10.5327 6.25 10.5402 6.25 10.5478C6.25 10.5554 6.25 10.5629 6.25 10.5705C6.25 10.5781 6.25 10.5858 6.25 10.5934C6.25 10.601 6.25 10.6087 6.25 10.6164C6.25 10.624 6.25 10.6317 6.25 10.6394C6.25 10.6472 6.25 10.6549 6.25 10.6626C6.25 10.6704 6.25 10.6782 6.25 10.686C6.25 10.6937 6.25 10.7016 6.25 10.7094C6.25 10.7172 6.25 10.7251 6.25 10.7329C6.25 10.7408 6.25 10.7487 6.25 10.7566C6.25 10.7645 6.25 10.7724 6.25 10.7804C6.25 10.7883 6.25 10.7963 6.25 10.8042C6.25 10.8122 6.25 10.8202 6.25 10.8282C6.25 10.8363 6.25 10.8443 6.25 10.8524C6.25 10.8604 6.25 10.8685 6.25 10.8766C6.25 10.8847 6.25 10.8928 6.25 10.9009C6.25 10.9091 6.25 10.9172 6.25 10.9254C6.25 10.9336 6.25 10.9418 6.25 10.95C6.25 10.9582 6.25 10.9664 6.25 10.9747C6.25 10.9829 6.25 10.9912 6.25 10.9995C6.25 11.0078 6.25 11.0161 6.25 11.0244C6.25 11.0328 6.25 11.0411 6.25 11.0495C6.25 11.0579 6.25 11.0663 6.25 11.0747C6.25 11.0831 6.25 11.0915 6.25 11.1C6.25 11.1084 6.25 11.1169 6.25 11.1254C6.25 11.1339 6.25 11.1424 6.25 11.1509C6.25 11.1594 6.25 11.168 6.25 11.1766C6.25 11.1851 6.25 11.1937 6.25 11.2023C6.25 11.2109 6.25 11.2196 6.25 11.2282C6.25 11.2369 6.25 11.2455 6.25 11.2542C6.25 11.2629 6.25 11.2716 6.25 11.2804C6.25 11.2891 6.25 11.2978 6.25 11.3066C6.25 11.3154 6.25 11.3242 6.25 11.333C6.25 11.3418 6.25 11.3506 6.25 11.3595C6.25 11.3683 6.25 11.3772 6.25 11.3861C6.25 11.395 6.25 11.4039 6.25 11.4128C6.25 11.4218 6.25 11.4307 6.25 11.4397C6.25 11.4487 6.25 11.4577 6.25 11.4667C6.25 11.4757 6.25 11.4847 6.25 11.4938C6.25 11.5029 6.25 11.5119 6.25 11.521C6.25 11.5301 6.25 11.5392 6.25 11.5484C6.25 11.5575 6.25 11.5667 6.25 11.5759C6.25 11.585 6.25 11.5942 6.25 11.6035C6.25 11.6127 6.25 11.6219 6.25 11.6312C6.25 11.6404 6.25 11.6497 6.25 11.659C6.25 11.6683 6.25 11.6777 6.25 11.687C6.25 11.6964 6.25 11.7057 6.25 11.7151C6.25 11.7245 6.25 11.7339 6.25 11.7433C6.25 11.7528 6.25 11.7622 6.25 11.7717C6.25 11.7812 6.25 11.7907 6.25 11.8002C6.25 11.8097 6.25 11.8192 6.25 11.8288C6.25 11.8383 6.25 11.8479 6.25 11.8575C6.25 11.8671 6.25 11.8767 6.25 11.8864C6.25 11.896 6.25 11.9057 6.25 11.9153C6.25 11.925 6.25 11.9347 6.25 11.9445C6.25 11.9542 6.25 11.9639 6.25 11.9737C6.25 11.9835 6.25 11.9933 6.25 12.0031C6.25 12.0129 6.25 12.0227 6.25 12.0326C6.25 12.0424 6.25 12.0523 6.25 12.0622C6.25 12.0721 6.25 12.082 6.25 12.0919C6.25 12.1019 6.25 12.1118 6.25 12.1218C6.25 12.1318 6.25 12.1418 6.25 12.1518C6.25 12.1619 6.25 12.1719 6.25 12.182C6.25 12.192 6.25 12.2021 6.25 12.2122C6.25 12.2224 6.25 12.2325 6.25 12.2426C6.25 12.2528 6.25 12.263 6.25 12.2732C6.25 12.2834 6.25 12.2936 6.25 12.3038C6.25 12.3141 6.25 12.3243 6.25 12.3346C6.25 12.3449 6.25 12.3552 6.25 12.3656C6.25 12.3759 6.25 12.3862 6.25 12.3966C6.25 12.407 6.25 12.4174 6.25 12.4278C6.25 12.4382 6.25 12.4487 6.25 12.4591C6.25 12.4696 6.25 12.4801 6.25 12.4906C6.25 12.5011 6.25 12.5116 6.25 12.5222C6.25 12.5327 6.25 12.5433 6.25 12.5539C6.25 12.5645 6.25 12.5751 6.25 12.5857C6.25 12.5964 6.25 12.607 6.25 12.6177C6.25 12.6284 6.25 12.6391 6.25 12.6498C6.25 12.6606 6.25 12.6713 6.25 12.6821C6.25 12.6929 6.25 12.7037 6.25 12.7145C6.25 12.7253 6.25 12.7361 6.25 12.747C6.25 12.7579 6.25 12.7688 6.25 12.7797C6.25 12.7906 6.25 12.8015 6.25 12.8125C6.25 12.8234 6.25 12.8344 6.25 12.8454C6.25 12.8564 6.25 12.8674 6.25 12.8784C6.25 12.8895 6.25 12.9006 6.25 12.9116C6.25 12.9227 6.25 12.9339 6.25 12.945C6.25 12.9561 6.25 12.9673 6.25 12.9785C6.25 12.9896 6.25 13.0008 6.25 13.0121C6.25 13.0233 6.25 13.0345 6.25 13.0458C6.25 13.0571 6.25 13.0684 6.25 13.0797C6.25 13.091 6.25 13.1024 6.25 13.1137C6.25 13.1251 6.25 13.1365 6.25 13.1479C6.25 13.1593 6.25 13.1707 6.25 13.1822C6.25 13.1936 6.25 13.2051 6.25 13.2166C6.25 13.2281 6.25 13.2396 6.25 13.2512C6.25 13.2627 6.25 13.2743 6.25 13.2859C6.25 13.2975 6.25 13.3091 6.25 13.3208C6.25 13.3324 6.25 13.3441 6.25 13.3558C6.25 13.3674 6.25 13.3792 6.25 13.3909C6.25 13.4026 6.25 13.4144 6.25 13.4262C6.25 13.438 6.25 13.4498 6.25 13.4616C6.25 13.4734 6.25 13.4853 6.25 13.4971C6.25 13.509 6.25 13.5209 6.25 13.5328C6.25 13.5448 6.25 13.5567 6.25 13.5687C6.25 13.5806 6.25 13.5926 6.25 13.6047C6.25 13.6167 6.25 13.6287 6.25 13.6408C6.25 13.6528 6.25 13.6649 6.25 13.677C6.25 13.6892 6.25 13.7013 6.25 13.7135C6.25 13.7256 6.25 13.7378 6.25 13.75H7.75C7.75 13.7378 7.75 13.7256 7.75 13.7135C7.75 13.7013 7.75 13.6892 7.75 13.677C7.75 13.6649 7.75 13.6528 7.75 13.6408C7.75 13.6287 7.75 13.6167 7.75 13.6047C7.75 13.5926 7.75 13.5806 7.75 13.5687C7.75 13.5567 7.75 13.5448 7.75 13.5328C7.75 13.5209 7.75 13.509 7.75 13.4971C7.75 13.4853 7.75 13.4734 7.75 13.4616C7.75 13.4498 7.75 13.438 7.75 13.4262C7.75 13.4144 7.75 13.4026 7.75 13.3909C7.75 13.3792 7.75 13.3674 7.75 13.3558C7.75 13.3441 7.75 13.3324 7.75 13.3208C7.75 13.3091 7.75 13.2975 7.75 13.2859C7.75 13.2743 7.75 13.2627 7.75 13.2512C7.75 13.2396 7.75 13.2281 7.75 13.2166C7.75 13.2051 7.75 13.1936 7.75 13.1822C7.75 13.1707 7.75 13.1593 7.75 13.1479C7.75 13.1365 7.75 13.1251 7.75 13.1137C7.75 13.1024 7.75 13.091 7.75 13.0797C7.75 13.0684 7.75 13.0571 7.75 13.0458C7.75 13.0345 7.75 13.0233 7.75 13.0121C7.75 13.0008 7.75 12.9896 7.75 12.9785C7.75 12.9673 7.75 12.9561 7.75 12.945C7.75 12.9339 7.75 12.9227 7.75 12.9116C7.75 12.9006 7.75 12.8895 7.75 12.8784C7.75 12.8674 7.75 12.8564 7.75 12.8454C7.75 12.8344 7.75 12.8234 7.75 12.8125C7.75 12.8015 7.75 12.7906 7.75 12.7797C7.75 12.7688 7.75 12.7579 7.75 12.747C7.75 12.7361 7.75 12.7253 7.75 12.7145C7.75 12.7037 7.75 12.6929 7.75 12.6821C7.75 12.6713 7.75 12.6606 7.75 12.6498C7.75 12.6391 7.75 12.6284 7.75 12.6177C7.75 12.607 7.75 12.5964 7.75 12.5857C7.75 12.5751 7.75 12.5645 7.75 12.5539C7.75 12.5433 7.75 12.5327 7.75 12.5222C7.75 12.5116 7.75 12.5011 7.75 12.4906C7.75 12.4801 7.75 12.4696 7.75 12.4591C7.75 12.4487 7.75 12.4382 7.75 12.4278C7.75 12.4174 7.75 12.407 7.75 12.3966C7.75 12.3862 7.75 12.3759 7.75 12.3656C7.75 12.3552 7.75 12.3449 7.75 12.3346C7.75 12.3243 7.75 12.3141 7.75 12.3038C7.75 12.2936 7.75 12.2834 7.75 12.2732C7.75 12.263 7.75 12.2528 7.75 12.2426C7.75 12.2325 7.75 12.2224 7.75 12.2122C7.75 12.2021 7.75 12.192 7.75 12.182C7.75 12.1719 7.75 12.1619 7.75 12.1518C7.75 12.1418 7.75 12.1318 7.75 12.1218C7.75 12.1118 7.75 12.1019 7.75 12.0919C7.75 12.082 7.75 12.0721 7.75 12.0622C7.75 12.0523 7.75 12.0424 7.75 12.0326C7.75 12.0227 7.75 12.0129 7.75 12.0031C7.75 11.9933 7.75 11.9835 7.75 11.9737C7.75 11.9639 7.75 11.9542 7.75 11.9445C7.75 11.9347 7.75 11.925 7.75 11.9153C7.75 11.9057 7.75 11.896 7.75 11.8864C7.75 11.8767 7.75 11.8671 7.75 11.8575C7.75 11.8479 7.75 11.8383 7.75 11.8288C7.75 11.8192 7.75 11.8097 7.75 11.8002C7.75 11.7907 7.75 11.7812 7.75 11.7717C7.75 11.7622 7.75 11.7528 7.75 11.7433C7.75 11.7339 7.75 11.7245 7.75 11.7151C7.75 11.7057 7.75 11.6964 7.75 11.687C7.75 11.6777 7.75 11.6683 7.75 11.659C7.75 11.6497 7.75 11.6404 7.75 11.6312C7.75 11.6219 7.75 11.6127 7.75 11.6035C7.75 11.5942 7.75 11.585 7.75 11.5759C7.75 11.5667 7.75 11.5575 7.75 11.5484C7.75 11.5392 7.75 11.5301 7.75 11.521C7.75 11.5119 7.75 11.5029 7.75 11.4938C7.75 11.4847 7.75 11.4757 7.75 11.4667C7.75 11.4577 7.75 11.4487 7.75 11.4397C7.75 11.4307 7.75 11.4218 7.75 11.4128C7.75 11.4039 7.75 11.395 7.75 11.3861C7.75 11.3772 7.75 11.3683 7.75 11.3595C7.75 11.3506 7.75 11.3418 7.75 11.333C7.75 11.3242 7.75 11.3154 7.75 11.3066C7.75 11.2978 7.75 11.2891 7.75 11.2804C7.75 11.2716 7.75 11.2629 7.75 11.2542C7.75 11.2455 7.75 11.2369 7.75 11.2282C7.75 11.2196 7.75 11.2109 7.75 11.2023C7.75 11.1937 7.75 11.1851 7.75 11.1766C7.75 11.168 7.75 11.1594 7.75 11.1509C7.75 11.1424 7.75 11.1339 7.75 11.1254C7.75 11.1169 7.75 11.1084 7.75 11.1C7.75 11.0915 7.75 11.0831 7.75 11.0747C7.75 11.0663 7.75 11.0579 7.75 11.0495C7.75 11.0411 7.75 11.0328 7.75 11.0244C7.75 11.0161 7.75 11.0078 7.75 10.9995C7.75 10.9912 7.75 10.9829 7.75 10.9747C7.75 10.9664 7.75 10.9582 7.75 10.95C7.75 10.9418 7.75 10.9336 7.75 10.9254C7.75 10.9172 7.75 10.9091 7.75 10.9009C7.75 10.8928 7.75 10.8847 7.75 10.8766C7.75 10.8685 7.75 10.8604 7.75 10.8524C7.75 10.8443 7.75 10.8363 7.75 10.8282C7.75 10.8202 7.75 10.8122 7.75 10.8042C7.75 10.7963 7.75 10.7883 7.75 10.7804C7.75 10.7724 7.75 10.7645 7.75 10.7566C7.75 10.7487 7.75 10.7408 7.75 10.7329C7.75 10.7251 7.75 10.7172 7.75 10.7094C7.75 10.7016 7.75 10.6937 7.75 10.686C7.75 10.6782 7.75 10.6704 7.75 10.6626C7.75 10.6549 7.75 10.6472 7.75 10.6394C7.75 10.6317 7.75 10.624 7.75 10.6164C7.75 10.6087 7.75 10.601 7.75 10.5934C7.75 10.5858 7.75 10.5781 7.75 10.5705C7.75 10.5629 7.75 10.5554 7.75 10.5478C7.75 10.5402 7.75 10.5327 7.75 10.5252C7.75 10.5176 7.75 10.5101 7.75 10.5026C7.75 10.4952 7.75 10.4877 7.75 10.4802C7.75 10.4728 7.75 10.4654 7.75 10.4579C7.75 10.4505 7.75 10.4431 7.75 10.4358C7.75 10.4284 7.75 10.421 7.75 10.4137C7.75 10.4063 7.75 10.399 7.75 10.3917C7.75 10.3844 7.75 10.3771 7.75 10.3699C7.75 10.3626 7.75 10.3554 7.75 10.3481C7.75 10.3409 7.75 10.3337 7.75 10.3265C7.75 10.3193 7.75 10.3121 7.75 10.305C7.75 10.2978 7.75 10.2907 7.75 10.2836C7.75 10.2764 7.75 10.2693 7.75 10.2623C7.75 10.2552 7.75 10.2481 7.75 10.2411C7.75 10.234 7.75 10.227 7.75 10.22C7.75 10.213 7.75 10.206 7.75 10.199C7.75 10.192 7.75 10.1851 7.75 10.1781C7.75 10.1712 7.75 10.1643 7.75 10.1574C7.75 10.1505 7.75 10.1436 7.75 10.1367C7.75 10.1299 7.75 10.123 7.75 10.1162C7.75 10.1093 7.75 10.1025 7.75 10.0957C7.75 10.0889 7.75 10.0822 7.75 10.0754C7.75 10.0686 7.75 10.0619 7.75 10.0552C7.75 10.0485 7.75 10.0417 7.75 10.0351C7.75 10.0284 7.75 10.0217 7.75 10.015C7.75 10.0084 7.75 10.0018 7.75 9.99514C7.75 9.98852 7.75 9.98192 7.75 9.97533C7.75 9.96875 7.75 9.96218 7.75 9.95564C7.75 9.94909 7.75 9.94256 7.75 9.93604C7.75 9.92953 7.75 9.92303 7.75 9.91655C7.75 9.91008 7.75 9.90361 7.75 9.89717C7.75 9.89073 7.75 9.8843 7.75 9.87789C7.75 9.87148 7.75 9.86509 7.75 9.85871C7.75 9.85234 7.75 9.84598 7.75 9.83964C7.75 9.8333 7.75 9.82698 7.75 9.82067C7.75 9.81437 7.75 9.80808 7.75 9.8018C7.75 9.79553 7.75 9.78928 7.75 9.78304C7.75 9.7768 7.75 9.77058 7.75 9.76438C7.75 9.75817 7.75 9.75199 7.75 9.74582C7.75 9.73965 7.75 9.73349 7.75 9.72736C7.75 9.72122 7.75 9.7151 7.75 9.709C7.75 9.7029 7.75 9.69681 7.75 9.69074C7.75 9.68468 7.75 9.67862 7.75 9.67259C7.75 9.66655 7.75 9.66054 7.75 9.65453C7.75 9.64853 7.75 9.64255 7.75 9.63658C7.75 9.63061 7.75 9.62466 7.75 9.61873C7.75 9.61279 7.75 9.60687 7.75 9.60097C7.75 9.59507 7.75 9.58918 7.75 9.58332C7.75 9.57745 7.75 9.5716 7.75 9.56576C7.75 9.55993 7.75 9.55411 7.75 9.5483C7.75 9.5425 7.75 9.53671 7.75 9.53094C7.75 9.52518 7.75 9.51942 7.75 9.51369C7.75 9.50795 7.75 9.50223 7.75 9.49652C7.75 9.49082 7.75 9.48513 7.75 9.47946C7.75 9.47379 7.75 9.46813 7.75 9.46249C7.75 9.45685 7.75 9.45123 7.75 9.44562C7.75 9.44002 7.75 9.43442 7.75 9.42885C7.75 9.42327 7.75 9.41772 7.75 9.41217C7.75 9.40663 7.75 9.4011 7.75 9.39559C7.75 9.39008 7.75 9.38459 7.75 9.37911C7.75 9.37363 7.75 9.36817 7.75 9.36272C7.75 9.35728 7.75 9.35185 7.75 9.34643C7.75 9.34102 7.75 9.33562 7.75 9.33024C7.75 9.32485 7.75 9.31948 7.75 9.31413C7.75 9.30878 7.75 9.30345 7.75 9.29813C7.75 9.29281 7.75 9.2875 7.75 9.28221C7.75 9.27693 7.75 9.27165 7.75 9.2664C7.75 9.26114 7.75 9.2559 7.75 9.25067C7.75 9.24545 7.75 9.24023 7.75 9.23504C7.75 9.22985 7.75 9.22467 7.75 9.2195C7.75 9.21434 7.75 9.20919 7.75 9.20406C7.75 9.19893 7.75 9.19381 7.75 9.18871C7.75 9.1836 7.75 9.17852 7.75 9.17345C7.75 9.16838 7.75 9.16332 7.75 9.15828C7.75 9.15324 7.75 9.14821 7.75 9.1432C7.75 9.1382 7.75 9.1332 7.75 9.12822C7.75 9.12324 7.75 9.11828 7.75 9.11333C7.75 9.10838 7.75 9.10345 7.75 9.09853C7.75 9.09361 7.75 9.08871 7.75 9.08382C7.75 9.07893 7.75 9.07406 7.75 9.0692C7.75 9.06434 7.75 9.0595 7.75 9.05467C7.75 9.04984 7.75 9.04503 7.75 9.04023C7.75 9.03543 7.75 9.03065 7.75 9.02588C7.75 9.02111 7.75 9.01636 7.75 9.01162C7.75 9.00688 7.75 9.00216 7.75 8.99745C7.75 8.99274 7.75 8.98804 7.75 8.98336C7.75 8.97869 7.75 8.97402 7.75 8.96937C7.75 8.96472 7.75 8.96009 7.75 8.95547C7.75 8.95084 7.75 8.94624 7.75 8.94165C7.75 8.93706 7.75 8.93248 7.75 8.92792C7.75 8.92336 7.75 8.91881 7.75 8.91428C7.75 8.90974 7.75 8.90522 7.75 8.90072C7.75 8.89622 7.75 8.89173 7.75 8.88725C7.75 8.88278 7.75 8.87832 7.75 8.87387C7.75 8.86942 7.75 8.86499 7.75 8.86057C7.75 8.85616 7.75 8.85175 7.75 8.84736C7.75 8.84298 7.75 8.8386 7.75 8.83424C7.75 8.82988 7.75 8.82554 7.75 8.8212C7.75 8.81687 7.75 8.81255 7.75 8.80825C7.75 8.80395 7.75 8.79966 7.75 8.79538C7.75 8.79111 7.75 8.78685 7.75 8.7826C7.75 8.77835 7.75 8.77412 7.75 8.7699C7.75 8.76568 7.75 8.76148 7.75 8.75729C7.75 8.75309 7.75 8.74892 7.75 8.74475C7.75 8.74059 7.75 8.73644 7.75 8.73231C7.75 8.72817 7.75 8.72405 7.75 8.71994C7.75 8.71584 7.75 8.71174 7.75 8.70766C7.75 8.70358 7.75 8.69952 7.75 8.69546C7.75 8.69141 7.75 8.68737 7.75 8.68335C7.75 8.67932 7.75 8.67531 7.75 8.67131C7.75 8.66732 7.75 8.66333 7.75 8.65936C7.75 8.65539 7.75 8.65143 7.75 8.64749C7.75 8.64355 7.75 8.63962 7.75 8.6357C7.75 8.63178 7.75 8.62788 7.75 8.62399C7.75 8.6201 7.75 8.61623 7.75 8.61237C7.75 8.6085 7.75 8.60465 7.75 8.60082C7.75 8.59698 7.75 8.59316 7.75 8.58935C7.75 8.58554 7.75 8.58175 7.75 8.57797C7.75 8.57418 7.75 8.57041 7.75 8.56666C7.75 8.5629 7.75 8.55916 7.75 8.55543C7.75 8.5517 7.75 8.54798 7.75 8.54428C7.75 8.54058 7.75 8.53689 7.75 8.53321C7.75 8.52953 7.75 8.52587 7.75 8.52222C7.75 8.51857 7.75 8.51493 7.75 8.51131C7.75 8.50768 7.75 8.50407 7.75 8.50047C7.75 8.49687 7.75 8.49329 7.75 8.48971C7.75 8.48614 7.75 8.48258 7.75 8.47903C7.75 8.47549 7.75 8.47195 7.75 8.46843C7.75 8.46491 7.75 8.4614 7.75 8.4579C7.75 8.45441 7.75 8.45092 7.75 8.44745C7.75 8.44398 7.75 8.44053 7.75 8.43708C7.75 8.43364 7.75 8.4302 7.75 8.42678C7.75 8.42336 7.75 8.41996 7.75 8.41656C7.75 8.41317 7.75 8.40978 7.75 8.40641C7.75 8.40305 7.75 8.39969 7.75 8.39634C7.75 8.393 7.75 8.38967 7.75 8.38635C7.75 8.38303 7.75 8.37972 7.75 8.37643C7.75 8.37313 7.75 8.36985 7.75 8.36658C7.75 8.36331 7.75 8.36005 7.75 8.3568C7.75 8.35356 7.75 8.35033 7.75 8.34711C7.75 8.34388 7.75 8.34068 7.75 8.33748C7.75 8.33428 7.75 8.3311 7.75 8.32793C7.75 8.32475 7.75 8.32159 7.75 8.31845C7.75 8.3153 7.75 8.31216 7.75 8.30904C7.75 8.30592 7.75 8.3028 7.75 8.2997C7.75 8.2966 7.75 8.29352 7.75 8.29044C7.75 8.28737 7.75 8.2843 7.75 8.28125C7.75 8.2782 7.75 8.27516 7.75 8.27213C7.75 8.2691 7.75 8.26609 7.75 8.26308C7.75 8.26008 7.75 8.25709 7.75 8.2541C7.75 8.25112 7.75 8.24816 7.75 8.2452C7.75 8.24224 7.75 8.2393 7.75 8.23636C7.75 8.23343 7.75 8.23051 7.75 8.2276C7.75 8.22469 7.75 8.22179 7.75 8.2189C7.75 8.21601 7.75 8.21314 7.75 8.21027C7.75 8.20741 7.75 8.20456 7.75 8.20172C7.75 8.19887 7.75 8.19604 7.75 8.19323C7.75 8.19041 7.75 8.1876 7.75 8.18481C7.75 8.18201 7.75 8.17923 7.75 8.17646C7.75 8.17368 7.75 8.17092 7.75 8.16817C7.75 8.16542 7.75 8.16268 7.75 8.15996C7.75 8.15723 7.75 8.15451 7.75 8.15181C7.75 8.14911 7.75 8.14641 7.75 8.14373C7.75 8.14105 7.75 8.13838 7.75 8.13572C7.75 8.13306 7.75 8.13041 7.75 8.12777C7.75 8.12513 7.75 8.12251 7.75 8.11989C7.75 8.11728 7.75 8.11467 7.75 8.11208C7.75 8.10948 7.75 8.1069 7.75 8.10433C7.75 8.10176 7.75 8.0992 7.75 8.09665C7.75 8.0941 7.75 8.09156 7.75 8.08903C7.75 8.0865 7.75 8.08399 7.75 8.08148C7.75 8.07897 7.75 8.07648 7.75 8.07399C7.75 8.07151 7.75 8.06903 7.75 8.06657C7.75 8.06411 7.75 8.06165 7.75 8.05921C7.75 8.05677 7.75 8.05434 7.75 8.05192C7.75 8.0495 7.75 8.04709 7.75 8.04469C7.75 8.04229 7.75 8.0399 7.75 8.03752C7.75 8.03514 7.75 8.03277 7.75 8.03042C7.75 8.02806 7.75 8.02571 7.75 8.02338C7.75 8.02104 7.75 8.01871 7.75 8.0164C7.75 8.01408 7.75 8.01178 7.75 8.00948C7.75 8.00719 7.75 8.0049 7.75 8.00263C7.75 8.00035 7.75 7.99809 7.75 7.99584C7.75 7.99358 7.75 7.99134 7.75 7.98911C7.75 7.98687 7.75 7.98465 7.75 7.98244C7.75 7.98022 7.75 7.97802 7.75 7.97583C7.75 7.97363 7.75 7.97145 7.75 7.96928C7.75 7.96711 7.75 7.96494 7.75 7.96279C7.75 7.96064 7.75 7.9585 7.75 7.95636C7.75 7.95423 7.75 7.95211 7.75 7.95C7.75 7.94788 7.75 7.94578 7.75 7.94369C7.75 7.9416 7.75 7.93951 7.75 7.93744C7.75 7.93537 7.75 7.9333 7.75 7.93125C7.75 7.9292 7.75 7.92715 7.75 7.92512C7.75 7.92308 7.75 7.92106 7.75 7.91904C7.75 7.91703 7.75 7.91502 7.75 7.91303C7.75 7.91103 7.75 7.90905 7.75 7.90707C7.75 7.9051 7.75 7.90313 7.75 7.90117C7.75 7.89922 7.75 7.89727 7.75 7.89533C7.75 7.89339 7.75 7.89146 7.75 7.88955C7.75 7.88763 7.75 7.88572 7.75 7.88382C7.75 7.88192 7.75 7.88003 7.75 7.87814C7.75 7.87626 7.75 7.87439 7.75 7.87253C7.75 7.87067 7.75 7.86881 7.75 7.86697C7.75 7.86512 7.75 7.86329 7.75 7.86146C7.75 7.85964 7.75 7.85782 7.75 7.85602C7.75 7.85421 7.75 7.85241 7.75 7.85062C7.75 7.84883 7.75 7.84705 7.75 7.84528C7.75 7.84351 7.75 7.84175 7.75 7.84C7.75 7.83824 7.75 7.8365 7.75 7.83477C7.75 7.83303 7.75 7.83131 7.75 7.82959C7.75 7.82787 7.75 7.82617 7.75 7.82447C7.75 7.82277 7.75 7.82108 7.75 7.8194C7.75 7.81772 7.75 7.81604 7.75 7.81438C7.75 7.81272 7.75 7.81106 7.75 7.80942C7.75 7.80777 7.75 7.80613 7.75 7.80451C7.75 7.80288 7.75 7.80126 7.75 7.79965C7.75 7.79804 7.75 7.79643 7.75 7.79484C7.75 7.79325 7.75 7.79166 7.75 7.79008C7.75 7.78851 7.75 7.78694 7.75 7.78538C7.75 7.78382 7.75 7.78227 7.75 7.78073C7.75 7.77918 7.75 7.77765 7.75 7.77612C7.75 7.7746 7.75 7.77308 7.75 7.77157C7.75 7.77006 7.75 7.76856 7.75 7.76707C7.75 7.76558 7.75 7.7641 7.75 7.76262C7.75 7.76115 7.75 7.75968 7.75 7.75822C7.75 7.75676 7.75 7.75531 7.75 7.75387C7.75 7.75243 7.75 7.75099 7.75 7.74957C7.75 7.74814 7.75 7.74672 7.75 7.74531C7.75 7.7439 7.75 7.7425 7.75 7.74111C7.75 7.73971 7.75 7.73833 7.75 7.73695C7.75 7.73557 7.75 7.7342 7.75 7.73284C7.75 7.73148 7.75 7.73012 7.75 7.72878C7.75 7.72743 7.75 7.7261 7.75 7.72477C7.75 7.72344 7.75 7.72211 7.75 7.7208C7.75 7.71949 7.75 7.71818 7.75 7.71688C7.75 7.71558 7.75 7.71429 7.75 7.71301C7.75 7.71172 7.75 7.71045 7.75 7.70918C7.75 7.70791 7.75 7.70665 7.75 7.7054C7.75 7.70415 7.75 7.7029 7.75 7.70167C7.75 7.70043 7.75 7.6992 7.75 7.69798C7.75 7.69675 7.75 7.69554 7.75 7.69433C7.75 7.69313 7.75 7.69193 7.75 7.69073C7.75 7.68954 7.75 7.68836 7.75 7.68718C7.75 7.686 7.75 7.68483 7.75 7.68367C7.75 7.68251 7.75 7.68135 7.75 7.68021C7.75 7.67906 7.75 7.67792 7.75 7.67678C7.75 7.67565 7.75 7.67453 7.75 7.67341C7.75 7.67229 7.75 7.67118 7.75 7.67007C7.75 7.66897 7.75 7.66787 7.75 7.66678C7.75 7.66569 7.75 7.66461 7.75 7.66353C7.75 7.66246 7.75 7.66139 7.75 7.66033C7.75 7.65926 7.75 7.65821 7.75 7.65716C7.75 7.65611 7.75 7.65507 7.75 7.65404C7.75 7.653 7.75 7.65198 7.75 7.65096C7.75 7.64994 7.75 7.64892 7.75 7.64792C7.75 7.64691 7.75 7.64591 7.75 7.64492C7.75 7.64393 7.75 7.64294 7.75 7.64196C7.75 7.64098 7.75 7.64001 7.75 7.63905C7.75 7.63808 7.75 7.63712 7.75 7.63617C7.75 7.63522 7.75 7.63427 7.75 7.63333C7.75 7.63239 7.75 7.63146 7.75 7.63054C7.75 7.62961 7.75 7.62869 7.75 7.62778C7.75 7.62686 7.75 7.62596 7.75 7.62506C7.75 7.62416 7.75 7.62327 7.75 7.62238C7.75 7.62149 7.75 7.62061 7.75 7.61974C7.75 7.61886 7.75 7.618 7.75 7.61714C7.75 7.61627 7.75 7.61542 7.75 7.61457C7.75 7.61372 7.75 7.61288 7.75 7.61204C7.75 7.61121 7.75 7.61038 7.75 7.60955C7.75 7.60873 7.75 7.60791 7.75 7.6071C7.75 7.60629 7.75 7.60548 7.75 7.60468C7.75 7.60389 7.75 7.60309 7.75 7.60231C7.75 7.60152 7.75 7.60074 7.75 7.59996C7.75 7.59919 7.75 7.59842 7.75 7.59766C7.75 7.59689 7.75 7.59614 7.75 7.59539C7.75 7.59463 7.75 7.59389 7.75 7.59315C7.75 7.59241 7.75 7.59168 7.75 7.59095C7.75 7.59022 7.75 7.5895 7.75 7.58878C7.75 7.58807 7.75 7.58736 7.75 7.58665C7.75 7.58595 7.75 7.58525 7.75 7.58456C7.75 7.58386 7.75 7.58318 7.75 7.58249C7.75 7.58181 7.75 7.58114 7.75 7.58047C7.75 7.5798 7.75 7.57913 7.75 7.57847C7.75 7.57781 7.75 7.57716 7.75 7.57651C7.75 7.57586 7.75 7.57522 7.75 7.57458C7.75 7.57394 7.75 7.57331 7.75 7.57268C7.75 7.57206 7.75 7.57144 7.75 7.57082C7.75 7.57021 7.75 7.56959 7.75 7.56899C7.75 7.56838 7.75 7.56778 7.75 7.56719C7.75 7.5666 7.75 7.56601 7.75 7.56542C7.75 7.56484 7.75 7.56426 7.75 7.56369C7.75 7.56311 7.75 7.56254 7.75 7.56198C7.75 7.56142 7.75 7.56086 7.75 7.5603C7.75 7.55975 7.75 7.5592 7.75 7.55866C7.75 7.55812 7.75 7.55758 7.75 7.55705C7.75 7.55651 7.75 7.55598 7.75 7.55546C7.75 7.55494 7.75 7.55442 7.75 7.55391C7.75 7.55339 7.75 7.55288 7.75 7.55238C7.75 7.55188 7.75 7.55138 7.75 7.55088C7.75 7.55039 7.75 7.5499 7.75 7.54942C7.75 7.54893 7.75 7.54845 7.75 7.54798C7.75 7.5475 7.75 7.54703 7.75 7.54657C7.75 7.5461 7.75 7.54564 7.75 7.54518C7.75 7.54473 7.75 7.54427 7.75 7.54383C7.75 7.54338 7.75 7.54294 7.75 7.5425C7.75 7.54206 7.75 7.54163 7.75 7.5412C7.75 7.54077 7.75 7.54034 7.75 7.53992C7.75 7.5395 7.75 7.53909 7.75 7.53868C7.75 7.53827 7.75 7.53786 7.75 7.53746C7.75 7.53705 7.75 7.53665 7.75 7.53626C7.75 7.53587 7.75 7.53548 7.75 7.53509C7.75 7.53471 7.75 7.53432 7.75 7.53395C7.75 7.53357 7.75 7.5332 7.75 7.53283C7.75 7.53246 7.75 7.53209 7.75 7.53173C7.75 7.53137 7.75 7.53102 7.75 7.53066C7.75 7.53031 7.75 7.52996 7.75 7.52962C7.75 7.52927 7.75 7.52893 7.75 7.5286C7.75 7.52826 7.75 7.52793 7.75 7.5276C7.75 7.52727 7.75 7.52695 7.75 7.52663C7.75 7.52631 7.75 7.52599 7.75 7.52568C7.75 7.52536 7.75 7.52505 7.75 7.52475C7.75 7.52444 7.75 7.52414 7.75 7.52384C7.75 7.52354 7.75 7.52325 7.75 7.52296C7.75 7.52267 7.75 7.52238 7.75 7.5221C7.75 7.52181 7.75 7.52153 7.75 7.52126C7.75 7.52098 7.75 7.52071 7.75 7.52044C7.75 7.52017 7.75 7.51991 7.75 7.51965C7.75 7.51938 7.75 7.51912 7.75 7.51887C7.75 7.51861 7.75 7.51836 7.75 7.51812C7.75 7.51787 7.75 7.51762 7.75 7.51738C7.75 7.51714 7.75 7.5169 7.75 7.51667C7.75 7.51643 7.75 7.5162 7.75 7.51597C7.75 7.51574 7.75 7.51552 7.75 7.5153C7.75 7.51508 7.75 7.51486 7.75 7.51464C7.75 7.51443 7.75 7.51421 7.75 7.51401C7.75 7.5138 7.75 7.51359 7.75 7.51339C7.75 7.51318 7.75 7.51298 7.75 7.51279C7.75 7.51259 7.75 7.5124 7.75 7.51221C7.75 7.51202 7.75 7.51183 7.75 7.51164C7.75 7.51146 7.75 7.51128 7.75 7.5111C7.75 7.51092 7.75 7.51074 7.75 7.51057C7.75 7.5104 7.75 7.51023 7.75 7.51006C7.75 7.50989 7.75 7.50973 7.75 7.50956C7.75 7.5094 7.75 7.50924 7.75 7.50909C7.75 7.50893 7.75 7.50878 7.75 7.50862C7.75 7.50847 7.75 7.50832 7.75 7.50818C7.75 7.50803 7.75 7.50789 7.75 7.50775C7.75 7.50761 7.75 7.50747 7.75 7.50733C7.75 7.5072 7.75 7.50706 7.75 7.50693C7.75 7.5068 7.75 7.50667 7.75 7.50655C7.75 7.50642 7.75 7.5063 7.75 7.50618C7.75 7.50606 7.75 7.50594 7.75 7.50582C7.75 7.5057 7.75 7.50559 7.75 7.50548C7.75 7.50537 7.75 7.50526 7.75 7.50515C7.75 7.50504 7.75 7.50494 7.75 7.50483C7.75 7.50473 7.75 7.50463 7.75 7.50453C7.75 7.50443 7.75 7.50434 7.75 7.50424C7.75 7.50415 7.75 7.50406 7.75 7.50397C7.75 7.50388 7.75 7.50379 7.75 7.5037C7.75 7.50362 7.75 7.50353 7.75 7.50345C7.75 7.50337 7.75 7.50329 7.75 7.50321C7.75 7.50313 7.75 7.50305 7.75 7.50298C7.75 7.50291 7.75 7.50283 7.75 7.50276C7.75 7.50269 7.75 7.50262 7.75 7.50256C7.75 7.50249 7.75 7.50242 7.75 7.50236C7.75 7.5023 7.75 7.50223 7.75 7.50217C7.75 7.50211 7.75 7.50205 7.75 7.502C7.75 7.50194 7.75 7.50188 7.75 7.50183C7.75 7.50178 7.75 7.50172 7.75 7.50167C7.75 7.50162 7.75 7.50157 7.75 7.50153C7.75 7.50148 7.75 7.50143 7.75 7.50139C7.75 7.50134 7.75 7.5013 7.75 7.50126C7.75 7.50122 7.75 7.50117 7.75 7.50114C7.75 7.5011 7.75 7.50106 7.75 7.50102C7.75 7.50099 7.75 7.50095 7.75 7.50092C7.75 7.50088 7.75 7.50085 7.75 7.50082C7.75 7.50079 7.75 7.50076 7.75 7.50073C7.75 7.5007 7.75 7.50067 7.75 7.50064C7.75 7.50062 7.75 7.50059 7.75 7.50057C7.75 7.50054 7.75 7.50052 7.75 7.5005C7.75 7.50047 7.75 7.50045 7.75 7.50043C7.75 7.50041 7.75 7.50039 7.75 7.50037C7.75 7.50035 7.75 7.50034 7.75 7.50032C7.75 7.5003 7.75 7.50029 7.75 7.50027C7.75 7.50026 7.75 7.50024 7.75 7.50023C7.75 7.50022 7.75 7.5002 7.75 7.50019C7.75 7.50018 7.75 7.50017 7.75 7.50016C7.75 7.50015 7.75 7.50014 7.75 7.50013C7.75 7.50012 7.75 7.50011 7.75 7.5001C7.75 7.50009 7.75 7.50009 7.75 7.50008C7.75 7.50007 7.75 7.50007 7.75 7.50006C7.75 7.50006 7.75 7.50005 7.75 7.50005C7.75 7.50004 7.75 7.50004 7.75 7.50003C7.75 7.50003 7.75 7.50003 7.75 7.50002C7.75 7.50002 7.75 7.50002 7.75 7.50002C7.75 7.50001 7.75 7.50001 7.75 7.50001C7.75 7.50001 7.75 7.50001 7.75 7.50001C7.75 7.5 7.75 7.5 7.75 7.5C7.75 7.5 7.75 7.5 7.75 7.5C7.75 7.5 7.75 7.5 7.75 7.5C7.75 7.5 7.75 7.5 7.75 7.5H7ZM7.75 7.5V1.25H6.25V7.5H7.75Z" fill="#7C7C7C"/>
</g>
</svg>
