<svg width="48" height="48" viewBox="0 0 48 48" fill="none" xmlns="http://www.w3.org/2000/svg">
<path fill-rule="evenodd" clip-rule="evenodd" d="M38 18V30C38 34.4183 34.4183 38 30 38H18C13.5817 38 10 34.4183 10 30V18C10 13.5817 13.5817 10 18 10H30C34.4183 10 38 13.5817 38 18Z" stroke="#5A5A5A" stroke-width="3" stroke-linecap="round" stroke-linejoin="round"/>
<path fill-rule="evenodd" clip-rule="evenodd" d="M22.8 24.234L26.6 27.098C26.8488 27.2746 26.9965 27.5609 26.9965 27.866C26.9965 28.1711 26.8488 28.4573 26.6 28.634L22.8 31.766C22.4792 32.0163 22.0477 32.0725 21.6735 31.9129C21.2992 31.7532 21.0413 31.4028 21 30.998V24.998C21.0426 24.5939 21.301 24.2447 21.675 24.0859C22.0491 23.9272 22.4798 23.9839 22.8 24.234V24.234Z" stroke="#5A5A5A" stroke-width="3" stroke-linecap="round" stroke-linejoin="round"/>
<path d="M38 19.5C38.8284 19.5 39.5 18.8284 39.5 18C39.5 17.1716 38.8284 16.5 38 16.5V19.5ZM24 16.5C23.1716 16.5 22.5 17.1716 22.5 18C22.5 18.8284 23.1716 19.5 24 19.5V16.5ZM10 16.5C9.17157 16.5 8.5 17.1716 8.5 18C8.5 18.8284 9.17157 19.5 10 19.5V16.5ZM24 19.5C24.8284 19.5 25.5 18.8284 25.5 18C25.5 17.1716 24.8284 16.5 24 16.5V19.5ZM22.5 18C22.5 18.8284 23.1716 19.5 24 19.5C24.8284 19.5 25.5 18.8284 25.5 18H22.5ZM25.5 10C25.5 9.17157 24.8284 8.5 24 8.5C23.1716 8.5 22.5 9.17157 22.5 10H25.5ZM38 16.5H24V19.5H38V16.5ZM10 19.5H24V16.5H10V19.5ZM25.5 18V10H22.5V18H25.5Z" fill="#5A5A5A"/>
</svg>
