<svg width="272" height="305" viewBox="0 0 272 305" fill="none" xmlns="http://www.w3.org/2000/svg">
<rect x="0.5" y="0.5" width="271" height="213" rx="29.5" fill="#FEFEFF"/>
<rect x="0.5" y="0.5" width="271" height="213" rx="29.5" stroke="#DEDEDE"/>
<path d="M38.9062 248.219V251.812H28.0312V253.625C32.8906 254.047 35.7812 255.844 35.7812 258.781C35.7812 262.141 31.9844 264.031 25.7812 264C19.4688 264.031 15.6875 262.141 15.6875 258.781C15.6875 255.828 18.6094 254.031 23.5938 253.625V251.812H12.75V248.219H38.9062ZM13.7812 243.812C19.0156 243.391 21.5625 241.703 22.375 240.031H15.125V236.5H36.5312V240.031H29.2031C30 241.719 32.5312 243.391 37.9062 243.812L36.3438 247.344C30.75 246.859 27.2812 244.859 25.7812 242.188C24.2969 244.844 20.8906 246.859 15.2812 247.344L13.7812 243.812ZM20.2812 258.781C20.25 260.016 22.0156 260.641 25.7812 260.625C29.4531 260.641 31.2656 260.016 31.2812 258.781C31.2656 257.516 29.4531 256.953 25.7812 256.938C22.0156 256.953 20.25 257.516 20.2812 258.781ZM63.25 235.312V243.125H66.9688V246.812H63.25V255.719H58.6875V235.312H63.25ZM40.1562 249.562C46.4062 247.875 49.7812 244.781 50.4375 241.094H41.4062V237.438H55.4062C55.4062 245.312 50.7188 250.719 42 253.094L40.1562 249.562ZM44.375 263.531V253.625H48.9375V259.938H64.125V263.531H44.375ZM73.25 236.625V239.812H78.3438V236.625H82.8438V249.156H68.8125V236.625H73.25ZM71.6562 254.25V250.812H90.9062V258.875H76.125V260.312H91.6562V263.844H71.6875V255.688H86.4062V254.25H71.6562ZM73.25 245.656H78.3438V243.156H73.25V245.656ZM86.4062 249.844V235.312H90.9062V240.688H94.625V244.312H90.9062V249.844H86.4062ZM121.938 257.344V260.938H95.7188V257.344H101.969V252.344H97.8125V248.75H101.469V241.094H97.6875V237.5H119.844V241.094H115.969V248.75H119.688V252.344H115.594V257.344H121.938ZM105.969 248.75H111.531V241.094H105.969V248.75ZM106.469 257.344H111.062V252.344H106.469V257.344Z" fill="#4C4C4C"/>
<path d="M13.5 299V297.125L19.3828 291.195C21.2461 289.262 22.1719 288.184 22.1719 286.695C22.1719 285.02 20.8125 283.953 19.0312 283.953C17.1445 283.953 15.9492 285.148 15.9375 286.953H13.5C13.4766 283.848 15.8438 281.797 19.0781 281.797C22.3477 281.797 24.6094 283.871 24.6328 286.625C24.6094 288.523 23.7188 290.035 20.5312 293.164L17.0859 296.656V296.797H24.9141V299H13.5ZM33.6797 299.234C29.7539 299.234 27.4453 296.07 27.4453 290.516C27.4453 284.996 29.7773 281.797 33.6797 281.797C37.5703 281.797 39.9023 284.996 39.9141 290.516C39.9023 296.07 37.6055 299.234 33.6797 299.234ZM30.0234 290.516C30.0117 294.746 31.3828 297.008 33.6797 297.008C35.9648 297.008 37.3359 294.746 37.3359 290.516C37.3359 286.297 35.9531 283.988 33.6797 283.977C31.3945 283.988 30.0234 286.297 30.0234 290.516ZM42.5859 299V297.125L48.4688 291.195C50.332 289.262 51.2578 288.184 51.2578 286.695C51.2578 285.02 49.8984 283.953 48.1172 283.953C46.2305 283.953 45.0352 285.148 45.0234 286.953H42.5859C42.5625 283.848 44.9297 281.797 48.1641 281.797C51.4336 281.797 53.6953 283.871 53.7188 286.625C53.6953 288.523 52.8047 290.035 49.6172 293.164L46.1719 296.656V296.797H54V299H42.5859ZM56.1094 295.695V293.609L63.6094 282.031H66.7969V293.516H69.1172V295.695H66.7969V299H64.3594V295.695H56.1094ZM58.8281 293.516H64.3594V285.102H64.1719L58.8281 293.375V293.516ZM72.75 299.164C71.8359 299.152 71.0742 298.414 71.0859 297.5C71.0742 296.586 71.8359 295.836 72.75 295.836C73.6523 295.836 74.4023 296.586 74.4141 297.5C74.4023 298.414 73.6523 299.152 72.75 299.164ZM82.6875 299.234C78.7617 299.234 76.4531 296.07 76.4531 290.516C76.4531 284.996 78.7852 281.797 82.6875 281.797C86.5781 281.797 88.9102 284.996 88.9219 290.516C88.9102 296.07 86.6133 299.234 82.6875 299.234ZM79.0312 290.516C79.0195 294.746 80.3906 297.008 82.6875 297.008C84.9727 297.008 86.3438 294.746 86.3438 290.516C86.3438 286.297 84.9609 283.988 82.6875 283.977C80.4023 283.988 79.0312 286.297 79.0312 290.516ZM97.5234 299.234C93.832 299.234 91.2656 297.242 91.2891 294.477C91.2656 292.297 92.8242 290.516 94.8281 290.211V290.117C93.082 289.719 91.9219 288.172 91.9219 286.32C91.9219 283.707 94.2773 281.797 97.5234 281.797C100.723 281.797 103.09 283.707 103.102 286.32C103.09 288.172 101.906 289.719 100.195 290.117V290.211C102.176 290.516 103.746 292.297 103.758 294.477C103.746 297.242 101.156 299.234 97.5234 299.234ZM93.9141 294.289C93.8789 295.953 95.2852 297.102 97.5234 297.102C99.7266 297.102 101.133 295.953 101.133 294.289C101.133 292.543 99.6094 291.266 97.5234 291.266C95.4141 291.266 93.8789 292.543 93.9141 294.289ZM94.4297 286.555C94.4414 288.137 95.707 289.238 97.5234 289.227C99.293 289.238 100.582 288.148 100.57 286.555C100.582 284.973 99.3398 283.895 97.5234 283.906C95.6602 283.895 94.4414 284.973 94.4297 286.555ZM107.578 299.164C106.664 299.152 105.902 298.414 105.914 297.5C105.902 296.586 106.664 295.836 107.578 295.836C108.48 295.836 109.23 296.586 109.242 297.5C109.23 298.414 108.48 299.152 107.578 299.164ZM112.242 299V297.125L118.125 291.195C119.988 289.262 120.914 288.184 120.914 286.695C120.914 285.02 119.555 283.953 117.773 283.953C115.887 283.953 114.691 285.148 114.68 286.953H112.242C112.219 283.848 114.586 281.797 117.82 281.797C121.09 281.797 123.352 283.871 123.375 286.625C123.352 288.523 122.461 290.035 119.273 293.164L115.828 296.656V296.797H123.656V299H112.242ZM132.281 299.234C129.07 299.234 126.656 297.277 126.539 294.57H129.047C129.188 296.012 130.57 297.066 132.281 297.078C134.344 297.066 135.82 295.578 135.82 293.562C135.82 291.5 134.297 290 132.164 289.977C130.805 289.977 129.762 290.434 129.188 291.477H126.75L127.852 282.031H137.461V284.234H129.984L129.422 288.992H129.586C130.289 288.312 131.484 287.855 132.773 287.844C135.973 287.855 138.328 290.223 138.328 293.492C138.328 296.832 135.82 299.234 132.281 299.234Z" fill="#4C4C4C"/>
<path d="M103.125 90.625H159.075C160.755 90.625 161.595 90.625 162.237 90.952C162.801 91.2396 163.26 91.6985 163.548 92.263C163.875 92.9048 163.875 93.7448 163.875 95.425V97.375H103.125V90.625Z" fill="#E3B6B6"/>
<path d="M103.125 104.125H163.875V129.7C163.875 131.38 163.875 132.22 163.548 132.862C163.26 133.426 162.801 133.885 162.237 134.173C161.595 134.5 160.755 134.5 159.075 134.5H107.925C106.245 134.5 105.405 134.5 104.763 134.173C104.199 133.885 103.74 133.426 103.452 132.862C103.125 132.22 103.125 131.38 103.125 129.7V104.125Z" fill="#E3B6B6"/>
<path d="M103.125 84.5C103.125 82.6144 103.125 81.6716 103.711 81.0858C104.297 80.5 105.239 80.5 107.125 80.5H125.093C125.911 80.5 126.319 80.5 126.687 80.6522C127.054 80.8045 127.344 81.0935 127.922 81.6716L136.875 90.625H103.125V84.5Z" fill="#E3B6B6"/>
</svg>
