<svg width="314" height="326" viewBox="0 0 314 326" fill="none" xmlns="http://www.w3.org/2000/svg">
<g filter="url(#filter0_d_1301_4401)">
<rect x="21" y="21" width="272" height="214" rx="30" fill="#FEFEFF"/>
<rect x="21.5" y="21.5" width="271" height="213" rx="29.5" stroke="#DEDEDE"/>
</g>
<path d="M59.9062 269.219V272.812H49.0312V274.625C53.8906 275.047 56.7812 276.844 56.7812 279.781C56.7812 283.141 52.9844 285.031 46.7812 285C40.4688 285.031 36.6875 283.141 36.6875 279.781C36.6875 276.828 39.6094 275.031 44.5938 274.625V272.812H33.75V269.219H59.9062ZM34.7812 264.812C40.0156 264.391 42.5625 262.703 43.375 261.031H36.125V257.5H57.5312V261.031H50.2031C51 262.719 53.5312 264.391 58.9062 264.812L57.3438 268.344C51.75 267.859 48.2812 265.859 46.7812 263.188C45.2969 265.844 41.8906 267.859 36.2812 268.344L34.7812 264.812ZM41.2812 279.781C41.25 281.016 43.0156 281.641 46.7812 281.625C50.4531 281.641 52.2656 281.016 52.2812 279.781C52.2656 278.516 50.4531 277.953 46.7812 277.938C43.0156 277.953 41.25 278.516 41.2812 279.781ZM84.25 256.312V264.125H87.9688V267.812H84.25V276.719H79.6875V256.312H84.25ZM61.1562 270.562C67.4062 268.875 70.7812 265.781 71.4375 262.094H62.4062V258.438H76.4062C76.4062 266.312 71.7188 271.719 63 274.094L61.1562 270.562ZM65.375 284.531V274.625H69.9375V280.938H85.125V284.531H65.375ZM94.25 257.625V260.812H99.3438V257.625H103.844V270.156H89.8125V257.625H94.25ZM92.6562 275.25V271.812H111.906V279.875H97.125V281.312H112.656V284.844H92.6875V276.688H107.406V275.25H92.6562ZM94.25 266.656H99.3438V264.156H94.25V266.656ZM107.406 270.844V256.312H111.906V261.688H115.625V265.312H111.906V270.844H107.406ZM142.938 278.344V281.938H116.719V278.344H122.969V273.344H118.812V269.75H122.469V262.094H118.688V258.5H140.844V262.094H136.969V269.75H140.688V273.344H136.594V278.344H142.938ZM126.969 269.75H132.531V262.094H126.969V269.75ZM127.469 278.344H132.062V273.344H127.469V278.344Z" fill="#4C4C4C"/>
<path d="M34.5 320V318.125L40.3828 312.195C42.2461 310.262 43.1719 309.184 43.1719 307.695C43.1719 306.02 41.8125 304.953 40.0312 304.953C38.1445 304.953 36.9492 306.148 36.9375 307.953H34.5C34.4766 304.848 36.8438 302.797 40.0781 302.797C43.3477 302.797 45.6094 304.871 45.6328 307.625C45.6094 309.523 44.7188 311.035 41.5312 314.164L38.0859 317.656V317.797H45.9141V320H34.5ZM54.6797 320.234C50.7539 320.234 48.4453 317.07 48.4453 311.516C48.4453 305.996 50.7773 302.797 54.6797 302.797C58.5703 302.797 60.9023 305.996 60.9141 311.516C60.9023 317.07 58.6055 320.234 54.6797 320.234ZM51.0234 311.516C51.0117 315.746 52.3828 318.008 54.6797 318.008C56.9648 318.008 58.3359 315.746 58.3359 311.516C58.3359 307.297 56.9531 304.988 54.6797 304.977C52.3945 304.988 51.0234 307.297 51.0234 311.516ZM63.5859 320V318.125L69.4688 312.195C71.332 310.262 72.2578 309.184 72.2578 307.695C72.2578 306.02 70.8984 304.953 69.1172 304.953C67.2305 304.953 66.0352 306.148 66.0234 307.953H63.5859C63.5625 304.848 65.9297 302.797 69.1641 302.797C72.4336 302.797 74.6953 304.871 74.7188 307.625C74.6953 309.523 73.8047 311.035 70.6172 314.164L67.1719 317.656V317.797H75V320H63.5859ZM77.1094 316.695V314.609L84.6094 303.031H87.7969V314.516H90.1172V316.695H87.7969V320H85.3594V316.695H77.1094ZM79.8281 314.516H85.3594V306.102H85.1719L79.8281 314.375V314.516ZM93.75 320.164C92.8359 320.152 92.0742 319.414 92.0859 318.5C92.0742 317.586 92.8359 316.836 93.75 316.836C94.6523 316.836 95.4023 317.586 95.4141 318.5C95.4023 319.414 94.6523 320.152 93.75 320.164ZM103.688 320.234C99.7617 320.234 97.4531 317.07 97.4531 311.516C97.4531 305.996 99.7852 302.797 103.688 302.797C107.578 302.797 109.91 305.996 109.922 311.516C109.91 317.07 107.613 320.234 103.688 320.234ZM100.031 311.516C100.02 315.746 101.391 318.008 103.688 318.008C105.973 318.008 107.344 315.746 107.344 311.516C107.344 307.297 105.961 304.988 103.688 304.977C101.402 304.988 100.031 307.297 100.031 311.516ZM118.523 320.234C114.832 320.234 112.266 318.242 112.289 315.477C112.266 313.297 113.824 311.516 115.828 311.211V311.117C114.082 310.719 112.922 309.172 112.922 307.32C112.922 304.707 115.277 302.797 118.523 302.797C121.723 302.797 124.09 304.707 124.102 307.32C124.09 309.172 122.906 310.719 121.195 311.117V311.211C123.176 311.516 124.746 313.297 124.758 315.477C124.746 318.242 122.156 320.234 118.523 320.234ZM114.914 315.289C114.879 316.953 116.285 318.102 118.523 318.102C120.727 318.102 122.133 316.953 122.133 315.289C122.133 313.543 120.609 312.266 118.523 312.266C116.414 312.266 114.879 313.543 114.914 315.289ZM115.43 307.555C115.441 309.137 116.707 310.238 118.523 310.227C120.293 310.238 121.582 309.148 121.57 307.555C121.582 305.973 120.34 304.895 118.523 304.906C116.66 304.895 115.441 305.973 115.43 307.555ZM128.578 320.164C127.664 320.152 126.902 319.414 126.914 318.5C126.902 317.586 127.664 316.836 128.578 316.836C129.48 316.836 130.23 317.586 130.242 318.5C130.23 319.414 129.48 320.152 128.578 320.164ZM133.242 320V318.125L139.125 312.195C140.988 310.262 141.914 309.184 141.914 307.695C141.914 306.02 140.555 304.953 138.773 304.953C136.887 304.953 135.691 306.148 135.68 307.953H133.242C133.219 304.848 135.586 302.797 138.82 302.797C142.09 302.797 144.352 304.871 144.375 307.625C144.352 309.523 143.461 311.035 140.273 314.164L136.828 317.656V317.797H144.656V320H133.242ZM153.281 320.234C150.07 320.234 147.656 318.277 147.539 315.57H150.047C150.188 317.012 151.57 318.066 153.281 318.078C155.344 318.066 156.82 316.578 156.82 314.562C156.82 312.5 155.297 311 153.164 310.977C151.805 310.977 150.762 311.434 150.188 312.477H147.75L148.852 303.031H158.461V305.234H150.984L150.422 309.992H150.586C151.289 309.312 152.484 308.855 153.773 308.844C156.973 308.855 159.328 311.223 159.328 314.492C159.328 317.832 156.82 320.234 153.281 320.234Z" fill="#4C4C4C"/>
<path d="M124.125 111.625H180.075C181.755 111.625 182.595 111.625 183.237 111.952C183.801 112.24 184.26 112.699 184.548 113.263C184.875 113.905 184.875 114.745 184.875 116.425V118.375H124.125V111.625Z" fill="#E3B6B6"/>
<path d="M124.125 125.125H184.875V150.7C184.875 152.38 184.875 153.22 184.548 153.862C184.26 154.426 183.801 154.885 183.237 155.173C182.595 155.5 181.755 155.5 180.075 155.5H128.925C127.245 155.5 126.405 155.5 125.763 155.173C125.199 154.885 124.74 154.426 124.452 153.862C124.125 153.22 124.125 152.38 124.125 150.7V125.125Z" fill="#E3B6B6"/>
<path d="M124.125 105.5C124.125 103.614 124.125 102.672 124.711 102.086C125.297 101.5 126.239 101.5 128.125 101.5H146.093C146.911 101.5 147.319 101.5 147.687 101.652C148.054 101.804 148.344 102.094 148.922 102.672L157.875 111.625H124.125V105.5Z" fill="#E3B6B6"/>
<defs>
<filter id="filter0_d_1301_4401" x="0.700001" y="0.700001" width="312.6" height="254.6" filterUnits="userSpaceOnUse" color-interpolation-filters="sRGB">
<feFlood flood-opacity="0" result="BackgroundImageFix"/>
<feColorMatrix in="SourceAlpha" type="matrix" values="0 0 0 0 0 0 0 0 0 0 0 0 0 0 0 0 0 0 127 0" result="hardAlpha"/>
<feOffset/>
<feGaussianBlur stdDeviation="10.15"/>
<feComposite in2="hardAlpha" operator="out"/>
<feColorMatrix type="matrix" values="0 0 0 0 0 0 0 0 0 0 0 0 0 0 0 0 0 0 0.07 0"/>
<feBlend mode="normal" in2="BackgroundImageFix" result="effect1_dropShadow_1301_4401"/>
<feBlend mode="normal" in="SourceGraphic" in2="effect1_dropShadow_1301_4401" result="shape"/>
</filter>
</defs>
</svg>
