<svg width="296" height="234" viewBox="0 0 296 234" fill="none" xmlns="http://www.w3.org/2000/svg">
<g filter="url(#filter0_d_809_2115)">
<rect x="10.5" y="10.5" width="275" height="213" rx="21.5" stroke="#C3C3C3" stroke-dasharray="2 2" shape-rendering="crispEdges"/>
<path d="M91.5 111L91.5 123" stroke="#ADADAD" stroke-width="3" stroke-linecap="round"/>
<path d="M97.5 117L85.5 117" stroke="#ADADAD" stroke-width="3" stroke-linecap="round"/>
<path d="M109.809 112.438C109.799 115.484 110.639 118.375 113.148 119.703L111.684 121.676C110.141 120.836 109.154 119.4 108.568 117.643C107.934 119.605 106.859 121.246 105.258 122.203L103.695 120.387C106.361 118.795 107.377 115.621 107.387 112.613V109.547H109.809V112.438ZM113.168 124.977V108.277H115.512V114.957H117.055V108.023H119.438V125.797H117.055V116.949H115.512V124.977H113.168ZM140.688 108.453V110.289H138.363V112.633H140.57V114.488H135.258V115.602H142.133V117.535H125.922V115.602H132.758V114.488H127.465V112.633H129.652V110.289H127.348V108.453H140.688ZM127.797 120.25V118.473H140.16V122.828H130.258V123.844H140.629V125.68H127.816V121.148H137.699V120.25H127.797ZM132.152 112.633H135.863V110.289H132.152V112.633ZM152.152 109.586V111.617H146.566V119.508C149.154 119.479 151.02 119.361 153.109 118.98L153.363 120.992C150.922 121.461 148.773 121.559 145.492 121.539H144.047V109.586H152.152ZM151.273 116.207V114.176H155.746V108.023H158.227V125.836H155.746V116.207H151.273ZM174.164 109.488V118.023H165.629V109.488H174.164ZM167.68 125.484V119.723H170.16V123.492H179.848V125.484H167.68ZM168.09 116.07H171.703V111.48H168.09V116.07ZM176.703 120.992V108.023H179.203V113.141H181.605V115.191H179.203V120.992H176.703ZM198.637 114.957V116.91H182.387V114.957H198.637ZM184.262 119.84V117.965H196.625V122.613H186.723V123.707H197.094V125.641H184.281V120.836H194.164V119.84H184.262ZM184.418 113.98V108.375H196.566V110.367H186.898V112.027H196.703V113.98H184.418ZM214.613 108.023V125.797H212.094V108.023H214.613ZM199.73 120.758C204.32 118.59 206.342 115.777 206.742 111.832H200.688V109.879H209.281C209.271 115.27 207.387 119.752 201.039 122.75L199.73 120.758Z" fill="#B8B8B8"/>
</g>
<defs>
<filter id="filter0_d_809_2115" x="0.1" y="0.1" width="295.8" height="233.8" filterUnits="userSpaceOnUse" color-interpolation-filters="sRGB">
<feFlood flood-opacity="0" result="BackgroundImageFix"/>
<feColorMatrix in="SourceAlpha" type="matrix" values="0 0 0 0 0 0 0 0 0 0 0 0 0 0 0 0 0 0 127 0" result="hardAlpha"/>
<feOffset/>
<feGaussianBlur stdDeviation="4.95"/>
<feComposite in2="hardAlpha" operator="out"/>
<feColorMatrix type="matrix" values="0 0 0 0 0 0 0 0 0 0 0 0 0 0 0 0 0 0 0.41 0"/>
<feBlend mode="normal" in2="BackgroundImageFix" result="effect1_dropShadow_809_2115"/>
<feBlend mode="normal" in="SourceGraphic" in2="effect1_dropShadow_809_2115" result="shape"/>
</filter>
</defs>
</svg>
