<svg width="276" height="214" viewBox="0 0 276 214" fill="none" xmlns="http://www.w3.org/2000/svg">
<rect x="0.5" y="0.5" width="275" height="213" rx="21.5" stroke="#C3C3C3" stroke-dasharray="2 2"/>
<path d="M81.5 101L81.5 113" stroke="#ADADAD" stroke-width="3" stroke-linecap="round"/>
<path d="M87.5 107L75.5 107" stroke="#ADADAD" stroke-width="3" stroke-linecap="round"/>
<path d="M99.8086 102.438C99.7988 105.484 100.639 108.375 103.148 109.703L101.684 111.676C100.141 110.836 99.1543 109.4 98.5684 107.643C97.9336 109.605 96.8594 111.246 95.2578 112.203L93.6953 110.387C96.3613 108.795 97.377 105.621 97.3867 102.613V99.5469H99.8086V102.438ZM103.168 114.977V98.2773H105.512V104.957H107.055V98.0234H109.438V115.797H107.055V106.949H105.512V114.977H103.168ZM130.688 98.4531V100.289H128.363V102.633H130.57V104.488H125.258V105.602H132.133V107.535H115.922V105.602H122.758V104.488H117.465V102.633H119.652V100.289H117.348V98.4531H130.688ZM117.797 110.25V108.473H130.16V112.828H120.258V113.844H130.629V115.68H117.816V111.148H127.699V110.25H117.797ZM122.152 102.633H125.863V100.289H122.152V102.633ZM142.152 99.5859V101.617H136.566V109.508C139.154 109.479 141.02 109.361 143.109 108.98L143.363 110.992C140.922 111.461 138.773 111.559 135.492 111.539H134.047V99.5859H142.152ZM141.273 106.207V104.176H145.746V98.0234H148.227V115.836H145.746V106.207H141.273ZM164.164 99.4883V108.023H155.629V99.4883H164.164ZM157.68 115.484V109.723H160.16V113.492H169.848V115.484H157.68ZM158.09 106.07H161.703V101.48H158.09V106.07ZM166.703 110.992V98.0234H169.203V103.141H171.605V105.191H169.203V110.992H166.703ZM188.637 104.957V106.91H172.387V104.957H188.637ZM174.262 109.84V107.965H186.625V112.613H176.723V113.707H187.094V115.641H174.281V110.836H184.164V109.84H174.262ZM174.418 103.98V98.375H186.566V100.367H176.898V102.027H186.703V103.98H174.418ZM204.613 98.0234V115.797H202.094V98.0234H204.613ZM189.73 110.758C194.32 108.59 196.342 105.777 196.742 101.832H190.688V99.8789H199.281C199.271 105.27 197.387 109.752 191.039 112.75L189.73 110.758Z" fill="#B8B8B8"/>
</svg>
