<svg width="338" height="1031" viewBox="0 0 338 1031" fill="none" xmlns="http://www.w3.org/2000/svg">
<rect width="336" height="1031" transform="translate(2)" fill="white"/>
<rect x="337" width="1031" height="337" transform="rotate(90 337 0)" fill="#ECF0FF"/>
<rect x="24.5" y="24.5" width="291" height="407" rx="18.5" fill="white"/>
<rect x="24.5" y="24.5" width="291" height="407" rx="18.5" stroke="#C9C9C9"/>
<path fill-rule="evenodd" clip-rule="evenodd" d="M170.5 112.5C171.765 114.728 175.5 119 178 110C180.5 118.5 184.235 114.728 185.5 112.5L183.6 119H172.4L170.5 112.5Z" fill="#FAE69B" stroke="#FAE69B" stroke-width="1.5" stroke-linecap="round" stroke-linejoin="round"/>
<path d="M74.1406 56.0469V58.4375H66.8047V60.1016H73.5078V62.3984H66.8047V64.1562C70.5664 64.1445 72.9453 64.0859 75.6406 63.6406L75.9453 65.9609C72.9102 66.4883 70.1914 66.5352 65.6328 66.5234H63.8047V56.0469H74.1406ZM66.1953 75.9219V68.375H80.4922V75.9219H66.1953ZM69.1484 73.5312H77.5625V70.6953H69.1484V73.5312ZM77.4922 67.5078V54.8516H80.4922V67.5078H77.4922ZM101.445 54.8516V70.9531H98.4453V69.2656H94.3672V67.2266H98.4453V54.8516H101.445ZM83.3047 64.2969C87.207 64.2734 92.4805 64.2148 96.9922 63.6641L97.1562 65.7969C95.4688 66.0781 93.7227 66.2773 92 66.4062V70.4609H89V73.3906H101.914V75.7812H86.0234V69.4062H89V66.582C87.0898 66.6523 85.2734 66.6641 83.6562 66.6641L83.3047 64.2969ZM84.875 59.3984C84.875 57.125 87.0664 55.5664 90.2422 55.5781C93.3359 55.5664 95.5508 57.125 95.5625 59.3984C95.5508 61.6836 93.3359 63.1602 90.2422 63.1484C87.0664 63.1602 84.875 61.6836 84.875 59.3984ZM87.7109 59.3984C87.6992 60.4297 88.7188 61.0039 90.2422 60.9922C91.6719 61.0039 92.7031 60.4297 92.7266 59.3984C92.7031 58.3438 91.6719 57.7578 90.2422 57.7578C88.7188 57.7578 87.6992 58.3438 87.7109 59.3984Z" fill="black"/>
<rect x="56" y="95" width="42" height="42" rx="21" fill="#E6E6E6"/>
<path fill-rule="evenodd" clip-rule="evenodd" d="M80.7154 119H73.2844C71.0973 119.109 69.1596 120.444 68.2804 122.45C67.2199 124.532 69.3364 126.5 71.7979 126.5H82.2019C84.6649 126.5 86.7814 124.532 85.7194 122.45C84.8402 120.444 82.9025 119.109 80.7154 119Z" fill="#8D8D8D" stroke="#8D8D8D" stroke-width="1.5" stroke-linecap="round" stroke-linejoin="round"/>
<path fill-rule="evenodd" clip-rule="evenodd" d="M81.5 110C81.5 112.485 79.4853 114.5 77 114.5C74.5147 114.5 72.5 112.485 72.5 110C72.5 107.515 74.5147 105.5 77 105.5C78.1935 105.5 79.3381 105.974 80.182 106.818C81.0259 107.662 81.5 108.807 81.5 110Z" fill="#8D8D8D" stroke="#8D8D8D" stroke-width="1.5" stroke-linecap="round" stroke-linejoin="round"/>
<path d="M122.961 108.059C122.961 112.746 119.895 115.949 114.582 117.316L113.625 115.383C117.629 114.357 119.895 112.385 120.285 109.992H114.66V108.059H122.961ZM116.555 124.582V117.688H128.41V124.582H116.555ZM119.035 122.629H125.969V119.641H119.035V122.629ZM125.91 116.965V107.043H128.41V116.965H125.91ZM146.32 107.023V124.797H143.938V115.891H142.434V123.977H140.07V118.889L138.664 120.754C137.014 119.885 135.949 118.41 135.314 116.604C134.729 118.684 133.684 120.383 131.984 121.398L130.441 119.484C133.146 117.961 134.045 114.816 134.055 111.418V110.852H131.047V108.859H139.191V110.852H136.477V111.418C136.477 114.514 137.395 117.463 140.07 118.85V107.277H142.434V113.859H143.938V107.023H146.32ZM163.586 109.27V111.262H148.801V109.27H154.953V107.199H157.414V109.27H163.586ZM148.098 122.98V120.988H154.953V118.947C151.926 118.674 150.09 117.434 150.109 115.48C150.09 113.322 152.424 112.033 156.184 112.043C159.875 112.033 162.248 113.322 162.238 115.48C162.248 117.434 160.393 118.674 157.414 118.938V120.988H164.367V122.98H148.098ZM152.668 115.48C152.658 116.535 153.879 117.014 156.184 117.004C158.439 117.014 159.68 116.535 159.68 115.48C159.68 114.465 158.439 113.986 156.184 113.977C153.879 113.986 152.658 114.465 152.668 115.48Z" fill="black"/>
<rect x="56" y="153" width="42" height="42" rx="21" fill="#E6E6E6"/>
<path fill-rule="evenodd" clip-rule="evenodd" d="M80.7154 177H73.2844C71.0973 177.109 69.1596 178.444 68.2804 180.45C67.2199 182.532 69.3364 184.5 71.7979 184.5H82.2019C84.6649 184.5 86.7814 182.532 85.7194 180.45C84.8402 178.444 82.9025 177.109 80.7154 177Z" fill="#8D8D8D" stroke="#8D8D8D" stroke-width="1.5" stroke-linecap="round" stroke-linejoin="round"/>
<path fill-rule="evenodd" clip-rule="evenodd" d="M81.5 168C81.5 170.485 79.4853 172.5 77 172.5C74.5147 172.5 72.5 170.485 72.5 168C72.5 165.515 74.5147 163.5 77 163.5C78.1935 163.5 79.3381 163.974 80.182 164.818C81.0259 165.662 81.5 166.807 81.5 168Z" fill="#8D8D8D" stroke="#8D8D8D" stroke-width="1.5" stroke-linecap="round" stroke-linejoin="round"/>
<path d="M122.961 166.059C122.961 170.746 119.895 173.949 114.582 175.316L113.625 173.383C117.629 172.357 119.895 170.385 120.285 167.992H114.66V166.059H122.961ZM116.555 182.582V175.688H128.41V182.582H116.555ZM119.035 180.629H125.969V177.641H119.035V180.629ZM125.91 174.965V165.043H128.41V174.965H125.91ZM147.062 173.422V175.375H130.812V173.422H137.727V171.898H132.785V165.805H145.109V167.738H135.266V169.945H145.207V171.898H140.168V173.422H147.062ZM132.668 179.555C132.668 177.445 135.012 176.273 138.898 176.273C142.756 176.273 145.07 177.445 145.09 179.555C145.07 181.635 142.756 182.816 138.898 182.816C135.012 182.816 132.668 181.635 132.668 179.555ZM135.207 179.555C135.197 180.482 136.438 180.922 138.898 180.922C141.311 180.922 142.58 180.482 142.59 179.555C142.58 178.637 141.311 178.168 138.898 178.168C136.438 178.168 135.197 178.637 135.207 179.555ZM163.078 165.043V178.109H160.598V172.289H156.184V170.336H160.598V168.969H156.184V167.016H160.598V165.043H163.078ZM149.094 175.805V166.156H151.555V173.754C153.723 173.725 155.773 173.588 157.98 173.188L158.234 175.199C155.568 175.707 153.176 175.795 150.52 175.805H149.094ZM151.262 182.484V176.938H153.762V180.492H163.508V182.484H151.262Z" fill="black"/>
<rect x="56" y="211" width="42" height="42" rx="21" fill="#E6E6E6"/>
<path fill-rule="evenodd" clip-rule="evenodd" d="M80.7154 235H73.2844C71.0973 235.109 69.1596 236.444 68.2804 238.45C67.2199 240.532 69.3364 242.5 71.7979 242.5H82.2019C84.6649 242.5 86.7814 240.532 85.7194 238.45C84.8402 236.444 82.9025 235.109 80.7154 235Z" fill="#8D8D8D" stroke="#8D8D8D" stroke-width="1.5" stroke-linecap="round" stroke-linejoin="round"/>
<path fill-rule="evenodd" clip-rule="evenodd" d="M81.5 226C81.5 228.485 79.4853 230.5 77 230.5C74.5147 230.5 72.5 228.485 72.5 226C72.5 223.515 74.5147 221.5 77 221.5C78.1935 221.5 79.3381 221.974 80.182 222.818C81.0259 223.662 81.5 224.807 81.5 226Z" fill="#8D8D8D" stroke="#8D8D8D" stroke-width="1.5" stroke-linecap="round" stroke-linejoin="round"/>
<path d="M127.629 223.023V227.379H130.031V229.391H127.629V233.707H125.129V223.023H127.629ZM114.055 232.77V224.137H116.535V226.5H120.168V224.137H122.668V232.77H114.055ZM115.656 236.461V234.488H127.629V240.797H125.129V236.461H115.656ZM116.535 230.797H120.168V228.434H116.535V230.797ZM140.949 225.152V227.125H137.355C137.375 229.107 138.645 231.129 141.535 231.949L140.305 233.941C138.322 233.365 136.945 232.145 136.154 230.611C135.363 232.271 133.967 233.59 131.926 234.234L130.676 232.262C133.547 231.393 134.865 229.264 134.875 227.125H131.301V225.152H134.875V223.141H137.395V225.152H140.949ZM133.391 240.484V235.016H135.871V238.492H145.559V240.484H133.391ZM142.414 236.168V223.023H144.914V228.297H147.316V230.309H144.914V236.168H142.414ZM155.031 226.539C155.021 228.658 156.35 230.826 159.27 231.715L158 233.668C156.008 233.033 154.611 231.754 153.811 230.152C153 231.91 151.555 233.307 149.465 234L148.176 232.047C151.135 231.1 152.492 228.785 152.492 226.539V226.285H148.84V224.293H158.605V226.285H155.031V226.539ZM151.066 240.484V234.723H153.586V238.492H163.449V240.484H151.066ZM160.48 235.895V223.043H162.98V235.895H160.48Z" fill="black"/>
<rect x="56" y="269" width="42" height="42" rx="21" fill="#E6E6E6"/>
<path fill-rule="evenodd" clip-rule="evenodd" d="M80.7154 293H73.2844C71.0973 293.109 69.1596 294.444 68.2804 296.45C67.2199 298.532 69.3364 300.5 71.7979 300.5H82.2019C84.6649 300.5 86.7814 298.532 85.7194 296.45C84.8402 294.444 82.9025 293.109 80.7154 293Z" fill="#8D8D8D" stroke="#8D8D8D" stroke-width="1.5" stroke-linecap="round" stroke-linejoin="round"/>
<path fill-rule="evenodd" clip-rule="evenodd" d="M81.5 284C81.5 286.485 79.4853 288.5 77 288.5C74.5147 288.5 72.5 286.485 72.5 284C72.5 281.515 74.5147 279.5 77 279.5C78.1935 279.5 79.3381 279.974 80.182 280.818C81.0259 281.662 81.5 282.807 81.5 284Z" fill="#8D8D8D" stroke="#8D8D8D" stroke-width="1.5" stroke-linecap="round" stroke-linejoin="round"/>
<path d="M127.902 296.492V298.484H115.48V293.328H117.98V296.492H127.902ZM113.527 292.234V290.242H120.383V287.723H122.844V290.242H129.738V292.234H113.527ZM114.387 286.863C118.303 286.316 120.334 284.168 120.344 282.078V281.531H122.883V282.078C122.873 284.275 124.836 286.355 128.84 286.863L127.883 288.816C124.885 288.338 122.697 287.039 121.584 285.203C120.471 287.029 118.312 288.367 115.363 288.816L114.387 286.863ZM145.793 281.023V291.57H143.312V287.371H140.539V285.359H143.312V281.023H145.793ZM130.695 289.617C133.605 288.641 134.934 286.316 134.992 284.09H131.418V282.098H141.066V284.09H137.531C137.58 286.16 138.85 288.25 141.613 289.168L140.383 291.121C138.43 290.486 137.072 289.197 136.301 287.605C135.52 289.412 134.094 290.867 131.984 291.59L130.695 289.617ZM133.605 295.398C133.605 293.24 135.93 291.971 139.719 291.961C143.518 291.971 145.842 293.24 145.852 295.398C145.842 297.557 143.518 298.816 139.719 298.816C135.93 298.816 133.605 297.557 133.605 295.398ZM136.086 295.398C136.086 296.414 137.365 296.922 139.719 296.922C142.082 296.922 143.361 296.414 143.371 295.398C143.361 294.373 142.082 293.865 139.719 293.875C137.365 293.865 136.086 294.373 136.086 295.398ZM157.688 282.449V291.023H148.996V282.449H157.688ZM151.066 298.406V292.508H153.586V296.395H163.449V298.406H151.066ZM151.457 289.051H155.207V284.422H151.457V289.051ZM160.48 293.68V281.043H162.98V293.68H160.48Z" fill="black"/>
<rect x="56" y="327" width="42" height="42" rx="21" fill="#E6E6E6"/>
<path fill-rule="evenodd" clip-rule="evenodd" d="M80.7154 351H73.2844C71.0973 351.109 69.1596 352.444 68.2804 354.45C67.2199 356.532 69.3364 358.5 71.7979 358.5H82.2019C84.6649 358.5 86.7814 356.532 85.7194 354.45C84.8402 352.444 82.9025 351.109 80.7154 351Z" fill="#8D8D8D" stroke="#8D8D8D" stroke-width="1.5" stroke-linecap="round" stroke-linejoin="round"/>
<path fill-rule="evenodd" clip-rule="evenodd" d="M81.5 342C81.5 344.485 79.4853 346.5 77 346.5C74.5147 346.5 72.5 344.485 72.5 342C72.5 339.515 74.5147 337.5 77 337.5C78.1935 337.5 79.3381 337.974 80.182 338.818C81.0259 339.662 81.5 340.807 81.5 342Z" fill="#8D8D8D" stroke="#8D8D8D" stroke-width="1.5" stroke-linecap="round" stroke-linejoin="round"/>
<path d="M129.738 347.441V349.434H113.527V347.441H117.18V345.312C115.881 344.736 115.148 343.857 115.148 342.715C115.148 340.566 117.678 339.287 121.633 339.277C125.559 339.287 128.088 340.566 128.098 342.715C128.088 343.877 127.336 344.766 126.008 345.332V347.441H129.738ZM115.383 353.555C115.383 351.504 117.717 350.361 121.613 350.371C125.451 350.361 127.785 351.504 127.805 353.555C127.785 355.654 125.451 356.777 121.613 356.777C117.717 356.777 115.383 355.654 115.383 353.555ZM117.746 342.715C117.727 343.691 119.123 344.189 121.633 344.18C124.113 344.189 125.52 343.691 125.52 342.715C125.52 341.719 124.113 341.191 121.633 341.191C119.123 341.191 117.727 341.719 117.746 342.715ZM117.922 353.555C117.912 354.463 119.152 354.922 121.613 354.922C124.025 354.922 125.295 354.463 125.305 353.555C125.295 352.676 124.025 352.256 121.613 352.246C119.152 352.256 117.912 352.676 117.922 353.555ZM119.699 347.441H123.527V345.947C122.941 346.025 122.307 346.055 121.633 346.055C120.939 346.055 120.295 346.016 119.699 345.947V347.441ZM136.359 344.395C136.359 347.07 137.307 349.795 139.875 351.133L138.488 352.969C136.887 352.148 135.822 350.713 135.197 348.984C134.582 350.859 133.518 352.461 131.906 353.379L130.5 351.504C133.029 350.059 133.996 347.158 134.016 344.395V344.062H131.066V342.031H134.016V339.629H136.34V342.031H139.27V344.062H136.359V344.395ZM140.07 355.977V339.277H142.434V345.859H143.938V339.023H146.32V356.797H143.938V347.891H142.434V355.977H140.07ZM153.059 339.98C154.475 339.971 155.715 340.498 156.564 341.367H160.598V339.023H163.078V349.434H160.598V347.305H156.545C155.695 348.164 154.465 348.682 153.059 348.672C150.363 348.682 148.312 346.846 148.332 344.336C148.312 341.797 150.363 339.971 153.059 339.98ZM150.695 344.336C150.686 345.703 151.672 346.572 153.059 346.562C154.396 346.572 155.373 345.703 155.383 344.336C155.373 342.92 154.396 342.1 153.059 342.109C151.672 342.1 150.686 342.92 150.695 344.336ZM150.891 353.301C150.891 351.094 153.244 349.795 157.004 349.805C160.764 349.795 163.127 351.094 163.137 353.301C163.127 355.508 160.764 356.807 157.004 356.797C153.244 356.807 150.891 355.508 150.891 353.301ZM153.332 353.301C153.332 354.336 154.65 354.863 157.004 354.863C159.406 354.863 160.686 354.336 160.695 353.301C160.686 352.236 159.406 351.709 157.004 351.699C154.65 351.709 153.332 352.236 153.332 353.301ZM157.629 343.34C157.707 343.652 157.746 343.994 157.746 344.336C157.746 344.678 157.707 345 157.639 345.312H160.598V343.34H157.629Z" fill="black"/>
<path d="M285.794 57.9588C286.053 57.6356 286.001 57.1636 285.678 56.9045C285.355 56.6455 284.883 56.6975 284.624 57.0207L285.794 57.9588ZM279.311 64.8488L279.879 65.3385C279.885 65.3317 279.891 65.3248 279.896 65.3178L279.311 64.8488ZM279.14 65.2668L278.391 65.2179L278.391 65.2321L279.14 65.2668ZM279 68.2898L278.251 68.2551C278.249 68.2923 278.25 68.3296 278.254 68.3667L279 68.2898ZM279.787 68.9768L279.812 69.7264C279.862 69.7247 279.911 69.7181 279.96 69.7065L279.787 68.9768ZM282.787 68.2658L282.96 68.9956L282.972 68.9927L282.787 68.2658ZM283.172 68.0218L283.751 68.4991L283.757 68.491L283.172 68.0218ZM289.797 60.959C290.056 60.6358 290.004 60.1638 289.681 59.9047C289.358 59.6455 288.886 59.6974 288.627 60.0206L289.797 60.959ZM284.627 57.0205C284.368 57.3437 284.42 57.8157 284.743 58.0748C285.066 58.334 285.538 58.2821 285.797 57.959L284.627 57.0205ZM286.8 55.5098L287.385 55.979C287.395 55.9667 287.404 55.9541 287.413 55.9412L286.8 55.5098ZM288.429 55.1898L288.909 54.6133C288.885 54.5934 288.86 54.5751 288.834 54.5583L288.429 55.1898ZM290.666 57.0518L291.197 56.5219C291.181 56.5056 291.164 56.4901 291.146 56.4753L290.666 57.0518ZM291.003 57.8726L291.753 57.8768L291.753 57.8768L291.003 57.8726ZM290.657 58.6898L290.132 58.1541C290.111 58.175 290.091 58.197 290.072 58.2203L290.657 58.6898ZM288.627 60.0203C288.368 60.3433 288.419 60.8153 288.742 61.0746C289.065 61.3339 289.538 61.2823 289.797 60.9593L288.627 60.0203ZM285.954 57.3786C285.892 56.969 285.51 56.6867 285.101 56.748C284.691 56.8094 284.409 57.1913 284.47 57.6009L285.954 57.3786ZM289.313 61.2329C289.723 61.1772 290.011 60.7992 289.955 60.3888C289.899 59.9783 289.521 59.6908 289.111 59.7466L289.313 61.2329ZM284.624 57.0207L278.726 64.3797L279.896 65.3178L285.794 57.9588L284.624 57.0207ZM278.743 64.359C278.536 64.5995 278.412 64.9011 278.392 65.218L279.888 65.3156C279.888 65.324 279.885 65.3321 279.879 65.3385L278.743 64.359ZM278.391 65.2321L278.251 68.2551L279.749 68.3245L279.889 65.3015L278.391 65.2321ZM278.254 68.3667C278.336 69.1586 279.016 69.7524 279.812 69.7264L279.762 68.2272C279.759 68.2273 279.758 68.2268 279.757 68.2264C279.755 68.2259 279.753 68.2249 279.751 68.2232C279.749 68.2215 279.748 68.2198 279.748 68.2185C279.747 68.2175 279.746 68.216 279.746 68.2128L278.254 68.3667ZM279.96 69.7065L282.96 68.9955L282.614 67.536L279.614 68.247L279.96 69.7065ZM282.972 68.9927C283.277 68.9151 283.55 68.7422 283.751 68.499L282.593 67.5445C282.596 67.5417 282.599 67.5397 282.602 67.5388L282.972 68.9927ZM283.757 68.491L289.797 60.959L288.627 60.0206L282.587 67.5526L283.757 68.491ZM285.797 57.959L287.385 55.979L286.215 55.0405L284.627 57.0205L285.797 57.959ZM287.413 55.9412C287.552 55.7441 287.821 55.6912 288.024 55.8212L288.834 54.5583C287.954 53.9948 286.787 54.2241 286.187 55.0783L287.413 55.9412ZM287.949 55.7662L290.186 57.6282L291.146 56.4753L288.909 54.6133L287.949 55.7662ZM290.135 57.5816C290.211 57.6577 290.254 57.761 290.253 57.8685L291.753 57.8768C291.756 57.369 291.556 56.8813 291.197 56.5219L290.135 57.5816ZM290.253 57.8685C290.252 57.976 290.209 58.0789 290.132 58.1541L291.182 59.2254C291.545 58.87 291.75 58.3845 291.753 57.8768L290.253 57.8685ZM290.072 58.2203L288.627 60.0203L289.797 60.9593L291.242 59.1593L290.072 58.2203ZM284.47 57.6009C284.82 59.9322 286.977 61.5503 289.313 61.2329L289.111 59.7466C287.588 59.9535 286.181 58.8986 285.954 57.3786L284.47 57.6009Z" fill="#7C7C7C"/>
<rect x="20.5" y="462.5" width="285" height="512" rx="18.5" fill="white"/>
<rect x="20.5" y="462.5" width="285" height="512" rx="18.5" stroke="#BFBFBF"/>
<path d="M69.7969 708.734V710.824H53.5273V708.734H60.3633V705.531H54.875V703.578H57.2578V698.5H54.7969V696.508H68.4297V698.5H65.9297V703.578H68.3516V705.531H62.8438V708.734H69.7969ZM59.7578 703.578H63.4688V698.5H59.7578V703.578ZM77.707 699.867C77.6973 702.738 79.1816 705.814 82.1602 707.055L80.8125 709.008C78.7227 708.119 77.2773 706.352 76.4766 704.203C75.6758 706.537 74.2012 708.49 72.1016 709.457L70.6758 707.484C73.625 706.166 75.1484 702.875 75.1484 699.867V698.773H71.3789V696.742H81.418V698.773H77.707V699.867ZM83.1758 712.797V695.023H85.6953V712.797H83.1758ZM94.7578 698.09C94.7578 700.551 95.9785 702.982 98.7812 704.027L97.3945 705.961C95.5293 705.229 94.25 703.822 93.5176 702.074C92.7461 703.939 91.3691 705.414 89.3477 706.176L88.0195 704.223C90.9395 703.188 92.2285 700.697 92.2383 698.09V696.039H94.7578V698.09ZM91.2422 712.484V706.957H93.7617V710.492H103.449V712.484H91.2422ZM97.5508 702.797V700.785H100.598V699.359H97.5508V697.348H100.598V695.043H103.078V708.227H100.598V702.797H97.5508Z" fill="black"/>
<path d="M46.5 723.5H269.5V774C269.5 778.142 266.142 781.5 262 781.5H54C49.8579 781.5 46.5 778.142 46.5 774V723.5Z" fill="#FBFBFB" stroke="#ECECEC"/>
<path d="M71.4453 760V745.859H80.2148V747.715H73.5938V751.992H79.5898V753.828H73.5938V760H71.4453ZM82.3047 760V749.395H84.3164V751.074H84.4336C84.8242 749.941 85.8887 749.229 87.1289 749.238C87.3828 749.229 87.793 749.258 88.0078 749.277V751.27C87.832 751.23 87.3438 751.143 86.9141 751.152C85.4688 751.143 84.3945 752.148 84.3945 753.535V760H82.3047ZM93.7109 760.215C90.7031 760.215 88.7402 758.027 88.75 754.746C88.7402 751.445 90.7031 749.258 93.7109 749.258C96.6992 749.258 98.6523 751.445 98.6523 754.746C98.6523 758.027 96.6992 760.215 93.7109 760.215ZM90.8398 754.746C90.8398 756.768 91.7676 758.477 93.7109 758.477C95.625 758.477 96.543 756.768 96.543 754.746C96.543 752.715 95.625 750.986 93.7109 750.977C91.7676 750.986 90.8398 752.715 90.8398 754.746ZM102.793 753.711V760H100.703V749.395H102.715V751.133H102.832C103.33 749.99 104.375 749.258 105.957 749.258C108.135 749.258 109.58 750.635 109.57 753.262V760H107.5V753.516C107.49 751.973 106.66 751.055 105.254 751.055C103.818 751.055 102.793 752.021 102.793 753.711ZM117.07 749.395V751.055H114.902V756.875C114.912 758.076 115.498 758.291 116.172 758.301C116.475 758.301 116.934 758.271 117.227 758.242V760.059C116.943 760.098 116.494 760.137 115.918 760.137C114.287 760.137 112.812 759.238 112.832 757.305V751.055H111.27V749.395H112.832V746.855H114.902V749.395H117.07ZM123.555 760.215C120.43 760.215 118.506 758.057 118.516 754.766C118.506 751.504 120.459 749.258 123.418 749.258C125.83 749.258 128.125 750.752 128.125 754.59V755.332H120.586C120.645 757.354 121.836 758.496 123.574 758.496C124.756 758.496 125.527 757.988 125.879 757.344H127.988C127.52 759.062 125.889 760.215 123.555 760.215ZM120.596 753.77H126.074C126.074 752.158 125.029 750.967 123.438 750.977C121.768 750.967 120.684 752.275 120.596 753.77ZM132.285 753.711V760H130.195V749.395H132.207V751.133H132.324C132.822 749.99 133.867 749.258 135.449 749.258C137.627 749.258 139.072 750.635 139.062 753.262V760H136.992V753.516C136.982 751.973 136.152 751.055 134.746 751.055C133.311 751.055 132.285 752.021 132.285 753.711ZM145.566 760.215C143.008 760.205 141.133 758.145 141.133 754.727C141.133 751.27 143.037 749.258 145.586 749.258C147.559 749.258 148.271 750.449 148.652 751.113H148.75V745.859H150.84V760H148.809V758.34H148.652C148.262 759.033 147.5 760.205 145.566 760.215ZM143.262 754.688C143.252 756.816 144.209 758.428 146.035 758.438C147.812 758.428 148.809 756.914 148.809 754.688C148.809 752.48 147.832 751.025 146.035 751.035C144.189 751.025 143.252 752.598 143.262 754.688Z" fill="#535353"/>
<path d="M54 610.5H262C266.142 610.5 269.5 613.858 269.5 618V668.5H46.5V618C46.5 613.858 49.8579 610.5 54 610.5Z" fill="#FBFBFB" stroke="#ECECEC"/>
<path d="M80.0586 632.195V633.719H73.5156V635.633H79.5703V637.078H73.5156V639.109C77.0117 639.109 79.0527 639.041 81.4258 638.641L81.6211 640.125C79.0918 640.555 76.9141 640.604 73.0859 640.594H71.6406V632.195H80.0586ZM73.6523 648.445V642.41H85.1562V648.445H73.6523ZM75.4883 646.941H83.3398V643.855H75.4883V646.941ZM83.3008 641.59V631.18H85.1562V641.59H83.3008ZM94.043 634.383C94.0332 636.609 95.5859 638.641 98.2422 639.48L97.3633 640.926C95.3711 640.291 93.916 638.973 93.1445 637.312C92.3828 639.227 90.8496 640.74 88.75 641.473L87.793 639.988C90.5273 639.09 92.1777 636.834 92.1875 634.402V633.914H88.3398V632.41H97.8125V633.914H94.043V634.383ZM90.1562 645.34C90.1562 643.289 92.3926 642.088 96.0352 642.098C99.6387 642.088 101.836 643.289 101.836 645.34C101.836 647.42 99.6387 648.631 96.0352 648.621C92.3926 648.631 90.1562 647.42 90.1562 645.34ZM92.0117 645.34C92.002 646.512 93.5059 647.166 96.0352 647.156C98.5449 647.166 100.029 646.512 100.02 645.34C100.029 644.197 98.5449 643.553 96.0352 643.562C93.5059 643.553 92.002 644.197 92.0117 645.34ZM99.8242 641.668V631.16H101.68V635.496H104.219V637.02H101.68V641.668H99.8242Z" fill="#535353"/>
<path d="M92.4492 505.504L94.1875 499.859H96.4727L95.5352 505.504H92.4492ZM97 505.504L98.7383 499.859H101.023L100.086 505.504H97ZM123.348 511.539V513.863H106.961V511.539H123.348ZM108.191 501.695V499.449H122.039V501.695H119.617V506.832H121.941V509.059H108.27V506.832H110.555V501.695H108.191ZM113.367 506.832H116.844V501.695H113.367V506.832ZM140.633 511.656V513.941H124.246V511.656H131.023V509.156H126.082V502.984H136.023V501.305H126.062V499.059H138.797V505.172H128.895V506.891H139.207V509.156H133.797V511.656H140.633ZM153.387 498.297V508.785H150.73V504.586H148.992V502.32H150.73V498.297H153.387ZM141.18 506.617C143.66 505.709 144.549 503.736 144.559 501.793V501.422H141.863V499.195H149.812V501.422H147.293V501.812C147.283 503.688 148.123 505.475 150.438 506.344L149.031 508.492C147.557 507.945 146.57 506.969 145.945 505.758C145.311 507.115 144.246 508.209 142.645 508.824L141.18 506.617ZM144.5 511.695V509.469H156.98V515.875H154.168V511.695H144.5ZM154.305 508.863V497.945H156.98V508.863H154.305ZM173.465 507.066V509.273H160.691V499.195H173.328V501.461H163.562V503.102H172.898V505.289H163.562V507.066H173.465ZM158.816 513.863V511.598H175.203V513.863H158.816ZM181.883 499.117C184.734 499.107 186.883 500.973 186.902 503.57C186.883 506.178 184.734 508.033 181.883 508.023C179.061 508.033 176.863 506.178 176.863 503.57C176.863 500.973 179.061 499.107 181.883 499.117ZM176.18 510.074C179.334 510.084 183.719 510.035 187.508 509.508L187.723 511.539C183.797 512.301 179.598 512.34 176.492 512.34L176.18 510.074ZM179.656 503.57C179.656 504.908 180.633 505.611 181.883 505.602C183.162 505.611 184.148 504.908 184.168 503.57C184.148 502.262 183.172 501.539 181.883 501.539C180.623 501.539 179.656 502.262 179.656 503.57ZM188.465 515.914V497.945H191.258V515.914H188.465ZM214.48 504.625V506.91H212.078V515.816H209.266V497.945H212.078V504.625H214.48ZM198.367 511.5V499.645H201.18V509.186C203.367 509.137 205.74 508.922 208.211 508.434L208.504 510.758C205.525 511.363 202.586 511.51 199.969 511.5H198.367ZM229.715 502.672V504.859H217.117V498.59H219.91V502.672H229.715ZM215.125 508.805V506.598H231.512V508.805H215.125ZM216.941 515.484V510.152H219.754V513.238H229.832V515.484H216.941ZM236.883 505.504L238.621 499.859H240.906L239.969 505.504H236.883ZM241.434 505.504L243.172 499.859H245.457L244.52 505.504H241.434Z" fill="black"/>
<path fill-rule="evenodd" clip-rule="evenodd" d="M53 507.685C53.0176 509.223 53.6454 510.691 54.7453 511.766C55.8452 512.841 57.3271 513.435 58.865 513.417H59.6583L62.01 515.871C62.2496 516.113 62.5764 516.25 62.9174 516.25C63.2584 516.25 63.5852 516.113 63.8248 515.871L66.175 513.417H66.9683C68.5062 513.435 69.9881 512.841 71.088 511.766C72.188 510.691 72.8158 509.223 72.8333 507.685V500.729C72.7952 497.528 70.1697 494.963 66.9683 495H58.865C55.6636 494.963 53.0381 497.528 53 500.729V507.685Z" stroke="black" stroke-width="2" stroke-linecap="round" stroke-linejoin="round"/>
<path d="M58.668 501.084C58.1157 501.084 57.668 501.532 57.668 502.084C57.668 502.636 58.1157 503.084 58.668 503.084V501.084ZM67.168 503.084C67.7203 503.084 68.168 502.636 68.168 502.084C68.168 501.532 67.7203 501.084 67.168 501.084V503.084ZM58.668 505.334C58.1157 505.334 57.668 505.782 57.668 506.334C57.668 506.886 58.1157 507.334 58.668 507.334V505.334ZM67.168 507.334C67.7203 507.334 68.168 506.886 68.168 506.334C68.168 505.782 67.7203 505.334 67.168 505.334V507.334ZM58.668 503.084H67.168V501.084H58.668V503.084ZM58.668 507.334H67.168V505.334H58.668V507.334Z" fill="black"/>
<path d="M57.2646 528.164V541.216H56.1074V528.164H57.2646ZM47.0107 533.716C47.0181 530.947 48.395 529.182 50.3359 529.175C52.2695 529.182 53.6685 530.947 53.6611 533.716C53.6685 536.492 52.2695 538.25 50.3359 538.242C48.395 538.25 47.0181 536.492 47.0107 533.716ZM48.124 533.716C48.124 535.833 49.0322 537.224 50.3359 537.217C51.647 537.224 52.5479 535.833 52.5479 533.716C52.5479 531.599 51.647 530.208 50.3359 530.2C49.0322 530.208 48.124 531.599 48.124 533.716ZM75.1797 538.535V539.517H63.2559V538.535H75.1797ZM64.3105 530.435V529.482H74.0371V530.435H71.9717V534.99H74.0078V535.928H64.3398V534.99H66.376V530.435H64.3105ZM67.5186 534.99H70.8438V530.435H67.5186V534.99ZM88.1436 538.608V539.575H76.2197V538.608H81.5811V536.147H77.7139V532.134H85.5068V530.083H77.6846V529.131H86.6348V533.071H78.8564V535.195H86.9424V536.147H82.709V538.608H88.1436ZM97.709 528.457V536.016H96.5957V532.485H94.6035V531.533H96.5957V528.457H97.709ZM89.2422 534.902C90.9341 534.192 91.9302 532.507 91.9229 530.962V530.186H89.4912V529.233H95.3359V530.186H93.0361V530.962C93.0361 532.375 93.9883 533.921 95.6436 534.609L95.043 535.488C93.8198 534.976 92.9629 534.001 92.5088 532.881C92.0547 534.148 91.1538 535.239 89.8574 535.811L89.2422 534.902ZM91.4688 537.642V536.704H100.243V541.187H99.1152V537.642H91.4688ZM99.1445 536.133V528.164H100.243V536.133H99.1445ZM112.694 535.21V536.147H103.686V529.292H112.548V530.259H104.857V532.192H112.27V533.115H104.857V535.21H112.694ZM102.147 539.487V538.535H114.071V539.487H102.147ZM126.273 528.164V541.187H125.16V528.164H126.273ZM115.272 533.789C115.28 531.021 116.378 529.27 118.07 529.263C119.652 529.27 120.722 530.793 120.868 533.247H122.553V528.442H123.651V540.527H122.553V534.199H120.875C120.766 536.733 119.674 538.323 118.07 538.315C116.378 538.323 115.28 536.558 115.272 533.789ZM116.356 533.789C116.342 535.898 117.016 537.231 118.07 537.217C119.132 537.231 119.806 535.898 119.799 533.789C119.806 531.672 119.132 530.347 118.07 530.347C117.016 530.347 116.342 531.672 116.356 533.789ZM132.66 531.665C132.653 534.023 134.169 536.396 136.059 537.261L135.37 538.198C133.891 537.437 132.667 535.884 132.089 534.031C131.51 535.979 130.287 537.649 128.808 538.433L128.061 537.51C129.972 536.572 131.481 534.067 131.488 531.665V529.292H132.66V531.665ZM134.638 533.555V532.617H137.729V528.164H138.871V541.216H137.729V533.555H134.638ZM145.302 529.116C147.345 529.124 148.795 530.369 148.803 532.178C148.795 533.994 147.345 535.232 145.302 535.239C143.244 535.232 141.779 533.994 141.786 532.178C141.779 530.369 143.244 529.124 145.302 529.116ZM141.112 537.363C143.515 537.371 146.833 537.349 149.711 536.924L149.799 537.773C146.818 538.33 143.617 538.345 141.273 538.345L141.112 537.363ZM142.914 532.178C142.907 533.394 143.91 534.229 145.302 534.229C146.679 534.229 147.682 533.394 147.675 532.178C147.682 530.969 146.679 530.127 145.302 530.127C143.91 530.127 142.907 530.969 142.914 532.178ZM150.575 541.216V528.164H151.718V541.216H150.575ZM169.955 533.364V534.331H167.846V541.187H166.703V528.164H167.846V533.364H169.955ZM158.31 537.876V529.453H159.452V536.909C161.356 536.909 163.297 536.763 165.443 536.309L165.59 537.29C163.341 537.744 161.32 537.876 159.35 537.876H158.31ZM174.994 529.116C177.038 529.124 178.488 530.369 178.495 532.178C178.488 533.994 177.038 535.232 174.994 535.239C172.936 535.232 171.471 533.994 171.479 532.178C171.471 530.369 172.936 529.124 174.994 529.116ZM170.805 537.363C173.207 537.371 176.525 537.349 179.403 536.924L179.491 537.773C176.51 538.33 173.31 538.345 170.966 538.345L170.805 537.363ZM172.606 532.178C172.599 533.394 173.603 534.229 174.994 534.229C176.371 534.229 177.375 533.394 177.367 532.178C177.375 530.969 176.371 530.127 174.994 530.127C173.603 530.127 172.599 530.969 172.606 532.178ZM180.268 541.216V528.164H181.41V541.216H180.268ZM198.256 536.558V541.187H197.099V537.48H189.496V536.558H198.256ZM187.665 532.017C187.658 530.2 189.101 528.904 191.049 528.911C192.177 528.904 193.136 529.351 193.737 530.083H197.099V528.164H198.256V535.84H197.099V533.965H193.744C193.144 534.705 192.184 535.144 191.049 535.137C189.101 535.151 187.658 533.87 187.665 532.017ZM188.764 532.017C188.764 533.284 189.716 534.17 191.049 534.17C192.331 534.17 193.305 533.284 193.305 532.017C193.305 530.793 192.331 529.893 191.049 529.893C189.716 529.893 188.764 530.793 188.764 532.017ZM194.264 533.013H197.099V531.035H194.257C194.359 531.343 194.418 531.665 194.418 532.017C194.418 532.368 194.359 532.705 194.264 533.013ZM210.604 528.12V531.284H212.582V532.236H210.604V535.327H209.462V528.12H210.604ZM200.453 530.273V529.351H203.764V528.032H204.906V529.351H208.217V530.273H200.453ZM201.2 532.998C201.193 531.68 202.438 530.867 204.335 530.859C206.225 530.867 207.455 531.68 207.47 532.998C207.455 534.324 206.225 535.129 204.335 535.137C202.438 535.129 201.193 534.324 201.2 532.998ZM202.299 536.865V536.001H210.604V538.887H203.456V540.161H211.088V541.04H202.328V538.037H209.462V536.865H202.299ZM202.299 532.998C202.292 533.782 203.097 534.272 204.335 534.272C205.565 534.272 206.371 533.782 206.386 532.998C206.371 532.222 205.565 531.716 204.335 531.709C203.097 531.716 202.292 532.222 202.299 532.998ZM224.14 528.164V535.151H222.997V528.164H224.14ZM213.695 531.797C213.688 530.017 215.131 528.794 217.108 528.809C219.086 528.794 220.514 530.017 220.521 531.797C220.514 533.569 219.086 534.792 217.108 534.785C215.131 534.792 213.688 533.569 213.695 531.797ZM214.823 531.797C214.809 532.983 215.768 533.826 217.108 533.833C218.434 533.826 219.394 532.983 219.394 531.797C219.394 530.603 218.434 529.768 217.108 529.775C215.768 529.768 214.809 530.603 214.823 531.797ZM215.702 541.011V535.811H216.845V537.393H222.997V535.811H224.14V541.011H215.702ZM216.845 540.073H222.997V538.315H216.845V540.073ZM237.089 528.164V541.187H235.946V528.164H237.089ZM227.201 537.832V529.453H228.329V536.836C230.321 536.821 232.372 536.667 234.555 536.206L234.716 537.188C232.401 537.671 230.343 537.832 228.256 537.832H227.201ZM249.394 528.164V533.32H251.576V534.287H249.394V541.216H248.251V528.164H249.394ZM239.887 537.949V529.438H245.966V530.391H241.029V536.982C243.388 536.975 245.05 536.873 246.991 536.514L247.138 537.51C245.094 537.876 243.388 537.949 240.912 537.949H239.887ZM253.656 540.088C253.144 540.081 252.704 539.656 252.719 539.136C252.704 538.623 253.144 538.198 253.656 538.198C254.176 538.198 254.601 538.623 254.594 539.136C254.601 539.656 254.176 540.081 253.656 540.088Z" fill="#626262"/>
<path d="M282.794 941.959C283.053 941.636 283.001 941.164 282.678 940.905C282.355 940.645 281.883 940.698 281.624 941.021L282.794 941.959ZM276.311 948.849L276.879 949.338C276.885 949.332 276.891 949.325 276.896 949.318L276.311 948.849ZM276.14 949.267L275.391 949.218L275.391 949.232L276.14 949.267ZM276 952.29L275.251 952.255C275.249 952.292 275.25 952.33 275.254 952.367L276 952.29ZM276.787 952.977L276.812 953.726C276.862 953.725 276.911 953.718 276.96 953.707L276.787 952.977ZM279.787 952.266L279.96 952.996L279.972 952.993L279.787 952.266ZM280.172 952.022L280.751 952.499L280.757 952.491L280.172 952.022ZM286.797 944.959C287.056 944.636 287.004 944.164 286.681 943.905C286.358 943.646 285.886 943.697 285.627 944.021L286.797 944.959ZM281.627 941.021C281.368 941.344 281.42 941.816 281.743 942.075C282.066 942.334 282.538 942.282 282.797 941.959L281.627 941.021ZM283.8 939.51L284.385 939.979C284.395 939.967 284.404 939.954 284.413 939.941L283.8 939.51ZM285.429 939.19L285.909 938.613C285.885 938.593 285.86 938.575 285.834 938.558L285.429 939.19ZM287.666 941.052L288.197 940.522C288.181 940.506 288.164 940.49 288.146 940.475L287.666 941.052ZM288.003 941.873L288.753 941.877L288.753 941.877L288.003 941.873ZM287.657 942.69L287.132 942.154C287.111 942.175 287.091 942.197 287.072 942.22L287.657 942.69ZM285.627 944.02C285.368 944.343 285.419 944.815 285.742 945.075C286.065 945.334 286.538 945.282 286.797 944.959L285.627 944.02ZM282.954 941.379C282.892 940.969 282.51 940.687 282.101 940.748C281.691 940.809 281.409 941.191 281.47 941.601L282.954 941.379ZM286.313 945.233C286.723 945.177 287.011 944.799 286.955 944.389C286.899 943.978 286.521 943.691 286.111 943.747L286.313 945.233ZM281.624 941.021L275.726 948.38L276.896 949.318L282.794 941.959L281.624 941.021ZM275.743 948.359C275.536 948.6 275.412 948.901 275.392 949.218L276.888 949.316C276.888 949.324 276.885 949.332 276.879 949.338L275.743 948.359ZM275.391 949.232L275.251 952.255L276.749 952.324L276.889 949.301L275.391 949.232ZM275.254 952.367C275.336 953.159 276.016 953.752 276.812 953.726L276.762 952.227C276.759 952.227 276.758 952.227 276.757 952.226C276.755 952.226 276.753 952.225 276.751 952.223C276.749 952.222 276.748 952.22 276.748 952.218C276.747 952.217 276.746 952.216 276.746 952.213L275.254 952.367ZM276.96 953.707L279.96 952.996L279.614 951.536L276.614 952.247L276.96 953.707ZM279.972 952.993C280.277 952.915 280.55 952.742 280.751 952.499L279.593 951.545C279.596 951.542 279.599 951.54 279.602 951.539L279.972 952.993ZM280.757 952.491L286.797 944.959L285.627 944.021L279.587 951.553L280.757 952.491ZM282.797 941.959L284.385 939.979L283.215 939.041L281.627 941.021L282.797 941.959ZM284.413 939.941C284.552 939.744 284.821 939.691 285.024 939.821L285.834 938.558C284.954 937.995 283.787 938.224 283.187 939.078L284.413 939.941ZM284.949 939.766L287.186 941.628L288.146 940.475L285.909 938.613L284.949 939.766ZM287.135 941.582C287.211 941.658 287.254 941.761 287.253 941.869L288.753 941.877C288.756 941.369 288.556 940.881 288.197 940.522L287.135 941.582ZM287.253 941.869C287.252 941.976 287.209 942.079 287.132 942.154L288.182 943.225C288.545 942.87 288.75 942.384 288.753 941.877L287.253 941.869ZM287.072 942.22L285.627 944.02L286.797 944.959L288.242 943.159L287.072 942.22ZM281.47 941.601C281.82 943.932 283.977 945.55 286.313 945.233L286.111 943.747C284.588 943.954 283.181 942.899 282.954 941.379L281.47 941.601Z" fill="#7C7C7C"/>
<path d="M60.1172 583.039V585.031H54.0039V586.418H59.5898V588.332H54.0039V589.797C57.1387 589.787 59.1211 589.738 61.3672 589.367L61.6211 591.301C59.0918 591.74 56.8262 591.779 53.0273 591.77H51.5039V583.039H60.1172ZM53.4961 599.602V593.312H65.4102V599.602H53.4961ZM55.957 597.609H62.9688V595.246H55.957V597.609ZM62.9102 592.59V582.043H65.4102V592.59H62.9102ZM73.5742 583.215C76.3965 583.205 78.4863 585.021 78.4961 587.57C78.4863 590.129 76.3965 591.936 73.5742 591.945C70.7715 591.936 68.623 590.129 68.6328 587.57C68.623 585.021 70.7715 583.205 73.5742 583.215ZM67.8906 594.172C71.0645 594.182 75.459 594.143 79.2578 593.605L79.4531 595.402C75.5078 596.174 71.2891 596.203 68.1836 596.203L67.8906 594.172ZM71.1133 587.57C71.1035 588.977 72.168 589.787 73.5742 589.777C74.9902 589.787 76.0645 588.977 76.0742 587.57C76.0645 586.184 74.9902 585.363 73.5742 585.363C72.168 585.363 71.1035 586.184 71.1133 587.57ZM80.2734 599.836V582.023H82.7539V599.836H80.2734ZM104.688 593.332V599.797H102.207V595.285H92.4805V593.332H104.688ZM89.9414 587.316C89.9219 584.797 91.9727 582.961 94.668 582.98C96.1035 582.971 97.3633 583.508 98.2129 584.406H102.207V582.023H104.688V592.531H102.207V590.285H98.2129C97.3633 591.203 96.1035 591.74 94.668 591.75C91.9727 591.74 89.9219 589.904 89.9414 587.316ZM92.3047 587.316C92.2949 588.771 93.2812 589.621 94.668 589.621C95.9766 589.621 96.9824 588.771 96.9922 587.316C96.9824 585.93 95.9766 585.07 94.668 585.07C93.2812 585.07 92.2949 585.93 92.3047 587.316ZM99.248 588.293H102.207V586.418H99.2578C99.3262 586.701 99.3555 587.004 99.3555 587.316C99.3555 587.658 99.3164 587.98 99.248 588.293ZM121.094 581.984V585.852H123.496V587.844H121.094V591.613H118.594V581.984H121.094ZM106.992 585.246V583.352H111.035V581.906H113.516V583.352H117.539V585.246H106.992ZM107.852 588.586C107.852 586.809 109.619 585.686 112.266 585.676C114.932 585.686 116.641 586.809 116.641 588.586C116.641 590.402 114.932 591.486 112.266 591.496C109.619 591.486 107.852 590.402 107.852 588.586ZM109.297 594.133V592.336H121.094V596.828H111.777V597.844H121.602V599.68H109.336V595.129H118.613V594.133H109.297ZM110.293 588.586C110.283 589.348 111.035 589.709 112.266 589.719C113.506 589.709 114.277 589.348 114.277 588.586C114.277 587.834 113.506 587.424 112.266 587.434C111.035 587.424 110.283 587.834 110.293 588.586Z" fill="black"/>
</svg>
