<svg width="1314" height="342" viewBox="0 0 1314 342" fill="none" xmlns="http://www.w3.org/2000/svg">
<rect width="1314" height="342" fill="white"/>
<rect x="21" y="24" width="1260" height="161" rx="19" fill="#F9F9F9"/>
<path d="M69.7734 70.4375V67.5312H83.6719V70.4375H78.4688V84.5H74.9766V70.4375H69.7734ZM89.6953 84.7578C85.8047 84.7578 83.4141 82.2266 83.4141 78.1953C83.4141 74.2578 85.8281 71.6094 89.5547 71.6094C92.9062 71.6094 95.5312 73.7188 95.5312 78.0547V79.0391H86.8359C86.8359 80.9609 87.9844 82.1562 89.7656 82.1562C90.9375 82.1562 91.7812 81.6406 92.1328 80.8672H95.4375C94.9453 83.2109 92.8359 84.7578 89.6953 84.7578ZM86.8359 76.8594H92.25C92.25 75.3125 91.1719 74.2109 89.625 74.2109C88.0312 74.2109 86.8945 75.3945 86.8359 76.8594ZM97.1016 80.9375C97.1016 78.1016 99.3984 77.1641 101.836 77.0234C102.75 76.9648 104.461 76.8828 105 76.8594V75.8281C104.977 74.7734 104.25 74.1406 102.961 74.1406C101.789 74.1406 101.039 74.6797 100.852 75.5469H97.5469C97.7578 73.3438 99.6797 71.6094 103.055 71.6094C105.82 71.6094 108.445 72.8516 108.445 75.9219V84.5H105.164V82.7422H105.07C104.438 83.9141 103.242 84.7344 101.344 84.7344C98.9062 84.7344 97.1016 83.4688 97.1016 80.9375ZM100.43 80.8438C100.43 81.8281 101.227 82.3438 102.328 82.3438C103.898 82.3438 105.023 81.2891 105 79.9531V79.0156C104.473 79.0391 102.996 79.1211 102.398 79.1797C101.203 79.2969 100.43 79.8594 100.43 80.8438ZM111.094 84.5V71.7734H114.398V74H114.539C115.078 72.5234 116.367 71.6094 118.078 71.6094C119.836 71.6094 121.125 72.5234 121.547 74H121.664C122.203 72.5469 123.633 71.6094 125.508 71.6094C127.875 71.6094 129.516 73.1797 129.516 75.9453V84.5H126.047V76.625C126.047 75.1719 125.203 74.4688 124.055 74.4688C122.742 74.4688 121.992 75.3828 121.992 76.7188V84.5H118.617V76.5312C118.617 75.2656 117.82 74.4688 116.648 74.4688C115.477 74.4688 114.562 75.4062 114.562 76.8594V84.5H111.094ZM134.227 84.7109C133.125 84.7109 132.234 83.8203 132.258 82.7422C132.234 81.6641 133.125 80.7969 134.227 80.7969C135.258 80.7969 136.172 81.6641 136.172 82.7422C136.172 83.8203 135.258 84.7109 134.227 84.7109Z" fill="black"/>
<path d="M71.5781 136.5V102.562H79.5469V116.25H93.1875V102.562H101.156V136.5H93.1875V122.766H79.5469V136.5H71.5781ZM114.281 102.562V136.5H106.312V102.562H114.281ZM119.438 136.5V102.562H133.312C140.953 102.562 145.641 107.344 145.641 114.234C145.641 121.266 140.859 125.859 133.078 125.859H127.406V136.5H119.438ZM127.406 119.531H131.625C135.375 119.531 137.391 117.422 137.391 114.234C137.391 111.047 135.375 109.031 131.625 109.031H127.406V119.531Z" fill="#5C61B4"/>
<path d="M1091.03 79.9844V88.5H1090.3V79.9844H1091.03ZM1088.66 80.2344V88.4375H1087.94V87.4375H1085.23V86.8281H1087.94V80.2344H1088.66ZM1079.58 85.4688C1081.55 85.4688 1084.7 85.4375 1087.06 85.0625L1087.11 85.6094C1086.06 85.8203 1084.9 85.9453 1083.77 86.0156V88.4688H1083.03V86.0469C1081.8 86.1172 1080.62 86.1172 1079.69 86.1094L1079.58 85.4688ZM1082.88 89.0156V90.5625H1090.3V89.0156H1091.03V93.4531H1082.14V89.0156H1082.88ZM1082.88 92.8281H1090.3V91.2031H1082.88V92.8281ZM1083.39 80.4844C1085.17 80.4844 1086.36 81.2344 1086.38 82.5C1086.36 83.75 1085.17 84.5156 1083.39 84.5C1081.59 84.5156 1080.39 83.75 1080.41 82.5C1080.39 81.2344 1081.59 80.4844 1083.39 80.4844ZM1083.39 81.0469C1082 81.0469 1081.09 81.625 1081.09 82.5C1081.09 83.3438 1082 83.9219 1083.39 83.9219C1084.75 83.9219 1085.66 83.3438 1085.67 82.5C1085.66 81.625 1084.75 81.0469 1083.39 81.0469ZM1105.09 79.9844V93.6719H1104.34V86.375H1102.02V92.9375H1101.3V80.3594H1102.02V85.7188H1104.34V79.9844H1105.09ZM1099.33 81.8125C1099.33 85.0781 1098.05 88.4688 1094.05 90.6406L1093.61 90.0781C1097.08 88.2266 1098.45 85.3516 1098.59 82.4688H1094.02V81.8125H1099.33ZM1108.73 80.5312V82.7344H1113.48V80.5312H1114.22V86.4688H1108V80.5312H1108.73ZM1108.73 85.8438H1113.48V83.3594H1108.73V85.8438ZM1117.91 79.9844V83.1562H1120.09V83.7969H1117.91V87.125H1117.17V79.9844H1117.91ZM1117.91 87.8594V90.9062H1110.17V92.8281H1118.48V93.4688H1109.45V90.2969H1117.17V88.5H1109.41V87.8594H1117.91ZM1131.73 80V84.3281H1133.92V84.9688H1131.73V90.0156H1131V80H1131.73ZM1132.45 92.6719V93.3125H1123.38V89.0781H1124.09V92.6719H1132.45ZM1122.56 80.9844V83.5H1127.31V80.9844H1128.05V87.625H1121.83V80.9844H1122.56ZM1122.56 86.9844H1127.31V84.125H1122.56V86.9844ZM1140.55 79.5938V94.0938H1139.84V79.5938H1140.55ZM1159.27 91.125V91.7812H1146.73V91.125H1159.27ZM1157.97 81.4844V82.1406H1155.62V87.3438H1157.95V87.9688H1147.92V87.3438H1150.27V82.1406H1147.92V81.4844H1157.97ZM1151 87.3438H1154.89V82.1406H1151V87.3438ZM1173.09 91.1875V91.8438H1160.56V91.1875H1166.41V88.2812H1162.2V84.3125H1170.69V81.7344H1162.17V81.0781H1171.42V84.9531H1162.94V87.6406H1171.75V88.2812H1167.16V91.1875H1173.09ZM1183.3 80.2969V88.2031H1182.56V84.2344H1180.08V83.6094H1182.56V80.2969H1183.3ZM1178.27 82.8906C1178.27 84.4219 1179.44 86.1875 1181.17 86.9219L1180.73 87.5C1179.39 86.8906 1178.39 85.7109 1177.94 84.4062C1177.49 85.8828 1176.43 87.2109 1175.03 87.875L1174.61 87.2812C1176.33 86.5156 1177.56 84.625 1177.56 82.9062V81.8438H1174.75V81.1875H1180.92V81.8438H1178.27V82.8906ZM1185.91 79.9844V88.3594H1185.2V79.9844H1185.91ZM1185.91 89.0312V93.6719H1185.19V89.6875H1176.84V89.0312H1185.91ZM1199.23 87.5781V88.2344H1189.92V81.2812H1199.08V81.9375H1190.67V84.3438H1198.78V85H1190.67V87.5781H1199.23ZM1200.75 91.0938V91.7656H1188.22V91.0938H1200.75ZM1212.38 81.9219C1212.38 84.0156 1215.41 85.5938 1217.39 85.9219L1217.08 86.5312C1215.2 86.1406 1212.77 84.9453 1212 83.125C1211.2 84.9453 1208.75 86.1406 1206.91 86.5312L1206.59 85.9219C1208.56 85.5938 1211.59 84.0156 1211.59 81.9219V81.5781H1206.98V80.9375H1216.98V81.5781H1212.38V81.9219ZM1218.22 87.9375V88.5781H1212.34V93.6406H1211.62V88.5781H1205.77V87.9375H1218.22ZM1231.2 79.9844V93.6719H1230.47V79.9844H1231.2ZM1228.44 80.375V92.8906H1227.73V85.7031H1225.09V85.0625H1227.73V80.375H1228.44ZM1223.41 84.0156C1223.41 86.4688 1224.7 88.875 1226.52 89.9219L1226.03 90.4844C1224.63 89.625 1223.53 88 1223.06 86.0938C1222.59 88.1562 1221.43 89.9141 1220 90.8125L1219.5 90.2344C1221.33 89.1719 1222.69 86.6406 1222.69 84.0156V82.3906H1219.78V81.7344H1226.19V82.3906H1223.41V84.0156Z" fill="black"/>
<path d="M741.537 107.117V113.135H743.848V105.061H746.895V126.77H743.848V115.725H741.537V122.021H732.346V107.117H741.537ZM735.367 109.682V119.482H738.516V109.682H735.367ZM751.719 104.73V127.836H748.621V104.73H751.719ZM766.014 106.635V109.275H758.346V113.084H765.684V115.623H758.346V119.99C761.659 119.965 764.351 119.825 767.436 119.33L767.74 121.945C764.211 122.479 761.062 122.58 757.025 122.58H755.07V106.635H766.014ZM772.387 104.73V113.49H775.789V116.207H772.387V127.836H769.137V104.73H772.387ZM796.127 104.73V127.887H792.928V115.496H788.637V122.402H777.49V106.508H780.715V112.119H785.463V106.508H788.637V112.881H792.928V104.73H796.127ZM780.715 119.812H785.463V114.658H780.715V119.812ZM811.26 107.777C811.26 111.154 814.256 114.785 819.486 115.674L818.064 118.365C814.04 117.565 811.044 115.306 809.559 112.322C808.022 115.28 805.026 117.553 801.027 118.365L799.631 115.674C804.76 114.76 807.781 111.129 807.807 107.777V106.102H811.26V107.777ZM820.248 122.326V124.992H799.098V122.326H820.248ZM833.781 106.355C837.311 106.355 839.85 109.555 839.875 114.582C839.85 119.66 837.311 122.834 833.781 122.834C830.252 122.834 827.662 119.66 827.688 114.582C827.662 109.555 830.252 106.355 833.781 106.355ZM833.781 109.275C832.004 109.275 830.811 111.154 830.811 114.582C830.811 118.035 832.004 119.889 833.781 119.889C835.584 119.889 836.752 118.035 836.777 114.582C836.752 111.154 835.584 109.275 833.781 109.275ZM845.791 104.73V113.439H849.193V116.131H845.791V127.836H842.541V104.73H845.791ZM862.092 106.939C862.066 114.074 860.34 120.016 851.707 124.332L849.93 121.895C853.789 119.978 856.087 117.832 857.395 115.268L850.564 115.902L850.158 113.135L858.385 112.627C858.613 111.662 858.778 110.621 858.867 109.529H851.377V106.939H862.092ZM868.262 104.73V113.592H871.537V116.258H868.262V127.785H865.012V104.73H868.262ZM892.535 104.73V127.836H889.412V104.73H892.535ZM887.635 105.137V126.795H884.613V115.801H880.475V113.16H884.613V105.137H887.635ZM882.049 107.346V109.936H876.387V119.99C878.862 119.978 880.729 119.851 882.887 119.406L883.141 122.047C880.525 122.58 878.189 122.682 874.812 122.682H873.213V107.346H882.049ZM907.287 106.812V122.326H896.115V106.812H907.287ZM899.365 109.352V119.762H904.139V109.352H899.365ZM914.32 104.73V127.887H911.045V104.73H914.32ZM937.146 106.787V109.352H923.436V106.787H928.691V104.604H931.916V106.787H937.146ZM930.291 110.088C933.643 110.088 935.979 111.814 935.979 114.354C935.979 116.893 933.643 118.619 930.291 118.619C926.939 118.619 924.553 116.893 924.553 114.354C924.553 111.814 926.939 110.088 930.291 110.088ZM930.291 112.525C928.742 112.525 927.701 113.16 927.727 114.354C927.701 115.521 928.742 116.131 930.291 116.131C931.84 116.131 932.906 115.521 932.906 114.354C932.906 113.16 931.84 112.525 930.291 112.525ZM941.768 104.73V110.723H944.891V113.363H941.768V119.229H938.518V104.73H941.768ZM941.768 120.193V127.836H938.518V122.783H926.203V120.193H941.768ZM953.295 108.844C953.295 111.332 954.59 113.82 957.662 114.988L955.936 117.451C953.968 116.702 952.609 115.331 951.771 113.617C950.934 115.623 949.486 117.299 947.328 118.188L945.576 115.699C948.826 114.277 950.146 111.434 950.146 108.844V106.127H953.295V108.844ZM965.762 104.756V118.873H962.689V113.008H960.76V118.162H957.738V105.162H960.76V110.393H962.689V104.756H965.762ZM957.865 119.203C962.74 119.203 965.863 120.828 965.889 123.52C965.863 126.211 962.74 127.836 957.865 127.836C952.965 127.836 949.867 126.211 949.867 123.52C949.867 120.828 952.965 119.203 957.865 119.203ZM957.865 121.615C954.844 121.615 953.092 122.275 953.117 123.52C953.092 124.764 954.844 125.398 957.865 125.398C960.861 125.398 962.613 124.764 962.613 123.52C962.613 122.275 960.861 121.615 957.865 121.615ZM989.502 113.744V116.283H968.377V113.744H989.502ZM986.988 109.936V112.475H971.018V105.188H986.811V107.777H974.242V109.936H986.988ZM986.887 117.654V123.697H974.014V125.119H987.496V127.633H970.84V121.387H983.688V120.092H970.814V117.654H986.887ZM1001.38 105.061C1006.69 105.061 1009.76 106.457 1009.79 108.996C1009.76 111.561 1006.69 112.957 1001.38 112.957C996.053 112.957 992.955 111.561 992.955 108.996C992.955 106.457 996.053 105.061 1001.38 105.061ZM1001.38 107.422C997.982 107.422 996.332 107.98 996.357 108.996C996.332 110.139 997.982 110.57 1001.38 110.57C1004.81 110.57 1006.44 110.139 1006.44 108.996C1006.44 107.98 1004.81 107.422 1001.38 107.422ZM1011.92 114.049V116.613H990.848V114.049H1011.92ZM1009.36 117.959V123.85H996.484V125.246H1009.97V127.684H993.311V121.59H1006.16V120.32H993.285V117.959H1009.36ZM1026.85 105.695C1030.38 105.67 1032.95 107.676 1032.95 110.596C1032.95 113.49 1030.38 115.521 1026.85 115.496C1023.32 115.521 1020.76 113.49 1020.78 110.596C1020.76 107.676 1023.32 105.67 1026.85 105.695ZM1026.85 108.285C1025.12 108.285 1023.91 109.123 1023.91 110.596C1023.91 112.043 1025.12 112.881 1026.85 112.855C1028.63 112.881 1029.87 112.043 1029.87 110.596C1029.87 109.123 1028.63 108.285 1026.85 108.285ZM1038.79 104.756V127.836H1035.59V104.756H1038.79ZM1019.36 116.918C1023.45 116.918 1029.26 116.816 1034.19 116.08L1034.39 118.467C1032.49 118.848 1030.53 119.089 1028.6 119.229V127.15H1025.38V119.432C1023.35 119.521 1021.43 119.533 1019.77 119.559L1019.36 116.918ZM1060.11 104.756V111.84H1063.24V114.48H1060.11V121.996H1056.86V104.756H1060.11ZM1055.49 107.168V109.732H1041.78V107.168H1047.04V104.705H1050.26V107.168H1055.49ZM1048.64 110.545C1051.99 110.545 1054.32 112.348 1054.32 115.014C1054.32 117.68 1051.99 119.432 1048.64 119.432C1045.26 119.432 1042.9 117.68 1042.9 115.014C1042.9 112.348 1045.26 110.545 1048.64 110.545ZM1048.64 113.008C1047.09 113.033 1046.05 113.744 1046.07 115.014C1046.05 116.283 1047.09 116.969 1048.64 116.969C1050.19 116.969 1051.25 116.283 1051.25 115.014C1051.25 113.744 1050.19 113.033 1048.64 113.008ZM1060.95 124.84V127.43H1045.13V120.676H1048.36V124.84H1060.95ZM1080.1 107.117V113.135H1082.41V105.061H1085.45V126.77H1082.41V115.725H1080.1V122.021H1070.9V107.117H1080.1ZM1073.93 109.682V119.482H1077.07V109.682H1073.93ZM1090.28 104.73V127.836H1087.18V104.73H1090.28ZM1104.57 106.635V109.275H1096.9V113.084H1104.24V115.623H1096.9V119.99C1100.22 119.965 1102.91 119.825 1105.99 119.33L1106.3 121.945C1102.77 122.479 1099.62 122.58 1095.58 122.58H1093.63V106.635H1104.57ZM1110.95 104.73V113.49H1114.35V116.207H1110.95V127.836H1107.7V104.73H1110.95ZM1134.69 104.73V127.887H1131.49V115.496H1127.2V122.402H1116.05V106.508H1119.27V112.119H1124.02V106.508H1127.2V112.881H1131.49V104.73H1134.69ZM1119.27 119.812H1124.02V114.658H1119.27V119.812ZM1149.82 107.777C1149.82 111.154 1152.81 114.785 1158.04 115.674L1156.62 118.365C1152.6 117.565 1149.6 115.306 1148.12 112.322C1146.58 115.28 1143.58 117.553 1139.59 118.365L1138.19 115.674C1143.32 114.76 1146.34 111.129 1146.37 107.777V106.102H1149.82V107.777ZM1158.81 122.326V124.992H1137.66V122.326H1158.81ZM1185.31 105.365V107.777H1182.29V110.824H1185.16V113.236H1168.12V110.824H1170.97V107.777H1167.97V105.365H1185.31ZM1187.19 114.455V116.994H1166.12V114.455H1187.19ZM1184.63 118.314V124.027H1171.76V125.297H1185.24V127.684H1168.58V121.818H1181.43V120.65H1168.56V118.314H1184.63ZM1174.22 110.824H1179.04V107.777H1174.22V110.824ZM1208.45 104.756V120.27H1205.37V112.957H1203.37V118.365H1200.35V105.162H1203.37V110.342H1205.37V104.756H1208.45ZM1198.31 106.33V113.363H1192.65V115.623C1195.18 115.61 1197.06 115.471 1199.25 115.039L1199.53 117.578C1196.87 118.111 1194.61 118.188 1191.13 118.188H1189.53V111.027H1195.19V108.92H1189.5V106.33H1198.31ZM1202.05 119.66C1202.02 122.098 1204.54 124.611 1209.51 125.221L1208.22 127.734C1204.54 127.214 1201.84 125.652 1200.45 123.494C1199 125.652 1196.31 127.214 1192.65 127.734L1191.36 125.221C1196.31 124.611 1198.8 122.098 1198.8 119.66V119.254H1202.05V119.66ZM1232.13 115.928V118.492H1211.06V115.928H1219.95V114.074H1213.07V111.484H1215.91V107.955H1212.91V105.365H1230.26V107.955H1227.23V111.484H1230.1V114.074H1223.2V115.928H1232.13ZM1229.62 120.066V127.582H1213.5V120.066H1229.62ZM1216.7 122.605V124.992H1226.45V122.605H1216.7ZM1219.16 111.484H1223.98V107.955H1219.16V111.484Z" fill="#323232"/>
<path d="M53.6406 310.102V311.645H46.4922V317.66H44.6758V311.645H37.625V310.102H53.6406ZM39.3633 304.711C39.373 302.328 41.8926 300.824 45.5938 300.824C49.2949 300.824 51.834 302.328 51.8242 304.711C51.834 307.064 49.2949 308.559 45.5938 308.559C41.8926 308.559 39.373 307.064 39.3633 304.711ZM41.2773 304.711C41.2676 306.166 42.9961 307.074 45.5938 307.074C48.2012 307.074 49.9199 306.166 49.9297 304.711C49.9199 303.236 48.2012 302.318 45.5938 302.309C42.9961 302.318 41.2676 303.236 41.2773 304.711ZM69.4609 300.16V317.699H67.6055V300.16H69.4609ZM55.9062 303.246V301.742H64.1094V308.129H57.8203V311.957C60.6621 311.947 63.1328 311.811 66.0625 311.332L66.2383 312.855C63.1426 313.373 60.5059 313.49 57.4102 313.5H55.9258V306.645H62.2148V303.246H55.9062ZM86.5117 301.195V302.719H79.9688V304.633H86.0234V306.078H79.9688V308.109C83.4648 308.109 85.5059 308.041 87.8789 307.641L88.0742 309.125C85.5449 309.555 83.3672 309.604 79.5391 309.594H78.0938V301.195H86.5117ZM80.1055 317.445V311.41H91.6094V317.445H80.1055ZM81.9414 315.941H89.793V312.855H81.9414V315.941ZM89.7539 310.59V300.18H91.6094V310.59H89.7539ZM100.086 301.41C102.85 301.4 104.842 303.109 104.852 305.57C104.842 308.031 102.85 309.74 100.086 309.75C97.332 309.74 95.3105 308.031 95.3203 305.57C95.3105 303.109 97.332 301.4 100.086 301.41ZM94.4805 312.387C97.6641 312.387 102.078 312.357 105.906 311.801L106.043 313.148C102.088 313.91 97.8398 313.93 94.7148 313.93L94.4805 312.387ZM97.1562 305.57C97.1367 307.123 98.3867 308.129 100.086 308.129C101.785 308.129 103.035 307.123 103.035 305.57C103.035 304.037 101.785 303.012 100.086 303.012C98.3867 303.012 97.1367 304.037 97.1562 305.57ZM107 317.699V300.16H108.855V317.699H107ZM132.508 308.266V309.77H125.438V311.449C128.641 311.625 130.545 312.699 130.555 314.535C130.545 316.518 128.279 317.631 124.52 317.621C120.711 317.631 118.445 316.518 118.445 314.535C118.445 312.699 120.35 311.615 123.602 311.449V309.77H116.551V308.266H132.508ZM117.391 305.883C120.535 305.561 123.016 304.135 123.27 302.445H118.016V300.961H131.082V302.445H125.77C126.023 304.145 128.484 305.561 131.688 305.883L131.023 307.348C127.986 306.996 125.477 305.717 124.529 303.861C123.562 305.717 121.072 306.996 118.035 307.348L117.391 305.883ZM120.32 314.535C120.311 315.6 121.844 316.215 124.52 316.195C127.156 316.215 128.699 315.6 128.699 314.535C128.699 313.451 127.156 312.865 124.52 312.855C121.844 312.865 120.311 313.451 120.32 314.535ZM149.852 313.93V315.473H133.836V313.93H137.664V309.359C136.229 308.568 135.35 307.318 135.359 305.746C135.35 302.992 138.055 301.186 141.805 301.176C145.564 301.186 148.27 302.992 148.27 305.746C148.27 307.289 147.43 308.529 146.023 309.32V313.93H149.852ZM137.156 305.746C137.156 307.621 139.061 308.842 141.805 308.852C144.529 308.842 146.463 307.621 146.473 305.746C146.463 303.861 144.529 302.66 141.805 302.66C139.061 302.66 137.156 303.861 137.156 305.746ZM139.5 313.93H144.148V310.043C143.436 310.209 142.645 310.297 141.805 310.297C140.984 310.297 140.203 310.209 139.5 310.043V313.93ZM164.871 300.18V305.805H167.41V307.348H164.871V313.266H163.016V300.18H164.871ZM151.141 303.715V302.211H155.438V300.16H157.293V302.211H161.57V303.715H151.141ZM152.098 307.855C152.088 305.854 153.816 304.545 156.355 304.555C158.865 304.545 160.594 305.854 160.594 307.855C160.594 309.838 158.865 311.127 156.355 311.137C153.816 311.127 152.088 309.838 152.098 307.855ZM153.777 317.289V312.23H155.633V315.785H165.613V317.289H153.777ZM153.895 307.855C153.875 308.998 154.871 309.701 156.355 309.691C157.84 309.701 158.836 308.998 158.855 307.855C158.836 306.703 157.84 305.99 156.355 305.98C154.871 305.99 153.875 306.703 153.895 307.855ZM179.383 305.316C179.373 308.08 181.199 311.166 183.855 312.426L182.801 313.871C180.838 312.934 179.275 310.961 178.484 308.676C177.684 311.166 176.043 313.324 174.051 314.32L172.957 312.855C175.613 311.576 177.537 308.275 177.547 305.316V303.461H173.602V301.918H183.191V303.461H179.383V305.316ZM185.066 317.66V300.16H186.922V307.094H189.734V308.656H186.922V317.66H185.066ZM206.59 314.008V315.57H190.574V314.008H194.949V310.922H192.527V305.355H202.801V302.914H192.488V301.391H204.637V306.859H194.363V309.398H205.047V310.922H202.391V314.008H206.59ZM196.746 314.008H200.574V310.922H196.746V314.008ZM223.836 307.328V308.812H207.859V307.328H223.836ZM209.773 311.625V310.199H221.805V314.438H211.609V316H222.293V317.465H209.793V313.07H219.969V311.625H209.773ZM209.949 306.059V300.668H221.766V302.172H211.805V304.574H221.941V306.059H209.949ZM233.113 300.453C237.059 300.443 239.354 301.508 239.363 303.461C239.354 305.424 237.059 306.488 233.113 306.488C229.168 306.488 226.854 305.424 226.863 303.461C226.854 301.508 229.168 300.443 233.113 300.453ZM225.145 309.047V307.562H241.102V309.047H225.145ZM227.059 311.781V310.395H239.09V314.496H228.895V316.059H239.578V317.484H227.078V313.148H237.254V311.781H227.059ZM228.797 303.461C228.787 304.545 230.33 305.102 233.113 305.102C235.916 305.102 237.459 304.545 237.449 303.461C237.459 302.426 235.916 301.82 233.113 301.82C230.33 301.82 228.787 302.426 228.797 303.461ZM263.309 309.32V310.805H256.355V314.027H254.52V310.805H247.293V309.32H263.309ZM249.285 317.289V312.504H251.121V315.785H261.531V317.289H249.285ZM249.402 307.777V300.707H251.238V302.836H259.344V300.707H261.199V307.777H249.402ZM251.238 306.293H259.344V304.223H251.238V306.293ZM280.594 310.551V312.016H276.57V317.66H274.695V312.016H270.477V317.66H268.621V312.016H264.578V310.551H280.594ZM266.473 302.309V300.785H278.699V305.473H268.387V307.406H279.07V308.91H266.531V304.086H276.805V302.309H266.473ZM295.516 300.16V307.25H298.328V308.793H295.516V317.66H293.68V300.16H295.516ZM281.785 304.418V302.895H286.102V300.395H287.957V302.895H292.156V304.418H281.785ZM282.684 309.77C282.684 307.387 284.52 305.707 287.039 305.707C289.549 305.707 291.385 307.387 291.395 309.77C291.385 312.172 289.549 313.842 287.039 313.852C284.52 313.842 282.684 312.172 282.684 309.77ZM284.461 309.77C284.451 311.293 285.545 312.309 287.039 312.289C288.523 312.309 289.607 311.293 289.617 309.77C289.607 308.275 288.523 307.24 287.039 307.23C285.545 307.24 284.451 308.275 284.461 309.77ZM303.914 301.469C305.516 301.479 306.824 302.387 307.596 303.969H311.922V300.16H313.758V317.699H311.922V310.98H307.723C306.971 312.738 305.604 313.764 303.914 313.754C301.307 313.764 299.461 311.381 299.48 307.602C299.461 303.861 301.307 301.479 303.914 301.469ZM301.238 307.602C301.248 310.385 302.332 312.094 303.914 312.094C305.496 312.094 306.58 310.385 306.59 307.602C306.58 304.857 305.496 303.139 303.914 303.129C302.332 303.139 301.248 304.857 301.238 307.602ZM308.123 305.492C308.26 306.137 308.348 306.84 308.348 307.602C308.348 308.266 308.289 308.881 308.172 309.457H311.922V305.492H308.123ZM335.945 300.16V317.699H334.09V307.973H330.477V306.449H334.09V300.16H335.945ZM321.141 312.816C323.816 311.537 325.701 308.227 325.711 305.082V303.441H321.844V301.918H331.473V303.441H327.586V305.082C327.586 308.041 329.451 311.234 332.137 312.426L331.023 313.91C329.002 312.934 327.449 310.893 326.668 308.51C325.887 311.049 324.295 313.227 322.273 314.262L321.141 312.816ZM344.734 303.383C344.725 305.609 346.277 307.641 348.934 308.48L348.055 309.926C346.062 309.291 344.607 307.973 343.836 306.312C343.074 308.227 341.541 309.74 339.441 310.473L338.484 308.988C341.219 308.09 342.869 305.834 342.879 303.402V302.914H339.031V301.41H348.504V302.914H344.734V303.383ZM340.848 314.34C340.848 312.289 343.084 311.088 346.727 311.098C350.33 311.088 352.527 312.289 352.527 314.34C352.527 316.42 350.33 317.631 346.727 317.621C343.084 317.631 340.848 316.42 340.848 314.34ZM342.703 314.34C342.693 315.512 344.197 316.166 346.727 316.156C349.236 316.166 350.721 315.512 350.711 314.34C350.721 313.197 349.236 312.553 346.727 312.562C344.197 312.553 342.693 313.197 342.703 314.34ZM350.516 310.668V300.16H352.371V304.496H354.91V306.02H352.371V310.668H350.516ZM369.539 300.16V307.25H372.352V308.793H369.539V317.66H367.703V300.16H369.539ZM355.809 304.418V302.895H360.125V300.395H361.98V302.895H366.18V304.418H355.809ZM356.707 309.77C356.707 307.387 358.543 305.707 361.062 305.707C363.572 305.707 365.408 307.387 365.418 309.77C365.408 312.172 363.572 313.842 361.062 313.852C358.543 313.842 356.707 312.172 356.707 309.77ZM358.484 309.77C358.475 311.293 359.568 312.309 361.062 312.289C362.547 312.309 363.631 311.293 363.641 309.77C363.631 308.275 362.547 307.24 361.062 307.23C359.568 307.24 358.475 308.275 358.484 309.77ZM377.938 301.469C379.539 301.479 380.848 302.387 381.619 303.969H385.945V300.16H387.781V317.699H385.945V310.98H381.746C380.994 312.738 379.627 313.764 377.938 313.754C375.33 313.764 373.484 311.381 373.504 307.602C373.484 303.861 375.33 301.479 377.938 301.469ZM375.262 307.602C375.271 310.385 376.355 312.094 377.938 312.094C379.52 312.094 380.604 310.385 380.613 307.602C380.604 304.857 379.52 303.139 377.938 303.129C376.355 303.139 375.271 304.857 375.262 307.602ZM382.146 305.492C382.283 306.137 382.371 306.84 382.371 307.602C382.371 308.266 382.312 308.881 382.195 309.457H385.945V305.492H382.146ZM411.375 313.949V315.492H395.359V313.949H402.41V310.355H397.195V301.352H399.051V304.359H407.645V301.352H409.48V310.355H404.246V313.949H411.375ZM399.051 308.852H407.645V305.863H399.051V308.852ZM417.977 304.945C417.977 307.738 419.148 310.717 421.492 312.152L420.457 313.578C418.816 312.592 417.713 310.844 417.107 308.822C416.473 311.039 415.262 312.934 413.562 313.969L412.41 312.582C414.881 311.098 416.189 308.002 416.18 305.023V301.762H417.977V304.945ZM419.598 307.855V306.312H422.312V300.492H424.07V316.801H422.312V307.855H419.598ZM425.926 317.66V300.16H427.703V317.66H425.926ZM445.945 313.93V315.473H429.93V313.93H433.758V309.359C432.322 308.568 431.443 307.318 431.453 305.746C431.443 302.992 434.148 301.186 437.898 301.176C441.658 301.186 444.363 302.992 444.363 305.746C444.363 307.289 443.523 308.529 442.117 309.32V313.93H445.945ZM433.25 305.746C433.25 307.621 435.154 308.842 437.898 308.852C440.623 308.842 442.557 307.621 442.566 305.746C442.557 303.861 440.623 302.66 437.898 302.66C435.154 302.66 433.25 303.861 433.25 305.746ZM435.594 313.93H440.242V310.043C439.529 310.209 438.738 310.297 437.898 310.297C437.078 310.297 436.297 310.209 435.594 310.043V313.93ZM450.438 301.859L450.262 311.918H448.328L448.152 301.859H450.438ZM447.918 314.75C447.908 313.988 448.543 313.363 449.305 313.363C450.057 313.363 450.682 313.988 450.691 314.75C450.682 315.512 450.057 316.127 449.305 316.137C448.543 316.127 447.908 315.512 447.918 314.75Z" fill="black"/>
<rect x="20.5" y="201.5" width="1259" height="60" rx="19.5" fill="#F9F9F9" fill-opacity="0.45"/>
<rect x="20.5" y="201.5" width="1259" height="60" rx="19.5" stroke="#E6E6E6"/>
<path d="M67.1562 237.188V239.672H47.6328V237.188H67.1562ZM49.1562 225.094V222.703H65.5156V225.094H62.5156V231.562H65.4219V233.906H49.25V231.562H52.1094V225.094H49.1562ZM55.1094 231.562H59.5625V225.094H55.1094V231.562ZM87.8984 237.328V239.789H68.375V237.328H76.6016V234.117H70.625V226.945H82.6953V224.602H70.6016V222.211H85.6484V229.289H73.625V231.68H86.1406V234.117H79.5781V237.328H87.8984ZM103.203 221.25V233.719H100.367V228.516H98V226.102H100.367V221.25H103.203ZM88.8125 231.305C91.7305 230.215 92.9375 227.766 92.9375 225.398V224.766H89.5391V222.375H99.0312V224.766H95.8438V225.422C95.832 227.66 96.9688 229.887 99.7109 230.953L98.2109 233.25C96.3945 232.547 95.1641 231.293 94.4258 229.746C93.6523 231.469 92.3516 232.887 90.3828 233.672L88.8125 231.305ZM92.7031 236.977V234.609H107.445V242.156H104.469V236.977H92.7031ZM104.609 233.836V220.828H107.445V233.836H104.609ZM127.25 231.844V234.211H112.156V222.398H127.086V224.812H115.203V227.062H126.594V229.406H115.203V231.844H127.25ZM109.859 239.672V237.234H129.383V239.672H109.859ZM154.531 220.828V242.156H151.648V231.305H149.703V241.219H146.914V221.391H149.703V228.914H151.648V220.828H154.531ZM135.875 235.711C140.223 233.156 142.098 230.027 142.496 225.844H136.953V223.453H145.414C145.402 229.406 143.621 234.281 137.609 237.773L135.875 235.711ZM176.398 237.211V239.672H156.875V237.211H161.234V231.984C159.582 230.988 158.586 229.477 158.586 227.602C158.586 224.145 161.961 221.871 166.602 221.859C171.219 221.871 174.629 224.145 174.641 227.602C174.629 229.441 173.668 230.93 172.062 231.926V237.211H176.398ZM161.539 227.602C161.539 229.688 163.543 230.977 166.602 230.977C169.613 230.977 171.676 229.688 171.688 227.602C171.676 225.457 169.613 224.215 166.602 224.227C163.543 224.215 161.539 225.457 161.539 227.602ZM164.188 237.211H169.039V233.062C168.277 233.215 167.457 233.297 166.602 233.297C165.746 233.297 164.938 233.215 164.188 233.074V237.211ZM185.68 225.656C185.691 229.664 187.309 233.566 190.859 235.102L189.031 237.492C186.664 236.344 185.07 234.211 184.18 231.574C183.266 234.375 181.625 236.672 179.188 237.867L177.312 235.43C180.969 233.777 182.633 229.664 182.656 225.656V222.469H185.68V225.656ZM188.469 229.945V227.531H192.664V220.828H195.617V242.203H192.664V229.945H188.469Z" fill="#6C6C6C"/>
<path d="M505.156 237.211V239.672H485.633V237.211H489.992V231.984C488.34 230.988 487.344 229.477 487.344 227.602C487.344 224.145 490.719 221.871 495.359 221.859C499.977 221.871 503.387 224.145 503.398 227.602C503.387 229.441 502.426 230.93 500.82 231.926V237.211H505.156ZM490.297 227.602C490.297 229.688 492.301 230.977 495.359 230.977C498.371 230.977 500.434 229.688 500.445 227.602C500.434 225.457 498.371 224.215 495.359 224.227C492.301 224.215 490.297 225.457 490.297 227.602ZM492.945 237.211H497.797V233.062C497.035 233.215 496.215 233.297 495.359 233.297C494.504 233.297 493.695 233.215 492.945 233.074V237.211ZM523.555 222.07V223.992C523.543 225.984 523.543 228.152 523.004 231.141H525.828V233.555H517.508V242.18H514.508V233.555H506.375V231.141H519.969C520.52 228.398 520.566 226.301 520.578 224.461H508.602V222.07H523.555ZM534.969 225.656C534.957 229.477 536.586 233.332 540.008 234.984L538.203 237.375C535.918 236.238 534.371 234.129 533.492 231.562C532.555 234.316 530.914 236.578 528.5 237.773L526.648 235.359C530.27 233.695 531.969 229.617 531.969 225.656V222.469H534.969V225.656ZM540.945 242.156V220.828H543.945V229.055H547.086V231.586H543.945V242.156H540.945ZM564.781 220.828V226.289H567.664V228.773H564.781V234.375H561.781V220.828H564.781ZM547.859 225.188V222.867H552.711V220.711H555.688V222.867H560.516V225.188H547.859ZM548.891 229.758C548.891 227.484 551.047 225.926 554.188 225.914C557.293 225.926 559.438 227.484 559.438 229.758C559.438 232.055 557.293 233.578 554.188 233.578C551.059 233.578 548.891 232.055 548.891 229.758ZM550.602 238.383C550.578 235.98 553.332 234.574 557.82 234.562C562.203 234.574 565.004 235.98 565.016 238.383C565.004 240.727 562.203 242.168 557.82 242.156C553.332 242.168 550.578 240.727 550.602 238.383ZM551.82 229.758C551.809 230.812 552.758 231.363 554.188 231.352C555.629 231.363 556.602 230.812 556.602 229.758C556.602 228.691 555.629 228.105 554.188 228.094C552.758 228.105 551.809 228.691 551.82 229.758ZM553.555 238.383C553.543 239.379 555.02 239.93 557.82 239.93C560.539 239.93 562.016 239.379 562.016 238.383C562.016 237.316 560.539 236.848 557.82 236.836C555.02 236.848 553.543 237.316 553.555 238.383ZM592.109 220.828V233.484H589.133V228.445H585.805V226.031H589.133V220.828H592.109ZM573.992 231.141C577.484 229.969 579.078 227.18 579.148 224.508H574.859V222.117H586.438V224.508H582.195C582.254 226.992 583.777 229.5 587.094 230.602L585.617 232.945C583.273 232.184 581.645 230.637 580.719 228.727C579.781 230.895 578.07 232.641 575.539 233.508L573.992 231.141ZM577.484 238.078C577.484 235.488 580.273 233.965 584.82 233.953C589.379 233.965 592.168 235.488 592.18 238.078C592.168 240.668 589.379 242.18 584.82 242.18C580.273 242.18 577.484 240.668 577.484 238.078ZM580.461 238.078C580.461 239.297 581.996 239.906 584.82 239.906C587.656 239.906 589.191 239.297 589.203 238.078C589.191 236.848 587.656 236.238 584.82 236.25C581.996 236.238 580.461 236.848 580.461 238.078ZM601.789 222.258C605.176 222.246 607.684 224.426 607.695 227.484C607.684 230.555 605.176 232.723 601.789 232.734C598.426 232.723 595.848 230.555 595.859 227.484C595.848 224.426 598.426 222.246 601.789 222.258ZM594.969 235.406C598.777 235.418 604.051 235.371 608.609 234.727L608.844 236.883C604.109 237.809 599.047 237.844 595.32 237.844L594.969 235.406ZM598.836 227.484C598.824 229.172 600.102 230.145 601.789 230.133C603.488 230.145 604.777 229.172 604.789 227.484C604.777 225.82 603.488 224.836 601.789 224.836C600.102 224.836 598.824 225.82 598.836 227.484ZM609.828 242.203V220.828H612.805V242.203H609.828ZM623.68 225.656C623.691 229.664 625.309 233.566 628.859 235.102L627.031 237.492C624.664 236.344 623.07 234.211 622.18 231.574C621.266 234.375 619.625 236.672 617.188 237.867L615.312 235.43C618.969 233.777 620.633 229.664 620.656 225.656V222.469H623.68V225.656ZM626.469 229.945V227.531H630.664V220.828H633.617V242.203H630.664V229.945H626.469Z" fill="#6C6C6C"/>
<line x1="682" y1="248.5" x2="794" y2="248.5" stroke="#4B71EF"/>
<path d="M692.664 224.508V226.754H691.18V234.293C691.834 234.244 692.479 234.176 693.094 234.098L693.23 236.109C689.607 236.764 685.574 236.842 682.527 236.852L682.234 234.586C682.83 234.586 683.475 234.586 684.148 234.576V226.754H682.684V224.508H692.664ZM686.863 234.527L688.484 234.469V226.754H686.863V234.527ZM693.875 240.875V222.945H696.688V229.664H699.227V231.93H696.688V240.875H693.875ZM704.852 223.434C707.596 223.434 709.686 225.172 709.695 227.574C709.686 229.957 707.596 231.686 704.852 231.695C702.068 231.686 699.979 229.957 699.988 227.574C699.979 225.172 702.068 223.434 704.852 223.434ZM702.664 234.703V232.555H714.812V237.594H705.457V238.492H715.242V240.68H702.723V235.562H712V234.703H702.664ZM702.703 227.574C702.693 228.775 703.611 229.42 704.852 229.43C706.072 229.42 706.971 228.775 706.961 227.574C706.971 226.373 706.072 225.729 704.852 225.719C703.611 225.729 702.693 226.373 702.703 227.574ZM712 231.871V222.945H714.812V231.871H712ZM728.406 225.934C728.406 228.189 729.461 230.475 732.391 231.441L730.867 233.609C729.021 232.945 727.771 231.715 727.029 230.152C726.268 231.93 724.92 233.316 722.879 234.039L721.355 231.832C724.441 230.865 725.545 228.424 725.555 225.914V224.059H728.406V225.934ZM724.656 240.582V234.801H727.508V238.336H737.059V240.582H724.656ZM730.73 228.902V226.656H733.895V222.965H736.688V236.148H733.895V228.902H730.73ZM746.492 224.117V226.344H742.059V227.594H746.316V229.703H742.059V231.012C743.865 230.982 745.271 230.895 746.844 230.641L747.117 232.887C745.027 233.248 743.26 233.307 740.613 233.297H739.363V224.117H746.492ZM741.766 236.832V234.605H754.246V240.875H751.434V236.832H741.766ZM747.723 233.785V223.277H750.34V227.242H751.57V222.965H754.246V233.902H751.57V229.488H750.34V233.785H747.723ZM770.301 222.945V229.84H772.84V232.164H770.301V240.875H767.527V222.945H770.301ZM755.984 227.789V225.562H759.871V223.238H762.684V225.562H766.473V227.789H755.984ZM756.629 232.965C756.609 230.436 758.592 228.639 761.277 228.648C763.895 228.639 765.896 230.436 765.906 232.965C765.896 235.494 763.895 237.281 761.277 237.281C758.592 237.281 756.609 235.494 756.629 232.965ZM759.324 232.965C759.305 234.283 760.125 235.006 761.277 234.996C762.391 235.006 763.201 234.283 763.211 232.965C763.201 231.676 762.391 230.924 761.277 230.914C760.125 230.924 759.305 231.676 759.324 232.965ZM788.504 222.945V240.875H785.652V222.945H788.504ZM773.367 235.66C777.928 233.512 779.842 230.855 780.242 226.988H774.383V224.801H783.113C783.104 230.328 781.355 234.83 774.832 237.887L773.367 235.66Z" fill="#4B71EF"/>
<path d="M971.492 220.828V242.203H968.469V220.828H971.492ZM957.688 222.516V227.719H962.281V222.516H965.234V237.211H954.688V222.516H957.688ZM957.688 234.797H962.281V230.039H957.688V234.797ZM991.953 222.68V224.695C991.953 227.367 991.953 230.367 991.086 234.891L988.086 234.586C988.895 230.555 988.93 227.555 988.953 225.047H976.391V222.68H991.953ZM993.828 237.117V239.555H974.375V237.117H981.336V229.781H984.312V237.117H993.828Z" fill="#6C6C6C"/>
<line x1="1080" y1="245.5" x2="1192" y2="245.5" stroke="#4B71EF"/>
<path d="M1090.66 221.508V223.754H1089.18V231.293C1089.83 231.244 1090.48 231.176 1091.09 231.098L1091.23 233.109C1087.61 233.764 1083.57 233.842 1080.53 233.852L1080.23 231.586C1080.83 231.586 1081.47 231.586 1082.15 231.576V223.754H1080.68V221.508H1090.66ZM1084.86 231.527L1086.48 231.469V223.754H1084.86V231.527ZM1091.88 237.875V219.945H1094.69V226.664H1097.23V228.93H1094.69V237.875H1091.88ZM1102.85 220.434C1105.6 220.434 1107.69 222.172 1107.7 224.574C1107.69 226.957 1105.6 228.686 1102.85 228.695C1100.07 228.686 1097.98 226.957 1097.99 224.574C1097.98 222.172 1100.07 220.434 1102.85 220.434ZM1100.66 231.703V229.555H1112.81V234.594H1103.46V235.492H1113.24V237.68H1100.72V232.562H1110V231.703H1100.66ZM1100.7 224.574C1100.69 225.775 1101.61 226.42 1102.85 226.43C1104.07 226.42 1104.97 225.775 1104.96 224.574C1104.97 223.373 1104.07 222.729 1102.85 222.719C1101.61 222.729 1100.69 223.373 1100.7 224.574ZM1110 228.871V219.945H1112.81V228.871H1110ZM1126.41 222.934C1126.41 225.189 1127.46 227.475 1130.39 228.441L1128.87 230.609C1127.02 229.945 1125.77 228.715 1125.03 227.152C1124.27 228.93 1122.92 230.316 1120.88 231.039L1119.36 228.832C1122.44 227.865 1123.54 225.424 1123.55 222.914V221.059H1126.41V222.934ZM1122.66 237.582V231.801H1125.51V235.336H1135.06V237.582H1122.66ZM1128.73 225.902V223.656H1131.89V219.965H1134.69V233.148H1131.89V225.902H1128.73ZM1144.49 221.117V223.344H1140.06V224.594H1144.32V226.703H1140.06V228.012C1141.87 227.982 1143.27 227.895 1144.84 227.641L1145.12 229.887C1143.03 230.248 1141.26 230.307 1138.61 230.297H1137.36V221.117H1144.49ZM1139.77 233.832V231.605H1152.25V237.875H1149.43V233.832H1139.77ZM1145.72 230.785V220.277H1148.34V224.242H1149.57V219.965H1152.25V230.902H1149.57V226.488H1148.34V230.785H1145.72ZM1168.3 219.945V226.84H1170.84V229.164H1168.3V237.875H1165.53V219.945H1168.3ZM1153.98 224.789V222.562H1157.87V220.238H1160.68V222.562H1164.47V224.789H1153.98ZM1154.63 229.965C1154.61 227.436 1156.59 225.639 1159.28 225.648C1161.89 225.639 1163.9 227.436 1163.91 229.965C1163.9 232.494 1161.89 234.281 1159.28 234.281C1156.59 234.281 1154.61 232.494 1154.63 229.965ZM1157.32 229.965C1157.3 231.283 1158.12 232.006 1159.28 231.996C1160.39 232.006 1161.2 231.283 1161.21 229.965C1161.2 228.676 1160.39 227.924 1159.28 227.914C1158.12 227.924 1157.3 228.676 1157.32 229.965ZM1186.5 219.945V237.875H1183.65V219.945H1186.5ZM1171.37 232.66C1175.93 230.512 1177.84 227.855 1178.24 223.988H1172.38V221.801H1181.11C1181.1 227.328 1179.36 231.83 1172.83 234.887L1171.37 232.66Z" fill="#4B71EF"/>
<path d="M243.055 243.984V229.395H246.316V231.211H246.434C246.824 230.254 247.732 229.258 249.422 229.258C251.668 229.258 253.66 230.986 253.66 234.707C253.66 238.301 251.775 240.156 249.422 240.156C247.791 240.156 246.844 239.248 246.434 238.281H246.355V243.984H243.055ZM246.277 234.688C246.277 236.445 247.02 237.578 248.289 237.578C249.578 237.578 250.291 236.436 250.281 234.688C250.291 232.959 249.588 231.836 248.289 231.836C247.01 231.836 246.277 232.93 246.277 234.688ZM255.398 240V229.395H258.602V231.309H258.699C259.09 229.922 260.027 229.248 261.199 229.238C261.502 229.248 261.863 229.297 262.137 229.355V232.227C261.824 232.129 261.229 232.061 260.828 232.07C259.598 232.061 258.689 232.92 258.699 234.199V240H255.398ZM268.055 240.195C264.744 240.195 262.723 237.998 262.723 234.727C262.723 231.455 264.744 229.258 268.055 229.258C271.375 229.258 273.387 231.455 273.387 234.727C273.387 237.998 271.375 240.195 268.055 240.195ZM266.082 234.707C266.072 236.484 266.775 237.705 268.074 237.715C269.334 237.705 270.037 236.484 270.027 234.707C270.037 232.939 269.334 231.709 268.074 231.699C266.775 231.709 266.072 232.939 266.082 234.707ZM275.086 229.395H278.387V240.449C278.377 243.047 276.717 243.975 274.109 243.984L273.426 243.965V241.445C273.592 241.465 273.709 241.475 273.836 241.465C274.773 241.475 275.086 241.123 275.086 240.391V229.395ZM275.027 226.543C275.027 225.664 275.789 224.951 276.727 224.961C277.674 224.951 278.436 225.664 278.445 226.543C278.436 227.422 277.674 228.125 276.727 228.125C275.789 228.125 275.027 227.422 275.027 226.543ZM285.438 240.195C282.117 240.195 280.086 238.125 280.086 234.746C280.086 231.455 282.137 229.258 285.32 229.258C288.299 229.258 290.438 231.152 290.438 234.668V235.508H283.328V235.566C283.338 236.924 284.158 237.812 285.496 237.812C286.395 237.812 287.068 237.422 287.332 236.797H290.398C289.998 238.867 288.182 240.195 285.438 240.195ZM283.328 233.574H287.371C287.352 232.441 286.531 231.641 285.398 231.641C284.236 231.641 283.377 232.48 283.328 233.574ZM297.059 240.195C293.719 240.195 291.727 237.969 291.727 234.727C291.727 231.475 293.738 229.258 297.059 229.258C299.959 229.258 301.863 230.938 301.941 233.516H298.875C298.729 232.441 298.084 231.768 297.098 231.758C295.887 231.768 295.076 232.793 295.086 234.688C295.076 236.611 295.877 237.646 297.098 237.637C298.045 237.646 298.729 237.021 298.875 235.898H301.941C301.854 238.486 300.008 240.195 297.059 240.195ZM309.559 229.395V231.816H307.625V236.68C307.635 237.344 307.967 237.549 308.523 237.559C308.797 237.578 309.324 237.549 309.695 237.52V240.039C309.373 240.088 308.826 240.146 308.055 240.156C305.721 240.146 304.324 239.189 304.344 237.051V231.816H302.918V229.395H304.344V226.855H307.625V229.395H309.559ZM313.113 240.195C312.146 240.195 311.336 239.404 311.355 238.418C311.336 237.461 312.146 236.68 313.113 236.68C314.051 236.68 314.881 237.461 314.891 238.418C314.881 239.404 314.051 240.195 313.113 240.195ZM317.098 243.984V229.395H320.359V231.211H320.477C320.867 230.254 321.775 229.258 323.465 229.258C325.711 229.258 327.703 230.986 327.703 234.707C327.703 238.301 325.818 240.156 323.465 240.156C321.834 240.156 320.887 239.248 320.477 238.281H320.398V243.984H317.098ZM320.32 234.688C320.32 236.445 321.062 237.578 322.332 237.578C323.621 237.578 324.334 236.436 324.324 234.688C324.334 232.959 323.631 231.836 322.332 231.836C321.053 231.836 320.32 232.93 320.32 234.688ZM333.328 240.156C330.965 240.156 329.07 238.301 329.07 234.707C329.07 230.986 331.072 229.258 333.309 229.258C335.008 229.258 335.916 230.254 336.316 231.211H336.395V225.859H339.676V240H336.414V238.281H336.316C335.887 239.248 334.949 240.156 333.328 240.156ZM332.449 234.688C332.449 236.436 333.162 237.578 334.441 237.578C335.721 237.578 336.463 236.445 336.453 234.688C336.463 232.93 335.721 231.836 334.441 231.836C333.152 231.836 332.449 232.959 332.449 234.688ZM347.762 229.395V231.816H345.75V240H342.449V231.816H341.004V229.395H342.449V228.809C342.449 226.406 343.855 225.195 346.062 225.195C346.814 225.195 347.391 225.264 347.957 225.371V227.812C347.508 227.773 347.205 227.764 347.059 227.754C346.229 227.764 345.74 228.076 345.75 228.887V229.395H347.762Z" fill="black"/>
</svg>
